<?xml version="1.0" encoding="utf-8"?>
<!-- Generator: Adobe Illustrator 17.0.0, SVG Export Plug-In . SVG Version: 6.00 Build 0)  -->
<!DOCTYPE svg PUBLIC "-//W3C//DTD SVG 1.1//EN" "http://www.w3.org/Graphics/SVG/1.1/DTD/svg11.dtd">
<svg version="1.1" id="Layer_1" xmlns="http://www.w3.org/2000/svg" xmlns:xlink="http://www.w3.org/1999/xlink" x="0px" y="0px"
	 width="45px" height="45px" viewBox="0 0 45 45" enable-background="new 0 0 45 45" xml:space="preserve">
<path fill="#FFFFFF" d="M41.51,0.613H3.49C1.563,0.613,0,2.175,0,4.103v36.794c0,1.927,1.563,3.49,3.49,3.49h38.02
	c1.927,0,3.49-1.563,3.49-3.49V4.103C45,2.175,43.438,0.613,41.51,0.613z M35.011,16.686L20.403,31.293
	c-0.244,0.248-0.568,0.374-0.891,0.374c-0.323,0-0.643-0.126-0.891-0.374l-8.643-8.643c-0.492-0.496-0.492-1.299,0-1.791
	l1.194-1.194c0.496-0.492,1.299-0.492,1.791,0l6.558,6.558l12.518-12.523c0.496-0.492,1.299-0.492,1.791,0l1.194,1.194
	C35.515,15.387,35.515,16.186,35.011,16.686z"/>
</svg>
