<?xml version="1.0" encoding="utf-8"?>
<!-- Generator: Adobe Illustrator 17.0.0, SVG Export Plug-In . SVG Version: 6.00 Build 0)  -->
<!DOCTYPE svg PUBLIC "-//W3C//DTD SVG 1.1//EN" "http://www.w3.org/Graphics/SVG/1.1/DTD/svg11.dtd">
<svg version="1.1" id="Layer_1" xmlns="http://www.w3.org/2000/svg" xmlns:xlink="http://www.w3.org/1999/xlink" x="0px" y="0px"
	 width="100px" height="100px" viewBox="0 0 100 100" enable-background="new 0 0 100 100" xml:space="preserve">
<g>
	<circle fill="#0057A3" cx="49.516" cy="59.217" r="9.503"/>
	<path fill="#0057A3" d="M50,0.678C22.662,0.678,0.5,22.76,0.5,50S22.662,99.322,50,99.322c27.338,0,49.5-22.082,49.5-49.322
		S77.338,0.678,50,0.678z M67.199,54.09c1.134,2.488,1.766,5.251,1.766,8.161c0,10.885-8.838,19.714-19.737,19.714
		c-10.899,0-19.737-8.829-19.737-19.714c0-3.059,0.698-5.955,1.944-8.538c-2.533-0.977-4.319-3.346-4.319-6.112
		c0-3.639,3.089-6.589,6.901-6.589c0.199,0,0.397,0.009,0.592,0.025c-0.855-1.981-1.329-4.161-1.329-6.45
		c0-9.139,7.55-16.552,16.86-16.552S67,25.448,67,34.587c0,2.282-0.472,4.456-1.322,6.433c0.111-0.005,0.221-0.008,0.333-0.008
		c3.81,0,6.901,2.95,6.901,6.589C72.911,50.852,70.444,53.553,67.199,54.09z"/>
	<path fill="#0057A3" d="M49.837,21.166c-1.315,4.673-6.006,7.262-11.091,5.876c-1.19,1.852-1.874,4.017-1.874,6.332
		c0,6.834,5.958,12.374,13.307,12.374c7.347,0,13.307-5.541,13.307-12.374c0-2.35-0.706-4.548-1.928-6.419
		C55.376,28.468,51.197,25.998,49.837,21.166z M43.01,31.439c0-1.248,1.011-2.259,2.257-2.259c1.246,0,2.257,1.011,2.257,2.259
		c0,1.246-1.011,2.256-2.257,2.256C44.021,33.694,43.01,32.685,43.01,31.439z M53.652,38.701c-0.752,0.495-1.497,0.84-2.232,1.031
		c0.079,0.176,0.123,0.371,0.123,0.576c0,0.782-0.634,1.414-1.416,1.414c-0.78,0-1.414-0.632-1.414-1.414
		c0-0.195,0.04-0.38,0.112-0.548c-0.751-0.187-1.486-0.544-2.201-1.072c-0.195-0.142-0.237-0.417-0.095-0.611
		c0.143-0.196,0.417-0.238,0.611-0.095c0.592,0.435,1.192,0.735,1.799,0.9c-0.143-0.221-0.226-0.484-0.226-0.766
		c0-0.782,0.634-1.414,1.414-1.414c0.782,0,1.416,0.632,1.416,1.414c0,0.266-0.073,0.517-0.203,0.729
		c0.6-0.173,1.21-0.464,1.832-0.875c0.201-0.132,0.472-0.076,0.604,0.125C53.909,38.297,53.853,38.568,53.652,38.701z
		 M54.909,33.694c-1.246,0-2.257-1.009-2.257-2.256c0-1.248,1.011-2.259,2.257-2.259c1.248,0,2.259,1.011,2.259,2.259
		C57.168,32.685,56.157,33.694,54.909,33.694z"/>
</g>
</svg>
