<?xml version="1.0" encoding="utf-8"?>
<!-- Generator: Adobe Illustrator 17.0.0, SVG Export Plug-In . SVG Version: 6.00 Build 0)  -->
<!DOCTYPE svg PUBLIC "-//W3C//DTD SVG 1.1//EN" "http://www.w3.org/Graphics/SVG/1.1/DTD/svg11.dtd">
<svg version="1.1" id="Camada_1" xmlns="http://www.w3.org/2000/svg" xmlns:xlink="http://www.w3.org/1999/xlink" x="0px" y="0px"
	 width="40px" height="40px" viewBox="0 0 40 40" enable-background="new 0 0 40 40" xml:space="preserve">
<g>
	<path fill="#FFFFFF" d="M19.985,6C27.674,5.986,33.969,12.26,34,19.966C34.03,27.661,27.737,33.98,20.022,34
		C12.305,34.02,6.018,27.75,6,20.018C5.982,12.302,12.255,6.014,19.985,6z M20.033,32.065c6.66-0.025,12.046-5.433,12.032-12.082
		c-0.013-6.668-5.444-12.077-12.099-12.049C13.304,7.962,7.92,13.37,7.935,20.018C7.95,26.69,13.373,32.09,20.033,32.065z"/>
	<path fill="#FFFFFF" d="M21.088,17.29c0.688,0.69,1.392,1.365,2.057,2.076c0.584,0.625,1.341,0.272,1.622-0.28
		c0.175-0.342,0.136-0.67-0.134-0.947c-1.298-1.33-2.598-2.658-3.903-3.981c-0.385-0.39-1.086-0.309-1.485,0.145
		c-0.24,0.274-0.483,0.545-0.743,0.8c-0.972,0.957-1.947,1.911-2.931,2.857c-0.288,0.277-0.457,0.577-0.307,0.972
		c0.169,0.446,0.495,0.755,0.975,0.773c0.214,0.008,0.48-0.13,0.644-0.284c0.657-0.617,1.284-1.268,1.923-1.905
		c0.066-0.066,0.139-0.126,0.267-0.242c0,0.181,0,0.293,0,0.405c0,2.481-0.002,4.963,0.001,7.444
		c0.001,0.751,0.591,1.174,1.305,0.944c0.401-0.129,0.583-0.391,0.585-0.854c0.015-2.503,0.028-5.006,0.042-7.508
		c0.001-0.127,0-0.254,0-0.381C21.035,17.313,21.062,17.302,21.088,17.29z"/>
</g>
</svg>
