<?xml version="1.0" encoding="utf-8"?>
<!-- Generator: Adobe Illustrator 17.0.0, SVG Export Plug-In . SVG Version: 6.00 Build 0)  -->
<!DOCTYPE svg PUBLIC "-//W3C//DTD SVG 1.1//EN" "http://www.w3.org/Graphics/SVG/1.1/DTD/svg11.dtd">
<svg version="1.1" id="Layer_1" xmlns="http://www.w3.org/2000/svg" xmlns:xlink="http://www.w3.org/1999/xlink" x="0px" y="0px"
	 width="100px" height="100px" viewBox="0 0 100 100" enable-background="new 0 0 100 100" xml:space="preserve">
<g>
	<path fill="#0057A3" d="M30.187,83.336c-0.22-5.595,1.402-10.075,5.006-15.446c1.002-1.492,2.043-2.988,3.036-4.478
		c-2.892-1.614-14.401-7.791-17.462-10.023c-3.531-2.575-6.917-4.784-7.726-7.433c-0.811-2.651,5.593-9.862,8.98-14.65
		c2.953-4.172,7.735-13.07,10.08-17.416c0.562-1.041,0.928-2.175,1.083-3.349c0.223-1.666,0.582-4.256,0.971-6.654
		c-1.152,0.388-2.291,0.802-3.403,1.273C12.976,12.671,0.5,30.269,0.5,50.78c0,22.342,14.802,41.226,35.133,47.381
		c0.665,0.202,1.338,0.385,2.015,0.559C35.966,93.953,30.376,88.084,30.187,83.336z"/>
	<path fill="#0057A3" d="M24.645,44.425c-0.126,0.184-0.013,0.442,0.207,0.476c0.93,0.155,3.191,0.763,6.444,3.187
		c3.801,2.833,8.906,6.739,10.857,8.609c0.717-1.578,1.234-3.127,1.431-4.633c0.662-5.006-0.589-10.011-1.765-13.47
		c-0.935-2.741-2.284-5.205-2.804-6.109c-0.103-0.182-0.354-0.21-0.497-0.057c-0.725,0.788-2.818,2.948-5.752,5.063
		C29.314,39.974,26.12,42.267,24.645,44.425z"/>
	<path fill="#0057A3" d="M60.031,2.298c-2.863-0.59-5.815-0.933-8.835-1.004C50.798,1.284,50.4,1.28,50,1.28
		c-0.029,0-0.057,0.001-0.086,0.001c0.979,2.532,2.378,4.906,4.196,6.768c1.987,2.035,6.448,5.662,9.361,6.848
		c4.25,1.727,10.186,4.883,9.933,10.314c-0.172,3.726-3.032,6.06-6.536,7.445c-0.235,0.092-0.268,0.411-0.059,0.549
		c2.911,1.913,18.248,12.781,18.248,25.65c0,6.576-2.561,14.598-9.506,19.522c-5.826,4.13-8.694,4.818-9.577,6.536
		c-0.639,1.237-1.283,8.156-1.694,13.268C84.656,92.051,99.5,73.152,99.5,50.78C99.5,26.879,82.559,6.935,60.031,2.298z"/>
</g>
</svg>
