<?xml version="1.0" encoding="utf-8"?>
<!-- Generator: Adobe Illustrator 17.0.0, SVG Export Plug-In . SVG Version: 6.00 Build 0)  -->
<!DOCTYPE svg PUBLIC "-//W3C//DTD SVG 1.1//EN" "http://www.w3.org/Graphics/SVG/1.1/DTD/svg11.dtd">
<svg version="1.1" id="Layer_1" xmlns="http://www.w3.org/2000/svg" xmlns:xlink="http://www.w3.org/1999/xlink" x="0px" y="0px"
	 width="100px" height="100px" viewBox="0 0 100 100" enable-background="new 0 0 100 100" xml:space="preserve">
<path fill="#0057A3" d="M50,0.5C22.563,0.5,0.322,22.662,0.322,50S22.563,99.5,50,99.5c27.436,0,49.678-22.162,49.678-49.5
	S77.436,0.5,50,0.5z M67.884,26.001c0.45-1.286,1.66-2.034,2.704-1.672c1.044,0.362,1.525,1.698,1.076,2.984
	c-0.45,1.286-1.66,2.034-2.704,1.672C67.916,28.622,67.434,27.286,67.884,26.001z M62.641,24.386
	c0.147-1.354,1.158-2.354,2.257-2.236c1.099,0.119,1.87,1.312,1.722,2.666c-0.147,1.354-1.158,2.354-2.256,2.236
	C63.265,26.933,62.494,25.74,62.641,24.386z M58.628,21.681c1.244-0.182,2.434,0.913,2.66,2.445c0.225,1.532-0.6,2.921-1.844,3.103
	c-1.244,0.182-2.434-0.913-2.66-2.445C56.559,23.251,57.384,21.862,58.628,21.681z M38.712,35.552
	c0.225-1.532,1.416-2.627,2.66-2.445c1.244,0.182,2.069,1.571,1.844,3.103c-0.225,1.532-1.416,2.627-2.66,2.445
	C39.313,38.473,38.487,37.084,38.712,35.552z M35.102,33.576c1.099-0.119,2.109,0.882,2.256,2.236
	c0.147,1.354-0.624,2.547-1.722,2.666c-1.099,0.119-2.109-0.882-2.256-2.236C33.232,34.889,34.003,33.695,35.102,33.576z
	 M29.412,35.755c1.044-0.362,2.254,0.386,2.704,1.672c0.45,1.286-0.032,2.622-1.076,2.984c-1.044,0.362-2.254-0.386-2.704-1.672
	C27.887,37.453,28.369,36.117,29.412,35.755z M24.747,42.176c-0.461-1.073-0.129-2.245,0.742-2.617
	c0.871-0.372,1.952,0.197,2.413,1.27c0.461,1.073,0.129,2.245-0.742,2.617C26.289,43.818,25.208,43.25,24.747,42.176z
	 M43.984,65.132c2.352,3.736,3.749,11.646-3.087,13.111C34.061,79.707,28.4,64.106,26.93,55.39
	c-1.47-8.716,2.205-13.77,9.262-15.235c13.305-1.025,9.724,12.644,8.16,16.554C43.619,58.54,41.632,61.396,43.984,65.132z
	 M50.818,40.27c-0.932,2.198-3.135,3.371-4.92,2.62c-1.785-0.752-2.475-3.143-1.543-5.341c0.932-2.198,3.135-3.371,4.92-2.62
	C51.059,35.68,51.75,38.072,50.818,40.27z M49.182,28.844c-0.932-2.198-0.242-4.59,1.543-5.341c1.785-0.751,3.987,0.421,4.92,2.62
	c0.932,2.198,0.242,4.59-1.543,5.341C52.317,32.216,50.115,31.043,49.182,28.844z M73.07,43.964
	c-1.47,8.716-7.13,24.318-13.967,22.853c-6.836-1.465-5.44-9.375-3.087-13.111c2.352-3.736,0.365-6.591-0.368-8.423
	c-1.564-3.91-5.146-17.579,8.16-16.554C70.864,30.194,74.54,35.248,73.07,43.964z M75.253,30.75
	c-0.461,1.073-1.542,1.642-2.413,1.27c-0.871-0.372-1.204-1.543-0.742-2.617c0.461-1.073,1.542-1.642,2.413-1.27
	C75.382,28.506,75.714,29.677,75.253,30.75z"/>
</svg>
