<?xml version="1.0" encoding="utf-8"?>
<!-- Generator: Adobe Illustrator 17.0.0, SVG Export Plug-In . SVG Version: 6.00 Build 0)  -->
<!DOCTYPE svg PUBLIC "-//W3C//DTD SVG 1.1//EN" "http://www.w3.org/Graphics/SVG/1.1/DTD/svg11.dtd">
<svg version="1.1" id="Camada_1" xmlns="http://www.w3.org/2000/svg" xmlns:xlink="http://www.w3.org/1999/xlink" x="0px" y="0px"
	 width="40px" height="40px" viewBox="0 0 40 40" enable-background="new 0 0 40 40" xml:space="preserve">
<g>
	<g>
		<path fill="#FFFFFF" d="M24.388,26.851c0.043,0.043,0.098,0.06,0.145,0.096c0.094,0.081,0.198,0.15,0.311,0.206
			c0.019,0.008,0.035,0.022,0.054,0.029c0.185,0.083,0.39,0.13,0.606,0.13c0.216,0,0.42-0.048,0.606-0.13
			c0.021-0.009,0.039-0.023,0.06-0.033c0.109-0.054,0.21-0.122,0.302-0.2c0.048-0.037,0.105-0.055,0.15-0.099l6.48-6.481
			c0.585-0.585,0.585-1.533,0-2.118c-0.585-0.585-1.533-0.585-2.118,0l-3.981,3.981V6.328c0-0.827-0.671-1.498-1.498-1.498
			c-0.827,0-1.498,0.671-1.498,1.498v15.904l-3.98-3.981c-0.585-0.585-1.533-0.585-2.118,0c-0.585,0.585-0.585,1.533,0,2.118
			L24.388,26.851z"/>
		<path fill="#FFFFFF" d="M38.582,22.976c-0.783,0-1.418,0.635-1.418,1.418v1.854c0,2.251-1.832,4.083-4.083,4.083H17.927
			c-2.251,0-4.083-1.832-4.083-4.083v-1.854c0-0.783-0.635-1.418-1.418-1.418c-0.783,0-1.418,0.635-1.418,1.418v1.854
			c0,3.815,3.105,6.92,6.92,6.92H33.08c3.815,0,6.92-3.105,6.92-6.92v-1.854C40,23.612,39.365,22.976,38.582,22.976"/>
	</g>
</g>
</svg>
