<?xml version="1.0" encoding="utf-8"?>
<!-- Generator: Adobe Illustrator 17.0.0, SVG Export Plug-In . SVG Version: 6.00 Build 0)  -->
<!DOCTYPE svg PUBLIC "-//W3C//DTD SVG 1.1//EN" "http://www.w3.org/Graphics/SVG/1.1/DTD/svg11.dtd">
<svg version="1.1" id="Layer_1" xmlns="http://www.w3.org/2000/svg" xmlns:xlink="http://www.w3.org/1999/xlink" x="0px" y="0px"
	 width="100px" height="100px" viewBox="0 0 100 100" enable-background="new 0 0 100 100" xml:space="preserve">
<g>
	<path fill="#0057A3" d="M66.359,54.405l0.001-4.302c-4.052-0.522-6.986-2.681-9.79-5.029c-1.056,3.388-3.511,7.161-9.2,7.531
		c-0.164,0.011-0.319-0.075-0.397-0.22c-0.078-0.145-0.063-0.322,0.036-0.453c1.303-1.707,2.06-3.401,2.363-4.933
		c-3.378,3.105-8.467,4.356-14.78,3.098l-0.001,4.232c-0.349-0.159-0.67,0.049-0.962,0.049c-3.028-0.001-2.869,7.856,1.295,7.856
		c0.089,0,0.179-0.004,0.27-0.011c0.832,2.679,3.162,6.039,7.29,9.07c0.653,0.479,1.458,0.741,2.286,0.741l11.231,0.002
		c0.905,0,1.778-0.274,2.505-0.784c4.581-3.217,6.148-4.396,7.242-9.01h0.015c4.033,0,3.844-7.948,1.167-7.95
		C66.752,54.292,66.561,54.329,66.359,54.405z M43.024,58.252c-1.084,0-1.961-0.878-1.961-1.961c0-0.39,0.115-0.753,0.311-1.058
		c0.349-0.543,0.957-0.903,1.65-0.903c0.912,0,1.678,0.625,1.896,1.47c0.041,0.157,0.064,0.322,0.064,0.492
		C44.984,57.375,44.106,58.252,43.024,58.252z M50.483,63.26c-1.078,0-1.952-0.739-1.961-1.653c0.539,0.365,1.219,0.583,1.961,0.583
		c0.742,0,1.422-0.218,1.961-0.583C52.435,62.521,51.561,63.26,50.483,63.26z M57.924,58.254c-1.083,0-1.96-0.878-1.96-1.961
		c0-0.196,0.029-0.384,0.082-0.563c0.242-0.809,0.991-1.398,1.879-1.398c0.648,0,1.221,0.316,1.577,0.8
		c0.24,0.325,0.384,0.726,0.384,1.162C59.885,57.377,59.007,58.254,57.924,58.254z"/>
	<path fill="#0057A3" d="M50,0.678C22.662,0.678,0.5,22.76,0.5,50S22.662,99.322,50,99.322c27.338,0,49.5-22.082,49.5-49.322
		S77.338,0.678,50,0.678z M75.27,45.787c-0.354,0.183-0.785,0.123-1.074-0.15c-0.365-0.344-0.776-0.707-1.225-1.067
		c-0.262,2.173-0.862,4.399-1.856,6.636c1.564,1.476,2.52,3.828,2.519,6.625c0,3.643-1.558,6.602-4.008,8.1
		c-1.609,4.649-3.549,5.933-8.11,9.135c-1.607,1.129-3.514,1.725-5.514,1.725L44.771,76.79c-1.939,0-3.849-0.62-5.381-1.744
		c-4.008-2.943-6.093-5.229-7.699-8.758c-1.442-0.67-2.665-1.8-3.538-3.313c-1.707-2.956-1.814-6.93-0.294-9.765
		c-0.692-0.58-1.782-1.612-2.763-3.036c-0.125,0.474-0.231,0.972-0.312,1.496c-0.028,0.182-0.169,0.327-0.35,0.36
		c-0.181,0.034-0.364-0.051-0.456-0.211c-4.172-7.256-1.504-12.931,1.859-15.623c0.95-0.887,1.994-1.409,2.928-1.716
		c-0.712-0.521-1.675-0.927-2.981-1.026c-0.154-0.012-0.286-0.115-0.334-0.262c-0.048-0.147-0.002-0.308,0.116-0.408
		c0.837-0.711,2.409-1.671,4.316-1.054l-1.077-1.994c-0.053-0.098-0.06-0.213-0.021-0.317c0.04-0.104,0.122-0.185,0.227-0.223
		c0.583-0.21,1.784-0.365,3.379,0.876c0.656-1.781,1.824-3.882,3.898-5.69l-0.002,0c0,0,8.848-9.038,25.238-5.188
		c0.388,0.091,0.676,0.417,0.719,0.812c0.043,0.396-0.168,0.776-0.527,0.948c-0.594,0.284-1.247,0.631-1.906,1.04
		c1.439,0.63,2.808,1.419,4.085,2.341c3.449,2.294,10.169,8.24,11.873,20.489C75.823,45.218,75.623,45.604,75.27,45.787z"/>
</g>
</svg>
