<?xml version="1.0" encoding="utf-8"?>
<!-- Generator: Adobe Illustrator 17.0.0, SVG Export Plug-In . SVG Version: 6.00 Build 0)  -->
<!DOCTYPE svg PUBLIC "-//W3C//DTD SVG 1.1//EN" "http://www.w3.org/Graphics/SVG/1.1/DTD/svg11.dtd">
<svg version="1.1" id="Layer_1" xmlns="http://www.w3.org/2000/svg" xmlns:xlink="http://www.w3.org/1999/xlink" x="0px" y="0px"
	 width="40px" height="40px" viewBox="-145.151 280.828 40 40" enable-background="new -145.151 280.828 40 40"
	 xml:space="preserve">
<circle fill="#00ADEE" cx="-129.15" cy="300.828" r="15"/>
<g>
	<path fill="#FFFFFF" d="M-138.15,299.794c0-0.396,0-0.792,0-1.188c0.058-0.337,0.108-0.675,0.176-1.009
		c0.596-2.897,3.095-5.281,6.002-5.726c0.33-0.051,0.663-0.087,0.995-0.13c0.176,0,0.352,0,0.528,0
		c0.324,0.043,0.65,0.077,0.972,0.129c4.241,0.675,7.055,5.013,5.954,9.166c-0.199,0.749-0.503,1.45-0.943,2.167
		c0.064,0.042,0.143,0.075,0.199,0.131c1.101,1.097,2.195,2.202,3.302,3.293c0.36,0.354,0.684,0.72,0.813,1.222
		c0,0.176,0,0.352,0,0.528c-0.018,0.045-0.039,0.09-0.052,0.137c-0.151,0.524-0.464,0.925-0.947,1.173
		c-0.209,0.107-0.448,0.156-0.673,0.231c-0.073,0-0.147,0-0.22,0c-0.61-0.088-1.03-0.47-1.442-0.89
		c-1.089-1.109-2.197-2.2-3.292-3.303c-0.111-0.112-0.187-0.129-0.332-0.048c-1.522,0.845-3.15,1.134-4.862,0.835
		c-3.036-0.53-5.344-2.761-6.012-5.774C-138.051,300.424-138.095,300.108-138.15,299.794z M-130.735,304.304
		c2.782,0.006,5.098-2.278,5.134-5c0.038-2.837-2.226-5.219-5.103-5.23c-2.822-0.011-5.122,2.285-5.132,5.11
		C-135.847,301.985-133.541,304.299-130.735,304.304z"/>
	<path fill="#FFFFFF" d="M-134.284,297.808c0.65-1.602,2.318-2.543,4.117-2.318c1.872,0.234,3.031,1.597,3.317,2.913
		c-0.982-1.087-2.177-1.711-3.616-1.817C-131.895,296.481-133.167,296.907-134.284,297.808z"/>
</g>
</svg>
