<?xml version="1.0" encoding="utf-8"?>
<!-- Generator: Adobe Illustrator 17.0.0, SVG Export Plug-In . SVG Version: 6.00 Build 0)  -->
<!DOCTYPE svg PUBLIC "-//W3C//DTD SVG 1.1//EN" "http://www.w3.org/Graphics/SVG/1.1/DTD/svg11.dtd">
<svg version="1.1" id="Layer_1" xmlns="http://www.w3.org/2000/svg" xmlns:xlink="http://www.w3.org/1999/xlink" x="0px" y="0px"
	 width="100px" height="100px" viewBox="0 0 100 100" enable-background="new 0 0 100 100" xml:space="preserve">
<path fill="#0057A3" d="M92.73,25.002c0.337,4.042-0.026,7.882-1.489,10.758c-1.887,3.71-5.425,5.435-9.966,4.859
	c-4.687-0.595-7.559-0.437-9.042,0.498c-1.189,0.75-1.731,2.155-2.665,4.781c-0.724,2.035-1.624,4.568-3.284,7.394
	c-3.192,5.433-8.092,7.357-12.428,7.69c2.631,0.594,5.898,0.487,9.121-0.967c6.458-2.915,9.989,7.674,12.031,9.358
	c2.043,1.683,1.793-0.379,5.347,0.354c3.554,0.733-2.86,8.061-6.725,5.795c-3.865-2.265-5.263-6.543-8.646-6.029
	c-3.384,0.513-1.48,3.491-5.999,9.442c-4.519,5.951-23.226,8.451-29.643-7.465c-5.638-13.983,5.259-22.085,1.811-27.266
	c-1.269-1.906-6.916-6.112-6.247-12.492c0.752-7.169,6.041-18.162,19.952-16.473c13.911,1.689,15.628,12.154,13.88,18.8
	c-0.538,2.046-1.576,2.813-1.838,4.259c2.397,9.438-5.397,7.508-8.708,9.269c-3.482,1.853-0.892,3.672,2.591,4.263
	c3.484,0.59-0.807-1.82,2.548-3.65c2.733-1.49,4.759,4.66,3.972,7.659c1.925-0.798,3.814-2.236,5.275-4.722
	c1.453-2.474,2.244-4.696,2.941-6.657c1.932-5.432,3.587-10.15,12.141-10.216c0,0,0-0.001,0-0.001s4.613-0.137,6.07-3.293
	c1.077-2.333-0.374-13.37-4.542-20.928C71.005,4.035,60.916,0.5,50,0.5C22.662,0.5,0.5,22.662,0.5,50
	c0,27.338,22.162,49.5,49.5,49.5S99.5,77.338,99.5,50C99.5,40.881,97.031,32.339,92.73,25.002z"/>
</svg>
