<?xml version="1.0" encoding="utf-8"?>
<!-- Generator: Adobe Illustrator 17.0.0, SVG Export Plug-In . SVG Version: 6.00 Build 0)  -->
<!DOCTYPE svg PUBLIC "-//W3C//DTD SVG 1.1//EN" "http://www.w3.org/Graphics/SVG/1.1/DTD/svg11.dtd">
<svg version="1.1" id="Layer_1" xmlns="http://www.w3.org/2000/svg" xmlns:xlink="http://www.w3.org/1999/xlink" x="0px" y="0px"
	 width="40px" height="40px" viewBox="-145.151 280.828 40 40" enable-background="new -145.151 280.828 40 40"
	 xml:space="preserve">
<g>
	<path fill="#FFFFFF" d="M-126.384,281.328c0.826,0,1.652,0,2.478,0c0.084,0.019,0.166,0.044,0.251,0.055
		c0.678,0.089,1.361,0.146,2.033,0.266c8.826,1.584,15.501,9.134,15.961,18.092c0.247,4.804-1.076,9.16-4.034,12.961
		c-3.286,4.222-7.613,6.702-12.923,7.438c-0.6,0.083-1.206,0.127-1.809,0.188c-0.478,0-0.957,0-1.435,0
		c-0.106-0.017-0.212-0.036-0.318-0.05c-1.022-0.135-2.056-0.204-3.063-0.413c-8.213-1.703-14.516-8.724-15.324-17.064
		c-0.4-4.129,0.365-8.041,2.469-11.627c3.117-5.312,7.737-8.517,13.813-9.592C-127.655,281.471-127.018,281.411-126.384,281.328z
		 M-107.346,300.821c0.002-9.805-7.985-17.788-17.797-17.788c-9.82,0-17.8,7.968-17.806,17.777
		c-0.005,9.81,7.959,17.767,17.795,17.779C-115.336,318.601-107.348,310.631-107.346,300.821z"/>
	<path fill="#FFFFFF" d="M-125.137,295.139c2.452,2.452,4.93,4.929,7.386,7.385c-1.037,1.034-2.095,2.088-3.169,3.158
		c-1.374-1.378-2.784-2.791-4.185-4.196c-1.431,1.432-2.849,2.85-4.24,4.242c-1.104-1.104-2.16-2.16-3.209-3.21
		C-130.106,300.083-127.621,297.61-125.137,295.139z"/>
</g>
</svg>
