<?xml version="1.0" encoding="utf-8"?>
<!-- Generator: Adobe Illustrator 17.0.0, SVG Export Plug-In . SVG Version: 6.00 Build 0)  -->
<!DOCTYPE svg PUBLIC "-//W3C//DTD SVG 1.1//EN" "http://www.w3.org/Graphics/SVG/1.1/DTD/svg11.dtd">
<svg version="1.1" id="Layer_1" xmlns="http://www.w3.org/2000/svg" xmlns:xlink="http://www.w3.org/1999/xlink" x="0px" y="0px"
	 width="100px" height="100px" viewBox="0 0 100 100" enable-background="new 0 0 100 100" xml:space="preserve">
<g>
	<circle fill="#0057A3" cx="38.944" cy="47.633" r="2.349"/>
	<circle fill="#0057A3" cx="61.211" cy="47.633" r="2.349"/>
	<path fill="#0057A3" d="M43.404,33.075c0.602,0,1.193-0.137,1.757-0.408c1.333-0.64,2.613-1.269,3.629-2.144
		c0.534,0.198,1.104,0.322,1.706,0.322c0.633,0,1.233-0.13,1.79-0.349c1.02,0.889,2.315,1.523,3.661,2.17
		c0.563,0.27,1.154,0.408,1.757,0.408c3.169,0,5.538-3.731,5.538-7.067c0-3.347-2.358-7.09-5.514-7.09
		c-0.632,0-1.248,0.154-1.832,0.456l-0.399,0.206c-1.089,0.561-2.138,1.11-3.017,1.828c-0.608-0.269-1.277-0.424-1.983-0.424
		c-0.678,0-1.325,0.138-1.914,0.387c-0.87-0.7-1.901-1.24-2.971-1.791l-0.399-0.206c-0.584-0.302-1.2-0.456-1.832-0.456
		c-3.156,0-5.515,3.743-5.515,7.09C37.866,29.344,40.234,33.074,43.404,33.075z M55.081,24.132c0.563-0.409,1.314-0.798,2.133-1.22
		l0.409-0.211c0.03-0.016,0.074-0.035,0.106-0.035c0.494,0,1.765,1.589,1.765,3.341c0,1.714-1.231,3.318-1.789,3.318
		c-0.014,0-0.055,0-0.134-0.038c-1.13-0.543-1.978-0.966-2.563-1.4c0.266-0.605,0.418-1.271,0.418-1.973
		C55.427,25.285,55.297,24.687,55.081,24.132z M50.497,23.445c1.364,0,2.471,1.106,2.471,2.471c0,1.364-1.106,2.471-2.471,2.471
		c-1.364,0-2.471-1.106-2.471-2.471C48.026,24.551,49.132,23.445,50.497,23.445z M43.381,22.667c0.032,0,0.076,0.019,0.106,0.035
		l0.409,0.211c0.774,0.399,1.485,0.768,2.037,1.153c-0.233,0.572-0.367,1.194-0.367,1.849c0,0.726,0.167,1.411,0.451,2.033
		c-0.581,0.413-1.401,0.823-2.479,1.341c-0.079,0.038-0.12,0.038-0.134,0.038c-0.559,0-1.79-1.604-1.79-3.318
		C41.614,24.255,42.886,22.667,43.381,22.667z"/>
	<path fill="#0057A3" d="M50,0.678C22.662,0.678,0.5,22.76,0.5,50S22.662,99.322,50,99.322c27.338,0,49.5-22.082,49.5-49.322
		S77.338,0.678,50,0.678z M76.917,58.098C73.67,70.304,62.474,79.082,50,79.082c-12.475,0-23.67-8.778-26.916-20.984
		c-3.741-0.026-6.776-3.076-6.776-6.822c0-3.738,3.021-6.783,6.749-6.823c1.879-7.287,6.707-13.185,13.107-16.692
		c-0.11-0.585-0.173-1.174-0.173-1.754c0-4.24,3.035-8.964,7.389-8.964c0.934,0,1.84,0.224,2.694,0.666l0.396,0.205
		c0.91,0.469,1.706,0.89,2.444,1.381c1.056-0.253,2.184-0.248,3.243,0.023c0.826-0.554,1.692-0.999,2.48-1.405l0.398-0.205
		c0.851-0.441,1.757-0.665,2.692-0.665c4.354,0,7.388,4.724,7.388,8.964c0,0.765-0.103,1.545-0.292,2.311
		c5.907,3.56,10.336,9.226,12.117,16.135c3.728,0.039,6.749,3.085,6.749,6.823C83.691,55.022,80.657,58.072,76.917,58.098z"/>
	<path fill="#0057A3" d="M43.627,69.939c1.974,0.821,4.126,1.28,6.367,1.28c2.218,0,4.348-0.45,6.305-1.255
		c-2-1.726-4.089-2.587-6.289-2.552C47.174,67.454,44.838,68.968,43.627,69.939z"/>
	<path fill="#0057A3" d="M65.134,57.62H34.853c-0.29,0-0.563,0.134-0.741,0.363c-0.178,0.229-0.239,0.527-0.167,0.808
		c1.062,4.125,3.623,7.548,7.01,9.75c0.967-0.923,4.412-3.872,9.012-3.941c3.175-0.028,6.214,1.303,8.979,3.991
		c3.428-2.2,6.025-5.642,7.095-9.8c0.072-0.281,0.011-0.579-0.167-0.808C65.698,57.754,65.424,57.62,65.134,57.62z"/>
</g>
</svg>
