<?xml version="1.0" encoding="utf-8"?>
<!-- Generator: Adobe Illustrator 17.0.0, SVG Export Plug-In . SVG Version: 6.00 Build 0)  -->
<!DOCTYPE svg PUBLIC "-//W3C//DTD SVG 1.1//EN" "http://www.w3.org/Graphics/SVG/1.1/DTD/svg11.dtd">
<svg version="1.1" id="Camada_1" xmlns="http://www.w3.org/2000/svg" xmlns:xlink="http://www.w3.org/1999/xlink" x="0px" y="0px"
	 width="40px" height="40px" viewBox="0 0 40 40" enable-background="new 0 0 40 40" xml:space="preserve">
<g>
	<path fill="#2E55A2" d="M4.874,19.975c0.025-8.356,6.798-15.112,15.139-15.101c8.344,0.011,15.149,6.841,15.114,15.169
		c-0.035,8.337-6.851,15.117-15.165,15.084C11.605,35.093,4.849,28.309,4.874,19.975z M33.034,20.03
		c0.017-7.197-5.806-13.047-13.004-13.064C12.832,6.949,6.986,12.767,6.966,19.969c-0.02,7.194,5.805,13.047,13.003,13.065
		C27.163,33.053,33.018,27.226,33.034,20.03z"/>
	<path fill="#2E55A2" d="M19,22.947c0-0.202,0-0.323,0-0.445c0-2.682-0.002-5.364,0.002-8.046c0.001-0.809,0.645-1.265,1.414-1.013
		c0.435,0.143,0.626,0.421,0.629,0.924c0.017,2.717,0.033,5.433,0.049,8.15c0.001,0.124,0,0.249,0,0.441
		c0.125-0.107,0.202-0.166,0.271-0.234c0.683-0.68,1.382-1.344,2.04-2.048c0.651-0.696,1.531-0.254,1.793,0.412
		c0.129,0.328,0.086,0.64-0.169,0.901c-1.421,1.452-2.84,2.907-4.268,4.351c-0.391,0.395-1.113,0.297-1.555-0.16
		c-0.741-0.767-1.488-1.528-2.243-2.282c-0.583-0.582-1.183-1.148-1.773-1.724c-0.478-0.467-0.48-1.013-0.013-1.493
		c0.492-0.505,1.017-0.513,1.514-0.019c0.667,0.663,1.33,1.33,1.996,1.994C18.767,22.735,18.852,22.809,19,22.947z"/>
</g>
<image overflow="visible" width="517" height="581" xlink:href="3ABCFE83.jpg"  transform="matrix(0.9999 0 0 0.9999 -8621.9541 -7846.0376)">
</image>
</svg>
