<?xml version="1.0" encoding="utf-8"?>
<!-- Generator: Adobe Illustrator 17.0.0, SVG Export Plug-In . SVG Version: 6.00 Build 0)  -->
<!DOCTYPE svg PUBLIC "-//W3C//DTD SVG 1.1//EN" "http://www.w3.org/Graphics/SVG/1.1/DTD/svg11.dtd">
<svg version="1.1" id="Camada_1" xmlns="http://www.w3.org/2000/svg" xmlns:xlink="http://www.w3.org/1999/xlink" x="0px" y="0px"
	 width="45.807px" height="15.313px" viewBox="0 0 45.807 15.313" enable-background="new 0 0 45.807 15.313" xml:space="preserve">
<g opacity="0.8">
	<g>
		<path fill="#FFFFFF" d="M15.549,1.775c-0.005-0.005,0.033-0.396-0.315-0.736c-0.189-0.182-0.441-0.279-0.702-0.281h-4.17
			c-0.562,0-1.018,0.456-1.018,1.018S9.8,2.794,10.362,2.794h1.713l-2.76,2.76C8.535,5.051,7.609,4.76,6.614,4.76
			c-1.38,0-2.63,0.559-3.534,1.464C2.175,7.128,1.615,8.378,1.615,9.758s0.559,2.63,1.464,3.535
			c0.904,0.905,2.154,1.464,3.534,1.464s2.63-0.559,3.535-1.464s1.464-2.154,1.464-3.535c0-1.029-0.311-1.986-0.845-2.781
			l2.746-2.746v1.713c0,0.562,0.456,1.018,1.018,1.018c0.562,0,1.017-0.456,1.017-1.018V1.775H15.549z M8.709,11.854
			c-0.536,0.536-1.277,0.868-2.096,0.868c-0.818,0-1.559-0.332-2.095-0.868S3.65,10.577,3.65,9.759S3.982,8.2,4.518,7.664
			s1.277-0.868,2.095-0.868c0.819,0,1.56,0.332,2.096,0.868C9.246,8.199,9.577,8.94,9.577,9.758
			C9.577,10.577,9.246,11.318,8.709,11.854"/>
	</g>
	<g>
		<path fill="#FFFFFF" d="M26.376,9.205v1.3h-1.353c-0.478,0-0.866,0.387-0.866,0.865s0.388,0.865,0.866,0.865h1.353v1.623
			c0,0.478,0.387,0.865,0.865,0.865s0.866-0.387,0.866-0.865v-1.623h1.353c0.478,0,0.865-0.387,0.865-0.865
			s-0.387-0.865-0.865-0.865h-1.353v-1.3c0.827-0.171,1.566-0.582,2.141-1.157c0.769-0.769,1.245-1.832,1.245-3.006
			s-0.476-2.237-1.245-3.006c-0.769-0.769-1.832-1.246-3.007-1.246c-1.174,0-2.237,0.476-3.006,1.246
			c-0.769,0.769-1.245,1.832-1.245,3.006s0.476,2.237,1.245,3.006C24.811,8.623,25.55,9.034,26.376,9.205 M25.46,3.26
			c0.456-0.456,1.086-0.738,1.782-0.738s1.326,0.282,1.782,0.738s0.738,1.086,0.738,1.782s-0.282,1.326-0.738,1.782
			c-0.456,0.456-1.087,0.738-1.782,0.738c-0.696,0-1.326-0.282-1.782-0.738s-0.738-1.086-0.738-1.782S25.004,3.716,25.46,3.26"/>
	</g>
</g>
<text transform="matrix(1 0 0 1 394.111 396.757)" font-family="'MyriadPro-Regular'" font-size="12">sprite-icons-sexo.svg</text>
<g opacity="0.8">
	<path fill="#FFFFFF" d="M38.341,10.009V9.323c0-0.593,0.127-1.109,0.38-1.548s0.717-0.906,1.391-1.4
		c0.649-0.464,1.077-0.841,1.284-1.131c0.207-0.291,0.311-0.615,0.311-0.974c0-0.402-0.148-0.708-0.445-0.918
		s-0.711-0.315-1.242-0.315c-0.927,0-1.984,0.303-3.171,0.909l-1.011-2.03c1.378-0.773,2.84-1.159,4.385-1.159
		c1.273,0,2.285,0.306,3.036,0.918s1.126,1.428,1.126,2.448c0,0.68-0.155,1.267-0.464,1.762s-0.896,1.051-1.762,1.669
		c-0.593,0.439-0.969,0.773-1.126,1.001s-0.236,0.528-0.236,0.899v0.556H38.341z M38.044,13.18c0-0.519,0.139-0.912,0.417-1.177
		c0.278-0.266,0.683-0.399,1.215-0.399c0.513,0,0.91,0.136,1.191,0.408c0.281,0.272,0.422,0.661,0.422,1.168
		c0,0.488-0.142,0.873-0.426,1.154c-0.284,0.281-0.68,0.422-1.187,0.422c-0.519,0-0.921-0.138-1.205-0.413
		C38.186,14.069,38.044,13.681,38.044,13.18z"/>
</g>
</svg>
