<?xml version="1.0" encoding="utf-8"?>
<!-- Generator: Adobe Illustrator 17.0.0, SVG Export Plug-In . SVG Version: 6.00 Build 0)  -->
<!DOCTYPE svg PUBLIC "-//W3C//DTD SVG 1.1//EN" "http://www.w3.org/Graphics/SVG/1.1/DTD/svg11.dtd">
<svg version="1.1" id="Camada_1" xmlns="http://www.w3.org/2000/svg" xmlns:xlink="http://www.w3.org/1999/xlink" x="0px" y="0px"
	 width="320px" height="72px" viewBox="0 0 320 72" enable-background="new 0 0 320 72" xml:space="preserve">
<g>
	<defs>
		<rect id="SVGID_1_" x="38.727" y="3.602" width="242.546" height="64.796"/>
	</defs>
	<clipPath id="SVGID_2_">
		<use xlink:href="#SVGID_1_"  overflow="visible"/>
	</clipPath>
	<path clip-path="url(#SVGID_2_)" fill="#001689" d="M126.817,14.704h-7.141v24.458h6.899c7.48,0,15.068-2.073,15.068-12.783
		C141.643,14.873,131.492,14.704,126.817,14.704 M127.749,34.938h-2.665V18.961h2.489c3.331,0,8.492,0.903,8.492,7.768
		C136.065,33.137,132.458,34.938,127.749,34.938 M152.127,14.67c-4.539,7.17-6.899,16.282-8.248,24.492h5.437
		c0.277-1.937,0.66-3.947,1.112-5.923h9.361c0.48,1.976,0.824,3.986,1.067,5.923h5.963c-1.418-8.384-3.704-17.011-8.277-24.492
		H152.127z M151.224,29.185c0.971-3.709,2.259-7.204,3.845-10.394h0.068c1.631,3.218,2.879,6.758,3.851,10.394H151.224z
		 M186.753,14.704h4.99v24.458h-4.917l-8.801-12.156c-1.254-1.699-1.909-3.19-2.118-3.748h-0.073v15.905h-5.019V14.704h4.951
		l8.666,12.613c1.321,1.903,2.111,3.326,2.247,3.912h0.074V14.704z M207.376,13.976c-5.228,0-11.432,3.393-11.432,12.923
		c0,9.632,5.267,12.924,11.364,12.924c5.234,0,11.439-3.393,11.439-12.924C218.747,17.262,213.479,13.976,207.376,13.976
		 M207.342,35.424c-4.398,0-5.82-3.952-5.82-8.526c0-4.578,1.355-8.525,5.82-8.525c4.41,0,5.821,3.947,5.821,8.525
		C213.164,31.472,211.82,35.424,207.342,35.424 M238.886,14.704h4.99v24.458h-4.923l-8.796-12.156
		c-1.247-1.699-1.908-3.19-2.116-3.748h-0.068v15.905h-5.025V14.704h4.957l8.666,12.613c1.31,1.903,2.106,3.326,2.247,3.912h0.068
		V14.704z M253.835,19.102v5.025h9.388v4.223h-9.388v6.414h11.721v4.398h-17.124V32.86V14.704h17.124v4.398H253.835z"/>
	<path clip-path="url(#SVGID_2_)" fill="#001689" d="M92.649,55.272c0.683,1.021,2.987,4.008,2.987,4.008
		c5.6-5.911,9.045-13.9,9.045-22.69c0-18.213-14.77-32.988-32.977-32.988c-18.219,0-32.976,14.774-32.976,32.988
		c0,15.227,10.201,28.019,24.226,31.808c0,0,0.175-3.596,3.766-6.03c4.776-3.229,7.249-2.874,8.66-4.104
		c1.021-0.898-0.966-6.538-1.282-6.989c-0.322-0.452-0.514-1.09-3.98-1.479c-3.461-0.378-2.947-1.982-2.693-3.009
		c0.259-1.027,0.514-1.987-0.13-2.439c-0.638-0.446-0.26-0.83-0.26-0.83l1.096-0.903c-0.447-0.186-1.796-1.005-1.412-1.468
		c0.835-1.027,0.965-1.948,0.965-1.948s-1.801-1.259-1.219-2.032c0.384-0.508,1.614-0.729,2.884-1.666
		c1.734-1.287,1.734-2.247,1.734-2.247s-0.153-0.553,0.192-2.608c0.338-2.055,1.535-4.105,1.535-4.105h-1.366
		c0,0,0.147-0.921,2.055-2.393c2.433-1.892,6.047-2.055,6.047-2.055l-1.773-0.852l1.372-0.345c1.665-0.417,4.951,0.175,4.951,0.175
		l-2.732-2.061c0,0,4.788-0.508,11.111,2.569c6.335,3.082,5.646,7.187,5.646,7.187s2.738,0.508,3.427,4.956
		c1.051,6.843-8.554,16.938-8.554,16.938l-0.344-1.372c0,0-1.333,1.716-1.541,3.416C90.944,54.12,91.967,54.25,92.649,55.272
		 M55.54,31.847l-3.766-4.968l-3.077,1.71l2.219-4.787l-1.874-3.936l2.908,1.372l3.421-4.28l-0.519,5.307l3.596,1.536l-3.596,1.88
		L55.54,31.847z M73.262,34.795l0.124-0.39c0,0-0.186-0.514,0-1.021c0.198-0.514,0.711-0.706,0.711-0.706l-0.13-0.768
		c0,0,1.152,1.728,1.603,2.049c0.452,0.322,0.57,0.773,0.254,0.836C75.503,34.857,73.262,34.795,73.262,34.795"/>
	<path clip-path="url(#SVGID_2_)" fill="#2AABE3" d="M120.997,57.527c-0.819-0.638-1.315-1.513-1.315-3.354V43.43h7.904v1.897
		h-5.787v3.816h5.589v1.841h-5.589v2.969c0,0.739,0.096,1.276,0.559,1.677h5.527v1.897H120.997z"/>
	<path clip-path="url(#SVGID_2_)" fill="#2AABE3" d="M137.256,57.702c-1.055,0-1.355-0.717-1.434-1.57
		c-0.836,1.074-1.795,1.694-3.235,1.694c-1.755,0-3.054-1.254-3.054-2.97c0-2.879,2.896-3.421,5.233-3.421
		c0.757,0,0.915-0.017,0.915-0.316v-0.96c0-1.055-0.638-1.953-2.213-1.953c-1.197,0-2.022,0.497-2.574,1.056l-0.903-1.44
		c1.039-0.836,2.219-1.214,3.895-1.214c1.762,0,3.63,0.841,3.63,3.551v5.353c0,0.4,0.085,0.678,0.463,0.678
		c0.141,0,0.322-0.04,0.457-0.079l0.141,1.377C138.256,57.589,137.736,57.702,137.256,57.702 M135.664,52.796
		c-0.321,0-0.66-0.017-0.999-0.017c-1.355,0-3.219,0.237-3.219,1.897c0,0.915,0.723,1.597,1.74,1.597
		c0.858,0,1.558-0.344,2.038-0.92c0.316-0.361,0.44-0.678,0.44-1.197V52.796z"/>
	<path clip-path="url(#SVGID_2_)" fill="#2AABE3" d="M145.155,48.906c-0.22-0.101-0.536-0.237-0.875-0.237
		c-0.802,0-1.242,0.356-1.677,0.853c-0.344,0.384-0.384,0.756-0.384,1.276v6.73h-1.914v-8.525c0-0.441-0.119-0.717-0.457-0.717
		c-0.141,0-0.339,0.04-0.48,0.08l-0.135-1.372c0.333-0.108,0.836-0.22,1.315-0.22c1.033,0,1.456,0.678,1.434,1.829
		c0.621-0.977,1.416-1.937,2.715-1.937c0.361,0,0.734,0.108,0.977,0.181L145.155,48.906z"/>
	<path clip-path="url(#SVGID_2_)" fill="#2AABE3" d="M149.056,57.708c-1.095,0-1.733-0.581-1.733-1.7v-13.25h1.913v12.753
		c0,0.396,0.096,0.684,0.458,0.684c0.141,0,0.338-0.046,0.48-0.084l0.141,1.377C150.015,57.584,149.536,57.708,149.056,57.708"/>
	<path clip-path="url(#SVGID_2_)" fill="#2AABE3" d="M150.795,61.84l-0.039-1.637c1.699-0.079,3.014-1.039,4.11-2.653
		c-2.49-3.133-3.393-6.65-3.93-10.62h2.101c0.316,3.37,1.129,6.165,2.868,8.779h0.045c1.197-2.552,1.913-5.905,2.049-8.779h1.88
		C159.218,54.195,156.141,61.699,150.795,61.84"/>
	<polygon clip-path="url(#SVGID_2_)" fill="#2AABE3" points="167.704,57.527 167.704,43.43 169.815,43.43 169.815,55.63 
		176.003,55.63 176.003,57.527 	"/>
	<path clip-path="url(#SVGID_2_)" fill="#2AABE3" d="M178.736,44.994c-0.717,0-1.174-0.503-1.174-1.181
		c0-0.7,0.457-1.197,1.174-1.197c0.723,0,1.157,0.497,1.157,1.197C179.893,44.491,179.458,44.994,178.736,44.994 M179.475,57.708
		c-1.095,0-1.716-0.581-1.716-1.7V46.93h1.914v8.581c0,0.396,0.085,0.684,0.463,0.684c0.141,0,0.344-0.046,0.48-0.084l0.124,1.377
		C180.452,57.584,179.955,57.708,179.475,57.708"/>
	<path clip-path="url(#SVGID_2_)" fill="#2AABE3" d="M188.904,44.734c-0.52-0.344-1.101-0.565-1.779-0.565
		c-1.456,0-2.179,0.904-2.179,2.18v0.779h2.761v1.536h-2.738v12.855h-1.914V48.663h-1.835v-1.536h1.818v-0.756
		c0-2.281,1.812-3.834,3.952-3.834c1.056,0,1.813,0.22,2.49,0.577L188.904,44.734z"/>
	<path clip-path="url(#SVGID_2_)" fill="#2AABE3" d="M190.292,52.637c0,0.079,0.017,0.141,0.017,0.22
		c0.102,1.937,1.338,3.332,3.472,3.332c0.976,0,1.953-0.418,2.558-0.881l0.632,1.519c-0.813,0.564-2.134,1.038-3.528,1.038
		c-3.292,0-5.047-2.393-5.047-5.566c0-2.738,1.417-5.691,4.629-5.691c2.614,0,4.11,1.818,4.133,4.511
		C195.103,52.079,192.822,52.616,190.292,52.637 M192.946,48.104c-1.779,0-2.574,1.44-2.654,3.077
		c1.914-0.04,3.529-0.299,5.048-1.017C195.221,48.946,194.318,48.104,192.946,48.104"/>
	<path clip-path="url(#SVGID_2_)" fill="#2AABE3" d="M214.857,57.527l-5.984-8.26c-0.841-1.163-1.22-1.92-1.361-2.264h-0.034v10.524
		h-1.976V43.43h1.993l5.747,8.214c0.858,1.236,1.4,2.128,1.558,2.529h0.056V43.43h1.953v14.097H214.857z"/>
	<path clip-path="url(#SVGID_2_)" fill="#2AABE3" d="M227.65,57.708c-1.236,0-1.497-0.757-1.536-1.66
		c-0.757,1.078-1.761,1.795-3.173,1.795c-2.077,0-3.314-1.372-3.314-3.569V46.93h1.914v6.983c0,1.321,0.723,2.156,2.038,2.156
		c0.796,0,1.496-0.355,1.953-0.959c0.384-0.481,0.441-0.717,0.441-1.361V46.93h1.913v8.581c0,0.396,0.102,0.684,0.48,0.684
		c0.125,0,0.322-0.046,0.463-0.084l0.141,1.377C228.627,57.584,228.131,57.708,227.65,57.708"/>
	<path clip-path="url(#SVGID_2_)" fill="#2AABE3" d="M234.086,57.865c-1.897,0-2.817-1.197-2.817-2.952v-6.227h-1.841V47.15h1.864
		v-2.281l1.896-0.66v2.941h2.733v1.536h-2.733v5.99c0,1.112,0.577,1.57,1.514,1.57c0.496,0,0.92-0.113,1.18-0.26l0.293,1.541
		C235.678,57.725,234.866,57.865,234.086,57.865"/>
	<path clip-path="url(#SVGID_2_)" fill="#2AABE3" d="M243.064,48.906c-0.22-0.101-0.542-0.237-0.881-0.237
		c-0.796,0-1.236,0.356-1.677,0.853c-0.338,0.384-0.384,0.756-0.384,1.276v6.73h-1.913v-8.525c0-0.441-0.119-0.717-0.451-0.717
		c-0.147,0-0.345,0.04-0.48,0.08l-0.141-1.372c0.333-0.108,0.842-0.22,1.31-0.22c1.045,0,1.462,0.678,1.446,1.829
		c0.615-0.977,1.412-1.937,2.716-1.937c0.356,0,0.733,0.108,0.976,0.181L243.064,48.906z"/>
	<path clip-path="url(#SVGID_2_)" fill="#2AABE3" d="M246.293,44.994c-0.717,0-1.175-0.503-1.175-1.181
		c0-0.7,0.458-1.197,1.175-1.197c0.723,0,1.163,0.497,1.163,1.197C247.455,44.491,247.015,44.994,246.293,44.994 M247.032,57.708
		c-1.094,0-1.716-0.581-1.716-1.7V46.93h1.92v8.581c0,0.396,0.079,0.684,0.457,0.684c0.141,0,0.345-0.046,0.48-0.084l0.123,1.377
		C248.009,57.584,247.513,57.708,247.032,57.708"/>
	<path clip-path="url(#SVGID_2_)" fill="#2AABE3" d="M253.417,57.865c-1.897,0-2.817-1.197-2.817-2.952v-6.227h-1.834V47.15h1.863
		v-2.281l1.892-0.66v2.941h2.738v1.536h-2.738v5.99c0,1.112,0.581,1.57,1.519,1.57c0.496,0,0.914-0.113,1.179-0.26l0.293,1.541
		C255.015,57.725,254.197,57.865,253.417,57.865"/>
	<path clip-path="url(#SVGID_2_)" fill="#2AABE3" d="M258.076,44.994c-0.717,0-1.175-0.503-1.175-1.181
		c0-0.7,0.458-1.197,1.175-1.197c0.723,0,1.163,0.497,1.163,1.197C259.238,44.491,258.798,44.994,258.076,44.994 M258.815,57.708
		c-1.095,0-1.716-0.581-1.716-1.7V46.93h1.919v8.581c0,0.396,0.074,0.684,0.457,0.684c0.141,0,0.339-0.046,0.48-0.084l0.124,1.377
		C259.792,57.584,259.295,57.708,258.815,57.708"/>
	<path clip-path="url(#SVGID_2_)" fill="#2AABE3" d="M265.889,57.905c-3.354,0-4.788-2.772-4.788-5.714
		c0-2.914,1.575-5.623,4.867-5.623c3.354,0,4.77,2.71,4.77,5.623C270.738,55.116,269.203,57.905,265.889,57.905 M265.968,48.206
		c-2.174,0-2.874,2.213-2.874,3.986c0,1.761,0.581,4.076,2.795,4.076c2.213,0,2.873-2.292,2.873-4.031
		C268.762,50.481,268.187,48.206,265.968,48.206"/>
	<path clip-path="url(#SVGID_2_)" fill="#2AABE3" d="M279.36,57.527V50.56c0-1.339-0.7-2.157-2.134-2.157
		c-0.841,0-1.564,0.401-2.078,0.977c-0.417,0.502-0.502,0.7-0.502,1.343v6.803h-1.914V46.93h1.795v1.615
		c0.779-1.157,1.858-1.937,3.376-1.937c2.134,0,3.37,1.377,3.37,3.568v7.351H279.36z"/>
</g>
</svg>
