<?xml version="1.0" encoding="utf-8"?>
<!-- Generator: Adobe Illustrator 17.0.0, SVG Export Plug-In . SVG Version: 6.00 Build 0)  -->
<!DOCTYPE svg PUBLIC "-//W3C//DTD SVG 1.1//EN" "http://www.w3.org/Graphics/SVG/1.1/DTD/svg11.dtd">
<svg version="1.1" id="Camada_1" xmlns="http://www.w3.org/2000/svg" xmlns:xlink="http://www.w3.org/1999/xlink" x="0px" y="0px"
	 width="800px" height="200px" viewBox="0 0 800 200" enable-background="new 0 0 800 200" xml:space="preserve">
<rect x="-517.864" y="-252.96" fill="#756F6F" width="115.494" height="115.494"/>
<g>
	<g>
		<path fill="#EEEEEE" d="M775.942,37.818c1.557,2.91,0.131,5.29-3.169,5.29H639.861c-3.3,0-4.726-2.381-3.169-5.29l15.507-28.981
			c1.557-2.91,5.531-5.29,8.831-5.29h90.575c3.3,0,7.274,2.381,8.831,5.29L775.942,37.818z"/>
	</g>
	<g>
		<path fill="#485156" d="M666.597,24.481c0,1.231-0.452,2.206-1.356,2.926s-2.106,1.079-3.606,1.079
			c-1.802,0-3.185-0.198-4.146-0.595v-1.029c1.063,0.451,2.417,0.676,4.065,0.676c1.21,0,2.17-0.277,2.88-0.832
			c0.709-0.555,1.063-1.283,1.063-2.184c0-0.558-0.117-1.021-0.353-1.387c-0.235-0.366-0.619-0.701-1.15-1.003
			c-0.531-0.303-1.312-0.629-2.34-0.979c-1.507-0.518-2.547-1.078-3.122-1.68s-0.862-1.404-0.862-2.406
			c0-1.103,0.432-2.002,1.296-2.698c0.864-0.696,1.976-1.044,3.334-1.044c1.386,0,2.687,0.262,3.904,0.787l-0.374,0.888
			c-1.224-0.511-2.394-0.767-3.51-0.767c-1.09,0-1.957,0.252-2.604,0.757c-0.646,0.504-0.968,1.19-0.968,2.058
			c0,0.545,0.099,0.992,0.298,1.342c0.198,0.35,0.522,0.664,0.973,0.943c0.451,0.279,1.225,0.614,2.32,1.003
			c1.15,0.397,2.015,0.782,2.593,1.155c0.578,0.373,1,0.797,1.266,1.271S666.597,23.808,666.597,24.481z"/>
		<path fill="#485156" d="M677.774,28.284h-8.061V13.536h8.061v0.948h-7.031v5.578h6.638v0.948h-6.638v6.325h7.031V28.284z"/>
		<path fill="#485156" d="M687.6,28.284l-5.497-13.619h-0.081c0.054,0.834,0.081,1.688,0.081,2.563v11.056h-0.989V13.536h1.594
			l5.226,12.973h0.061l5.226-12.973h1.554v14.748h-1.039V17.107c0-0.78,0.04-1.587,0.121-2.421h-0.081l-5.518,13.598H687.6z"/>
		<path fill="#485156" d="M706.04,23.079h-5.991l-2.059,5.205h-1.14l5.932-14.809h0.655l5.811,14.809h-1.16L706.04,23.079z
			 M700.422,22.151h5.275l-2.007-5.316c-0.169-0.417-0.37-0.995-0.605-1.735c-0.182,0.646-0.38,1.23-0.596,1.755L700.422,22.151z"/>
		<path fill="#485156" d="M722.06,28.284h-1.039l-8.736-13.094h-0.08c0.08,1.56,0.121,2.737,0.121,3.531v9.563h-0.989V13.536h1.029
			l8.726,13.074h0.061c-0.061-1.211-0.091-2.361-0.091-3.45v-9.624h0.999V28.284z"/>
		<path fill="#485156" d="M733.337,23.079h-5.991l-2.059,5.205h-1.14l5.932-14.809h0.655l5.811,14.809h-1.16L733.337,23.079z
			 M727.719,22.151h5.275l-2.007-5.316c-0.169-0.417-0.37-0.995-0.605-1.735c-0.182,0.646-0.38,1.23-0.596,1.755L727.719,22.151z"/>
		<path fill="#485156" d="M746.773,24.481c0,1.231-0.452,2.206-1.356,2.926s-2.106,1.079-3.606,1.079
			c-1.802,0-3.185-0.198-4.146-0.595v-1.029c1.063,0.451,2.417,0.676,4.065,0.676c1.21,0,2.17-0.277,2.88-0.832
			c0.709-0.555,1.063-1.283,1.063-2.184c0-0.558-0.117-1.021-0.353-1.387c-0.235-0.366-0.619-0.701-1.15-1.003
			c-0.531-0.303-1.312-0.629-2.34-0.979c-1.507-0.518-2.547-1.078-3.122-1.68s-0.862-1.404-0.862-2.406
			c0-1.103,0.432-2.002,1.296-2.698c0.864-0.696,1.976-1.044,3.334-1.044c1.386,0,2.687,0.262,3.904,0.787l-0.374,0.888
			c-1.224-0.511-2.394-0.767-3.51-0.767c-1.09,0-1.957,0.252-2.604,0.757c-0.646,0.504-0.968,1.19-0.968,2.058
			c0,0.545,0.099,0.992,0.298,1.342c0.198,0.35,0.522,0.664,0.973,0.943c0.451,0.279,1.225,0.614,2.32,1.003
			c1.15,0.397,2.015,0.782,2.593,1.155c0.578,0.373,1,0.797,1.266,1.271S746.773,23.808,746.773,24.481z"/>
	</g>
	<g>
		<path fill="#EEEEEE" d="M795.309,186.453c0,5.5-4.5,10-10,10H14.643c-5.5,0-10-4.5-10-10V45.761c0-5.5,4.5-10,10-10h770.666
			c5.5,0,10,4.5,10,10V186.453z"/>
	</g>
	<g>
		<g>
			<g>
				<path fill="#485156" d="M116.688,49.466v3.477h-1.921v-9.061h2.64c1.231,0,2.142,0.224,2.733,0.672s0.886,1.129,0.886,2.042
					c0,0.533-0.146,1.007-0.44,1.422c-0.293,0.416-0.708,0.741-1.246,0.977c1.363,2.037,2.252,3.353,2.665,3.948h-2.132
					l-2.163-3.477H116.688z M116.688,47.904h0.62c0.607,0,1.056-0.102,1.345-0.304c0.289-0.203,0.434-0.521,0.434-0.955
					c0-0.43-0.148-0.735-0.443-0.917c-0.295-0.182-0.753-0.272-1.373-0.272h-0.583V47.904z"/>
				<path fill="#485156" d="M126.134,53.067c-1.116,0-1.988-0.308-2.616-0.923s-0.942-1.488-0.942-2.616
					c0-1.161,0.29-2.059,0.871-2.693s1.383-0.951,2.408-0.951c0.979,0,1.742,0.279,2.287,0.836c0.545,0.558,0.818,1.329,0.818,2.312
					v0.917h-4.469c0.021,0.537,0.18,0.957,0.477,1.258c0.298,0.302,0.715,0.453,1.252,0.453c0.417,0,0.812-0.043,1.184-0.13
					c0.372-0.087,0.76-0.225,1.165-0.415v1.462c-0.331,0.166-0.684,0.288-1.06,0.369S126.675,53.067,126.134,53.067z
					 M125.867,47.229c-0.401,0-0.715,0.127-0.942,0.381c-0.227,0.254-0.357,0.614-0.39,1.082h2.652
					c-0.008-0.467-0.13-0.828-0.366-1.082C126.586,47.356,126.268,47.229,125.867,47.229z"/>
				<path fill="#485156" d="M133.311,53.067c-2.157,0-3.235-1.184-3.235-3.551c0-1.178,0.293-2.077,0.88-2.699
					s1.428-0.933,2.522-0.933c0.802,0,1.521,0.157,2.157,0.471l-0.558,1.463c-0.297-0.12-0.574-0.218-0.831-0.294
					s-0.512-0.115-0.769-0.115c-0.983,0-1.475,0.698-1.475,2.095c0,1.355,0.492,2.033,1.475,2.033c0.364,0,0.701-0.049,1.01-0.146
					c0.31-0.097,0.62-0.249,0.93-0.456v1.618c-0.306,0.194-0.615,0.329-0.926,0.403C134.18,53.03,133.786,53.067,133.311,53.067z"/>
				<path fill="#485156" d="M140.159,53.067c-1.116,0-1.988-0.308-2.616-0.923s-0.942-1.488-0.942-2.616
					c0-1.161,0.29-2.059,0.871-2.693s1.383-0.951,2.408-0.951c0.979,0,1.742,0.279,2.287,0.836c0.545,0.558,0.818,1.329,0.818,2.312
					v0.917h-4.469c0.021,0.537,0.18,0.957,0.477,1.258c0.298,0.302,0.715,0.453,1.252,0.453c0.417,0,0.812-0.043,1.184-0.13
					c0.372-0.087,0.76-0.225,1.165-0.415v1.462c-0.331,0.166-0.684,0.288-1.06,0.369S140.7,53.067,140.159,53.067z M139.893,47.229
					c-0.401,0-0.715,0.127-0.942,0.381c-0.227,0.254-0.357,0.614-0.39,1.082h2.652c-0.008-0.467-0.13-0.828-0.366-1.082
					C140.611,47.356,140.293,47.229,139.893,47.229z M138.802,45.252v-0.167c0.71-0.826,1.196-1.448,1.457-1.865h2.12v0.13
					c-0.215,0.215-0.582,0.534-1.1,0.958c-0.519,0.424-0.925,0.739-1.218,0.945H138.802z"/>
				<path fill="#485156" d="M150.727,52.943h-1.891v-4.047c0-0.5-0.083-0.875-0.251-1.125s-0.431-0.375-0.79-0.375
					c-0.483,0-0.835,0.178-1.054,0.533c-0.219,0.355-0.329,0.94-0.329,1.754v3.26h-1.89v-6.929h1.444l0.254,0.886h0.105
					c0.186-0.318,0.454-0.567,0.806-0.747c0.351-0.18,0.754-0.27,1.208-0.27c1.037,0,1.739,0.339,2.107,1.016h0.167
					c0.186-0.322,0.459-0.572,0.821-0.75c0.361-0.177,0.77-0.266,1.224-0.266c0.785,0,1.379,0.201,1.782,0.604
					s0.604,1.049,0.604,1.937v4.518h-1.896v-4.047c0-0.5-0.084-0.875-0.251-1.125c-0.167-0.25-0.431-0.375-0.791-0.375
					c-0.463,0-0.809,0.165-1.038,0.496s-0.344,0.855-0.344,1.574V52.943z"/>
				<path fill="#485156" d="M168.47,52.943h-2.442l-3.941-6.854h-0.056c0.079,1.21,0.118,2.074,0.118,2.59v4.264h-1.716v-9.061
					h2.423l3.936,6.787h0.043c-0.062-1.178-0.093-2.01-0.093-2.498v-4.289h1.729V52.943z"/>
				<path fill="#485156" d="M175.003,52.943l-0.366-0.942h-0.049c-0.318,0.401-0.646,0.679-0.982,0.833
					c-0.337,0.155-0.776,0.232-1.317,0.232c-0.665,0-1.189-0.19-1.571-0.57c-0.382-0.38-0.573-0.921-0.573-1.624
					c0-0.736,0.257-1.278,0.771-1.627c0.514-0.349,1.29-0.542,2.327-0.58l1.203-0.037v-0.304c0-0.703-0.36-1.054-1.079-1.054
					c-0.554,0-1.205,0.167-1.952,0.502l-0.626-1.277c0.797-0.417,1.682-0.626,2.652-0.626c0.93,0,1.643,0.203,2.138,0.607
					c0.496,0.405,0.744,1.021,0.744,1.847v4.617H175.003z M174.445,49.733l-0.731,0.025c-0.55,0.017-0.958,0.116-1.227,0.297
					c-0.269,0.182-0.403,0.458-0.403,0.831c0,0.533,0.306,0.799,0.917,0.799c0.438,0,0.788-0.126,1.051-0.378
					c0.262-0.252,0.394-0.586,0.394-1.004V49.733z"/>
				<path fill="#485156" d="M183.103,50.885c0,0.71-0.247,1.252-0.74,1.624c-0.494,0.372-1.232,0.558-2.216,0.558
					c-0.504,0-0.934-0.034-1.289-0.103c-0.355-0.068-0.688-0.168-0.998-0.3v-1.562c0.351,0.166,0.747,0.304,1.187,0.416
					c0.44,0.111,0.827,0.167,1.162,0.167c0.686,0,1.029-0.198,1.029-0.595c0-0.149-0.045-0.27-0.136-0.363
					c-0.091-0.093-0.248-0.198-0.471-0.316s-0.521-0.255-0.893-0.412c-0.533-0.223-0.924-0.43-1.174-0.62
					c-0.25-0.19-0.432-0.408-0.545-0.654c-0.114-0.246-0.17-0.548-0.17-0.908c0-0.616,0.238-1.092,0.716-1.429
					c0.477-0.336,1.154-0.505,2.03-0.505c0.834,0,1.646,0.182,2.436,0.545l-0.57,1.363c-0.347-0.149-0.671-0.271-0.973-0.366
					c-0.302-0.095-0.61-0.143-0.924-0.143c-0.558,0-0.836,0.151-0.836,0.453c0,0.169,0.09,0.316,0.27,0.44s0.573,0.308,1.181,0.552
					c0.541,0.219,0.938,0.423,1.19,0.613c0.252,0.19,0.438,0.409,0.558,0.657C183.043,50.247,183.103,50.543,183.103,50.885z"/>
				<path fill="#485156" d="M187.393,53.067c-2.157,0-3.235-1.184-3.235-3.551c0-1.178,0.293-2.077,0.88-2.699
					s1.428-0.933,2.522-0.933c0.802,0,1.521,0.157,2.157,0.471l-0.558,1.463c-0.297-0.12-0.574-0.218-0.831-0.294
					s-0.512-0.115-0.769-0.115c-0.983,0-1.475,0.698-1.475,2.095c0,1.355,0.492,2.033,1.475,2.033c0.364,0,0.701-0.049,1.01-0.146
					c0.31-0.097,0.62-0.249,0.93-0.456v1.618c-0.306,0.194-0.615,0.329-0.926,0.403C188.261,53.03,187.868,53.067,187.393,53.067z"
					/>
				<path fill="#485156" d="M191.024,44.223c0-0.616,0.343-0.923,1.029-0.923c0.686,0,1.029,0.308,1.029,0.923
					c0,0.293-0.086,0.521-0.257,0.685c-0.171,0.164-0.429,0.245-0.771,0.245C191.367,45.152,191.024,44.842,191.024,44.223z
					 M192.995,52.943h-1.89v-6.929h1.89V52.943z"/>
				<path fill="#485156" d="M197.172,53.067c-0.814,0-1.453-0.316-1.918-0.948s-0.697-1.508-0.697-2.628
					c0-1.136,0.236-2.021,0.709-2.656s1.125-0.951,1.956-0.951c0.872,0,1.537,0.339,1.996,1.016h0.062
					c-0.095-0.516-0.143-0.977-0.143-1.382v-2.219h1.896v9.644h-1.45l-0.366-0.898h-0.081
					C198.708,52.726,198.053,53.067,197.172,53.067z M197.835,51.561c0.483,0,0.838-0.14,1.063-0.421
					c0.225-0.281,0.348-0.758,0.369-1.432v-0.205c0-0.744-0.114-1.276-0.344-1.599s-0.602-0.483-1.119-0.483
					c-0.421,0-0.749,0.179-0.982,0.536c-0.233,0.357-0.35,0.877-0.35,1.559s0.118,1.193,0.353,1.534
					C197.061,51.39,197.397,51.561,197.835,51.561z"/>
				<path fill="#485156" d="M209.308,49.466c0,1.128-0.297,2.01-0.893,2.646c-0.595,0.636-1.423,0.955-2.485,0.955
					c-0.665,0-1.252-0.146-1.76-0.437c-0.508-0.292-0.898-0.709-1.171-1.255c-0.272-0.545-0.409-1.182-0.409-1.909
					c0-1.132,0.295-2.012,0.886-2.64s1.421-0.942,2.491-0.942c0.666,0,1.252,0.145,1.76,0.434c0.508,0.29,0.899,0.705,1.171,1.246
					C209.171,48.105,209.308,48.739,209.308,49.466z M204.517,49.466c0,0.686,0.113,1.205,0.338,1.556s0.592,0.527,1.1,0.527
					c0.504,0,0.867-0.174,1.088-0.523c0.221-0.349,0.332-0.869,0.332-1.559c0-0.686-0.112-1.2-0.335-1.543
					c-0.223-0.343-0.588-0.515-1.097-0.515c-0.504,0-0.868,0.17-1.091,0.511S204.517,48.776,204.517,49.466z"/>
			</g>
		</g>
		<g>
			<path fill="#FFFFFF" d="M190.313,62.888h-22.534l-6.025-6.025l-6.025,6.025h-22.534c-3.491,0-6.347,2.856-6.347,6.347v14.384
				c0,3.491,2.856,6.347,6.347,6.347h57.119c3.491,0,6.347-2.856,6.347-6.347V69.235C196.659,65.744,193.803,62.888,190.313,62.888z
				"/>
			<g>
				<g>
					<path fill="#485156" d="M152.098,80.622h-1.004v-6.458c0-0.537,0.017-1.045,0.05-1.525c-0.087,0.087-0.184,0.178-0.292,0.273
						s-0.599,0.498-1.475,1.208l-0.545-0.707l2.398-1.853h0.868V80.622z"/>
					<path fill="#485156" d="M163.489,80.622l-0.205-0.967h-0.049c-0.339,0.426-0.677,0.714-1.014,0.865
						c-0.336,0.15-0.757,0.226-1.261,0.226c-0.673,0-1.201-0.174-1.583-0.521c-0.382-0.347-0.573-0.841-0.573-1.481
						c0-1.372,1.097-2.091,3.291-2.157l1.153-0.037v-0.421c0-0.533-0.115-0.927-0.344-1.181c-0.229-0.254-0.596-0.381-1.1-0.381
						c-0.566,0-1.207,0.173-1.921,0.521l-0.316-0.787c0.335-0.182,0.702-0.324,1.1-0.428c0.399-0.103,0.799-0.155,1.2-0.155
						c0.81,0,1.41,0.18,1.8,0.539c0.39,0.359,0.585,0.936,0.585,1.729v4.636H163.489z M161.165,79.897
						c0.641,0,1.144-0.176,1.509-0.527s0.548-0.843,0.548-1.475v-0.614l-1.029,0.043c-0.818,0.029-1.408,0.156-1.77,0.381
						c-0.361,0.225-0.542,0.575-0.542,1.05c0,0.372,0.112,0.655,0.338,0.849C160.445,79.799,160.76,79.897,161.165,79.897z"/>
					<path fill="#485156" d="M175.581,78.539h-1.345v2.083h-0.985v-2.083h-4.407v-0.898l4.301-6.13h1.091v6.092h1.345V78.539z
						 M173.251,77.603v-3.012c0-0.591,0.021-1.258,0.062-2.002h-0.049c-0.198,0.396-0.384,0.725-0.558,0.985l-2.833,4.028H173.251z"
						/>
				</g>
			</g>
		</g>
	</g>
	<g>
		<g>
			<g>
				<path fill="#485156" d="M229.194,52.943h-1.915V47.7l0.019-0.862l0.031-0.942c-0.318,0.318-0.54,0.527-0.663,0.626l-1.042,0.837
					l-0.923-1.153l2.919-2.324h1.574V52.943z"/>
				<path fill="#485156" d="M239.885,52.943l-0.366-0.942h-0.049c-0.318,0.401-0.646,0.679-0.982,0.833
					c-0.337,0.155-0.776,0.232-1.317,0.232c-0.665,0-1.189-0.19-1.571-0.57c-0.382-0.38-0.573-0.921-0.573-1.624
					c0-0.736,0.257-1.278,0.771-1.627c0.514-0.349,1.29-0.542,2.327-0.58l1.203-0.037v-0.304c0-0.703-0.36-1.054-1.079-1.054
					c-0.554,0-1.205,0.167-1.952,0.502l-0.626-1.277c0.797-0.417,1.682-0.626,2.652-0.626c0.93,0,1.643,0.203,2.138,0.607
					c0.496,0.405,0.744,1.021,0.744,1.847v4.617H239.885z M239.328,49.733l-0.731,0.025c-0.55,0.017-0.958,0.116-1.227,0.297
					c-0.269,0.182-0.403,0.458-0.403,0.831c0,0.533,0.306,0.799,0.917,0.799c0.438,0,0.788-0.126,1.051-0.378
					c0.262-0.252,0.394-0.586,0.394-1.004V49.733z"/>
				<path fill="#485156" d="M245.903,49.094c0-1.793,0.379-3.128,1.137-4.004s1.894-1.314,3.406-1.314
					c0.517,0,0.921,0.031,1.215,0.093v1.531c-0.368-0.083-0.731-0.124-1.091-0.124c-0.657,0-1.193,0.099-1.608,0.297
					c-0.416,0.198-0.726,0.492-0.933,0.88c-0.207,0.389-0.329,0.94-0.366,1.655h0.081c0.409-0.702,1.064-1.053,1.964-1.053
					c0.81,0,1.444,0.254,1.903,0.762s0.688,1.21,0.688,2.107c0,0.967-0.272,1.732-0.818,2.296s-1.302,0.846-2.269,0.846
					c-0.669,0-1.253-0.155-1.751-0.465s-0.882-0.762-1.153-1.357C246.039,50.65,245.903,49.933,245.903,49.094z M249.176,51.536
					c0.409,0,0.723-0.138,0.942-0.412c0.219-0.275,0.329-0.667,0.329-1.175c0-0.442-0.103-0.79-0.307-1.044
					c-0.205-0.254-0.514-0.381-0.927-0.381c-0.389,0-0.72,0.126-0.995,0.378c-0.275,0.252-0.412,0.545-0.412,0.88
					c0,0.492,0.129,0.907,0.387,1.246S248.779,51.536,249.176,51.536z"/>
				<path fill="#485156" d="M263.195,52.943h-1.891v-4.047c0-0.5-0.083-0.875-0.251-1.125s-0.431-0.375-0.79-0.375
					c-0.483,0-0.835,0.178-1.054,0.533c-0.219,0.355-0.329,0.94-0.329,1.754v3.26h-1.89v-6.929h1.444l0.254,0.886h0.105
					c0.186-0.318,0.454-0.567,0.806-0.747c0.351-0.18,0.754-0.27,1.208-0.27c1.037,0,1.739,0.339,2.107,1.016h0.167
					c0.186-0.322,0.459-0.572,0.821-0.75c0.361-0.177,0.77-0.266,1.224-0.266c0.785,0,1.379,0.201,1.782,0.604
					s0.604,1.049,0.604,1.937v4.518h-1.896v-4.047c0-0.5-0.084-0.875-0.251-1.125c-0.167-0.25-0.431-0.375-0.791-0.375
					c-0.463,0-0.809,0.165-1.038,0.496s-0.344,0.855-0.344,1.574V52.943z"/>
				<path fill="#485156" d="M272.591,53.067c-1.116,0-1.988-0.308-2.616-0.923s-0.942-1.488-0.942-2.616
					c0-1.161,0.29-2.059,0.871-2.693s1.383-0.951,2.408-0.951c0.979,0,1.742,0.279,2.287,0.836c0.545,0.558,0.818,1.329,0.818,2.312
					v0.917h-4.469c0.021,0.537,0.18,0.957,0.477,1.258c0.298,0.302,0.715,0.453,1.252,0.453c0.417,0,0.812-0.043,1.184-0.13
					c0.372-0.087,0.76-0.225,1.165-0.415v1.462c-0.331,0.166-0.684,0.288-1.06,0.369S273.132,53.067,272.591,53.067z
					 M272.324,47.229c-0.401,0-0.715,0.127-0.942,0.381c-0.227,0.254-0.357,0.614-0.39,1.082h2.652
					c-0.008-0.467-0.13-0.828-0.366-1.082C273.043,47.356,272.725,47.229,272.324,47.229z"/>
				<path fill="#485156" d="M281.788,50.885c0,0.71-0.247,1.252-0.74,1.624c-0.494,0.372-1.232,0.558-2.216,0.558
					c-0.504,0-0.934-0.034-1.289-0.103c-0.355-0.068-0.688-0.168-0.998-0.3v-1.562c0.351,0.166,0.747,0.304,1.187,0.416
					c0.44,0.111,0.827,0.167,1.162,0.167c0.686,0,1.029-0.198,1.029-0.595c0-0.149-0.045-0.27-0.136-0.363
					c-0.091-0.093-0.248-0.198-0.471-0.316s-0.521-0.255-0.893-0.412c-0.533-0.223-0.924-0.43-1.174-0.62
					c-0.25-0.19-0.432-0.408-0.545-0.654c-0.114-0.246-0.17-0.548-0.17-0.908c0-0.616,0.238-1.092,0.716-1.429
					c0.477-0.336,1.154-0.505,2.03-0.505c0.834,0,1.646,0.182,2.436,0.545l-0.57,1.363c-0.347-0.149-0.671-0.271-0.973-0.366
					c-0.302-0.095-0.61-0.143-0.924-0.143c-0.558,0-0.836,0.151-0.836,0.453c0,0.169,0.09,0.316,0.27,0.44s0.573,0.308,1.181,0.552
					c0.541,0.219,0.938,0.423,1.19,0.613c0.252,0.19,0.438,0.409,0.558,0.657C281.729,50.247,281.788,50.543,281.788,50.885z"/>
				<path fill="#485156" d="M286.399,53.067c-1.116,0-1.988-0.308-2.616-0.923s-0.942-1.488-0.942-2.616
					c0-1.161,0.29-2.059,0.871-2.693s1.383-0.951,2.408-0.951c0.979,0,1.742,0.279,2.287,0.836c0.545,0.558,0.818,1.329,0.818,2.312
					v0.917h-4.469c0.021,0.537,0.18,0.957,0.477,1.258c0.298,0.302,0.715,0.453,1.252,0.453c0.417,0,0.812-0.043,1.184-0.13
					c0.372-0.087,0.76-0.225,1.165-0.415v1.462c-0.331,0.166-0.684,0.288-1.06,0.369S286.94,53.067,286.399,53.067z M286.133,47.229
					c-0.401,0-0.715,0.127-0.942,0.381c-0.227,0.254-0.357,0.614-0.39,1.082h2.652c-0.008-0.467-0.13-0.828-0.366-1.082
					C286.852,47.356,286.533,47.229,286.133,47.229z"/>
				<path fill="#485156" d="M295.597,50.885c0,0.71-0.247,1.252-0.74,1.624c-0.494,0.372-1.232,0.558-2.216,0.558
					c-0.504,0-0.934-0.034-1.289-0.103c-0.355-0.068-0.688-0.168-0.998-0.3v-1.562c0.351,0.166,0.747,0.304,1.187,0.416
					c0.44,0.111,0.827,0.167,1.162,0.167c0.686,0,1.029-0.198,1.029-0.595c0-0.149-0.045-0.27-0.136-0.363
					c-0.091-0.093-0.248-0.198-0.471-0.316s-0.521-0.255-0.893-0.412c-0.533-0.223-0.924-0.43-1.174-0.62
					c-0.25-0.19-0.432-0.408-0.545-0.654c-0.114-0.246-0.17-0.548-0.17-0.908c0-0.616,0.238-1.092,0.716-1.429
					c0.477-0.336,1.154-0.505,2.03-0.505c0.834,0,1.646,0.182,2.436,0.545l-0.57,1.363c-0.347-0.149-0.671-0.271-0.973-0.366
					c-0.302-0.095-0.61-0.143-0.924-0.143c-0.558,0-0.836,0.151-0.836,0.453c0,0.169,0.09,0.316,0.27,0.44s0.573,0.308,1.181,0.552
					c0.541,0.219,0.938,0.423,1.19,0.613c0.252,0.19,0.438,0.409,0.558,0.657C295.537,50.247,295.597,50.543,295.597,50.885z"/>
			</g>
		</g>
		<g>
			<path fill="#FFFFFF" d="M288.577,62.888h-22.534l-6.025-6.025l-6.025,6.025h-22.534c-3.491,0-6.347,2.856-6.347,6.347v14.384
				c0,3.491,2.856,6.347,6.347,6.347h57.119c3.491,0,6.347-2.856,6.347-6.347V69.235C294.924,65.744,292.068,62.888,288.577,62.888z
				"/>
			<g>
				<g>
					<path fill="#485156" d="M245.754,75.087c0.955,0,1.706,0.237,2.253,0.709c0.547,0.474,0.821,1.121,0.821,1.943
						c0,0.938-0.299,1.673-0.896,2.206c-0.597,0.533-1.42,0.8-2.47,0.8c-1.021,0-1.799-0.163-2.336-0.49v-0.992
						c0.289,0.186,0.649,0.332,1.079,0.437s0.853,0.158,1.271,0.158c0.727,0,1.292-0.171,1.695-0.515
						c0.403-0.343,0.604-0.838,0.604-1.487c0-1.264-0.775-1.896-2.324-1.896c-0.393,0-0.917,0.06-1.574,0.18l-0.533-0.341
						l0.341-4.239h4.505v0.948h-3.625l-0.229,2.721C244.81,75.134,245.283,75.087,245.754,75.087z"/>
					<path fill="#485156" d="M258.125,80.622l-0.205-0.967h-0.049c-0.339,0.426-0.677,0.714-1.014,0.865
						c-0.336,0.15-0.757,0.226-1.261,0.226c-0.673,0-1.201-0.174-1.583-0.521c-0.382-0.347-0.573-0.841-0.573-1.481
						c0-1.372,1.097-2.091,3.291-2.157l1.153-0.037v-0.421c0-0.533-0.115-0.927-0.344-1.181c-0.229-0.254-0.596-0.381-1.1-0.381
						c-0.566,0-1.207,0.173-1.921,0.521l-0.316-0.787c0.335-0.182,0.702-0.324,1.1-0.428c0.399-0.103,0.799-0.155,1.2-0.155
						c0.81,0,1.41,0.18,1.8,0.539c0.39,0.359,0.585,0.936,0.585,1.729v4.636H258.125z M255.801,79.897
						c0.641,0,1.144-0.176,1.509-0.527s0.548-0.843,0.548-1.475v-0.614l-1.029,0.043c-0.818,0.029-1.408,0.156-1.77,0.381
						c-0.361,0.225-0.542,0.575-0.542,1.05c0,0.372,0.112,0.655,0.338,0.849C255.081,79.799,255.396,79.897,255.801,79.897z"/>
					<path fill="#485156" d="M269.789,80.622h-5.956v-0.886l2.386-2.398c0.727-0.735,1.207-1.26,1.438-1.574s0.405-0.62,0.521-0.917
						s0.174-0.618,0.174-0.96c0-0.483-0.147-0.867-0.44-1.15c-0.293-0.283-0.7-0.424-1.221-0.424c-0.376,0-0.732,0.062-1.069,0.186
						c-0.337,0.124-0.711,0.35-1.125,0.676l-0.545-0.7c0.835-0.694,1.744-1.042,2.727-1.042c0.852,0,1.519,0.218,2.002,0.654
						c0.483,0.436,0.725,1.022,0.725,1.757c0,0.574-0.161,1.143-0.483,1.704c-0.322,0.562-0.925,1.273-1.81,2.132l-1.983,1.94v0.049
						h4.661V80.622z"/>
					<path fill="#485156" d="M277.475,78.539h-1.345v2.083h-0.985v-2.083h-4.407v-0.898l4.301-6.13h1.091v6.092h1.345V78.539z
						 M275.145,77.603v-3.012c0-0.591,0.021-1.258,0.062-2.002h-0.049c-0.198,0.396-0.384,0.725-0.558,0.985l-2.833,4.028H275.145z"
						/>
				</g>
			</g>
		</g>
	</g>
	<g>
		<g>
			<g>
				<path fill="#485156" d="M310.601,49.094c0-1.793,0.379-3.128,1.137-4.004s1.894-1.314,3.406-1.314
					c0.517,0,0.921,0.031,1.215,0.093v1.531c-0.368-0.083-0.731-0.124-1.091-0.124c-0.657,0-1.193,0.099-1.608,0.297
					c-0.416,0.198-0.726,0.492-0.933,0.88c-0.207,0.389-0.329,0.94-0.366,1.655h0.081c0.409-0.702,1.064-1.053,1.964-1.053
					c0.81,0,1.444,0.254,1.903,0.762s0.688,1.21,0.688,2.107c0,0.967-0.272,1.732-0.818,2.296s-1.302,0.846-2.269,0.846
					c-0.669,0-1.253-0.155-1.751-0.465s-0.882-0.762-1.153-1.357C310.736,50.65,310.601,49.933,310.601,49.094z M313.873,51.536
					c0.409,0,0.723-0.138,0.942-0.412c0.219-0.275,0.329-0.667,0.329-1.175c0-0.442-0.103-0.79-0.307-1.044
					c-0.205-0.254-0.514-0.381-0.927-0.381c-0.389,0-0.72,0.126-0.995,0.378c-0.275,0.252-0.412,0.545-0.412,0.88
					c0,0.492,0.129,0.907,0.387,1.246S313.476,51.536,313.873,51.536z"/>
				<path fill="#485156" d="M326.089,52.943l-0.366-0.942h-0.049c-0.318,0.401-0.646,0.679-0.982,0.833
					c-0.337,0.155-0.776,0.232-1.317,0.232c-0.665,0-1.189-0.19-1.571-0.57c-0.382-0.38-0.573-0.921-0.573-1.624
					c0-0.736,0.257-1.278,0.771-1.627c0.514-0.349,1.29-0.542,2.327-0.58l1.203-0.037v-0.304c0-0.703-0.36-1.054-1.079-1.054
					c-0.554,0-1.205,0.167-1.952,0.502l-0.626-1.277c0.797-0.417,1.682-0.626,2.652-0.626c0.93,0,1.643,0.203,2.138,0.607
					c0.496,0.405,0.744,1.021,0.744,1.847v4.617H326.089z M325.531,49.733l-0.731,0.025c-0.55,0.017-0.958,0.116-1.227,0.297
					c-0.269,0.182-0.403,0.458-0.403,0.831c0,0.533,0.306,0.799,0.917,0.799c0.438,0,0.788-0.126,1.051-0.378
					c0.262-0.252,0.394-0.586,0.394-1.004V49.733z"/>
				<path fill="#485156" d="M336.904,52.943h-1.915V47.7l0.019-0.862l0.031-0.942c-0.318,0.318-0.54,0.527-0.663,0.626l-1.042,0.837
					l-0.923-1.153l2.919-2.324h1.574V52.943z"/>
				<path fill="#485156" d="M345.748,52.943h-6.334V51.61l2.274-2.299c0.673-0.69,1.114-1.168,1.32-1.435
					c0.207-0.266,0.355-0.513,0.446-0.74c0.091-0.228,0.136-0.463,0.136-0.707c0-0.364-0.1-0.634-0.301-0.812
					c-0.2-0.178-0.468-0.267-0.802-0.267c-0.352,0-0.692,0.081-1.023,0.242s-0.675,0.391-1.035,0.688l-1.041-1.233
					c0.446-0.38,0.816-0.648,1.109-0.806s0.614-0.278,0.961-0.363c0.347-0.084,0.735-0.127,1.165-0.127
					c0.566,0,1.066,0.104,1.5,0.31c0.434,0.207,0.771,0.496,1.01,0.868c0.24,0.372,0.36,0.797,0.36,1.277
					c0,0.417-0.074,0.809-0.22,1.174s-0.374,0.741-0.682,1.125c-0.308,0.384-0.85,0.932-1.627,1.642l-1.165,1.097v0.087h3.948
					V52.943z"/>
				<path fill="#485156" d="M356.644,52.943h-1.891v-4.047c0-0.5-0.083-0.875-0.251-1.125s-0.431-0.375-0.79-0.375
					c-0.483,0-0.835,0.178-1.054,0.533c-0.219,0.355-0.329,0.94-0.329,1.754v3.26h-1.89v-6.929h1.444l0.254,0.886h0.105
					c0.186-0.318,0.454-0.567,0.806-0.747c0.351-0.18,0.754-0.27,1.208-0.27c1.037,0,1.739,0.339,2.107,1.016h0.167
					c0.186-0.322,0.459-0.572,0.821-0.75c0.361-0.177,0.77-0.266,1.224-0.266c0.785,0,1.379,0.201,1.782,0.604
					s0.604,1.049,0.604,1.937v4.518h-1.896v-4.047c0-0.5-0.084-0.875-0.251-1.125c-0.167-0.25-0.431-0.375-0.791-0.375
					c-0.463,0-0.809,0.165-1.038,0.496s-0.344,0.855-0.344,1.574V52.943z"/>
				<path fill="#485156" d="M366.04,53.067c-1.116,0-1.988-0.308-2.616-0.923s-0.942-1.488-0.942-2.616
					c0-1.161,0.29-2.059,0.871-2.693s1.383-0.951,2.408-0.951c0.979,0,1.742,0.279,2.287,0.836c0.545,0.558,0.818,1.329,0.818,2.312
					v0.917h-4.469c0.021,0.537,0.18,0.957,0.477,1.258c0.298,0.302,0.715,0.453,1.252,0.453c0.417,0,0.812-0.043,1.184-0.13
					c0.372-0.087,0.76-0.225,1.165-0.415v1.462c-0.331,0.166-0.684,0.288-1.06,0.369S366.581,53.067,366.04,53.067z M365.773,47.229
					c-0.401,0-0.715,0.127-0.942,0.381c-0.227,0.254-0.357,0.614-0.39,1.082h2.652c-0.008-0.467-0.13-0.828-0.366-1.082
					C366.492,47.356,366.174,47.229,365.773,47.229z"/>
				<path fill="#485156" d="M375.237,50.885c0,0.71-0.247,1.252-0.74,1.624c-0.494,0.372-1.232,0.558-2.216,0.558
					c-0.504,0-0.934-0.034-1.289-0.103c-0.355-0.068-0.688-0.168-0.998-0.3v-1.562c0.351,0.166,0.747,0.304,1.187,0.416
					c0.44,0.111,0.827,0.167,1.162,0.167c0.686,0,1.029-0.198,1.029-0.595c0-0.149-0.045-0.27-0.136-0.363
					c-0.091-0.093-0.248-0.198-0.471-0.316s-0.521-0.255-0.893-0.412c-0.533-0.223-0.924-0.43-1.174-0.62
					c-0.25-0.19-0.432-0.408-0.545-0.654c-0.114-0.246-0.17-0.548-0.17-0.908c0-0.616,0.238-1.092,0.716-1.429
					c0.477-0.336,1.154-0.505,2.03-0.505c0.834,0,1.646,0.182,2.436,0.545l-0.57,1.363c-0.347-0.149-0.671-0.271-0.973-0.366
					c-0.302-0.095-0.61-0.143-0.924-0.143c-0.558,0-0.836,0.151-0.836,0.453c0,0.169,0.09,0.316,0.27,0.44s0.573,0.308,1.181,0.552
					c0.541,0.219,0.938,0.423,1.19,0.613c0.252,0.19,0.438,0.409,0.558,0.657C375.177,50.247,375.237,50.543,375.237,50.885z"/>
				<path fill="#485156" d="M379.849,53.067c-1.116,0-1.988-0.308-2.616-0.923s-0.942-1.488-0.942-2.616
					c0-1.161,0.29-2.059,0.871-2.693s1.383-0.951,2.408-0.951c0.979,0,1.742,0.279,2.287,0.836c0.545,0.558,0.818,1.329,0.818,2.312
					v0.917h-4.469c0.021,0.537,0.18,0.957,0.477,1.258c0.298,0.302,0.715,0.453,1.252,0.453c0.417,0,0.812-0.043,1.184-0.13
					c0.372-0.087,0.76-0.225,1.165-0.415v1.462c-0.331,0.166-0.684,0.288-1.06,0.369S380.39,53.067,379.849,53.067z M379.582,47.229
					c-0.401,0-0.715,0.127-0.942,0.381c-0.227,0.254-0.357,0.614-0.39,1.082h2.652c-0.008-0.467-0.13-0.828-0.366-1.082
					C380.301,47.356,379.982,47.229,379.582,47.229z"/>
				<path fill="#485156" d="M389.045,50.885c0,0.71-0.247,1.252-0.74,1.624c-0.494,0.372-1.232,0.558-2.216,0.558
					c-0.504,0-0.934-0.034-1.289-0.103c-0.355-0.068-0.688-0.168-0.998-0.3v-1.562c0.351,0.166,0.747,0.304,1.187,0.416
					c0.44,0.111,0.827,0.167,1.162,0.167c0.686,0,1.029-0.198,1.029-0.595c0-0.149-0.045-0.27-0.136-0.363
					c-0.091-0.093-0.248-0.198-0.471-0.316s-0.521-0.255-0.893-0.412c-0.533-0.223-0.924-0.43-1.174-0.62
					c-0.25-0.19-0.432-0.408-0.545-0.654c-0.114-0.246-0.17-0.548-0.17-0.908c0-0.616,0.238-1.092,0.716-1.429
					c0.477-0.336,1.154-0.505,2.03-0.505c0.834,0,1.646,0.182,2.436,0.545l-0.57,1.363c-0.347-0.149-0.671-0.271-0.973-0.366
					c-0.302-0.095-0.61-0.143-0.924-0.143c-0.558,0-0.836,0.151-0.836,0.453c0,0.169,0.09,0.316,0.27,0.44s0.573,0.308,1.181,0.552
					c0.541,0.219,0.938,0.423,1.19,0.613c0.252,0.19,0.438,0.409,0.558,0.657C388.986,50.247,389.045,50.543,389.045,50.885z"/>
			</g>
		</g>
		<g>
			<path fill="#FFFFFF" d="M378.403,62.888h-22.534l-6.025-6.025l-6.025,6.025h-22.534c-3.491,0-6.347,2.856-6.347,6.347v14.384
				c0,3.491,2.856,6.347,6.347,6.347h57.119c3.491,0,6.347-2.856,6.347-6.347V69.235C384.75,65.744,381.894,62.888,378.403,62.888z"
				/>
			<g>
				<g>
					<path fill="#485156" d="M335.076,80.622h-5.956v-0.886l2.386-2.398c0.727-0.735,1.207-1.26,1.438-1.574s0.405-0.62,0.521-0.917
						s0.174-0.618,0.174-0.96c0-0.483-0.147-0.867-0.44-1.15c-0.293-0.283-0.7-0.424-1.221-0.424c-0.376,0-0.732,0.062-1.069,0.186
						c-0.337,0.124-0.711,0.35-1.125,0.676l-0.545-0.7c0.835-0.694,1.744-1.042,2.727-1.042c0.852,0,1.519,0.218,2.002,0.654
						c0.483,0.436,0.725,1.022,0.725,1.757c0,0.574-0.161,1.143-0.483,1.704c-0.322,0.562-0.925,1.273-1.81,2.132l-1.983,1.94v0.049
						h4.661V80.622z"/>
					<path fill="#485156" d="M339.21,75.087c0.955,0,1.706,0.237,2.253,0.709c0.547,0.474,0.821,1.121,0.821,1.943
						c0,0.938-0.299,1.673-0.896,2.206c-0.597,0.533-1.42,0.8-2.47,0.8c-1.021,0-1.799-0.163-2.336-0.49v-0.992
						c0.289,0.186,0.649,0.332,1.079,0.437s0.853,0.158,1.271,0.158c0.727,0,1.292-0.171,1.695-0.515
						c0.403-0.343,0.604-0.838,0.604-1.487c0-1.264-0.775-1.896-2.324-1.896c-0.393,0-0.917,0.06-1.574,0.18l-0.533-0.341
						l0.341-4.239h4.505v0.948h-3.625l-0.229,2.721C338.266,75.134,338.739,75.087,339.21,75.087z"/>
					<path fill="#485156" d="M351.581,80.622l-0.205-0.967h-0.049c-0.339,0.426-0.677,0.714-1.014,0.865
						c-0.336,0.15-0.757,0.226-1.261,0.226c-0.673,0-1.201-0.174-1.583-0.521c-0.382-0.347-0.573-0.841-0.573-1.481
						c0-1.372,1.097-2.091,3.291-2.157l1.153-0.037v-0.421c0-0.533-0.115-0.927-0.344-1.181c-0.229-0.254-0.596-0.381-1.1-0.381
						c-0.566,0-1.207,0.173-1.921,0.521l-0.316-0.787c0.335-0.182,0.702-0.324,1.1-0.428c0.399-0.103,0.799-0.155,1.2-0.155
						c0.81,0,1.41,0.18,1.8,0.539c0.39,0.359,0.585,0.936,0.585,1.729v4.636H351.581z M349.256,79.897
						c0.641,0,1.144-0.176,1.509-0.527s0.548-0.843,0.548-1.475v-0.614l-1.029,0.043c-0.818,0.029-1.408,0.156-1.77,0.381
						c-0.361,0.225-0.542,0.575-0.542,1.05c0,0.372,0.112,0.655,0.338,0.849C348.537,79.799,348.852,79.897,349.256,79.897z"/>
					<path fill="#485156" d="M363.672,78.539h-1.345v2.083h-0.985v-2.083h-4.407v-0.898l4.301-6.13h1.091v6.092h1.345V78.539z
						 M361.342,77.603v-3.012c0-0.591,0.021-1.258,0.062-2.002h-0.049c-0.198,0.396-0.384,0.725-0.558,0.985l-2.833,4.028H361.342z"
						/>
					<path fill="#485156" d="M370.93,78.539h-1.345v2.083H368.6v-2.083h-4.407v-0.898l4.301-6.13h1.091v6.092h1.345V78.539z
						 M368.6,77.603v-3.012c0-0.591,0.021-1.258,0.062-2.002h-0.049c-0.198,0.396-0.384,0.725-0.558,0.985l-2.833,4.028H368.6z"/>
				</g>
			</g>
		</g>
	</g>
	
		<line opacity="0.4" fill="none" stroke="#485156" stroke-linecap="round" stroke-linejoin="round" stroke-miterlimit="10" x1="99.227" y1="44.482" x2="99.227" y2="179.274"/>
	<g>
		<g>
			<g>
				<path fill="#485156" d="M128.473,121.158h-1.915v-5.243l0.019-0.862l0.031-0.942c-0.318,0.318-0.54,0.527-0.663,0.626
					l-1.042,0.837l-0.923-1.153l2.919-2.324h1.574V121.158z"/>
				<path fill="#485156" d="M139.164,121.158l-0.366-0.942h-0.049c-0.318,0.401-0.646,0.679-0.982,0.833
					c-0.337,0.155-0.776,0.232-1.317,0.232c-0.665,0-1.189-0.19-1.571-0.57c-0.382-0.38-0.573-0.921-0.573-1.624
					c0-0.736,0.257-1.278,0.771-1.627c0.514-0.349,1.29-0.542,2.327-0.58l1.203-0.037v-0.304c0-0.703-0.36-1.054-1.079-1.054
					c-0.554,0-1.205,0.167-1.952,0.502l-0.626-1.277c0.797-0.417,1.682-0.626,2.652-0.626c0.93,0,1.643,0.203,2.138,0.607
					c0.496,0.405,0.744,1.021,0.744,1.847v4.617H139.164z M138.606,117.947l-0.731,0.025c-0.55,0.017-0.958,0.116-1.227,0.297
					c-0.269,0.182-0.403,0.458-0.403,0.831c0,0.533,0.306,0.799,0.917,0.799c0.438,0,0.788-0.126,1.051-0.378
					c0.262-0.252,0.394-0.586,0.394-1.004V117.947z"/>
				<path fill="#485156" d="M151.578,121.158h-6.334v-1.333l2.274-2.299c0.673-0.69,1.114-1.168,1.32-1.435
					c0.207-0.266,0.355-0.513,0.446-0.74c0.091-0.228,0.136-0.463,0.136-0.707c0-0.364-0.1-0.634-0.301-0.812
					c-0.2-0.178-0.468-0.267-0.802-0.267c-0.352,0-0.692,0.081-1.023,0.242s-0.675,0.391-1.035,0.688l-1.041-1.233
					c0.446-0.38,0.816-0.648,1.109-0.806s0.614-0.278,0.961-0.363c0.347-0.084,0.735-0.127,1.165-0.127
					c0.566,0,1.066,0.104,1.5,0.31c0.434,0.207,0.771,0.496,1.01,0.868c0.24,0.372,0.36,0.797,0.36,1.277
					c0,0.417-0.074,0.809-0.22,1.174s-0.374,0.741-0.682,1.125c-0.308,0.384-0.85,0.932-1.627,1.642l-1.165,1.097v0.087h3.948
					V121.158z"/>
				<path fill="#485156" d="M160.67,121.158l-0.366-0.942h-0.049c-0.318,0.401-0.646,0.679-0.982,0.833
					c-0.337,0.155-0.776,0.232-1.317,0.232c-0.665,0-1.189-0.19-1.571-0.57c-0.382-0.38-0.573-0.921-0.573-1.624
					c0-0.736,0.257-1.278,0.771-1.627c0.514-0.349,1.29-0.542,2.327-0.58l1.203-0.037v-0.304c0-0.703-0.36-1.054-1.079-1.054
					c-0.554,0-1.205,0.167-1.952,0.502l-0.626-1.277c0.797-0.417,1.682-0.626,2.652-0.626c0.93,0,1.643,0.203,2.138,0.607
					c0.496,0.405,0.744,1.021,0.744,1.847v4.617H160.67z M160.113,117.947l-0.731,0.025c-0.55,0.017-0.958,0.116-1.227,0.297
					c-0.269,0.182-0.403,0.458-0.403,0.831c0,0.533,0.306,0.799,0.917,0.799c0.438,0,0.788-0.126,1.051-0.378
					c0.262-0.252,0.394-0.586,0.394-1.004V117.947z"/>
				<path fill="#485156" d="M170.333,121.158h-1.89v-4.047c0-0.5-0.089-0.875-0.267-1.125s-0.461-0.375-0.849-0.375
					c-0.529,0-0.911,0.176-1.146,0.53c-0.236,0.353-0.354,0.939-0.354,1.757v3.26h-1.89v-6.929h1.444l0.254,0.886h0.105
					c0.21-0.334,0.501-0.587,0.871-0.759c0.37-0.171,0.79-0.257,1.261-0.257c0.806,0,1.417,0.218,1.834,0.654
					s0.626,1.065,0.626,1.887V121.158z"/>
				<path fill="#485156" d="M178.576,117.681c0,1.128-0.297,2.01-0.893,2.646c-0.595,0.636-1.423,0.955-2.485,0.955
					c-0.665,0-1.252-0.146-1.76-0.437c-0.508-0.292-0.898-0.709-1.171-1.255c-0.272-0.545-0.409-1.182-0.409-1.909
					c0-1.132,0.295-2.012,0.886-2.64s1.421-0.942,2.491-0.942c0.666,0,1.252,0.145,1.76,0.434c0.508,0.29,0.899,0.705,1.171,1.246
					C178.439,116.319,178.576,116.954,178.576,117.681z M173.785,117.681c0,0.686,0.113,1.205,0.338,1.556s0.592,0.527,1.1,0.527
					c0.504,0,0.867-0.174,1.088-0.523c0.221-0.349,0.332-0.869,0.332-1.559c0-0.686-0.112-1.2-0.335-1.543
					c-0.223-0.343-0.588-0.515-1.097-0.515c-0.504,0-0.868,0.17-1.091,0.511S173.785,116.991,173.785,117.681z"/>
				<path fill="#485156" d="M184.971,119.1c0,0.71-0.247,1.252-0.74,1.624c-0.494,0.372-1.232,0.558-2.216,0.558
					c-0.504,0-0.934-0.034-1.289-0.103c-0.355-0.068-0.688-0.168-0.998-0.3v-1.562c0.351,0.166,0.747,0.304,1.187,0.416
					c0.44,0.111,0.827,0.167,1.162,0.167c0.686,0,1.029-0.198,1.029-0.595c0-0.149-0.045-0.27-0.136-0.363
					c-0.091-0.093-0.248-0.198-0.471-0.316s-0.521-0.255-0.893-0.412c-0.533-0.223-0.924-0.43-1.174-0.62
					c-0.25-0.19-0.432-0.408-0.545-0.654c-0.114-0.246-0.17-0.548-0.17-0.908c0-0.616,0.238-1.092,0.716-1.429
					c0.477-0.336,1.154-0.505,2.03-0.505c0.834,0,1.646,0.182,2.436,0.545l-0.57,1.363c-0.347-0.149-0.671-0.271-0.973-0.366
					c-0.302-0.095-0.61-0.143-0.924-0.143c-0.558,0-0.836,0.151-0.836,0.453c0,0.169,0.09,0.316,0.27,0.44s0.573,0.308,1.181,0.552
					c0.541,0.219,0.938,0.423,1.19,0.613c0.252,0.19,0.438,0.409,0.558,0.657C184.912,118.462,184.971,118.757,184.971,119.1z"/>
			</g>
		</g>
		<g>
			<path fill="#FFFFFF" d="M772.427,131.103H160.369l-6.025-6.025l-6.025,6.025h-15.125c-3.491,0-6.347,2.856-6.347,6.347v30.894
				v4.583c0,3.491,2.856,6.347,6.347,6.347h639.233c3.491,0,6.347-2.856,6.347-6.347v-7.404V137.45
				C778.773,133.959,775.917,131.103,772.427,131.103z"/>
			<g>
				<g>
					<g>
						<path fill="#485156" d="M194.994,148.838h-6.142v-1.103l2.337-2.349c0.69-0.707,1.147-1.208,1.373-1.503
							s0.39-0.573,0.493-0.833c0.104-0.26,0.155-0.54,0.155-0.837c0-0.409-0.123-0.731-0.369-0.967
							c-0.246-0.235-0.585-0.353-1.02-0.353c-0.347,0-0.683,0.064-1.007,0.192c-0.325,0.128-0.7,0.359-1.125,0.694l-0.787-0.961
							c0.504-0.425,0.994-0.727,1.469-0.905s0.981-0.267,1.519-0.267c0.843,0,1.519,0.22,2.027,0.66
							c0.508,0.44,0.762,1.032,0.762,1.776c0,0.409-0.074,0.797-0.22,1.165s-0.372,0.747-0.675,1.137s-0.809,0.918-1.516,1.583
							l-1.574,1.525v0.062h4.301V148.838z"/>
						<path fill="#485156" d="M205.654,148.838h-1.462v-4.227c0-0.524-0.099-0.916-0.297-1.174c-0.199-0.258-0.508-0.387-0.93-0.387
							c-0.562,0-0.974,0.183-1.237,0.548c-0.262,0.366-0.394,0.974-0.394,1.825v3.415h-1.457v-6.854h1.141l0.205,0.898h0.074
							c0.19-0.326,0.466-0.579,0.828-0.756c0.361-0.177,0.759-0.266,1.193-0.266c1.054,0,1.752,0.359,2.095,1.078h0.099
							c0.203-0.339,0.488-0.603,0.855-0.793c0.368-0.19,0.789-0.285,1.264-0.285c0.818,0,1.414,0.207,1.788,0.62
							s0.561,1.043,0.561,1.89v4.469h-1.457v-4.227c0-0.524-0.1-0.916-0.3-1.174c-0.201-0.258-0.512-0.387-0.933-0.387
							c-0.566,0-0.98,0.176-1.243,0.53c-0.262,0.353-0.394,0.896-0.394,1.627V148.838z"/>
						<path fill="#485156" d="M215.006,148.962c-1.066,0-1.899-0.311-2.5-0.933c-0.602-0.622-0.902-1.479-0.902-2.569
							c0-1.12,0.279-2,0.836-2.64c0.558-0.64,1.324-0.96,2.299-0.96c0.905,0,1.62,0.274,2.145,0.824
							c0.525,0.549,0.787,1.306,0.787,2.268v0.787h-4.568c0.021,0.666,0.201,1.177,0.54,1.534c0.338,0.357,0.816,0.536,1.432,0.536
							c0.405,0,0.782-0.038,1.131-0.115c0.349-0.076,0.724-0.204,1.125-0.381v1.184c-0.355,0.169-0.715,0.289-1.079,0.359
							C215.889,148.926,215.473,148.962,215.006,148.962z M216.166,141.146c-0.508-0.302-0.979-0.673-1.413-1.116
							c-0.426,0.426-0.891,0.797-1.395,1.116h-0.979v-0.155c0.789-0.818,1.314-1.444,1.574-1.878h1.612
							c0.26,0.455,0.789,1.081,1.586,1.878v0.155H216.166z M214.74,142.962c-0.462,0-0.833,0.146-1.112,0.44
							s-0.445,0.721-0.499,1.283h3.111c-0.008-0.566-0.145-0.995-0.409-1.286C215.566,143.108,215.203,142.962,214.74,142.962z"/>
						<path fill="#485156" d="M223.931,146.885c0,0.669-0.244,1.183-0.731,1.54c-0.488,0.357-1.186,0.536-2.095,0.536
							c-0.913,0-1.646-0.139-2.2-0.416v-1.258c0.806,0.372,1.556,0.558,2.25,0.558c0.896,0,1.345-0.271,1.345-0.812
							c0-0.173-0.049-0.318-0.148-0.434s-0.263-0.236-0.49-0.359c-0.228-0.124-0.543-0.265-0.948-0.422
							c-0.79-0.306-1.323-0.611-1.602-0.917s-0.418-0.703-0.418-1.19c0-0.587,0.236-1.042,0.709-1.367s1.117-0.486,1.931-0.486
							c0.806,0,1.568,0.163,2.287,0.489l-0.471,1.097c-0.74-0.306-1.361-0.458-1.865-0.458c-0.769,0-1.153,0.219-1.153,0.657
							c0,0.215,0.1,0.397,0.3,0.545c0.201,0.149,0.638,0.354,1.311,0.614c0.566,0.219,0.977,0.419,1.233,0.601
							c0.256,0.182,0.446,0.392,0.57,0.629C223.869,146.271,223.931,146.555,223.931,146.885z"/>
					</g>
				</g>
				<g>
					<g>
						<path fill="#485156" d="M206.125,165.086h-1.345v2.083h-0.985v-2.083h-4.407v-0.898l4.301-6.13h1.091v6.092h1.345V165.086z
							 M203.794,164.15v-3.012c0-0.591,0.021-1.258,0.062-2.002h-0.049c-0.198,0.396-0.384,0.725-0.558,0.985l-2.833,4.028H203.794z
							"/>
						<path fill="#485156" d="M212.955,161.975c0,3.545-1.372,5.318-4.115,5.318c-0.479,0-0.859-0.042-1.14-0.124v-0.886
							c0.331,0.107,0.707,0.161,1.128,0.161c0.992,0,1.74-0.307,2.247-0.92c0.506-0.614,0.782-1.555,0.827-2.823h-0.074
							c-0.227,0.343-0.529,0.604-0.905,0.784s-0.799,0.27-1.271,0.27c-0.802,0-1.438-0.24-1.909-0.719
							c-0.471-0.479-0.707-1.149-0.707-2.008c0-0.942,0.264-1.686,0.791-2.231s1.22-0.818,2.079-0.818
							c0.616,0,1.154,0.158,1.615,0.474c0.46,0.316,0.815,0.777,1.063,1.382C212.831,160.439,212.955,161.152,212.955,161.975z
							 M209.905,158.858c-0.591,0-1.047,0.19-1.37,0.57c-0.322,0.38-0.483,0.909-0.483,1.587c0,0.595,0.149,1.063,0.446,1.404
							s0.75,0.511,1.357,0.511c0.376,0,0.722-0.077,1.038-0.229s0.565-0.361,0.747-0.626c0.182-0.264,0.273-0.541,0.273-0.831
							c0-0.434-0.085-0.834-0.254-1.202s-0.406-0.657-0.709-0.868S210.298,158.858,209.905,158.858z"/>
					</g>
				</g>
			</g>
			<g>
				<g>
					<g>
						<path fill="#485156" d="M246.691,141.859c0,0.574-0.167,1.052-0.502,1.435c-0.335,0.382-0.806,0.64-1.413,0.771v0.05
							c0.727,0.091,1.272,0.317,1.636,0.679c0.363,0.361,0.545,0.842,0.545,1.441c0,0.872-0.308,1.544-0.923,2.018
							c-0.616,0.473-1.492,0.709-2.628,0.709c-1.004,0-1.851-0.163-2.541-0.49v-1.295c0.384,0.19,0.791,0.337,1.221,0.44
							c0.43,0.104,0.843,0.155,1.24,0.155c0.702,0,1.227-0.13,1.574-0.391s0.521-0.663,0.521-1.208c0-0.483-0.192-0.839-0.576-1.066
							c-0.384-0.227-0.988-0.341-1.81-0.341h-0.787v-1.184h0.8c1.446,0,2.169-0.5,2.169-1.5c0-0.389-0.126-0.688-0.378-0.899
							c-0.252-0.21-0.624-0.316-1.116-0.316c-0.343,0-0.673,0.048-0.992,0.146s-0.694,0.286-1.128,0.567l-0.713-1.016
							c0.831-0.611,1.795-0.917,2.895-0.917c0.913,0,1.626,0.196,2.138,0.589S246.691,141.169,246.691,141.859z"/>
						<path fill="#485156" d="M257.692,148.838h-1.462v-4.227c0-0.524-0.099-0.916-0.297-1.174c-0.199-0.258-0.508-0.387-0.93-0.387
							c-0.562,0-0.974,0.183-1.237,0.548c-0.262,0.366-0.394,0.974-0.394,1.825v3.415h-1.457v-6.854h1.141l0.205,0.898h0.074
							c0.19-0.326,0.466-0.579,0.828-0.756c0.361-0.177,0.759-0.266,1.193-0.266c1.054,0,1.752,0.359,2.095,1.078h0.099
							c0.203-0.339,0.488-0.603,0.855-0.793c0.368-0.19,0.789-0.285,1.264-0.285c0.818,0,1.414,0.207,1.788,0.62
							s0.561,1.043,0.561,1.89v4.469h-1.457v-4.227c0-0.524-0.1-0.916-0.3-1.174c-0.201-0.258-0.512-0.387-0.933-0.387
							c-0.566,0-0.98,0.176-1.243,0.53c-0.262,0.353-0.394,0.896-0.394,1.627V148.838z"/>
						<path fill="#485156" d="M267.044,148.962c-1.066,0-1.899-0.311-2.5-0.933c-0.602-0.622-0.902-1.479-0.902-2.569
							c0-1.12,0.279-2,0.836-2.64c0.558-0.64,1.324-0.96,2.299-0.96c0.905,0,1.62,0.274,2.145,0.824
							c0.525,0.549,0.787,1.306,0.787,2.268v0.787h-4.568c0.021,0.666,0.201,1.177,0.54,1.534c0.338,0.357,0.816,0.536,1.432,0.536
							c0.405,0,0.782-0.038,1.131-0.115c0.349-0.076,0.724-0.204,1.125-0.381v1.184c-0.355,0.169-0.715,0.289-1.079,0.359
							C267.927,148.926,267.511,148.962,267.044,148.962z M268.204,141.146c-0.508-0.302-0.979-0.673-1.413-1.116
							c-0.426,0.426-0.891,0.797-1.395,1.116h-0.979v-0.155c0.789-0.818,1.314-1.444,1.574-1.878h1.612
							c0.26,0.455,0.789,1.081,1.586,1.878v0.155H268.204z M266.778,142.962c-0.462,0-0.833,0.146-1.112,0.44
							s-0.445,0.721-0.499,1.283h3.111c-0.008-0.566-0.145-0.995-0.409-1.286C267.604,143.108,267.241,142.962,266.778,142.962z"/>
						<path fill="#485156" d="M275.969,146.885c0,0.669-0.244,1.183-0.731,1.54c-0.488,0.357-1.186,0.536-2.095,0.536
							c-0.913,0-1.646-0.139-2.2-0.416v-1.258c0.806,0.372,1.556,0.558,2.25,0.558c0.896,0,1.345-0.271,1.345-0.812
							c0-0.173-0.049-0.318-0.148-0.434s-0.263-0.236-0.49-0.359c-0.228-0.124-0.543-0.265-0.948-0.422
							c-0.79-0.306-1.323-0.611-1.602-0.917s-0.418-0.703-0.418-1.19c0-0.587,0.236-1.042,0.709-1.367s1.117-0.486,1.931-0.486
							c0.806,0,1.568,0.163,2.287,0.489l-0.471,1.097c-0.74-0.306-1.361-0.458-1.865-0.458c-0.769,0-1.153,0.219-1.153,0.657
							c0,0.215,0.1,0.397,0.3,0.545c0.201,0.149,0.638,0.354,1.311,0.614c0.566,0.219,0.977,0.419,1.233,0.601
							c0.256,0.182,0.446,0.392,0.57,0.629C275.907,146.271,275.969,146.555,275.969,146.885z"/>
					</g>
				</g>
				<g>
					<g>
						<path fill="#485156" d="M254.611,161.634c0.955,0,1.706,0.237,2.253,0.709c0.547,0.474,0.821,1.121,0.821,1.943
							c0,0.938-0.299,1.673-0.896,2.206c-0.597,0.533-1.42,0.8-2.47,0.8c-1.021,0-1.799-0.163-2.336-0.49v-0.992
							c0.289,0.186,0.649,0.332,1.079,0.437s0.853,0.158,1.271,0.158c0.727,0,1.292-0.171,1.695-0.515
							c0.403-0.343,0.604-0.838,0.604-1.487c0-1.264-0.775-1.896-2.324-1.896c-0.393,0-0.917,0.06-1.574,0.18l-0.533-0.341
							l0.341-4.239h4.505v0.948h-3.625l-0.229,2.721C253.667,161.681,254.14,161.634,254.611,161.634z"/>
						<path fill="#485156" d="M264.652,160.239c0,0.579-0.162,1.052-0.486,1.419c-0.325,0.368-0.784,0.614-1.379,0.737v0.05
							c0.727,0.091,1.266,0.322,1.617,0.694c0.352,0.372,0.527,0.859,0.527,1.462c0,0.864-0.299,1.528-0.898,1.993
							s-1.45,0.697-2.554,0.697c-0.479,0-0.918-0.036-1.317-0.108s-0.786-0.199-1.162-0.381v-0.979
							c0.393,0.194,0.811,0.342,1.255,0.443c0.444,0.102,0.865,0.152,1.262,0.152c1.565,0,2.349-0.613,2.349-1.841
							c0-1.099-0.864-1.648-2.591-1.648h-0.892v-0.886h0.905c0.707,0,1.266-0.156,1.68-0.468c0.413-0.312,0.62-0.745,0.62-1.299
							c0-0.442-0.152-0.789-0.456-1.041s-0.716-0.378-1.236-0.378c-0.397,0-0.771,0.054-1.122,0.161s-0.752,0.306-1.202,0.595
							l-0.521-0.694c0.372-0.293,0.8-0.524,1.286-0.691c0.486-0.167,0.997-0.251,1.534-0.251c0.88,0,1.564,0.202,2.051,0.604
							C264.408,158.984,264.652,159.537,264.652,160.239z"/>
					</g>
				</g>
			</g>
			<g>
				<g>
					<g>
						<path fill="#485156" d="M299.39,146.86h-1.221v1.977h-1.419v-1.977h-4.14v-1.122l4.14-5.987h1.419v5.9h1.221V146.86z
							 M296.75,145.652v-2.275c0-0.81,0.021-1.473,0.062-1.989h-0.05c-0.116,0.272-0.297,0.604-0.545,0.992l-2.25,3.272H296.75z"/>
						<path fill="#485156" d="M309.728,148.838h-1.462v-4.227c0-0.524-0.099-0.916-0.297-1.174c-0.199-0.258-0.508-0.387-0.93-0.387
							c-0.562,0-0.974,0.183-1.237,0.548c-0.262,0.366-0.394,0.974-0.394,1.825v3.415h-1.457v-6.854h1.141l0.205,0.898h0.074
							c0.19-0.326,0.466-0.579,0.828-0.756c0.361-0.177,0.759-0.266,1.193-0.266c1.054,0,1.752,0.359,2.095,1.078h0.099
							c0.203-0.339,0.488-0.603,0.855-0.793c0.368-0.19,0.789-0.285,1.264-0.285c0.818,0,1.414,0.207,1.788,0.62
							s0.561,1.043,0.561,1.89v4.469h-1.457v-4.227c0-0.524-0.1-0.916-0.3-1.174c-0.201-0.258-0.512-0.387-0.933-0.387
							c-0.566,0-0.98,0.176-1.243,0.53c-0.262,0.353-0.394,0.896-0.394,1.627V148.838z"/>
						<path fill="#485156" d="M319.081,148.962c-1.066,0-1.899-0.311-2.5-0.933c-0.602-0.622-0.902-1.479-0.902-2.569
							c0-1.12,0.279-2,0.836-2.64c0.558-0.64,1.324-0.96,2.299-0.96c0.905,0,1.62,0.274,2.145,0.824
							c0.525,0.549,0.787,1.306,0.787,2.268v0.787h-4.568c0.021,0.666,0.201,1.177,0.54,1.534c0.338,0.357,0.816,0.536,1.432,0.536
							c0.405,0,0.782-0.038,1.131-0.115c0.349-0.076,0.724-0.204,1.125-0.381v1.184c-0.355,0.169-0.715,0.289-1.079,0.359
							C319.963,148.926,319.547,148.962,319.081,148.962z M320.24,141.146c-0.508-0.302-0.979-0.673-1.413-1.116
							c-0.426,0.426-0.891,0.797-1.395,1.116h-0.979v-0.155c0.789-0.818,1.314-1.444,1.574-1.878h1.612
							c0.26,0.455,0.789,1.081,1.586,1.878v0.155H320.24z M318.814,142.962c-0.462,0-0.833,0.146-1.112,0.44
							s-0.445,0.721-0.499,1.283h3.111c-0.008-0.566-0.145-0.995-0.409-1.286C319.641,143.108,319.277,142.962,318.814,142.962z"/>
						<path fill="#485156" d="M328.005,146.885c0,0.669-0.244,1.183-0.731,1.54c-0.488,0.357-1.186,0.536-2.095,0.536
							c-0.913,0-1.646-0.139-2.2-0.416v-1.258c0.806,0.372,1.556,0.558,2.25,0.558c0.896,0,1.345-0.271,1.345-0.812
							c0-0.173-0.049-0.318-0.148-0.434s-0.263-0.236-0.49-0.359c-0.228-0.124-0.543-0.265-0.948-0.422
							c-0.79-0.306-1.323-0.611-1.602-0.917s-0.418-0.703-0.418-1.19c0-0.587,0.236-1.042,0.709-1.367s1.117-0.486,1.931-0.486
							c0.806,0,1.568,0.163,2.287,0.489l-0.471,1.097c-0.74-0.306-1.361-0.458-1.865-0.458c-0.769,0-1.153,0.219-1.153,0.657
							c0,0.215,0.1,0.397,0.3,0.545c0.201,0.149,0.638,0.354,1.311,0.614c0.566,0.219,0.977,0.419,1.233,0.601
							c0.256,0.182,0.446,0.392,0.57,0.629C327.943,146.271,328.005,146.555,328.005,146.885z"/>
					</g>
				</g>
				<g>
					<g>
						<path fill="#485156" d="M306.647,161.634c0.955,0,1.706,0.237,2.253,0.709c0.547,0.474,0.821,1.121,0.821,1.943
							c0,0.938-0.299,1.673-0.896,2.206c-0.597,0.533-1.42,0.8-2.47,0.8c-1.021,0-1.799-0.163-2.336-0.49v-0.992
							c0.289,0.186,0.649,0.332,1.079,0.437s0.853,0.158,1.271,0.158c0.727,0,1.292-0.171,1.695-0.515
							c0.403-0.343,0.604-0.838,0.604-1.487c0-1.264-0.775-1.896-2.324-1.896c-0.393,0-0.917,0.06-1.574,0.18l-0.533-0.341
							l0.341-4.239h4.505v0.948h-3.625l-0.229,2.721C305.703,161.681,306.176,161.634,306.647,161.634z"/>
						<path fill="#485156" d="M312.22,167.169l3.755-8.113h-4.939v-0.948h6.03v0.824l-3.706,8.237H312.22z"/>
					</g>
				</g>
			</g>
			<g>
				<g>
					<g>
						<path fill="#485156" d="M348.036,143.179c0.913,0,1.636,0.242,2.169,0.725c0.533,0.483,0.799,1.143,0.799,1.977
							c0,0.967-0.303,1.722-0.908,2.266c-0.605,0.543-1.466,0.815-2.582,0.815c-1.012,0-1.808-0.163-2.386-0.49v-1.32
							c0.335,0.19,0.719,0.337,1.153,0.44c0.434,0.103,0.837,0.155,1.208,0.155c0.657,0,1.157-0.146,1.5-0.44
							c0.343-0.293,0.514-0.723,0.514-1.289c0-1.083-0.69-1.624-2.07-1.624c-0.194,0-0.434,0.02-0.719,0.059
							c-0.285,0.039-0.535,0.083-0.75,0.133l-0.651-0.384l0.347-4.425h4.71v1.295h-3.427l-0.205,2.244
							c0.145-0.025,0.321-0.054,0.53-0.087C347.479,143.195,347.734,143.179,348.036,143.179z"/>
						<path fill="#485156" d="M361.764,148.838h-1.462v-4.227c0-0.524-0.099-0.916-0.297-1.174c-0.199-0.258-0.508-0.387-0.93-0.387
							c-0.562,0-0.974,0.183-1.237,0.548c-0.262,0.366-0.394,0.974-0.394,1.825v3.415h-1.457v-6.854h1.141l0.205,0.898h0.074
							c0.19-0.326,0.466-0.579,0.828-0.756c0.361-0.177,0.759-0.266,1.193-0.266c1.054,0,1.752,0.359,2.095,1.078h0.099
							c0.203-0.339,0.488-0.603,0.855-0.793c0.368-0.19,0.789-0.285,1.264-0.285c0.818,0,1.414,0.207,1.788,0.62
							s0.561,1.043,0.561,1.89v4.469h-1.457v-4.227c0-0.524-0.1-0.916-0.3-1.174c-0.201-0.258-0.512-0.387-0.933-0.387
							c-0.566,0-0.98,0.176-1.243,0.53c-0.262,0.353-0.394,0.896-0.394,1.627V148.838z"/>
						<path fill="#485156" d="M371.117,148.962c-1.066,0-1.899-0.311-2.5-0.933c-0.602-0.622-0.902-1.479-0.902-2.569
							c0-1.12,0.279-2,0.836-2.64c0.558-0.64,1.324-0.96,2.299-0.96c0.905,0,1.62,0.274,2.145,0.824
							c0.525,0.549,0.787,1.306,0.787,2.268v0.787h-4.568c0.021,0.666,0.201,1.177,0.54,1.534c0.338,0.357,0.816,0.536,1.432,0.536
							c0.405,0,0.782-0.038,1.131-0.115c0.349-0.076,0.724-0.204,1.125-0.381v1.184c-0.355,0.169-0.715,0.289-1.079,0.359
							C371.999,148.926,371.583,148.962,371.117,148.962z M372.276,141.146c-0.508-0.302-0.979-0.673-1.413-1.116
							c-0.426,0.426-0.891,0.797-1.395,1.116h-0.979v-0.155c0.789-0.818,1.314-1.444,1.574-1.878h1.612
							c0.26,0.455,0.789,1.081,1.586,1.878v0.155H372.276z M370.85,142.962c-0.462,0-0.833,0.146-1.112,0.44
							s-0.445,0.721-0.499,1.283h3.111c-0.008-0.566-0.145-0.995-0.409-1.286C371.677,143.108,371.313,142.962,370.85,142.962z"/>
						<path fill="#485156" d="M380.042,146.885c0,0.669-0.244,1.183-0.731,1.54c-0.488,0.357-1.186,0.536-2.095,0.536
							c-0.913,0-1.646-0.139-2.2-0.416v-1.258c0.806,0.372,1.556,0.558,2.25,0.558c0.896,0,1.345-0.271,1.345-0.812
							c0-0.173-0.049-0.318-0.148-0.434s-0.263-0.236-0.49-0.359c-0.228-0.124-0.543-0.265-0.948-0.422
							c-0.79-0.306-1.323-0.611-1.602-0.917s-0.418-0.703-0.418-1.19c0-0.587,0.236-1.042,0.709-1.367s1.117-0.486,1.931-0.486
							c0.806,0,1.568,0.163,2.287,0.489l-0.471,1.097c-0.74-0.306-1.361-0.458-1.865-0.458c-0.769,0-1.153,0.219-1.153,0.657
							c0,0.215,0.1,0.397,0.3,0.545c0.201,0.149,0.638,0.354,1.311,0.614c0.566,0.219,0.977,0.419,1.233,0.601
							c0.256,0.182,0.446,0.392,0.57,0.629C379.979,146.271,380.042,146.555,380.042,146.885z"/>
					</g>
				</g>
				<g>
					<g>
						<path fill="#485156" d="M355.957,163.295c0-1.781,0.346-3.112,1.038-3.995c0.692-0.882,1.716-1.323,3.071-1.323
							c0.467,0,0.834,0.04,1.103,0.118v0.887c-0.318-0.104-0.682-0.155-1.091-0.155c-0.971,0-1.713,0.303-2.225,0.908
							c-0.512,0.605-0.793,1.557-0.843,2.854h0.074c0.455-0.71,1.173-1.066,2.157-1.066c0.814,0,1.456,0.246,1.925,0.737
							c0.469,0.492,0.703,1.159,0.703,2.002c0,0.942-0.257,1.683-0.771,2.222c-0.515,0.54-1.209,0.809-2.085,0.809
							c-0.938,0-1.682-0.352-2.231-1.057C356.231,165.531,355.957,164.551,355.957,163.295z M359,166.419
							c0.587,0,1.042-0.185,1.367-0.555c0.324-0.37,0.487-0.904,0.487-1.602c0-0.599-0.151-1.07-0.453-1.413
							s-0.752-0.515-1.351-0.515c-0.372,0-0.713,0.077-1.022,0.229c-0.31,0.153-0.557,0.364-0.741,0.632
							c-0.184,0.269-0.276,0.547-0.276,0.836c0,0.426,0.083,0.822,0.248,1.19c0.165,0.368,0.399,0.659,0.703,0.874
							S358.611,166.419,359,166.419z"/>
						<path fill="#485156" d="M366.921,167.169h-1.004v-6.458c0-0.537,0.017-1.045,0.05-1.525c-0.087,0.087-0.184,0.178-0.292,0.273
							s-0.599,0.498-1.475,1.208l-0.545-0.707l2.398-1.853h0.868V167.169z"/>
					</g>
				</g>
			</g>
			<g>
				<g>
					<g>
						<path fill="#485156" d="M397.023,144.976c0-3.545,1.444-5.317,4.333-5.317c0.454,0,0.839,0.035,1.152,0.105v1.215
							c-0.313-0.091-0.678-0.136-1.09-0.136c-0.972,0-1.701,0.26-2.188,0.781c-0.488,0.521-0.752,1.355-0.793,2.504h0.074
							c0.194-0.334,0.467-0.594,0.818-0.778c0.351-0.184,0.764-0.276,1.24-0.276c0.822,0,1.463,0.252,1.921,0.756
							c0.459,0.504,0.688,1.188,0.688,2.051c0,0.951-0.266,1.702-0.797,2.253c-0.531,0.552-1.255,0.828-2.172,0.828
							c-0.648,0-1.212-0.156-1.692-0.468s-0.848-0.767-1.106-1.364C397.152,146.533,397.023,145.815,397.023,144.976z
							 M400.184,147.759c0.5,0,0.885-0.161,1.156-0.483s0.406-0.783,0.406-1.382c0-0.521-0.127-0.93-0.381-1.227
							c-0.255-0.298-0.636-0.446-1.144-0.446c-0.314,0-0.604,0.067-0.868,0.201c-0.265,0.134-0.473,0.318-0.626,0.552
							s-0.229,0.472-0.229,0.716c0,0.583,0.158,1.073,0.474,1.472C399.288,147.56,399.692,147.759,400.184,147.759z"/>
						<path fill="#485156" d="M413.8,148.838h-1.463v-4.227c0-0.524-0.099-0.916-0.297-1.174s-0.509-0.387-0.93-0.387
							c-0.563,0-0.975,0.183-1.236,0.548c-0.263,0.366-0.394,0.974-0.394,1.825v3.415h-1.457v-6.854h1.141l0.204,0.898h0.075
							c0.189-0.326,0.466-0.579,0.827-0.756c0.361-0.177,0.759-0.266,1.193-0.266c1.053,0,1.751,0.359,2.095,1.078h0.099
							c0.202-0.339,0.487-0.603,0.855-0.793c0.368-0.19,0.789-0.285,1.265-0.285c0.817,0,1.414,0.207,1.788,0.62
							s0.561,1.043,0.561,1.89v4.469h-1.456v-4.227c0-0.524-0.101-0.916-0.301-1.174s-0.512-0.387-0.933-0.387
							c-0.566,0-0.98,0.176-1.243,0.53c-0.263,0.353-0.394,0.896-0.394,1.627V148.838z"/>
						<path fill="#485156" d="M423.153,148.962c-1.066,0-1.9-0.311-2.501-0.933c-0.602-0.622-0.902-1.479-0.902-2.569
							c0-1.12,0.279-2,0.837-2.64c0.558-0.64,1.324-0.96,2.3-0.96c0.904,0,1.619,0.274,2.145,0.824
							c0.524,0.549,0.787,1.306,0.787,2.268v0.787h-4.568c0.021,0.666,0.2,1.177,0.539,1.534s0.816,0.536,1.432,0.536
							c0.405,0,0.782-0.038,1.132-0.115c0.349-0.076,0.724-0.204,1.125-0.381v1.184c-0.355,0.169-0.716,0.289-1.079,0.359
							S423.62,148.962,423.153,148.962z M424.312,141.146c-0.508-0.302-0.979-0.673-1.413-1.116
							c-0.425,0.426-0.89,0.797-1.395,1.116h-0.979v-0.155c0.789-0.818,1.313-1.444,1.574-1.878h1.611
							c0.26,0.455,0.789,1.081,1.586,1.878v0.155H424.312z M422.887,142.962c-0.463,0-0.834,0.146-1.113,0.44
							c-0.278,0.293-0.444,0.721-0.498,1.283h3.111c-0.009-0.566-0.146-0.995-0.409-1.286
							C423.713,143.108,423.349,142.962,422.887,142.962z"/>
						<path fill="#485156" d="M432.078,146.885c0,0.669-0.244,1.183-0.731,1.54c-0.488,0.357-1.187,0.536-2.095,0.536
							c-0.913,0-1.646-0.139-2.2-0.416v-1.258c0.806,0.372,1.556,0.558,2.249,0.558c0.897,0,1.346-0.271,1.346-0.812
							c0-0.173-0.05-0.318-0.149-0.434c-0.099-0.116-0.262-0.236-0.489-0.359c-0.228-0.124-0.543-0.265-0.948-0.422
							c-0.789-0.306-1.323-0.611-1.603-0.917c-0.278-0.306-0.418-0.703-0.418-1.19c0-0.587,0.236-1.042,0.71-1.367
							c0.473-0.324,1.116-0.486,1.931-0.486c0.806,0,1.567,0.163,2.286,0.489l-0.471,1.097c-0.739-0.306-1.361-0.458-1.865-0.458
							c-0.769,0-1.153,0.219-1.153,0.657c0,0.215,0.101,0.397,0.301,0.545c0.2,0.149,0.638,0.354,1.311,0.614
							c0.566,0.219,0.978,0.419,1.233,0.601c0.257,0.182,0.446,0.392,0.57,0.629C432.016,146.271,432.078,146.555,432.078,146.885z"
							/>
					</g>
				</g>
				<g>
					<g>
						<path fill="#485156" d="M407.993,163.295c0-1.781,0.346-3.112,1.038-3.995c0.691-0.882,1.715-1.323,3.07-1.323
							c0.467,0,0.835,0.04,1.104,0.118v0.887c-0.318-0.104-0.682-0.155-1.091-0.155c-0.971,0-1.713,0.303-2.225,0.908
							c-0.513,0.605-0.794,1.557-0.844,2.854h0.075c0.454-0.71,1.173-1.066,2.156-1.066c0.814,0,1.456,0.246,1.925,0.737
							s0.703,1.159,0.703,2.002c0,0.942-0.257,1.683-0.771,2.222c-0.515,0.54-1.21,0.809-2.086,0.809
							c-0.938,0-1.682-0.352-2.23-1.057C408.268,165.531,407.993,164.551,407.993,163.295z M411.036,166.419
							c0.586,0,1.042-0.185,1.366-0.555c0.324-0.37,0.486-0.904,0.486-1.602c0-0.599-0.15-1.07-0.452-1.413
							s-0.752-0.515-1.352-0.515c-0.371,0-0.712,0.077-1.022,0.229c-0.31,0.153-0.557,0.364-0.74,0.632s-0.276,0.547-0.276,0.836
							c0,0.426,0.083,0.822,0.248,1.19c0.165,0.368,0.4,0.659,0.704,0.874S410.647,166.419,411.036,166.419z"/>
						<path fill="#485156" d="M417.978,161.634c0.954,0,1.705,0.237,2.253,0.709c0.548,0.474,0.821,1.121,0.821,1.943
							c0,0.938-0.299,1.673-0.896,2.206c-0.598,0.533-1.421,0.8-2.47,0.8c-1.021,0-1.8-0.163-2.337-0.49v-0.992
							c0.289,0.186,0.648,0.332,1.078,0.437s0.854,0.158,1.271,0.158c0.728,0,1.293-0.171,1.695-0.515
							c0.403-0.343,0.604-0.838,0.604-1.487c0-1.264-0.774-1.896-2.324-1.896c-0.393,0-0.917,0.06-1.574,0.18l-0.533-0.341
							l0.341-4.239h4.506v0.948h-3.626l-0.229,2.721C417.033,161.681,417.507,161.634,417.978,161.634z"/>
					</g>
				</g>
			</g>
			<g>
				<g>
					<g>
						<path fill="#485156" d="M450.063,148.838l3.582-7.766h-4.71v-1.283h6.266v1.017l-3.563,8.032H450.063z"/>
						<path fill="#485156" d="M465.836,148.838h-1.463v-4.227c0-0.524-0.099-0.916-0.297-1.174s-0.509-0.387-0.93-0.387
							c-0.563,0-0.975,0.183-1.236,0.548c-0.263,0.366-0.394,0.974-0.394,1.825v3.415h-1.457v-6.854h1.141l0.204,0.898h0.075
							c0.189-0.326,0.466-0.579,0.827-0.756c0.361-0.177,0.759-0.266,1.193-0.266c1.053,0,1.751,0.359,2.095,1.078h0.099
							c0.202-0.339,0.487-0.603,0.855-0.793c0.368-0.19,0.789-0.285,1.265-0.285c0.817,0,1.414,0.207,1.788,0.62
							s0.561,1.043,0.561,1.89v4.469h-1.456v-4.227c0-0.524-0.101-0.916-0.301-1.174s-0.512-0.387-0.933-0.387
							c-0.566,0-0.98,0.176-1.243,0.53c-0.263,0.353-0.394,0.896-0.394,1.627V148.838z"/>
						<path fill="#485156" d="M475.189,148.962c-1.066,0-1.9-0.311-2.501-0.933c-0.602-0.622-0.902-1.479-0.902-2.569
							c0-1.12,0.279-2,0.837-2.64c0.558-0.64,1.324-0.96,2.3-0.96c0.904,0,1.619,0.274,2.145,0.824
							c0.524,0.549,0.787,1.306,0.787,2.268v0.787h-4.568c0.021,0.666,0.2,1.177,0.539,1.534s0.816,0.536,1.432,0.536
							c0.405,0,0.782-0.038,1.132-0.115c0.349-0.076,0.724-0.204,1.125-0.381v1.184c-0.355,0.169-0.716,0.289-1.079,0.359
							S475.656,148.962,475.189,148.962z M476.348,141.146c-0.508-0.302-0.979-0.673-1.413-1.116
							c-0.425,0.426-0.89,0.797-1.395,1.116h-0.979v-0.155c0.789-0.818,1.313-1.444,1.574-1.878h1.611
							c0.26,0.455,0.789,1.081,1.586,1.878v0.155H476.348z M474.923,142.962c-0.463,0-0.834,0.146-1.113,0.44
							c-0.278,0.293-0.444,0.721-0.498,1.283h3.111c-0.009-0.566-0.146-0.995-0.409-1.286
							C475.749,143.108,475.385,142.962,474.923,142.962z"/>
						<path fill="#485156" d="M484.114,146.885c0,0.669-0.244,1.183-0.731,1.54c-0.488,0.357-1.187,0.536-2.095,0.536
							c-0.913,0-1.646-0.139-2.2-0.416v-1.258c0.806,0.372,1.556,0.558,2.249,0.558c0.897,0,1.346-0.271,1.346-0.812
							c0-0.173-0.05-0.318-0.149-0.434c-0.099-0.116-0.262-0.236-0.489-0.359c-0.228-0.124-0.543-0.265-0.948-0.422
							c-0.789-0.306-1.323-0.611-1.603-0.917c-0.278-0.306-0.418-0.703-0.418-1.19c0-0.587,0.236-1.042,0.71-1.367
							c0.473-0.324,1.116-0.486,1.931-0.486c0.806,0,1.567,0.163,2.286,0.489l-0.471,1.097c-0.739-0.306-1.361-0.458-1.865-0.458
							c-0.769,0-1.153,0.219-1.153,0.657c0,0.215,0.101,0.397,0.301,0.545c0.2,0.149,0.638,0.354,1.311,0.614
							c0.566,0.219,0.978,0.419,1.233,0.601c0.257,0.182,0.446,0.392,0.57,0.629C484.052,146.271,484.114,146.555,484.114,146.885z"
							/>
					</g>
				</g>
				<g>
					<g>
						<path fill="#485156" d="M460.029,163.295c0-1.781,0.346-3.112,1.038-3.995c0.691-0.882,1.715-1.323,3.07-1.323
							c0.467,0,0.835,0.04,1.104,0.118v0.887c-0.318-0.104-0.682-0.155-1.091-0.155c-0.971,0-1.713,0.303-2.225,0.908
							c-0.513,0.605-0.794,1.557-0.844,2.854h0.075c0.454-0.71,1.173-1.066,2.156-1.066c0.814,0,1.456,0.246,1.925,0.737
							s0.703,1.159,0.703,2.002c0,0.942-0.257,1.683-0.771,2.222c-0.515,0.54-1.21,0.809-2.086,0.809
							c-0.938,0-1.682-0.352-2.23-1.057C460.304,165.531,460.029,164.551,460.029,163.295z M463.072,166.419
							c0.586,0,1.042-0.185,1.366-0.555c0.324-0.37,0.486-0.904,0.486-1.602c0-0.599-0.15-1.07-0.452-1.413
							s-0.752-0.515-1.352-0.515c-0.371,0-0.712,0.077-1.022,0.229c-0.31,0.153-0.557,0.364-0.74,0.632s-0.276,0.547-0.276,0.836
							c0,0.426,0.083,0.822,0.248,1.19c0.165,0.368,0.4,0.659,0.704,0.874S462.684,166.419,463.072,166.419z"/>
						<path fill="#485156" d="M473.138,161.975c0,3.545-1.372,5.318-4.115,5.318c-0.479,0-0.86-0.042-1.141-0.124v-0.886
							c0.33,0.107,0.706,0.161,1.128,0.161c0.991,0,1.74-0.307,2.246-0.92c0.507-0.614,0.782-1.555,0.828-2.823h-0.074
							c-0.228,0.343-0.529,0.604-0.905,0.784s-0.8,0.27-1.271,0.27c-0.802,0-1.438-0.24-1.909-0.719
							c-0.471-0.479-0.706-1.149-0.706-2.008c0-0.942,0.263-1.686,0.79-2.231c0.526-0.545,1.22-0.818,2.079-0.818
							c0.616,0,1.154,0.158,1.614,0.474c0.461,0.316,0.815,0.777,1.063,1.382S473.138,161.152,473.138,161.975z M470.088,158.858
							c-0.591,0-1.047,0.19-1.369,0.57c-0.322,0.38-0.483,0.909-0.483,1.587c0,0.595,0.148,1.063,0.446,1.404
							c0.297,0.341,0.749,0.511,1.356,0.511c0.376,0,0.723-0.077,1.038-0.229c0.316-0.153,0.565-0.361,0.747-0.626
							c0.182-0.264,0.272-0.541,0.272-0.831c0-0.434-0.084-0.834-0.254-1.202c-0.169-0.368-0.405-0.657-0.709-0.868
							S470.48,158.858,470.088,158.858z"/>
					</g>
				</g>
			</g>
			<g>
				<g>
					<g>
						<path fill="#485156" d="M504.133,139.659c0.859,0,1.539,0.197,2.039,0.592s0.75,0.922,0.75,1.583
							c0,0.93-0.558,1.669-1.673,2.219c0.71,0.355,1.216,0.729,1.515,1.122c0.3,0.393,0.45,0.831,0.45,1.314
							c0,0.748-0.275,1.347-0.825,1.797c-0.549,0.451-1.293,0.676-2.23,0.676c-0.983,0-1.746-0.211-2.287-0.632
							s-0.813-1.019-0.813-1.791c0-0.504,0.142-0.958,0.425-1.36s0.747-0.761,1.392-1.075c-0.554-0.331-0.948-0.68-1.184-1.048
							c-0.235-0.368-0.354-0.781-0.354-1.239c0-0.657,0.258-1.181,0.774-1.571S503.303,139.659,504.133,139.659z M502.453,146.488
							c0,0.43,0.151,0.764,0.453,1.001c0.302,0.238,0.71,0.356,1.227,0.356c0.533,0,0.947-0.123,1.243-0.369
							c0.295-0.246,0.443-0.58,0.443-1.001c0-0.334-0.137-0.641-0.409-0.917c-0.272-0.276-0.687-0.533-1.24-0.769l-0.18-0.081
							c-0.545,0.24-0.938,0.503-1.177,0.791C502.573,145.787,502.453,146.117,502.453,146.488z M504.121,140.78
							c-0.413,0-0.746,0.102-0.998,0.307s-0.378,0.482-0.378,0.834c0,0.215,0.045,0.407,0.136,0.576s0.224,0.323,0.397,0.462
							c0.173,0.138,0.467,0.305,0.88,0.499c0.495-0.219,0.846-0.449,1.05-0.691c0.205-0.242,0.308-0.523,0.308-0.846
							c0-0.352-0.127-0.629-0.382-0.834C504.88,140.882,504.542,140.78,504.121,140.78z"/>
						<path fill="#485156" d="M517.873,148.838h-1.463v-4.227c0-0.524-0.099-0.916-0.297-1.174s-0.509-0.387-0.93-0.387
							c-0.563,0-0.975,0.183-1.236,0.548c-0.263,0.366-0.394,0.974-0.394,1.825v3.415h-1.457v-6.854h1.141l0.204,0.898h0.075
							c0.189-0.326,0.466-0.579,0.827-0.756c0.361-0.177,0.759-0.266,1.193-0.266c1.053,0,1.751,0.359,2.095,1.078h0.099
							c0.202-0.339,0.487-0.603,0.855-0.793c0.368-0.19,0.789-0.285,1.265-0.285c0.817,0,1.414,0.207,1.788,0.62
							s0.561,1.043,0.561,1.89v4.469h-1.456v-4.227c0-0.524-0.101-0.916-0.301-1.174s-0.512-0.387-0.933-0.387
							c-0.566,0-0.98,0.176-1.243,0.53c-0.263,0.353-0.394,0.896-0.394,1.627V148.838z"/>
						<path fill="#485156" d="M527.227,148.962c-1.066,0-1.9-0.311-2.501-0.933c-0.602-0.622-0.902-1.479-0.902-2.569
							c0-1.12,0.279-2,0.837-2.64c0.558-0.64,1.324-0.96,2.3-0.96c0.904,0,1.619,0.274,2.145,0.824
							c0.524,0.549,0.787,1.306,0.787,2.268v0.787h-4.568c0.021,0.666,0.2,1.177,0.539,1.534s0.816,0.536,1.432,0.536
							c0.405,0,0.782-0.038,1.132-0.115c0.349-0.076,0.724-0.204,1.125-0.381v1.184c-0.355,0.169-0.716,0.289-1.079,0.359
							S527.693,148.962,527.227,148.962z M528.385,141.146c-0.508-0.302-0.979-0.673-1.413-1.116
							c-0.425,0.426-0.89,0.797-1.395,1.116h-0.979v-0.155c0.789-0.818,1.313-1.444,1.574-1.878h1.611
							c0.26,0.455,0.789,1.081,1.586,1.878v0.155H528.385z M526.96,142.962c-0.463,0-0.834,0.146-1.113,0.44
							c-0.278,0.293-0.444,0.721-0.498,1.283h3.111c-0.009-0.566-0.146-0.995-0.409-1.286
							C527.786,143.108,527.422,142.962,526.96,142.962z"/>
						<path fill="#485156" d="M536.151,146.885c0,0.669-0.244,1.183-0.731,1.54c-0.488,0.357-1.187,0.536-2.095,0.536
							c-0.913,0-1.646-0.139-2.2-0.416v-1.258c0.806,0.372,1.556,0.558,2.249,0.558c0.897,0,1.346-0.271,1.346-0.812
							c0-0.173-0.05-0.318-0.149-0.434c-0.099-0.116-0.262-0.236-0.489-0.359c-0.228-0.124-0.543-0.265-0.948-0.422
							c-0.789-0.306-1.323-0.611-1.603-0.917c-0.278-0.306-0.418-0.703-0.418-1.19c0-0.587,0.236-1.042,0.71-1.367
							c0.473-0.324,1.116-0.486,1.931-0.486c0.806,0,1.567,0.163,2.286,0.489l-0.471,1.097c-0.739-0.306-1.361-0.458-1.865-0.458
							c-0.769,0-1.153,0.219-1.153,0.657c0,0.215,0.101,0.397,0.301,0.545c0.2,0.149,0.638,0.354,1.311,0.614
							c0.566,0.219,0.978,0.419,1.233,0.601c0.257,0.182,0.446,0.392,0.57,0.629C536.089,146.271,536.151,146.555,536.151,146.885z"
							/>
					</g>
				</g>
				<g>
					<g>
						<path fill="#485156" d="M513.107,167.169l3.756-8.113h-4.939v-0.948h6.03v0.824l-3.706,8.237H513.107z"/>
						<path fill="#485156" d="M524.834,160.239c0,0.579-0.163,1.052-0.487,1.419s-0.783,0.614-1.379,0.737v0.05
							c0.728,0.091,1.267,0.322,1.618,0.694c0.351,0.372,0.526,0.859,0.526,1.462c0,0.864-0.3,1.528-0.898,1.993
							c-0.6,0.465-1.45,0.697-2.554,0.697c-0.479,0-0.918-0.036-1.316-0.108c-0.399-0.072-0.786-0.199-1.162-0.381v-0.979
							c0.392,0.194,0.811,0.342,1.255,0.443c0.444,0.102,0.864,0.152,1.261,0.152c1.566,0,2.35-0.613,2.35-1.841
							c0-1.099-0.864-1.648-2.591-1.648h-0.893v-0.886h0.904c0.707,0,1.267-0.156,1.68-0.468s0.62-0.745,0.62-1.299
							c0-0.442-0.151-0.789-0.455-1.041s-0.716-0.378-1.237-0.378c-0.396,0-0.771,0.054-1.121,0.161
							c-0.352,0.107-0.752,0.306-1.203,0.595l-0.521-0.694c0.372-0.293,0.801-0.524,1.286-0.691
							c0.485-0.167,0.997-0.251,1.534-0.251c0.88,0,1.563,0.202,2.052,0.604C524.59,158.984,524.834,159.537,524.834,160.239z"/>
					</g>
				</g>
			</g>
			<g>
				<g>
					<g>
						<path fill="#485156" d="M559.235,143.644c0,1.785-0.359,3.118-1.078,3.998c-0.72,0.88-1.802,1.32-3.248,1.32
							c-0.55,0-0.944-0.033-1.184-0.099v-1.221c0.367,0.104,0.737,0.155,1.109,0.155c0.983,0,1.717-0.265,2.2-0.793
							s0.748-1.359,0.793-2.492h-0.074c-0.244,0.372-0.538,0.641-0.883,0.806c-0.346,0.166-0.749,0.248-1.212,0.248
							c-0.802,0-1.432-0.25-1.891-0.75c-0.458-0.5-0.688-1.186-0.688-2.058c0-0.946,0.266-1.699,0.796-2.259
							c0.531-0.56,1.255-0.84,2.173-0.84c0.645,0,1.206,0.157,1.686,0.471s0.85,0.77,1.109,1.367
							C559.105,142.093,559.235,142.809,559.235,143.644z M556.074,140.867c-0.504,0-0.891,0.164-1.159,0.493
							s-0.402,0.79-0.402,1.385c0,0.517,0.125,0.922,0.375,1.218s0.629,0.443,1.137,0.443c0.492,0,0.905-0.146,1.24-0.44
							c0.334-0.293,0.502-0.636,0.502-1.029c0-0.368-0.071-0.711-0.214-1.032s-0.342-0.573-0.599-0.759
							C556.698,140.96,556.405,140.867,556.074,140.867z"/>
						<path fill="#485156" d="M569.907,148.838h-1.463v-4.227c0-0.524-0.099-0.916-0.297-1.174s-0.509-0.387-0.93-0.387
							c-0.563,0-0.975,0.183-1.236,0.548c-0.263,0.366-0.394,0.974-0.394,1.825v3.415h-1.457v-6.854h1.141l0.204,0.898h0.075
							c0.189-0.326,0.466-0.579,0.827-0.756c0.361-0.177,0.759-0.266,1.193-0.266c1.053,0,1.751,0.359,2.095,1.078h0.099
							c0.202-0.339,0.487-0.603,0.855-0.793c0.368-0.19,0.789-0.285,1.265-0.285c0.817,0,1.414,0.207,1.788,0.62
							s0.561,1.043,0.561,1.89v4.469h-1.456v-4.227c0-0.524-0.101-0.916-0.301-1.174s-0.512-0.387-0.933-0.387
							c-0.566,0-0.98,0.176-1.243,0.53c-0.263,0.353-0.394,0.896-0.394,1.627V148.838z"/>
						<path fill="#485156" d="M579.261,148.962c-1.066,0-1.9-0.311-2.501-0.933c-0.602-0.622-0.902-1.479-0.902-2.569
							c0-1.12,0.279-2,0.837-2.64c0.558-0.64,1.324-0.96,2.3-0.96c0.904,0,1.619,0.274,2.145,0.824
							c0.524,0.549,0.787,1.306,0.787,2.268v0.787h-4.568c0.021,0.666,0.2,1.177,0.539,1.534s0.816,0.536,1.432,0.536
							c0.405,0,0.782-0.038,1.132-0.115c0.349-0.076,0.724-0.204,1.125-0.381v1.184c-0.355,0.169-0.716,0.289-1.079,0.359
							S579.728,148.962,579.261,148.962z M580.419,141.146c-0.508-0.302-0.979-0.673-1.413-1.116
							c-0.425,0.426-0.89,0.797-1.395,1.116h-0.979v-0.155c0.789-0.818,1.313-1.444,1.574-1.878h1.611
							c0.26,0.455,0.789,1.081,1.586,1.878v0.155H580.419z M578.994,142.962c-0.463,0-0.834,0.146-1.113,0.44
							c-0.278,0.293-0.444,0.721-0.498,1.283h3.111c-0.009-0.566-0.146-0.995-0.409-1.286
							C579.82,143.108,579.456,142.962,578.994,142.962z"/>
						<path fill="#485156" d="M588.186,146.885c0,0.669-0.244,1.183-0.731,1.54c-0.488,0.357-1.187,0.536-2.095,0.536
							c-0.913,0-1.646-0.139-2.2-0.416v-1.258c0.806,0.372,1.556,0.558,2.249,0.558c0.897,0,1.346-0.271,1.346-0.812
							c0-0.173-0.05-0.318-0.149-0.434c-0.099-0.116-0.262-0.236-0.489-0.359c-0.228-0.124-0.543-0.265-0.948-0.422
							c-0.789-0.306-1.323-0.611-1.603-0.917c-0.278-0.306-0.418-0.703-0.418-1.19c0-0.587,0.236-1.042,0.71-1.367
							c0.473-0.324,1.116-0.486,1.931-0.486c0.806,0,1.567,0.163,2.286,0.489l-0.471,1.097c-0.739-0.306-1.361-0.458-1.865-0.458
							c-0.769,0-1.153,0.219-1.153,0.657c0,0.215,0.101,0.397,0.301,0.545c0.2,0.149,0.638,0.354,1.311,0.614
							c0.566,0.219,0.978,0.419,1.233,0.601c0.257,0.182,0.446,0.392,0.57,0.629C588.123,146.271,588.186,146.555,588.186,146.885z"
							/>
					</g>
				</g>
				<g>
					<g>
						<path fill="#485156" d="M565.142,167.169l3.756-8.113h-4.939v-0.948h6.03v0.824l-3.706,8.237H565.142z"/>
						<path fill="#485156" d="M572.399,167.169l3.756-8.113h-4.939v-0.948h6.03v0.824l-3.706,8.237H572.399z"/>
					</g>
				</g>
			</g>
			<g>
				<g>
					<g>
						<path fill="#485156" d="M609.42,148.838h-1.456v-5.851c0-0.698,0.017-1.252,0.05-1.661c-0.096,0.099-0.212,0.208-0.351,0.329
							c-0.139,0.12-0.603,0.5-1.392,1.14l-0.731-0.923l2.665-2.095h1.215V148.838z"/>
						<path fill="#485156" d="M618.531,144.307c0,1.574-0.254,2.744-0.76,3.508c-0.506,0.764-1.279,1.146-2.321,1.146
							c-1.008,0-1.772-0.395-2.293-1.184c-0.521-0.789-0.781-1.946-0.781-3.471c0-1.599,0.254-2.777,0.76-3.536
							s1.277-1.137,2.314-1.137c1.013,0,1.779,0.396,2.3,1.19S618.531,142.778,618.531,144.307z M613.852,144.307
							c0,1.236,0.127,2.118,0.381,2.646c0.254,0.529,0.66,0.793,1.218,0.793c0.559,0,0.966-0.269,1.225-0.806
							c0.258-0.537,0.387-1.415,0.387-2.634c0-1.214-0.129-2.094-0.387-2.637c-0.259-0.543-0.666-0.815-1.225-0.815
							c-0.558,0-0.964,0.267-1.218,0.8C613.979,142.187,613.852,143.071,613.852,144.307z"/>
						<path fill="#485156" d="M629.19,148.838h-1.463v-4.227c0-0.524-0.099-0.916-0.297-1.174s-0.509-0.387-0.93-0.387
							c-0.563,0-0.975,0.183-1.236,0.548c-0.263,0.366-0.394,0.974-0.394,1.825v3.415h-1.457v-6.854h1.141l0.204,0.898h0.075
							c0.189-0.326,0.466-0.579,0.827-0.756c0.361-0.177,0.759-0.266,1.193-0.266c1.053,0,1.751,0.359,2.095,1.078h0.099
							c0.202-0.339,0.487-0.603,0.855-0.793c0.368-0.19,0.789-0.285,1.265-0.285c0.817,0,1.414,0.207,1.788,0.62
							s0.561,1.043,0.561,1.89v4.469h-1.456v-4.227c0-0.524-0.101-0.916-0.301-1.174s-0.512-0.387-0.933-0.387
							c-0.566,0-0.98,0.176-1.243,0.53c-0.263,0.353-0.394,0.896-0.394,1.627V148.838z"/>
						<path fill="#485156" d="M638.544,148.962c-1.066,0-1.9-0.311-2.501-0.933c-0.602-0.622-0.902-1.479-0.902-2.569
							c0-1.12,0.279-2,0.837-2.64c0.558-0.64,1.324-0.96,2.3-0.96c0.904,0,1.619,0.274,2.145,0.824
							c0.524,0.549,0.787,1.306,0.787,2.268v0.787h-4.568c0.021,0.666,0.2,1.177,0.539,1.534s0.816,0.536,1.432,0.536
							c0.405,0,0.782-0.038,1.132-0.115c0.349-0.076,0.724-0.204,1.125-0.381v1.184c-0.355,0.169-0.716,0.289-1.079,0.359
							S639.011,148.962,638.544,148.962z M639.702,141.146c-0.508-0.302-0.979-0.673-1.413-1.116
							c-0.425,0.426-0.89,0.797-1.395,1.116h-0.979v-0.155c0.789-0.818,1.313-1.444,1.574-1.878h1.611
							c0.26,0.455,0.789,1.081,1.586,1.878v0.155H639.702z M638.277,142.962c-0.463,0-0.834,0.146-1.113,0.44
							c-0.278,0.293-0.444,0.721-0.498,1.283h3.111c-0.009-0.566-0.146-0.995-0.409-1.286
							C639.104,143.108,638.739,142.962,638.277,142.962z"/>
						<path fill="#485156" d="M647.469,146.885c0,0.669-0.244,1.183-0.731,1.54c-0.488,0.357-1.187,0.536-2.095,0.536
							c-0.913,0-1.646-0.139-2.2-0.416v-1.258c0.806,0.372,1.556,0.558,2.249,0.558c0.897,0,1.346-0.271,1.346-0.812
							c0-0.173-0.05-0.318-0.149-0.434c-0.099-0.116-0.262-0.236-0.489-0.359c-0.228-0.124-0.543-0.265-0.948-0.422
							c-0.789-0.306-1.323-0.611-1.603-0.917c-0.278-0.306-0.418-0.703-0.418-1.19c0-0.587,0.236-1.042,0.71-1.367
							c0.473-0.324,1.116-0.486,1.931-0.486c0.806,0,1.567,0.163,2.286,0.489l-0.471,1.097c-0.739-0.306-1.361-0.458-1.865-0.458
							c-0.769,0-1.153,0.219-1.153,0.657c0,0.215,0.101,0.397,0.301,0.545c0.2,0.149,0.638,0.354,1.311,0.614
							c0.566,0.219,0.978,0.419,1.233,0.601c0.257,0.182,0.446,0.392,0.57,0.629C647.406,146.271,647.469,146.555,647.469,146.885z"
							/>
					</g>
				</g>
				<g>
					<g>
						<path fill="#485156" d="M622.655,157.977c0.827,0,1.481,0.192,1.965,0.577s0.726,0.915,0.726,1.593
							c0,0.446-0.139,0.853-0.415,1.221c-0.277,0.368-0.72,0.703-1.327,1.004c0.735,0.351,1.259,0.72,1.568,1.106
							c0.31,0.387,0.465,0.834,0.465,1.342c0,0.752-0.263,1.353-0.787,1.801s-1.244,0.672-2.157,0.672
							c-0.967,0-1.71-0.212-2.23-0.635s-0.781-1.024-0.781-1.801c0-1.037,0.632-1.845,1.896-2.423
							c-0.57-0.323-0.979-0.67-1.228-1.044c-0.247-0.374-0.371-0.792-0.371-1.255c0-0.657,0.242-1.181,0.728-1.571
							C621.191,158.172,621.842,157.977,622.655,157.977z M620.697,164.881c0,0.496,0.172,0.882,0.518,1.159
							c0.345,0.277,0.829,0.415,1.453,0.415c0.615,0,1.095-0.145,1.438-0.434c0.344-0.289,0.515-0.686,0.515-1.19
							c0-0.401-0.161-0.757-0.483-1.069s-0.884-0.614-1.686-0.908c-0.616,0.264-1.063,0.557-1.339,0.877
							S620.697,164.435,620.697,164.881z M622.644,158.814c-0.517,0-0.922,0.124-1.215,0.372c-0.294,0.248-0.44,0.579-0.44,0.992
							c0,0.38,0.122,0.707,0.366,0.979c0.243,0.272,0.693,0.545,1.351,0.818c0.591-0.248,1.01-0.514,1.255-0.799
							c0.246-0.285,0.369-0.618,0.369-0.998c0-0.417-0.149-0.749-0.449-0.995C623.58,158.937,623.168,158.814,622.644,158.814z"/>
						<path fill="#485156" d="M630.726,167.169h-1.004v-6.458c0-0.537,0.016-1.045,0.049-1.525
							c-0.086,0.087-0.184,0.178-0.291,0.273s-0.599,0.498-1.475,1.208l-0.546-0.707l2.398-1.853h0.868V167.169z"/>
					</g>
				</g>
			</g>
			<g>
				<g>
					<g>
						<path fill="#485156" d="M668.701,148.838h-1.456v-5.851c0-0.698,0.017-1.252,0.05-1.661c-0.096,0.099-0.212,0.208-0.351,0.329
							c-0.139,0.12-0.603,0.5-1.392,1.14l-0.731-0.923l2.665-2.095h1.215V148.838z"/>
						<path fill="#485156" d="M675.946,148.838h-1.456v-5.851c0-0.698,0.017-1.252,0.05-1.661c-0.096,0.099-0.212,0.208-0.351,0.329
							c-0.139,0.12-0.603,0.5-1.392,1.14l-0.731-0.923l2.665-2.095h1.215V148.838z"/>
						<path fill="#485156" d="M688.472,148.838h-1.463v-4.227c0-0.524-0.099-0.916-0.297-1.174s-0.509-0.387-0.93-0.387
							c-0.563,0-0.975,0.183-1.236,0.548c-0.263,0.366-0.394,0.974-0.394,1.825v3.415h-1.457v-6.854h1.141l0.204,0.898h0.075
							c0.189-0.326,0.466-0.579,0.827-0.756c0.361-0.177,0.759-0.266,1.193-0.266c1.053,0,1.751,0.359,2.095,1.078h0.099
							c0.202-0.339,0.487-0.603,0.855-0.793c0.368-0.19,0.789-0.285,1.265-0.285c0.817,0,1.414,0.207,1.788,0.62
							s0.561,1.043,0.561,1.89v4.469h-1.456v-4.227c0-0.524-0.101-0.916-0.301-1.174s-0.512-0.387-0.933-0.387
							c-0.566,0-0.98,0.176-1.243,0.53c-0.263,0.353-0.394,0.896-0.394,1.627V148.838z"/>
						<path fill="#485156" d="M697.825,148.962c-1.066,0-1.9-0.311-2.501-0.933c-0.602-0.622-0.902-1.479-0.902-2.569
							c0-1.12,0.279-2,0.837-2.64c0.558-0.64,1.324-0.96,2.3-0.96c0.904,0,1.619,0.274,2.145,0.824
							c0.524,0.549,0.787,1.306,0.787,2.268v0.787h-4.568c0.021,0.666,0.2,1.177,0.539,1.534s0.816,0.536,1.432,0.536
							c0.405,0,0.782-0.038,1.132-0.115c0.349-0.076,0.724-0.204,1.125-0.381v1.184c-0.355,0.169-0.716,0.289-1.079,0.359
							S698.292,148.962,697.825,148.962z M698.983,141.146c-0.508-0.302-0.979-0.673-1.413-1.116
							c-0.425,0.426-0.89,0.797-1.395,1.116h-0.979v-0.155c0.789-0.818,1.313-1.444,1.574-1.878h1.611
							c0.26,0.455,0.789,1.081,1.586,1.878v0.155H698.983z M697.559,142.962c-0.463,0-0.834,0.146-1.113,0.44
							c-0.278,0.293-0.444,0.721-0.498,1.283h3.111c-0.009-0.566-0.146-0.995-0.409-1.286
							C698.385,143.108,698.021,142.962,697.559,142.962z"/>
						<path fill="#485156" d="M706.75,146.885c0,0.669-0.244,1.183-0.731,1.54c-0.488,0.357-1.187,0.536-2.095,0.536
							c-0.913,0-1.646-0.139-2.2-0.416v-1.258c0.806,0.372,1.556,0.558,2.249,0.558c0.897,0,1.346-0.271,1.346-0.812
							c0-0.173-0.05-0.318-0.149-0.434c-0.099-0.116-0.262-0.236-0.489-0.359c-0.228-0.124-0.543-0.265-0.948-0.422
							c-0.789-0.306-1.323-0.611-1.603-0.917c-0.278-0.306-0.418-0.703-0.418-1.19c0-0.587,0.236-1.042,0.71-1.367
							c0.473-0.324,1.116-0.486,1.931-0.486c0.806,0,1.567,0.163,2.286,0.489l-0.471,1.097c-0.739-0.306-1.361-0.458-1.865-0.458
							c-0.769,0-1.153,0.219-1.153,0.657c0,0.215,0.101,0.397,0.301,0.545c0.2,0.149,0.638,0.354,1.311,0.614
							c0.566,0.219,0.978,0.419,1.233,0.601c0.257,0.182,0.446,0.392,0.57,0.629C706.688,146.271,706.75,146.555,706.75,146.885z"/>
					</g>
				</g>
				<g>
					<g>
						<path fill="#485156" d="M681.937,157.977c0.827,0,1.481,0.192,1.965,0.577s0.726,0.915,0.726,1.593
							c0,0.446-0.139,0.853-0.415,1.221c-0.277,0.368-0.72,0.703-1.327,1.004c0.735,0.351,1.259,0.72,1.568,1.106
							c0.31,0.387,0.465,0.834,0.465,1.342c0,0.752-0.263,1.353-0.787,1.801s-1.244,0.672-2.157,0.672
							c-0.967,0-1.71-0.212-2.23-0.635s-0.781-1.024-0.781-1.801c0-1.037,0.632-1.845,1.896-2.423
							c-0.57-0.323-0.979-0.67-1.228-1.044c-0.247-0.374-0.371-0.792-0.371-1.255c0-0.657,0.242-1.181,0.728-1.571
							C680.473,158.172,681.123,157.977,681.937,157.977z M679.979,164.881c0,0.496,0.172,0.882,0.518,1.159
							c0.345,0.277,0.829,0.415,1.453,0.415c0.615,0,1.095-0.145,1.438-0.434c0.344-0.289,0.515-0.686,0.515-1.19
							c0-0.401-0.161-0.757-0.483-1.069s-0.884-0.614-1.686-0.908c-0.616,0.264-1.063,0.557-1.339,0.877
							S679.979,164.435,679.979,164.881z M681.925,158.814c-0.517,0-0.922,0.124-1.215,0.372c-0.294,0.248-0.44,0.579-0.44,0.992
							c0,0.38,0.122,0.707,0.366,0.979c0.243,0.272,0.693,0.545,1.351,0.818c0.591-0.248,1.01-0.514,1.255-0.799
							c0.246-0.285,0.369-0.618,0.369-0.998c0-0.417-0.149-0.749-0.449-0.995C682.861,158.937,682.449,158.814,681.925,158.814z"/>
						<path fill="#485156" d="M689.027,161.634c0.954,0,1.705,0.237,2.253,0.709c0.548,0.474,0.821,1.121,0.821,1.943
							c0,0.938-0.299,1.673-0.896,2.206c-0.598,0.533-1.421,0.8-2.47,0.8c-1.021,0-1.8-0.163-2.337-0.49v-0.992
							c0.289,0.186,0.648,0.332,1.078,0.437s0.854,0.158,1.271,0.158c0.728,0,1.293-0.171,1.695-0.515
							c0.403-0.343,0.604-0.838,0.604-1.487c0-1.264-0.774-1.896-2.324-1.896c-0.393,0-0.917,0.06-1.574,0.18l-0.533-0.341
							l0.341-4.239h4.506v0.948h-3.626l-0.229,2.721C688.083,161.681,688.557,161.634,689.027,161.634z"/>
					</g>
				</g>
			</g>
			<g>
				<g>
					<g>
						<path fill="#485156" d="M727.982,148.838h-1.456v-5.851c0-0.698,0.017-1.252,0.05-1.661c-0.096,0.099-0.212,0.208-0.351,0.329
							c-0.139,0.12-0.603,0.5-1.392,1.14l-0.731-0.923l2.665-2.095h1.215V148.838z"/>
						<path fill="#485156" d="M737.094,148.838h-6.143v-1.103l2.337-2.349c0.689-0.707,1.147-1.208,1.373-1.503
							c0.225-0.295,0.389-0.573,0.492-0.833s0.155-0.54,0.155-0.837c0-0.409-0.123-0.731-0.369-0.967s-0.586-0.353-1.02-0.353
							c-0.347,0-0.683,0.064-1.007,0.192s-0.699,0.359-1.125,0.694l-0.787-0.961c0.504-0.425,0.993-0.727,1.469-0.905
							s0.981-0.267,1.519-0.267c0.843,0,1.519,0.22,2.026,0.66c0.509,0.44,0.763,1.032,0.763,1.776c0,0.409-0.073,0.797-0.22,1.165
							c-0.147,0.368-0.372,0.747-0.676,1.137s-0.809,0.918-1.516,1.583l-1.574,1.525v0.062h4.302V148.838z"/>
						<path fill="#485156" d="M747.753,148.838h-1.463v-4.227c0-0.524-0.099-0.916-0.297-1.174s-0.509-0.387-0.93-0.387
							c-0.563,0-0.975,0.183-1.236,0.548c-0.263,0.366-0.394,0.974-0.394,1.825v3.415h-1.457v-6.854h1.141l0.204,0.898h0.075
							c0.189-0.326,0.466-0.579,0.827-0.756c0.361-0.177,0.759-0.266,1.193-0.266c1.053,0,1.751,0.359,2.095,1.078h0.099
							c0.202-0.339,0.487-0.603,0.855-0.793c0.368-0.19,0.789-0.285,1.265-0.285c0.817,0,1.414,0.207,1.788,0.62
							s0.561,1.043,0.561,1.89v4.469h-1.456v-4.227c0-0.524-0.101-0.916-0.301-1.174s-0.512-0.387-0.933-0.387
							c-0.566,0-0.98,0.176-1.243,0.53c-0.263,0.353-0.394,0.896-0.394,1.627V148.838z"/>
						<path fill="#485156" d="M757.106,148.962c-1.066,0-1.9-0.311-2.501-0.933c-0.602-0.622-0.902-1.479-0.902-2.569
							c0-1.12,0.279-2,0.837-2.64c0.558-0.64,1.324-0.96,2.3-0.96c0.904,0,1.619,0.274,2.145,0.824
							c0.524,0.549,0.787,1.306,0.787,2.268v0.787h-4.568c0.021,0.666,0.2,1.177,0.539,1.534s0.816,0.536,1.432,0.536
							c0.405,0,0.782-0.038,1.132-0.115c0.349-0.076,0.724-0.204,1.125-0.381v1.184c-0.355,0.169-0.716,0.289-1.079,0.359
							S757.573,148.962,757.106,148.962z M758.265,141.146c-0.508-0.302-0.979-0.673-1.413-1.116
							c-0.425,0.426-0.89,0.797-1.395,1.116h-0.979v-0.155c0.789-0.818,1.313-1.444,1.574-1.878h1.611
							c0.26,0.455,0.789,1.081,1.586,1.878v0.155H758.265z M756.84,142.962c-0.463,0-0.834,0.146-1.113,0.44
							c-0.278,0.293-0.444,0.721-0.498,1.283h3.111c-0.009-0.566-0.146-0.995-0.409-1.286
							C757.666,143.108,757.302,142.962,756.84,142.962z"/>
						<path fill="#485156" d="M766.031,146.885c0,0.669-0.244,1.183-0.731,1.54c-0.488,0.357-1.187,0.536-2.095,0.536
							c-0.913,0-1.646-0.139-2.2-0.416v-1.258c0.806,0.372,1.556,0.558,2.249,0.558c0.897,0,1.346-0.271,1.346-0.812
							c0-0.173-0.05-0.318-0.149-0.434c-0.099-0.116-0.262-0.236-0.489-0.359c-0.228-0.124-0.543-0.265-0.948-0.422
							c-0.789-0.306-1.323-0.611-1.603-0.917c-0.278-0.306-0.418-0.703-0.418-1.19c0-0.587,0.236-1.042,0.71-1.367
							c0.473-0.324,1.116-0.486,1.931-0.486c0.806,0,1.567,0.163,2.286,0.489l-0.471,1.097c-0.739-0.306-1.361-0.458-1.865-0.458
							c-0.769,0-1.153,0.219-1.153,0.657c0,0.215,0.101,0.397,0.301,0.545c0.2,0.149,0.638,0.354,1.311,0.614
							c0.566,0.219,0.978,0.419,1.233,0.601c0.257,0.182,0.446,0.392,0.57,0.629C765.969,146.271,766.031,146.555,766.031,146.885z"
							/>
					</g>
				</g>
				<g>
					<g>
						<path fill="#485156" d="M741.218,157.977c0.827,0,1.481,0.192,1.965,0.577s0.726,0.915,0.726,1.593
							c0,0.446-0.139,0.853-0.415,1.221c-0.277,0.368-0.72,0.703-1.327,1.004c0.735,0.351,1.259,0.72,1.568,1.106
							c0.31,0.387,0.465,0.834,0.465,1.342c0,0.752-0.263,1.353-0.787,1.801s-1.244,0.672-2.157,0.672
							c-0.967,0-1.71-0.212-2.23-0.635s-0.781-1.024-0.781-1.801c0-1.037,0.632-1.845,1.896-2.423
							c-0.57-0.323-0.979-0.67-1.228-1.044c-0.247-0.374-0.371-0.792-0.371-1.255c0-0.657,0.242-1.181,0.728-1.571
							C739.754,158.172,740.404,157.977,741.218,157.977z M739.26,164.881c0,0.496,0.172,0.882,0.518,1.159
							c0.345,0.277,0.829,0.415,1.453,0.415c0.615,0,1.095-0.145,1.438-0.434c0.344-0.289,0.515-0.686,0.515-1.19
							c0-0.401-0.161-0.757-0.483-1.069s-0.884-0.614-1.686-0.908c-0.616,0.264-1.063,0.557-1.339,0.877
							S739.26,164.435,739.26,164.881z M741.206,158.814c-0.517,0-0.922,0.124-1.215,0.372c-0.294,0.248-0.44,0.579-0.44,0.992
							c0,0.38,0.122,0.707,0.366,0.979c0.243,0.272,0.693,0.545,1.351,0.818c0.591-0.248,1.01-0.514,1.255-0.799
							c0.246-0.285,0.369-0.618,0.369-0.998c0-0.417-0.149-0.749-0.449-0.995C742.143,158.937,741.73,158.814,741.206,158.814z"/>
						<path fill="#485156" d="M751.433,161.975c0,3.545-1.372,5.318-4.115,5.318c-0.479,0-0.86-0.042-1.141-0.124v-0.886
							c0.33,0.107,0.706,0.161,1.128,0.161c0.991,0,1.74-0.307,2.246-0.92c0.507-0.614,0.782-1.555,0.828-2.823h-0.074
							c-0.228,0.343-0.529,0.604-0.905,0.784s-0.8,0.27-1.271,0.27c-0.802,0-1.438-0.24-1.909-0.719
							c-0.471-0.479-0.706-1.149-0.706-2.008c0-0.942,0.263-1.686,0.79-2.231c0.526-0.545,1.22-0.818,2.079-0.818
							c0.616,0,1.154,0.158,1.614,0.474c0.461,0.316,0.815,0.777,1.063,1.382S751.433,161.152,751.433,161.975z M748.383,158.858
							c-0.591,0-1.047,0.19-1.369,0.57c-0.322,0.38-0.483,0.909-0.483,1.587c0,0.595,0.148,1.063,0.446,1.404
							c0.297,0.341,0.749,0.511,1.356,0.511c0.376,0,0.723-0.077,1.038-0.229c0.316-0.153,0.565-0.361,0.747-0.626
							c0.182-0.264,0.272-0.541,0.272-0.831c0-0.434-0.084-0.834-0.254-1.202c-0.169-0.368-0.405-0.657-0.709-0.868
							S748.775,158.858,748.383,158.858z"/>
					</g>
				</g>
			</g>
			
				<line opacity="0.4" fill="none" stroke="#485156" stroke-linecap="round" stroke-linejoin="round" stroke-miterlimit="10" x1="231.56" y1="136.37" x2="231.56" y2="174.972"/>
			
				<line opacity="0.4" fill="none" stroke="#485156" stroke-linecap="round" stroke-linejoin="round" stroke-miterlimit="10" x1="283.39" y1="136.37" x2="283.39" y2="174.972"/>
			
				<line opacity="0.4" fill="none" stroke="#485156" stroke-linecap="round" stroke-linejoin="round" stroke-miterlimit="10" x1="335.22" y1="136.37" x2="335.22" y2="174.972"/>
			
				<line opacity="0.4" fill="none" stroke="#485156" stroke-linecap="round" stroke-linejoin="round" stroke-miterlimit="10" x1="389.167" y1="136.37" x2="389.167" y2="174.972"/>
			
				<line opacity="0.4" fill="none" stroke="#485156" stroke-linecap="round" stroke-linejoin="round" stroke-miterlimit="10" x1="440.997" y1="136.37" x2="440.997" y2="174.972"/>
			
				<line opacity="0.4" fill="none" stroke="#485156" stroke-linecap="round" stroke-linejoin="round" stroke-miterlimit="10" x1="492.827" y1="136.37" x2="492.827" y2="174.972"/>
			
				<line opacity="0.4" fill="none" stroke="#485156" stroke-linecap="round" stroke-linejoin="round" stroke-miterlimit="10" x1="543.598" y1="136.37" x2="543.598" y2="174.972"/>
			
				<line opacity="0.4" fill="none" stroke="#485156" stroke-linecap="round" stroke-linejoin="round" stroke-miterlimit="10" x1="597.545" y1="136.37" x2="597.545" y2="174.972"/>
			
				<line opacity="0.4" fill="none" stroke="#485156" stroke-linecap="round" stroke-linejoin="round" stroke-miterlimit="10" x1="656.784" y1="136.37" x2="656.784" y2="174.972"/>
			
				<line opacity="0.4" fill="none" stroke="#485156" stroke-linecap="round" stroke-linejoin="round" stroke-miterlimit="10" x1="714.964" y1="136.37" x2="714.964" y2="174.972"/>
			<g>
				<g>
					<g>
						<path fill="#485156" d="M141.092,148.838h-1.457v-5.851c0-0.698,0.016-1.252,0.049-1.661c-0.095,0.099-0.211,0.208-0.35,0.329
							c-0.139,0.12-0.602,0.5-1.391,1.14l-0.731-0.923l2.665-2.095h1.215V148.838z"/>
						<path fill="#485156" d="M153.617,148.838h-1.462v-4.227c0-0.524-0.099-0.916-0.297-1.174c-0.199-0.258-0.508-0.387-0.93-0.387
							c-0.562,0-0.974,0.183-1.237,0.548c-0.262,0.366-0.394,0.974-0.394,1.825v3.415h-1.457v-6.854h1.141l0.205,0.898h0.074
							c0.19-0.326,0.466-0.579,0.828-0.756c0.361-0.177,0.759-0.266,1.193-0.266c1.054,0,1.752,0.359,2.095,1.078h0.099
							c0.203-0.339,0.488-0.603,0.855-0.793c0.368-0.19,0.789-0.285,1.264-0.285c0.818,0,1.414,0.207,1.788,0.62
							s0.561,1.043,0.561,1.89v4.469h-1.457v-4.227c0-0.524-0.1-0.916-0.3-1.174c-0.201-0.258-0.512-0.387-0.933-0.387
							c-0.566,0-0.98,0.176-1.243,0.53c-0.262,0.353-0.394,0.896-0.394,1.627V148.838z"/>
						<path fill="#485156" d="M162.97,148.962c-1.066,0-1.899-0.311-2.5-0.933c-0.602-0.622-0.902-1.479-0.902-2.569
							c0-1.12,0.279-2,0.836-2.64c0.558-0.64,1.324-0.96,2.299-0.96c0.905,0,1.62,0.274,2.145,0.824
							c0.525,0.549,0.787,1.306,0.787,2.268v0.787h-4.568c0.021,0.666,0.201,1.177,0.54,1.534c0.338,0.357,0.816,0.536,1.432,0.536
							c0.405,0,0.782-0.038,1.131-0.115c0.349-0.076,0.724-0.204,1.125-0.381v1.184c-0.355,0.169-0.715,0.289-1.079,0.359
							C163.852,148.926,163.437,148.962,162.97,148.962z M164.129,141.146c-0.508-0.302-0.979-0.673-1.413-1.116
							c-0.426,0.426-0.891,0.797-1.395,1.116h-0.979v-0.155c0.789-0.818,1.314-1.444,1.574-1.878h1.612
							c0.26,0.455,0.789,1.081,1.586,1.878v0.155H164.129z M162.703,142.962c-0.462,0-0.833,0.146-1.112,0.44
							s-0.445,0.721-0.499,1.283h3.111c-0.008-0.566-0.145-0.995-0.409-1.286C163.53,143.108,163.166,142.962,162.703,142.962z"/>
						<path fill="#485156" d="M171.895,146.885c0,0.669-0.244,1.183-0.731,1.54c-0.488,0.357-1.186,0.536-2.095,0.536
							c-0.913,0-1.646-0.139-2.2-0.416v-1.258c0.806,0.372,1.556,0.558,2.25,0.558c0.896,0,1.345-0.271,1.345-0.812
							c0-0.173-0.049-0.318-0.148-0.434s-0.263-0.236-0.49-0.359c-0.228-0.124-0.543-0.265-0.948-0.422
							c-0.79-0.306-1.323-0.611-1.602-0.917s-0.418-0.703-0.418-1.19c0-0.587,0.236-1.042,0.709-1.367s1.117-0.486,1.931-0.486
							c0.806,0,1.568,0.163,2.287,0.489l-0.471,1.097c-0.74-0.306-1.361-0.458-1.865-0.458c-0.769,0-1.153,0.219-1.153,0.657
							c0,0.215,0.1,0.397,0.3,0.545c0.201,0.149,0.638,0.354,1.311,0.614c0.566,0.219,0.977,0.419,1.233,0.601
							c0.256,0.182,0.446,0.392,0.57,0.629C171.833,146.271,171.895,146.555,171.895,146.885z"/>
					</g>
				</g>
				<g>
					<g>
						<path fill="#485156" d="M154.088,165.086h-1.345v2.083h-0.985v-2.083h-4.407v-0.898l4.301-6.13h1.091v6.092h1.345V165.086z
							 M151.758,164.15v-3.012c0-0.591,0.021-1.258,0.062-2.002h-0.049c-0.198,0.396-0.384,0.725-0.558,0.985l-2.833,4.028H151.758z
							"/>
						<path fill="#485156" d="M157.794,161.634c0.955,0,1.706,0.237,2.253,0.709c0.547,0.474,0.821,1.121,0.821,1.943
							c0,0.938-0.299,1.673-0.896,2.206c-0.597,0.533-1.42,0.8-2.47,0.8c-1.021,0-1.799-0.163-2.336-0.49v-0.992
							c0.289,0.186,0.649,0.332,1.079,0.437s0.853,0.158,1.271,0.158c0.727,0,1.292-0.171,1.695-0.515
							c0.403-0.343,0.604-0.838,0.604-1.487c0-1.264-0.775-1.896-2.324-1.896c-0.393,0-0.917,0.06-1.574,0.18l-0.533-0.341
							l0.341-4.239h4.505v0.948h-3.625l-0.229,2.721C156.85,161.681,157.323,161.634,157.794,161.634z"/>
					</g>
				</g>
			</g>
			
				<line opacity="0.4" fill="none" stroke="#485156" stroke-linecap="round" stroke-linejoin="round" stroke-miterlimit="10" x1="179.73" y1="136.37" x2="179.73" y2="174.972"/>
		</g>
	</g>
	<g>
		<g>
			<g>
				<path fill="#485156" d="M26.142,47.855h3.595v4.698c-0.583,0.19-1.131,0.324-1.646,0.4c-0.514,0.077-1.04,0.115-1.577,0.115
					c-1.368,0-2.412-0.402-3.133-1.206c-0.721-0.804-1.082-1.958-1.082-3.461c0-1.463,0.418-2.603,1.255-3.421
					c0.836-0.818,1.997-1.227,3.48-1.227c0.93,0,1.826,0.186,2.69,0.558l-0.639,1.537c-0.661-0.33-1.349-0.496-2.063-0.496
					c-0.831,0-1.496,0.279-1.996,0.837c-0.5,0.558-0.75,1.308-0.75,2.25c0,0.983,0.201,1.734,0.604,2.253s0.989,0.778,1.757,0.778
					c0.4,0,0.808-0.041,1.221-0.124v-1.89h-1.717V47.855z"/>
				<path fill="#485156" d="M35.612,45.884c0.256,0,0.469,0.019,0.639,0.056l-0.143,1.772c-0.153-0.041-0.339-0.062-0.558-0.062
					c-0.603,0-1.073,0.155-1.41,0.465c-0.337,0.31-0.505,0.744-0.505,1.302v3.526h-1.89v-6.929h1.432l0.279,1.165h0.093
					c0.214-0.388,0.505-0.701,0.871-0.939C34.785,46.003,35.182,45.884,35.612,45.884z"/>
				<path fill="#485156" d="M41.909,52.943l-0.366-0.942h-0.049c-0.318,0.401-0.646,0.679-0.982,0.833
					c-0.337,0.155-0.776,0.232-1.317,0.232c-0.665,0-1.189-0.19-1.571-0.57c-0.382-0.38-0.573-0.921-0.573-1.624
					c0-0.736,0.257-1.278,0.771-1.627c0.514-0.349,1.29-0.542,2.327-0.58l1.203-0.037v-0.304c0-0.703-0.36-1.054-1.079-1.054
					c-0.554,0-1.205,0.167-1.952,0.502l-0.626-1.277c0.797-0.417,1.682-0.626,2.652-0.626c0.93,0,1.643,0.203,2.138,0.607
					c0.496,0.405,0.744,1.021,0.744,1.847v4.617H41.909z M41.351,49.733l-0.731,0.025c-0.55,0.017-0.958,0.116-1.227,0.297
					c-0.269,0.182-0.403,0.458-0.403,0.831c0,0.533,0.306,0.799,0.917,0.799c0.438,0,0.788-0.126,1.051-0.378
					c0.262-0.252,0.394-0.586,0.394-1.004V49.733z"/>
				<path fill="#485156" d="M46.824,52.943l-2.64-6.929h1.977l1.339,3.948c0.148,0.5,0.242,0.973,0.279,1.419h0.037
					c0.021-0.396,0.114-0.87,0.279-1.419l1.333-3.948h1.977l-2.64,6.929H46.824z"/>
				<path fill="#485156" d="M52.315,44.223c0-0.616,0.343-0.923,1.029-0.923c0.686,0,1.029,0.308,1.029,0.923
					c0,0.293-0.086,0.521-0.257,0.685c-0.171,0.164-0.429,0.245-0.771,0.245C52.658,45.152,52.315,44.842,52.315,44.223z
					 M54.286,52.943h-1.89v-6.929h1.89V52.943z"/>
				<path fill="#485156" d="M58.463,53.067c-0.814,0-1.453-0.316-1.918-0.948s-0.697-1.508-0.697-2.628
					c0-1.136,0.236-2.021,0.709-2.656s1.125-0.951,1.956-0.951c0.872,0,1.537,0.339,1.996,1.016h0.062
					c-0.095-0.516-0.143-0.977-0.143-1.382v-2.219h1.896v9.644h-1.45l-0.366-0.898h-0.081
					C59.998,52.726,59.343,53.067,58.463,53.067z M59.126,51.561c0.483,0,0.838-0.14,1.063-0.421
					c0.225-0.281,0.348-0.758,0.369-1.432v-0.205c0-0.744-0.114-1.276-0.344-1.599s-0.602-0.483-1.119-0.483
					c-0.421,0-0.749,0.179-0.982,0.536c-0.233,0.357-0.35,0.877-0.35,1.559s0.118,1.193,0.353,1.534
					C58.352,51.39,58.688,51.561,59.126,51.561z"/>
				<path fill="#485156" d="M67.438,53.067c-1.116,0-1.988-0.308-2.616-0.923s-0.942-1.488-0.942-2.616
					c0-1.161,0.29-2.059,0.871-2.693s1.383-0.951,2.408-0.951c0.979,0,1.742,0.279,2.287,0.836c0.545,0.558,0.818,1.329,0.818,2.312
					v0.917h-4.469c0.021,0.537,0.18,0.957,0.477,1.258c0.298,0.302,0.715,0.453,1.252,0.453c0.417,0,0.812-0.043,1.184-0.13
					c0.372-0.087,0.76-0.225,1.165-0.415v1.462c-0.331,0.166-0.684,0.288-1.06,0.369S67.979,53.067,67.438,53.067z M67.171,47.229
					c-0.401,0-0.715,0.127-0.942,0.381c-0.227,0.254-0.357,0.614-0.39,1.082h2.652c-0.008-0.467-0.13-0.828-0.366-1.082
					C67.89,47.356,67.571,47.229,67.171,47.229z"/>
				<path fill="#485156" d="M76.623,52.943H71.15v-1.116l3.21-4.369h-3.018v-1.444h5.169v1.227l-3.124,4.258h3.235V52.943z"/>
			</g>
		</g>
		<g>
			<path fill="#FFFFFF" d="M77.843,62.888H55.308l-6.025-6.025l-6.025,6.025H20.724c-3.491,0-6.347,2.856-6.347,6.347v14.384
				c0,3.491,2.856,6.347,6.347,6.347h57.119c3.491,0,6.347-2.856,6.347-6.347V69.235C84.189,65.744,81.333,62.888,77.843,62.888z"/>
			<g>
				<g>
					<path fill="#485156" d="M36,80.622h-1.004v-6.458c0-0.537,0.017-1.045,0.05-1.525c-0.087,0.087-0.184,0.178-0.292,0.273
						s-0.599,0.498-1.475,1.208l-0.545-0.707l2.398-1.853H36V80.622z"/>
					<path fill="#485156" d="M47.391,80.622l-0.205-0.967h-0.049c-0.339,0.426-0.677,0.714-1.014,0.865
						c-0.336,0.15-0.757,0.226-1.261,0.226c-0.673,0-1.201-0.174-1.583-0.521c-0.382-0.347-0.573-0.841-0.573-1.481
						c0-1.372,1.097-2.091,3.291-2.157l1.153-0.037v-0.421c0-0.533-0.115-0.927-0.344-1.181c-0.229-0.254-0.596-0.381-1.1-0.381
						c-0.566,0-1.207,0.173-1.921,0.521L43.467,74.3c0.335-0.182,0.702-0.324,1.1-0.428c0.399-0.103,0.799-0.155,1.2-0.155
						c0.81,0,1.41,0.18,1.8,0.539c0.39,0.359,0.585,0.936,0.585,1.729v4.636H47.391z M45.066,79.897
						c0.641,0,1.144-0.176,1.509-0.527s0.548-0.843,0.548-1.475v-0.614l-1.029,0.043c-0.818,0.029-1.408,0.156-1.77,0.381
						c-0.361,0.225-0.542,0.575-0.542,1.05c0,0.372,0.112,0.655,0.338,0.849C44.347,79.799,44.662,79.897,45.066,79.897z"/>
					<path fill="#485156" d="M59.482,78.539h-1.345v2.083h-0.985v-2.083h-4.407v-0.898l4.301-6.13h1.091v6.092h1.345V78.539z
						 M57.152,77.603v-3.012c0-0.591,0.021-1.258,0.062-2.002h-0.049c-0.198,0.396-0.384,0.725-0.558,0.985l-2.833,4.028H57.152z"/>
					<path fill="#485156" d="M66.362,76.079c0,1.566-0.247,2.735-0.741,3.508c-0.494,0.773-1.249,1.159-2.265,1.159
						c-0.975,0-1.717-0.396-2.225-1.187c-0.508-0.791-0.762-1.951-0.762-3.48c0-1.578,0.246-2.75,0.737-3.514
						c0.492-0.764,1.242-1.146,2.25-1.146c0.983,0,1.73,0.399,2.24,1.196S66.362,74.567,66.362,76.079z M61.41,76.079
						c0,1.318,0.155,2.278,0.465,2.879s0.804,0.902,1.481,0.902c0.686,0,1.183-0.305,1.49-0.914c0.308-0.61,0.462-1.565,0.462-2.867
						s-0.154-2.255-0.462-2.86c-0.308-0.605-0.805-0.908-1.49-0.908c-0.678,0-1.171,0.298-1.481,0.896S61.41,74.761,61.41,76.079z"
						/>
				</g>
			</g>
		</g>
	</g>
</g>
</svg>
