<?xml version="1.0" encoding="utf-8"?>
<!-- Generator: Adobe Illustrator 17.0.0, SVG Export Plug-In . SVG Version: 6.00 Build 0)  -->
<!DOCTYPE svg PUBLIC "-//W3C//DTD SVG 1.1//EN" "http://www.w3.org/Graphics/SVG/1.1/DTD/svg11.dtd">
<svg version="1.1" id="Camada_1" xmlns="http://www.w3.org/2000/svg" xmlns:xlink="http://www.w3.org/1999/xlink" x="0px" y="0px"
	 width="350px" height="100px" viewBox="0 0 350 100" enable-background="new 0 0 350 100" xml:space="preserve">
<g>
	<path fill="#0054A4" d="M127.389,19.445h-10.246v35.092h9.899c10.733,0,21.62-2.974,21.62-18.34
		C148.661,19.687,134.097,19.445,127.389,19.445 M128.726,48.476h-3.823V25.552h3.572c4.779,0,12.184,1.296,12.184,11.146
		C140.659,45.892,135.482,48.476,128.726,48.476 M163.704,19.396c-6.512,10.288-9.899,23.361-11.834,35.14h7.801
		c0.397-2.779,0.947-5.663,1.595-8.498h13.431c0.688,2.835,1.183,5.719,1.53,8.498h8.555c-2.034-12.03-5.314-24.407-11.876-35.14
		H163.704z M162.408,40.222c1.393-5.322,3.24-10.337,5.516-14.913h0.097c2.341,4.617,4.131,9.697,5.525,14.913H162.408z
		 M213.384,19.445h7.16v35.092h-7.055l-12.628-17.441c-1.799-2.438-2.739-4.576-3.039-5.378h-0.105v22.819h-7.202V19.445h7.104
		l12.434,18.096c1.896,2.73,3.029,4.772,3.224,5.613h0.106V19.445z M242.974,18.4c-7.501,0-16.402,4.869-16.402,18.541
		c0,13.82,7.557,18.543,16.305,18.543c7.509,0,16.412-4.869,16.412-18.543C259.289,23.114,251.731,18.4,242.974,18.4
		 M242.925,49.173c-6.31,0-8.351-5.671-8.351-12.232c0-6.569,1.944-12.232,8.351-12.232c6.327,0,8.352,5.663,8.352,12.232
		C251.277,43.503,249.349,49.173,242.925,49.173 M288.183,19.445h7.16v35.092h-7.064l-12.621-17.441
		c-1.789-2.438-2.738-4.576-3.037-5.378h-0.097v22.819h-7.209V19.445h7.112l12.433,18.096c1.88,2.73,3.021,4.772,3.224,5.613h0.098
		V19.445z M309.633,25.755v7.209h13.47v6.059h-13.47v9.202h16.816v6.31H301.88v-9.042v-26.05h24.569v6.31H309.633z"/>
	<path fill="#0054A4" d="M78.367,77.651c0.98,1.465,4.285,5.751,4.285,5.751c8.035-8.481,12.977-19.943,12.977-32.555
		c0-26.132-21.191-47.33-47.315-47.33C22.174,3.516,1,24.714,1,50.847c0,21.847,14.637,40.202,34.759,45.637
		c0,0,0.25-5.159,5.403-8.651c6.852-4.633,10.4-4.123,12.426-5.889c1.465-1.288-1.386-9.381-1.839-10.028
		c-0.462-0.648-0.737-1.564-5.711-2.123c-4.966-0.543-4.229-2.843-3.864-4.317c0.372-1.474,0.737-2.851-0.187-3.499
		c-0.915-0.64-0.372-1.19-0.372-1.19l1.572-1.296c-0.641-0.268-2.577-1.442-2.025-2.106c1.198-1.474,1.385-2.795,1.385-2.795
		s-2.583-1.806-1.749-2.916c0.55-0.729,2.316-1.046,4.138-2.39c2.487-1.846,2.487-3.224,2.487-3.224s-0.219-0.793,0.276-3.741
		c0.486-2.949,2.203-5.89,2.203-5.89h-1.96c0,0,0.21-1.321,2.948-3.434c3.491-2.715,8.676-2.949,8.676-2.949l-2.543-1.223
		l1.968-0.495c2.389-0.599,7.104,0.251,7.104,0.251l-3.92-2.957c0,0,6.869-0.728,15.941,3.686
		c9.089,4.422,8.101,10.312,8.101,10.312s3.929,0.728,4.916,7.111C92.64,56.549,78.86,71.033,78.86,71.033l-0.493-1.969
		c0,0-1.912,2.462-2.211,4.901C75.92,75.998,77.387,76.185,78.367,77.651 M25.122,44.042l-5.403-7.128l-4.415,2.454l3.183-6.868
		l-2.689-5.647l4.172,1.969l4.909-6.141l-0.745,7.615l5.159,2.203l-5.159,2.697L25.122,44.042z M50.55,48.271l0.178-0.559
		c0,0-0.268-0.737,0-1.465c0.284-0.738,1.021-1.013,1.021-1.013l-0.187-1.102c0,0,1.653,2.479,2.301,2.941
		c0.648,0.462,0.818,1.109,0.365,1.199C53.765,48.359,50.55,48.271,50.55,48.271"/>
	<path fill="#00ADEE" d="M119.038,80.886c-1.175-0.915-1.887-2.17-1.887-4.812V60.66h11.34v2.722h-8.303v5.475h8.019v2.642h-8.019
		v4.26c0,1.061,0.137,1.83,0.802,2.406h7.93v2.721H119.038z"/>
	<path fill="#00ADEE" d="M142.367,81.138c-1.514,0-1.944-1.029-2.058-2.253c-1.199,1.541-2.576,2.431-4.641,2.431
		c-2.519,0-4.382-1.799-4.382-4.261c0-4.131,4.156-4.909,7.508-4.909c1.087,0,1.312-0.024,1.312-0.453v-1.378
		c0-1.514-0.915-2.802-3.175-2.802c-1.717,0-2.901,0.713-3.694,1.515l-1.296-2.065c1.49-1.199,3.183-1.742,5.589-1.742
		c2.528,0,5.209,1.206,5.209,5.094v7.68c0,0.574,0.122,0.972,0.665,0.972c0.203,0,0.462-0.057,0.656-0.113l0.203,1.976
		C143.801,80.976,143.056,81.138,142.367,81.138 M140.083,74.098c-0.461,0-0.947-0.024-1.433-0.024c-1.944,0-4.618,0.34-4.618,2.721
		c0,1.312,1.037,2.292,2.496,2.292c1.231,0,2.235-0.493,2.924-1.32c0.453-0.518,0.631-0.972,0.631-1.717V74.098z"/>
	<path fill="#00ADEE" d="M153.7,68.516c-0.316-0.145-0.769-0.34-1.255-0.34c-1.15,0-1.783,0.511-2.406,1.224
		c-0.494,0.55-0.55,1.085-0.55,1.83v9.656h-2.746V68.655c0-0.632-0.17-1.029-0.656-1.029c-0.203,0-0.487,0.057-0.688,0.114
		l-0.194-1.968c0.478-0.154,1.199-0.316,1.887-0.316c1.482,0,2.089,0.972,2.058,2.624c0.89-1.402,2.032-2.779,3.896-2.779
		c0.518,0,1.053,0.154,1.402,0.259L153.7,68.516z"/>
	<path fill="#00ADEE" d="M159.297,81.146c-1.571,0-2.486-0.834-2.486-2.439V59.696h2.745v18.298c0,0.568,0.138,0.981,0.657,0.981
		c0.202,0,0.486-0.066,0.688-0.121l0.202,1.976C160.674,80.968,159.986,81.146,159.297,81.146"/>
	<path fill="#00ADEE" d="M161.792,87.075l-0.056-2.349c2.438-0.113,4.325-1.49,5.897-3.807c-3.573-4.496-4.869-9.541-5.638-15.237
		h3.014c0.453,4.835,1.62,8.845,4.115,12.596h0.065c1.717-3.661,2.745-8.473,2.941-12.596h2.698
		C173.878,76.106,169.463,86.872,161.792,87.075"/>
	<polygon fill="#00ADEE" points="186.053,80.886 186.053,60.66 189.083,60.66 189.083,78.165 197.96,78.165 197.96,80.886 	"/>
	<path fill="#00ADEE" d="M201.881,62.904c-1.028,0-1.685-0.722-1.685-1.694c0-1.004,0.656-1.717,1.685-1.717
		c1.037,0,1.661,0.713,1.661,1.717C203.542,62.182,202.918,62.904,201.881,62.904 M202.942,81.146c-1.571,0-2.462-0.834-2.462-2.439
		V65.682h2.746v12.312c0,0.568,0.122,0.981,0.665,0.981c0.202,0,0.494-0.066,0.688-0.121l0.178,1.976
		C204.343,80.968,203.631,81.146,202.942,81.146"/>
	<path fill="#00ADEE" d="M216.47,62.531c-0.746-0.494-1.58-0.81-2.552-0.81c-2.089,0-3.126,1.297-3.126,3.127v1.117h3.961v2.204
		h-3.929v18.444h-2.746V68.169h-2.633v-2.204h2.609V64.88c0-3.273,2.6-5.501,5.67-5.501c1.515,0,2.601,0.316,3.573,0.827
		L216.47,62.531z"/>
	<path fill="#00ADEE" d="M218.462,73.871c0,0.113,0.025,0.203,0.025,0.316c0.146,2.779,1.92,4.78,4.982,4.78
		c1.401,0,2.802-0.6,3.67-1.265l0.907,2.18c-1.166,0.809-3.061,1.489-5.062,1.489c-4.723,0-7.242-3.434-7.242-7.986
		c0-3.929,2.033-8.165,6.642-8.165c3.751,0,5.897,2.608,5.93,6.472C225.365,73.069,222.092,73.839,218.462,73.871 M222.27,67.367
		c-2.552,0-3.694,2.065-3.808,4.415c2.746-0.057,5.063-0.429,7.243-1.459C225.534,68.575,224.238,67.367,222.27,67.367"/>
	<path fill="#00ADEE" d="M253.707,80.886l-8.586-11.851c-1.206-1.668-1.75-2.755-1.952-3.249h-0.049v15.1h-2.836V60.66h2.86
		l8.246,11.786c1.231,1.774,2.009,3.054,2.236,3.629h0.081V60.66h2.802v20.227H253.707z"/>
	<path fill="#00ADEE" d="M272.063,81.146c-1.774,0-2.147-1.086-2.204-2.382c-1.086,1.547-2.527,2.576-4.553,2.576
		c-2.98,0-4.755-1.968-4.755-5.12V65.682h2.746v10.019c0,1.895,1.037,3.094,2.924,3.094c1.142,0,2.146-0.509,2.802-1.376
		c0.551-0.689,0.632-1.028,0.632-1.953v-9.784h2.745v12.312c0,0.568,0.147,0.981,0.688,0.981c0.179,0,0.462-0.066,0.665-0.121
		l0.202,1.976C273.465,80.968,272.752,81.146,272.063,81.146"/>
	<path fill="#00ADEE" d="M281.297,81.372c-2.721,0-4.041-1.717-4.041-4.236v-8.935h-2.642v-2.203h2.674v-3.273l2.721-0.947v4.22
		h3.921v2.203h-3.921v8.594c0,1.596,0.827,2.252,2.172,2.252c0.712,0,1.32-0.162,1.693-0.372l0.42,2.211
		C283.581,81.17,282.416,81.372,281.297,81.372"/>
	<path fill="#00ADEE" d="M294.177,68.516c-0.316-0.145-0.778-0.34-1.264-0.34c-1.143,0-1.774,0.511-2.406,1.224
		c-0.486,0.55-0.551,1.085-0.551,1.83v9.656h-2.745V68.655c0-0.632-0.17-1.029-0.648-1.029c-0.211,0-0.495,0.057-0.689,0.114
		l-0.203-1.968c0.478-0.154,1.207-0.316,1.88-0.316c1.499,0,2.098,0.972,2.074,2.624c0.883-1.402,2.025-2.779,3.897-2.779
		c0.51,0,1.052,0.154,1.401,0.259L294.177,68.516z"/>
	<path fill="#00ADEE" d="M298.81,62.904c-1.028,0-1.685-0.722-1.685-1.694c0-1.004,0.657-1.717,1.685-1.717
		c1.037,0,1.668,0.713,1.668,1.717C300.479,62.182,299.847,62.904,298.81,62.904 M299.871,81.146c-1.57,0-2.463-0.834-2.463-2.439
		V65.682h2.755v12.312c0,0.568,0.113,0.981,0.655,0.981c0.203,0,0.495-0.066,0.689-0.121l0.177,1.976
		C301.273,80.968,300.561,81.146,299.871,81.146"/>
	<path fill="#00ADEE" d="M309.033,81.372c-2.721,0-4.042-1.717-4.042-4.236v-8.935h-2.632v-2.203h2.673v-3.273l2.714-0.947v4.22
		h3.928v2.203h-3.928v8.594c0,1.596,0.834,2.252,2.18,2.252c0.712,0,1.311-0.162,1.692-0.372l0.421,2.211
		C311.325,81.17,310.151,81.372,309.033,81.372"/>
	<path fill="#00ADEE" d="M315.716,62.904c-1.028,0-1.685-0.722-1.685-1.694c0-1.004,0.657-1.717,1.685-1.717
		c1.037,0,1.668,0.713,1.668,1.717C317.385,62.182,316.753,62.904,315.716,62.904 M316.777,81.146c-1.571,0-2.462-0.834-2.462-2.439
		V65.682h2.754v12.312c0,0.568,0.106,0.981,0.656,0.981c0.203,0,0.487-0.066,0.688-0.121l0.178,1.976
		C318.179,80.968,317.466,81.146,316.777,81.146"/>
	<path fill="#00ADEE" d="M326.927,81.429c-4.813,0-6.869-3.978-6.869-8.198c0-4.18,2.26-8.068,6.983-8.068
		c4.812,0,6.844,3.888,6.844,8.068C333.884,77.427,331.682,81.429,326.927,81.429 M327.041,67.512c-3.119,0-4.123,3.176-4.123,5.719
		c0,2.527,0.834,5.849,4.01,5.849c3.175,0,4.122-3.289,4.122-5.784C331.05,70.777,330.224,67.512,327.041,67.512"/>
	<path fill="#00ADEE" d="M346.255,80.886v-9.996c0-1.921-1.005-3.095-3.062-3.095c-1.206,0-2.243,0.575-2.981,1.402
		c-0.599,0.721-0.72,1.004-0.72,1.927v9.761h-2.746V65.682h2.576v2.317c1.118-1.661,2.665-2.779,4.844-2.779
		c3.062,0,4.835,1.976,4.835,5.119v10.547H346.255z"/>
</g>
</svg>
