<?xml version="1.0" encoding="utf-8"?>
<!-- Generator: Adobe Illustrator 17.0.0, SVG Export Plug-In . SVG Version: 6.00 Build 0)  -->
<!DOCTYPE svg PUBLIC "-//W3C//DTD SVG 1.1//EN" "http://www.w3.org/Graphics/SVG/1.1/DTD/svg11.dtd">
<svg version="1.1" id="Camada_1" xmlns="http://www.w3.org/2000/svg" xmlns:xlink="http://www.w3.org/1999/xlink" x="0px" y="0px"
	 width="176px" height="48px" viewBox="0 0 176 48" enable-background="new 0 0 176 48" xml:space="preserve">
<g>
	<g>
		<path fill="#FFFFFF" d="M68.846,11.707h-4.122v14.118h3.982c4.318,0,8.698-1.196,8.698-7.378
			C77.404,11.806,71.545,11.707,68.846,11.707 M69.384,23.387h-1.538v-9.222h1.437c1.922,0,4.902,0.522,4.902,4.484
			C74.185,22.347,72.102,23.387,69.384,23.387 M83.455,11.688c-2.62,4.139-3.982,9.398-4.761,14.137h3.138
			c0.16-1.118,0.381-2.278,0.642-3.418h5.403c0.277,1.141,0.476,2.301,0.616,3.418h3.442c-0.818-4.839-2.138-9.819-4.778-14.137
			C87.158,11.688,83.455,11.688,83.455,11.688z M82.934,20.066c0.561-2.141,1.304-4.158,2.219-5.999h0.039
			c0.942,1.858,1.662,3.901,2.222,5.999H82.934z M103.442,11.707h2.881v14.118h-2.838l-5.08-7.017
			c-0.724-0.981-1.102-1.841-1.222-2.164h-0.042v9.18h-2.898V11.707h2.858l5.002,7.28c0.762,1.098,1.218,1.92,1.297,2.258h0.042
			L103.442,11.707L103.442,11.707z M115.346,11.287c-3.018,0-6.598,1.958-6.598,7.459c0,5.56,3.04,7.46,6.559,7.46
			c3.021,0,6.602-1.958,6.602-7.46C121.91,13.184,118.869,11.287,115.346,11.287 M115.326,23.667c-2.538,0-3.36-2.282-3.36-4.921
			c0-2.642,0.782-4.921,3.36-4.921c2.546,0,3.36,2.278,3.36,4.921C118.686,21.386,117.91,23.667,115.326,23.667 M133.534,11.707
			h2.881v14.118h-2.842l-5.078-7.017c-0.72-0.981-1.102-1.841-1.222-2.164h-0.039v9.18h-2.9V11.707h2.862l5.002,7.28
			c0.756,1.098,1.215,1.92,1.297,2.258h0.039V11.707z M142.162,14.246v2.9h5.419v2.438h-5.419v3.702h6.766v2.538h-9.884v-3.638
			v-10.48h9.884v2.538L142.162,14.246L142.162,14.246z"/>
		<path fill="#FFFFFF" d="M49.125,35.124c0.394,0.59,1.724,2.314,1.724,2.314c3.233-3.412,5.221-8.023,5.221-13.097
			C56.07,13.828,47.545,5.3,37.035,5.3C26.518,5.3,18,13.827,18,24.341c0,8.789,5.888,16.173,13.983,18.36
			c0,0,0.101-2.075,2.174-3.48c2.757-1.864,4.184-1.658,4.999-2.369c0.59-0.518-0.558-3.774-0.74-4.034
			c-0.186-0.261-0.297-0.629-2.298-0.854c-1.998-0.218-1.702-1.144-1.554-1.737c0.15-0.593,0.297-1.147-0.075-1.408
			c-0.368-0.258-0.15-0.479-0.15-0.479l0.633-0.522c-0.258-0.108-1.037-0.58-0.815-0.847c0.482-0.593,0.557-1.124,0.557-1.124
			s-1.039-0.726-0.704-1.173c0.222-0.294,0.932-0.421,1.665-0.962c1.001-0.743,1.001-1.297,1.001-1.297s-0.088-0.319,0.111-1.505
			c0.195-1.186,0.886-2.37,0.886-2.37h-0.788c0,0,0.085-0.531,1.186-1.382c1.404-1.092,3.49-1.186,3.49-1.186l-1.023-0.492
			l0.792-0.199c0.961-0.241,2.858,0.101,2.858,0.101l-1.577-1.19c0,0,2.763-0.293,6.414,1.483c3.657,1.779,3.259,4.149,3.259,4.149
			s1.581,0.293,1.978,2.861c0.606,3.95-4.937,9.777-4.937,9.777l-0.198-0.792c0,0-0.77,0.99-0.89,1.972
			C48.14,34.459,48.73,34.535,49.125,35.124 M27.704,21.603l-2.174-2.867l-1.776,0.987l1.281-2.763l-1.082-2.272l1.678,0.792
			l1.975-2.47l-0.299,3.063l2.075,0.886l-2.075,1.085L27.704,21.603z M37.934,23.304l0.072-0.225c0,0-0.108-0.297,0-0.59
			c0.114-0.297,0.41-0.408,0.41-0.408l-0.075-0.443c0,0,0.665,0.997,0.926,1.183c0.261,0.186,0.329,0.446,0.146,0.482
			C39.227,23.34,37.934,23.304,37.934,23.304"/>
		<path fill="#FFFFFF" d="M65.486,36.426c-0.473-0.368-0.759-0.873-0.759-1.936v-6.202h4.562v1.095h-3.34v2.202h3.226v1.062H65.95
			v1.714c0,0.426,0.055,0.736,0.322,0.968h3.19v1.095L65.486,36.426L65.486,36.426z"/>
		<path fill="#FFFFFF" d="M74.872,36.527c-0.609,0-0.782-0.414-0.828-0.906c-0.482,0.62-1.036,0.978-1.867,0.978
			c-1.014,0-1.763-0.724-1.763-1.714c0-1.662,1.672-1.975,3.021-1.975c0.437,0,0.528-0.01,0.528-0.182v-0.554
			c0-0.609-0.368-1.127-1.278-1.127c-0.69,0-1.167,0.287-1.486,0.61l-0.522-0.831c0.599-0.482,1.281-0.701,2.248-0.701
			c1.017,0,2.095,0.486,2.095,2.05v3.09c0,0.231,0.049,0.391,0.267,0.391c0.082,0,0.186-0.023,0.264-0.046l0.082,0.795
			C75.449,36.462,75.149,36.527,74.872,36.527 M73.953,33.694c-0.186,0-0.381-0.01-0.577-0.01c-0.782,0-1.858,0.137-1.858,1.095
			c0,0.528,0.417,0.922,1.004,0.922c0.495,0,0.899-0.198,1.177-0.531c0.182-0.208,0.254-0.391,0.254-0.69V33.694z"/>
		<path fill="#FFFFFF" d="M79.431,31.449c-0.127-0.058-0.31-0.137-0.505-0.137c-0.462,0-0.717,0.206-0.968,0.492
			c-0.199,0.222-0.222,0.436-0.222,0.736v3.885h-1.105v-4.921c0-0.254-0.069-0.414-0.264-0.414c-0.082,0-0.196,0.023-0.277,0.046
			l-0.078-0.792c0.192-0.062,0.482-0.127,0.759-0.127c0.596,0,0.841,0.391,0.828,1.056c0.358-0.564,0.818-1.118,1.567-1.118
			c0.208,0,0.424,0.062,0.564,0.104L79.431,31.449z"/>
		<path fill="#FFFFFF" d="M81.682,36.53c-0.632,0-1-0.335-1-0.981v-7.648h1.105v7.362c0,0.228,0.055,0.394,0.264,0.394
			c0.082,0,0.195-0.026,0.277-0.049l0.082,0.795C82.237,36.458,81.96,36.53,81.682,36.53"/>
		<path fill="#FFFFFF" d="M82.686,38.915l-0.022-0.945c0.981-0.046,1.74-0.599,2.373-1.531c-1.438-1.809-1.958-3.838-2.268-6.13
			h1.213c0.182,1.946,0.652,3.558,1.655,5.067h0.026c0.69-1.473,1.105-3.409,1.183-5.067h1.086
			C87.549,34.502,85.773,38.834,82.686,38.915"/>
		<polygon fill="#FFFFFF" points="92.446,36.426 92.446,28.289 93.666,28.289 93.666,35.33 97.237,35.33 97.237,36.426 		"/>
		<path fill="#FFFFFF" d="M98.814,29.191c-0.414,0-0.678-0.29-0.678-0.682c0-0.404,0.264-0.69,0.678-0.69
			c0.417,0,0.668,0.287,0.668,0.69C99.482,28.901,99.231,29.191,98.814,29.191 M99.241,36.53c-0.632,0-0.99-0.335-0.99-0.981v-5.24
			h1.105v4.953c0,0.228,0.049,0.394,0.267,0.394c0.082,0,0.199-0.026,0.277-0.049l0.072,0.795
			C99.805,36.458,99.518,36.53,99.241,36.53"/>
		<path fill="#FFFFFF" d="M104.683,29.041c-0.3-0.199-0.635-0.326-1.026-0.326c-0.841,0-1.258,0.522-1.258,1.258v0.45h1.594v0.887
			h-1.581v7.42h-1.105v-7.42h-1.059v-0.887h1.05v-0.436c0-1.317,1.046-2.213,2.281-2.213c0.61,0,1.046,0.127,1.438,0.333
			L104.683,29.041z"/>
		<path fill="#FFFFFF" d="M105.485,33.603c0,0.046,0.01,0.082,0.01,0.127c0.058,1.118,0.772,1.923,2.004,1.923
			c0.563,0,1.127-0.242,1.477-0.509l0.365,0.877c-0.47,0.326-1.232,0.599-2.037,0.599c-1.9,0-2.914-1.382-2.914-3.213
			c0-1.581,0.818-3.285,2.672-3.285c1.509,0,2.373,1.05,2.386,2.604C108.262,33.281,106.945,33.59,105.485,33.603 M107.017,30.987
			c-1.026,0-1.486,0.831-1.532,1.776c1.105-0.023,2.037-0.173,2.914-0.587C108.33,31.473,107.809,30.987,107.017,30.987"/>
		<path fill="#FFFFFF" d="M119.664,36.426l-3.454-4.767c-0.486-0.671-0.704-1.108-0.786-1.307h-0.019v6.074h-1.141v-8.137h1.15
			l3.318,4.742c0.495,0.714,0.808,1.229,0.899,1.46h0.033v-6.202h1.127v8.137C120.791,36.426,119.664,36.426,119.664,36.426z"/>
		<path fill="#FFFFFF" d="M127.048,36.53c-0.714,0-0.864-0.437-0.886-0.958c-0.437,0.622-1.017,1.036-1.831,1.036
			c-1.199,0-1.913-0.792-1.913-2.06v-4.239h1.105v4.031c0,0.762,0.417,1.245,1.177,1.245c0.459,0,0.863-0.205,1.127-0.554
			c0.222-0.278,0.254-0.414,0.254-0.786v-3.936h1.105v4.953c0,0.228,0.059,0.394,0.277,0.394c0.072,0,0.186-0.026,0.267-0.049
			l0.082,0.795C127.612,36.458,127.326,36.53,127.048,36.53"/>
		<path fill="#FFFFFF" d="M130.763,36.621c-1.095,0-1.626-0.69-1.626-1.704v-3.594h-1.062v-0.886h1.076v-1.317l1.094-0.381v1.698
			h1.578v0.886h-1.578v3.458c0,0.642,0.333,0.906,0.874,0.906c0.286,0,0.531-0.065,0.681-0.15l0.169,0.89
			C131.682,36.539,131.214,36.621,130.763,36.621"/>
		<path fill="#FFFFFF" d="M135.945,31.449c-0.127-0.058-0.313-0.137-0.508-0.137c-0.46,0-0.714,0.206-0.968,0.492
			c-0.195,0.222-0.222,0.436-0.222,0.736v3.885h-1.105v-4.921c0-0.254-0.069-0.414-0.261-0.414c-0.085,0-0.199,0.023-0.278,0.046
			l-0.082-0.792c0.192-0.062,0.486-0.127,0.756-0.127c0.603,0,0.844,0.391,0.834,1.056c0.355-0.564,0.815-1.118,1.567-1.118
			c0.206,0,0.423,0.062,0.563,0.104L135.945,31.449z"/>
		<path fill="#FFFFFF" d="M137.809,29.191c-0.414,0-0.678-0.29-0.678-0.682c0-0.404,0.264-0.69,0.678-0.69
			c0.417,0,0.671,0.287,0.671,0.69C138.48,28.901,138.226,29.191,137.809,29.191 M138.235,36.53c-0.632,0-0.99-0.335-0.99-0.981
			v-5.24h1.108v4.953c0,0.228,0.046,0.394,0.263,0.394c0.082,0,0.199-0.026,0.278-0.049l0.071,0.795
			C138.799,36.458,138.513,36.53,138.235,36.53"/>
		<path fill="#FFFFFF" d="M141.922,36.621c-1.095,0-1.626-0.69-1.626-1.704v-3.594h-1.059v-0.886h1.075v-1.317l1.092-0.381v1.698
			h1.58v0.886h-1.58v3.458c0,0.642,0.335,0.906,0.877,0.906c0.286,0,0.527-0.065,0.681-0.15l0.17,0.89
			C142.843,36.539,142.371,36.621,141.922,36.621"/>
		<path fill="#FFFFFF" d="M144.61,29.191c-0.414,0-0.678-0.29-0.678-0.682c0-0.404,0.264-0.69,0.678-0.69
			c0.417,0,0.671,0.287,0.671,0.69C145.281,28.901,145.027,29.191,144.61,29.191 M145.037,36.53c-0.632,0-0.99-0.335-0.99-0.981
			v-5.24h1.108v4.953c0,0.228,0.042,0.394,0.264,0.394c0.082,0,0.196-0.026,0.277-0.049l0.072,0.795
			C145.601,36.458,145.314,36.53,145.037,36.53"/>
		<path fill="#FFFFFF" d="M149.12,36.644c-1.936,0-2.763-1.6-2.763-3.298c0-1.682,0.909-3.246,2.809-3.246
			c1.936,0,2.754,1.564,2.754,3.246C151.919,35.034,151.033,36.644,149.12,36.644 M149.166,31.045c-1.254,0-1.658,1.278-1.658,2.301
			c0,1.017,0.335,2.353,1.613,2.353s1.658-1.323,1.658-2.327C150.778,32.359,150.446,31.045,149.166,31.045"/>
		<path fill="#FFFFFF" d="M156.895,36.426v-4.022c0-0.773-0.404-1.245-1.232-1.245c-0.486,0-0.902,0.231-1.199,0.564
			c-0.241,0.29-0.29,0.404-0.29,0.775v3.927h-1.105v-6.117h1.036v0.932c0.45-0.668,1.072-1.118,1.949-1.118
			c1.232,0,1.946,0.795,1.946,2.059v4.243C158,36.426,156.895,36.426,156.895,36.426z"/>
	</g>
</g>
</svg>
