<?xml version="1.0" encoding="utf-8"?>
<!-- Generator: Adobe Illustrator 17.0.0, SVG Export Plug-In . SVG Version: 6.00 Build 0)  -->
<!DOCTYPE svg PUBLIC "-//W3C//DTD SVG 1.1//EN" "http://www.w3.org/Graphics/SVG/1.1/DTD/svg11.dtd">
<svg version="1.1" id="Camada_1" xmlns="http://www.w3.org/2000/svg" xmlns:xlink="http://www.w3.org/1999/xlink" x="0px" y="0px"
	 width="152px" height="40px" viewBox="0 0 152 40" enable-background="new 0 0 152 40" xml:space="preserve">
<g>
	<path fill="#0756A3" d="M57.563,8.168h-3.968v13.589h3.833c4.156,0,8.372-1.152,8.372-7.102
		C65.801,8.262,60.161,8.168,57.563,8.168 M58.081,19.41h-1.48v-8.877h1.383c1.851,0,4.718,0.502,4.718,4.316
		C62.702,18.409,60.697,19.41,58.081,19.41 M71.626,8.149c-2.522,3.984-3.833,9.046-4.583,13.608h3.021
		c0.154-1.076,0.367-2.193,0.618-3.291h5.201c0.267,1.098,0.458,2.215,0.593,3.291h3.313C79,17.098,77.73,12.306,75.189,8.149
		H71.626z M71.124,16.214c0.539-2.061,1.255-4.003,2.136-5.775h0.038c0.906,1.788,1.6,3.755,2.139,5.775H71.124z M90.864,8.168
		h2.773v13.589h-2.732l-4.89-6.754c-0.697-0.944-1.06-1.772-1.177-2.083h-0.041v8.836h-2.789V8.168h2.751l4.815,7.008
		c0.734,1.057,1.173,1.848,1.249,2.174h0.041V8.168z M102.322,7.763c-2.905,0-6.352,1.885-6.352,7.18c0,5.352,2.926,7.18,6.314,7.18
		c2.908,0,6.355-1.885,6.355-7.18C108.639,9.589,105.713,7.763,102.322,7.763 M102.303,19.68c-2.444,0-3.234-2.196-3.234-4.737
		c0-2.544,0.753-4.736,3.234-4.736c2.45,0,3.234,2.193,3.234,4.736C105.537,17.484,104.79,19.68,102.303,19.68 M119.828,8.168h2.773
		v13.589h-2.735l-4.887-6.754c-0.693-0.944-1.06-1.772-1.176-2.083h-0.038v8.836h-2.792V8.168h2.754l4.815,7.008
		c0.728,1.057,1.17,1.848,1.249,2.174h0.038V8.168z M128.134,10.612v2.792h5.216v2.346h-5.216v3.563h6.512v2.444h-9.514v-3.501
		V8.168h9.514v2.444H128.134z"/>
	<path fill="#0756A3" d="M38.58,30.707c0.379,0.567,1.659,2.227,1.659,2.227c3.111-3.284,5.025-7.723,5.025-12.606
		C45.265,10.209,37.059,2,26.943,2C16.821,2,8.621,10.209,8.621,20.328c0,8.46,5.668,15.567,13.46,17.672
		c0,0,0.097-1.998,2.092-3.35c2.653-1.794,4.027-1.597,4.812-2.28c0.567-0.499-0.537-3.632-0.712-3.883
		c-0.179-0.251-0.285-0.605-2.211-0.822c-1.923-0.21-1.638-1.101-1.496-1.672c0.144-0.571,0.285-1.104-0.072-1.355
		c-0.354-0.248-0.144-0.461-0.144-0.461l0.609-0.502c-0.248-0.104-0.998-0.558-0.784-0.816c0.464-0.571,0.536-1.082,0.536-1.082
		s-1-0.699-0.677-1.129c0.213-0.282,0.897-0.405,1.603-0.926c0.963-0.715,0.963-1.249,0.963-1.249s-0.085-0.307,0.107-1.449
		c0.188-1.142,0.853-2.281,0.853-2.281h-0.759c0,0,0.081-0.511,1.142-1.33c1.352-1.051,3.36-1.142,3.36-1.142l-0.985-0.473
		l0.762-0.192c0.925-0.232,2.751,0.097,2.751,0.097L32.31,10.56c0,0,2.66-0.282,6.173,1.427c3.52,1.712,3.137,3.993,3.137,3.993
		s1.521,0.282,1.904,2.754c0.584,3.802-4.752,9.411-4.752,9.411l-0.191-0.763c0,0-0.74,0.954-0.856,1.898
		C37.633,30.067,38.201,30.14,38.58,30.707 M17.962,17.693l-2.092-2.76l-1.709,0.95l1.233-2.66l-1.041-2.187l1.615,0.763
		l1.901-2.378L17.58,12.37l1.998,0.853l-1.998,1.044L17.962,17.693z M27.809,19.33l0.069-0.216c0,0-0.104-0.285,0-0.567
		c0.11-0.286,0.395-0.392,0.395-0.392l-0.072-0.427c0,0,0.64,0.96,0.891,1.139c0.251,0.179,0.317,0.43,0.141,0.464
		C29.054,19.365,27.809,19.33,27.809,19.33"/>
	<path fill="#0756A3" d="M54.33,31.96c-0.455-0.354-0.731-0.84-0.731-1.863v-5.969h4.391v1.054h-3.215v2.12h3.105v1.023h-3.105v1.65
		c0,0.411,0.053,0.709,0.31,0.932h3.071v1.054H54.33z"/>
	<path fill="#0756A3" d="M63.363,32.058c-0.586,0-0.753-0.399-0.797-0.872c-0.464,0.597-0.997,0.941-1.797,0.941
		c-0.975,0-1.697-0.697-1.697-1.65c0-1.6,1.609-1.901,2.908-1.901c0.421,0,0.508-0.009,0.508-0.176v-0.534
		c0-0.586-0.354-1.085-1.229-1.085c-0.665,0-1.123,0.276-1.43,0.587l-0.502-0.8c0.577-0.464,1.233-0.674,2.164-0.674
		c0.979,0,2.017,0.467,2.017,1.973v2.974c0,0.222,0.047,0.376,0.257,0.376c0.079,0,0.179-0.022,0.254-0.044l0.079,0.765
		C63.919,31.995,63.63,32.058,63.363,32.058 M62.479,29.332c-0.178,0-0.367-0.009-0.555-0.009c-0.753,0-1.788,0.132-1.788,1.054
		c0,0.508,0.402,0.888,0.966,0.888c0.477,0,0.865-0.191,1.132-0.511c0.176-0.201,0.244-0.376,0.244-0.665V29.332z"/>
	<path fill="#0756A3" d="M67.752,27.17c-0.122-0.056-0.298-0.132-0.486-0.132c-0.445,0-0.69,0.198-0.932,0.474
		c-0.191,0.213-0.213,0.42-0.213,0.709v3.739h-1.063v-4.736c0-0.245-0.066-0.399-0.254-0.399c-0.079,0-0.188,0.022-0.267,0.044
		l-0.075-0.762c0.185-0.06,0.464-0.122,0.731-0.122c0.574,0,0.809,0.376,0.797,1.016c0.345-0.543,0.787-1.076,1.509-1.076
		c0.201,0,0.408,0.06,0.543,0.1L67.752,27.17z"/>
	<path fill="#0756A3" d="M69.919,32.061c-0.608,0-0.963-0.323-0.963-0.944v-7.362h1.063v7.086c0,0.22,0.053,0.38,0.254,0.38
		c0.078,0,0.188-0.025,0.267-0.047l0.078,0.765C70.452,31.992,70.186,32.061,69.919,32.061"/>
	<path fill="#0756A3" d="M70.885,34.357l-0.022-0.91c0.944-0.044,1.675-0.577,2.284-1.474c-1.384-1.741-1.885-3.695-2.183-5.9h1.167
		c0.176,1.872,0.627,3.425,1.593,4.878h0.025c0.665-1.418,1.063-3.281,1.139-4.878h1.045C75.565,30.109,73.856,34.278,70.885,34.357
		"/>
	<polygon fill="#0756A3" points="80.28,31.96 80.28,24.128 81.453,24.128 81.453,30.906 84.891,30.906 84.891,31.96 	"/>
	<path fill="#0756A3" d="M86.409,24.997c-0.398,0-0.652-0.28-0.652-0.656c0-0.389,0.254-0.665,0.652-0.665
		c0.402,0,0.643,0.276,0.643,0.665C87.052,24.717,86.811,24.997,86.409,24.997 M86.82,32.061c-0.608,0-0.954-0.323-0.954-0.944
		v-5.044h1.063v4.767c0,0.22,0.047,0.38,0.257,0.38c0.078,0,0.191-0.025,0.267-0.047l0.069,0.765
		C87.363,31.992,87.087,32.061,86.82,32.061"/>
	<path fill="#0756A3" d="M92.058,24.852c-0.289-0.191-0.612-0.314-0.988-0.314c-0.809,0-1.211,0.502-1.211,1.211v0.433h1.534v0.854
		h-1.521v7.142h-1.063v-7.142h-1.02v-0.854h1.01v-0.42c0-1.267,1.007-2.13,2.195-2.13c0.587,0,1.007,0.122,1.384,0.32L92.058,24.852
		z"/>
	<path fill="#0756A3" d="M92.83,29.244c0,0.044,0.01,0.079,0.01,0.122c0.056,1.076,0.743,1.851,1.929,1.851
		c0.542,0,1.085-0.232,1.421-0.49l0.351,0.844c-0.452,0.313-1.186,0.577-1.96,0.577c-1.829,0-2.804-1.33-2.804-3.093
		c0-1.521,0.787-3.162,2.572-3.162c1.452,0,2.284,1.01,2.296,2.506C95.503,28.933,94.235,29.231,92.83,29.244 M94.304,26.725
		c-0.988,0-1.43,0.8-1.475,1.709c1.063-0.022,1.961-0.166,2.805-0.565C95.568,27.193,95.067,26.725,94.304,26.725"/>
	<path fill="#0756A3" d="M106.478,31.96l-3.325-4.589c-0.467-0.646-0.678-1.067-0.756-1.258h-0.019v5.847h-1.098v-7.832h1.107
		l3.193,4.564c0.477,0.687,0.778,1.183,0.866,1.405h0.031v-5.969h1.085v7.832H106.478z"/>
	<path fill="#0756A3" d="M113.586,32.061c-0.687,0-0.832-0.42-0.853-0.922c-0.42,0.599-0.979,0.997-1.763,0.997
		c-1.154,0-1.841-0.762-1.841-1.983v-4.08h1.063v3.88c0,0.734,0.402,1.198,1.132,1.198c0.442,0,0.831-0.197,1.085-0.533
		c0.213-0.267,0.245-0.398,0.245-0.756v-3.789h1.063v4.767c0,0.22,0.057,0.38,0.267,0.38c0.069,0,0.179-0.025,0.257-0.047
		l0.078,0.765C114.129,31.992,113.853,32.061,113.586,32.061"/>
	<path fill="#0756A3" d="M117.162,32.148c-1.054,0-1.565-0.665-1.565-1.64v-3.46h-1.023v-0.853h1.035v-1.267l1.053-0.367v1.634
		h1.518v0.853h-1.518v3.328c0,0.618,0.32,0.872,0.841,0.872c0.276,0,0.511-0.063,0.656-0.144l0.163,0.856
		C118.046,32.07,117.595,32.148,117.162,32.148"/>
	<path fill="#0756A3" d="M122.149,27.17c-0.122-0.056-0.301-0.132-0.489-0.132c-0.442,0-0.687,0.198-0.932,0.474
		c-0.188,0.213-0.214,0.42-0.214,0.709v3.739h-1.063v-4.736c0-0.245-0.066-0.399-0.251-0.399c-0.082,0-0.192,0.022-0.267,0.044
		l-0.079-0.762c0.185-0.06,0.468-0.122,0.728-0.122c0.58,0,0.812,0.376,0.803,1.016c0.342-0.543,0.784-1.076,1.509-1.076
		c0.198,0,0.407,0.06,0.542,0.1L122.149,27.17z"/>
	<path fill="#0756A3" d="M123.944,24.997c-0.398,0-0.653-0.28-0.653-0.656c0-0.389,0.254-0.665,0.653-0.665
		c0.402,0,0.646,0.276,0.646,0.665C124.59,24.717,124.345,24.997,123.944,24.997 M124.354,32.061c-0.608,0-0.954-0.323-0.954-0.944
		v-5.044h1.067v4.767c0,0.22,0.044,0.38,0.254,0.38c0.079,0,0.192-0.025,0.267-0.047l0.069,0.765
		C124.897,31.992,124.621,32.061,124.354,32.061"/>
	<path fill="#0756A3" d="M127.902,32.148c-1.054,0-1.565-0.665-1.565-1.64v-3.46h-1.019v-0.853h1.035v-1.267l1.051-0.367v1.634
		h1.521v0.853h-1.521v3.328c0,0.618,0.323,0.872,0.844,0.872c0.276,0,0.508-0.063,0.655-0.144l0.163,0.856
		C128.79,32.07,128.335,32.148,127.902,32.148"/>
	<path fill="#0756A3" d="M130.49,24.997c-0.398,0-0.653-0.28-0.653-0.656c0-0.389,0.254-0.665,0.653-0.665
		c0.402,0,0.646,0.276,0.646,0.665C131.136,24.717,130.892,24.997,130.49,24.997 M130.901,32.061c-0.608,0-0.954-0.323-0.954-0.944
		v-5.044h1.066v4.767c0,0.22,0.041,0.38,0.254,0.38c0.079,0,0.188-0.025,0.267-0.047l0.069,0.765
		C131.444,31.992,131.167,32.061,130.901,32.061"/>
	<path fill="#0756A3" d="M134.831,32.17c-1.864,0-2.66-1.54-2.66-3.174c0-1.619,0.875-3.124,2.704-3.124
		c1.863,0,2.65,1.506,2.65,3.124C137.525,30.621,136.672,32.17,134.831,32.17 M134.875,26.781c-1.208,0-1.597,1.23-1.597,2.215
		c0,0.979,0.323,2.265,1.553,2.265c1.229,0,1.596-1.274,1.596-2.24C136.428,28.046,136.108,26.781,134.875,26.781"/>
	<path fill="#0756A3" d="M142.316,31.96V28.09c0-0.744-0.389-1.198-1.186-1.198c-0.467,0-0.869,0.223-1.155,0.543
		c-0.232,0.279-0.279,0.389-0.279,0.746v3.78h-1.063v-5.888h0.997v0.897c0.433-0.643,1.032-1.076,1.876-1.076
		c1.186,0,1.872,0.765,1.872,1.982v4.084H142.316z"/>
</g>
</svg>
