<?xml version="1.0" encoding="utf-8"?>
<!-- Generator: Adobe Illustrator 17.0.0, SVG Export Plug-In . SVG Version: 6.00 Build 0)  -->
<!DOCTYPE svg PUBLIC "-//W3C//DTD SVG 1.1//EN" "http://www.w3.org/Graphics/SVG/1.1/DTD/svg11.dtd">
<svg version="1.1" id="Camada_1" xmlns="http://www.w3.org/2000/svg" xmlns:xlink="http://www.w3.org/1999/xlink" x="0px" y="0px"
	 width="90px" height="90px" viewBox="0 0 90 90" enable-background="new 0 0 90 90" xml:space="preserve">
<g>
	<circle fill="#FF474C" cx="44.5" cy="44.5" r="42.5"/>
	<g>
		<path fill="#FFFFFF" d="M69.652,31.69c-1.636,0.726-3.395,1.216-5.24,1.437c1.884-1.129,3.331-2.917,4.012-5.048
			c-1.763,1.046-3.716,1.805-5.794,2.214c-1.664-1.773-4.036-2.881-6.66-2.881c-5.039,0-9.124,4.085-9.124,9.124
			c0,0.715,0.081,1.411,0.236,2.079c-7.583-0.38-14.306-4.013-18.806-9.533c-0.785,1.348-1.235,2.915-1.235,4.587
			c0,3.165,1.611,5.958,4.059,7.594c-1.496-0.047-2.903-0.458-4.133-1.141c-0.001,0.038-0.001,0.076-0.001,0.115
			c0,4.421,3.145,8.109,7.319,8.947c-0.766,0.208-1.572,0.32-2.404,0.32c-0.588,0-1.16-0.057-1.717-0.164
			c1.161,3.625,4.531,6.263,8.523,6.337c-3.123,2.447-7.057,3.906-11.332,3.906c-0.736,0-1.463-0.043-2.177-0.127
			c4.038,2.589,8.834,4.099,13.987,4.099c16.783,0,25.96-13.903,25.96-25.96c0-0.396-0.009-0.789-0.026-1.18
			C66.882,35.127,68.429,33.52,69.652,31.69z"/>
	</g>
</g>
</svg>
