<?xml version="1.0" encoding="utf-8"?>
<!-- Generator: Adobe Illustrator 17.0.0, SVG Export Plug-In . SVG Version: 6.00 Build 0)  -->
<!DOCTYPE svg PUBLIC "-//W3C//DTD SVG 1.1//EN" "http://www.w3.org/Graphics/SVG/1.1/DTD/svg11.dtd">
<svg version="1.1" id="Camada_1" xmlns="http://www.w3.org/2000/svg" xmlns:xlink="http://www.w3.org/1999/xlink" x="0px" y="0px"
	 width="44px" height="44px" viewBox="0 0 44 44" enable-background="new 0 0 44 44" xml:space="preserve">
<g>
	<g>
		<path fill="#00055A" d="M39.2,12.8c0,1.32-1.08,2.4-2.4,2.4H7.2c-1.32,0-2.4-1.08-2.4-2.4s1.08-2.4,2.4-2.4h29.6
			C38.12,10.4,39.2,11.48,39.2,12.8z"/>
	</g>
	<g>
		<path fill="#00055A" d="M39.2,22.4c0,1.32-1.08,2.4-2.4,2.4H7.2c-1.32,0-2.4-1.08-2.4-2.4S5.88,20,7.2,20h29.6
			C38.12,20,39.2,21.08,39.2,22.4z"/>
	</g>
	<g>
		<path fill="#00055A" d="M39.2,31.2c0,1.32-1.08,2.4-2.4,2.4H7.2c-1.32,0-2.4-1.08-2.4-2.4c0-1.32,1.08-2.4,2.4-2.4h29.6
			C38.12,28.8,39.2,29.88,39.2,31.2z"/>
	</g>
</g>
</svg>
