<?xml version="1.0" encoding="utf-8"?>
<!-- Generator: Adobe Illustrator 17.0.0, SVG Export Plug-In . SVG Version: 6.00 Build 0)  -->
<!DOCTYPE svg PUBLIC "-//W3C//DTD SVG 1.1//EN" "http://www.w3.org/Graphics/SVG/1.1/DTD/svg11.dtd">
<svg version="1.1" id="Camada_1" xmlns="http://www.w3.org/2000/svg" xmlns:xlink="http://www.w3.org/1999/xlink" x="0px" y="0px"
	 width="90px" height="90px" viewBox="0 0 90 90" enable-background="new 0 0 90 90" xml:space="preserve">
<g>
	<circle fill="#FF474C" cx="45" cy="45.5" r="42.5"/>
	<g>
		<path fill="#FFFFFF" d="M65.175,24.716c-5.225-5.229-12.173-8.11-19.575-8.113c-15.254,0-27.667,12.41-27.673,27.663
			c-0.002,4.876,1.272,9.635,3.694,13.83l-3.926,14.335l14.67-3.847c4.042,2.204,8.593,3.366,13.224,3.368h0.012
			c15.251,0,27.667-12.412,27.673-27.664C73.275,36.896,70.399,29.945,65.175,24.716z M45.596,71.002h-0.012
			c-4.471-0.001-8.864-1.124-12.766-3.25l-14.162,3.713l3.79-13.839c-2.338-4.05-3.568-8.645-3.566-13.351
			C18.886,29.55,30.87,17.57,45.595,17.57c7.147,0.003,13.854,2.785,18.897,7.832c5.044,5.048,7.821,11.758,7.818,18.893
			C72.304,59.021,60.319,71.002,45.596,71.002z"/>
		<path fill="#FFFFFF" d="M61.869,28.019c-4.343-4.346-10.117-6.741-16.261-6.743c-12.687,0-23.005,10.314-23.01,22.992
			c-0.002,4.344,1.214,8.575,3.516,12.237l0.547,0.87l-2.324,8.485l8.705-2.282l0.84,0.434c3.531,2.095,7.579,3.141,11.707,3.141
			h0.009c12.677,0,22.995-10.251,23.001-22.929C68.602,38.077,66.212,32.365,61.869,28.019z M59.137,54.153
			c-0.576,1.615-3.399,3.172-4.667,3.287c-1.268,0.115-2.456,0.573-8.297-1.73c-7.028-2.772-11.466-9.976-11.812-10.437
			c-0.345-0.462-2.823-3.749-2.823-7.151c0-3.402,1.786-5.075,2.42-5.766c0.634-0.692,1.383-0.865,1.844-0.865
			c0.461,0,0.922-0.001,1.325,0.016c0.493,0.02,1.038,0.043,1.556,1.195c0.615,1.367,1.959,4.787,2.132,5.133
			c0.173,0.346,0.288,0.75,0.058,1.211c-0.231,0.461-0.346,0.749-0.691,1.153c-0.346,0.404-0.727,0.901-1.037,1.211
			c-0.347,0.345-0.707,0.719-0.304,1.411c0.403,0.692,1.791,2.956,3.847,4.788c2.642,2.356,4.869,3.085,5.56,3.432
			c0.692,0.346,1.095,0.288,1.498-0.174c0.403-0.461,1.728-2.018,2.189-2.71c0.461-0.692,0.922-0.577,1.556-0.346
			c0.634,0.231,4.033,1.904,4.725,2.249c0.692,0.346,1.153,0.519,1.325,0.807C59.714,51.155,59.714,52.539,59.137,54.153z"/>
	</g>
</g>
</svg>
