<?xml version="1.0" encoding="utf-8"?>
<!-- Generator: Adobe Illustrator 17.0.0, SVG Export Plug-In . SVG Version: 6.00 Build 0)  -->
<!DOCTYPE svg PUBLIC "-//W3C//DTD SVG 1.1//EN" "http://www.w3.org/Graphics/SVG/1.1/DTD/svg11.dtd">
<svg version="1.1" id="Camada_1" xmlns="http://www.w3.org/2000/svg" xmlns:xlink="http://www.w3.org/1999/xlink" x="0px" y="0px"
	 width="44px" height="44px" viewBox="0 0 44 44" enable-background="new 0 0 44 44" xml:space="preserve">
<g>
	<path fill="#FFFFFF" d="M18.873,11.776c-3.178,0.059-5.861,1.974-6.91,4.63c1.674-1.658,4.27-2.659,7.136-2.519
		c3.186,0.155,5.904,1.682,7.323,3.832C25.835,14.29,22.657,11.706,18.873,11.776z"/>
	<path fill="#FFFFFF" d="M38.268,33.757l-7.242-7.242c-0.009-0.009-0.018-0.017-0.027-0.026c1.4-2.201,2.212-4.813,2.212-7.614
		c0-7.846-6.36-14.205-14.205-14.205S4.8,11.03,4.8,18.875S11.16,33.08,19.005,33.08c2.667,0,5.162-0.735,7.294-2.014
		c0.028,0.03,0.056,0.061,0.086,0.09l7.242,7.242c1.243,1.243,3.278,1.243,4.52,0l0.121-0.121C39.51,37.035,39.51,35,38.268,33.757z
		 M19.005,28.65c-5.398,0-9.775-4.377-9.775-9.775S13.606,9.1,19.005,9.1s9.775,4.377,9.775,9.775S24.404,28.65,19.005,28.65z"/>
</g>
</svg>
