<?xml version="1.0" encoding="utf-8"?>
<!-- Generator: Adobe Illustrator 17.0.0, SVG Export Plug-In . SVG Version: 6.00 Build 0)  -->
<!DOCTYPE svg PUBLIC "-//W3C//DTD SVG 1.1//EN" "http://www.w3.org/Graphics/SVG/1.1/DTD/svg11.dtd">
<svg version="1.1" id="Layer_1" xmlns="http://www.w3.org/2000/svg" xmlns:xlink="http://www.w3.org/1999/xlink" x="0px" y="0px"
	 width="98px" height="98px" viewBox="0 0 98 98" enable-background="new 0 0 98 98" xml:space="preserve">
<path fill="#00ADEE" d="M0,0v98h98V0H0z M49,92C25.252,92,6,72.748,6,49S25.252,6,49,6s43,19.252,43,43S72.748,92,49,92z"/>
<g>
	<path fill="#FFFFFF" d="M45.836,97c-0.03,0-0.059-0.001-0.089-0.003c-2.181-0.146-4.367-0.443-6.497-0.882
		c-0.713-0.147-1.171-0.844-1.024-1.557c0.147-0.712,0.843-1.17,1.557-1.024c2.013,0.415,4.079,0.695,6.14,0.833
		c0.726,0.049,1.275,0.677,1.227,1.403C47.103,96.467,46.524,97,45.836,97z M52.211,96.997c-0.687,0-1.266-0.533-1.313-1.228
		c-0.049-0.726,0.499-1.355,1.225-1.404c2.062-0.14,4.127-0.422,6.14-0.839c0.715-0.146,1.41,0.311,1.558,1.023
		c0.147,0.713-0.31,1.41-1.023,1.558c-2.13,0.441-4.315,0.74-6.496,0.888C52.271,96.996,52.241,96.997,52.211,96.997z
		 M33.369,94.428c-0.146,0-0.295-0.024-0.441-0.076c-2.056-0.73-4.081-1.609-6.018-2.614c-0.646-0.335-0.898-1.13-0.563-1.776
		c0.335-0.646,1.13-0.898,1.776-0.563c1.831,0.95,3.744,1.78,5.687,2.47c0.686,0.243,1.045,0.996,0.801,1.682
		C34.419,94.091,33.911,94.428,33.369,94.428z M64.671,94.413c-0.542,0-1.049-0.337-1.241-0.876c-0.244-0.686,0.114-1.439,0.8-1.683
		c1.94-0.69,3.851-1.522,5.681-2.473c0.647-0.336,1.441-0.084,1.777,0.562c0.336,0.646,0.084,1.441-0.562,1.777
		c-1.937,1.006-3.96,1.887-6.013,2.618C64.967,94.389,64.818,94.413,64.671,94.413z M22.066,88.569
		c-0.263,0-0.528-0.078-0.759-0.241c-1.779-1.257-3.491-2.649-5.086-4.138c-0.532-0.496-0.561-1.33-0.064-1.862
		c0.496-0.532,1.33-0.561,1.862-0.064c1.509,1.408,3.127,2.724,4.809,3.912c0.594,0.42,0.736,1.242,0.316,1.836
		C22.886,88.375,22.479,88.569,22.066,88.569z M75.962,88.549c-0.413,0-0.82-0.194-1.077-0.557c-0.42-0.594-0.279-1.416,0.315-1.837
		c1.681-1.189,3.298-2.507,4.804-3.914c0.532-0.497,1.366-0.469,1.862,0.063c0.497,0.532,0.469,1.365-0.063,1.862
		c-1.593,1.489-3.303,2.882-5.082,4.14C76.491,88.471,76.225,88.549,75.962,88.549z M12.764,79.886
		c-0.382,0-0.761-0.165-1.022-0.485c-1.378-1.69-2.653-3.49-3.788-5.35c-0.379-0.621-0.183-1.432,0.438-1.811
		c0.621-0.379,1.432-0.183,1.811,0.438c1.073,1.758,2.278,3.459,3.581,5.057c0.46,0.564,0.375,1.394-0.188,1.854
		C13.351,79.789,13.057,79.886,12.764,79.886z M85.257,79.861c-0.293,0-0.587-0.097-0.831-0.296c-0.564-0.46-0.649-1.289-0.19-1.854
		c1.303-1.6,2.507-3.304,3.579-5.062c0.379-0.621,1.189-0.818,1.811-0.44c0.621,0.379,0.818,1.189,0.44,1.811
		c-1.134,1.861-2.407,3.663-3.786,5.355C86.019,79.696,85.639,79.861,85.257,79.861z M6.139,69.029
		c-0.508,0-0.993-0.296-1.208-0.791c-0.872-2-1.613-4.079-2.202-6.178c-0.197-0.7,0.212-1.428,0.913-1.625
		c0.7-0.195,1.428,0.212,1.625,0.913c0.556,1.983,1.256,3.947,2.08,5.837c0.291,0.667-0.014,1.444-0.681,1.734
		C6.493,68.994,6.314,69.029,6.139,69.029z M91.878,68.99c-0.175,0-0.354-0.035-0.525-0.11c-0.667-0.29-0.973-1.066-0.683-1.734
		c0.822-1.891,1.521-3.857,2.076-5.842c0.196-0.701,0.922-1.11,1.624-0.914c0.701,0.196,1.11,0.923,0.914,1.624
		c-0.587,2.102-1.327,4.182-2.197,6.184C92.872,68.694,92.387,68.99,91.878,68.99z M2.699,56.779c-0.649,0-1.213-0.479-1.304-1.139
		C1.1,53.487,0.949,51.286,0.947,49.1c-0.001-0.728,0.589-1.318,1.316-1.319c0.001,0,0.001,0,0.001,0
		c0.727,0,1.317,0.589,1.318,1.316c0.002,2.068,0.144,4.149,0.424,6.185c0.099,0.721-0.406,1.386-1.127,1.484
		C2.818,56.774,2.758,56.779,2.699,56.779z M95.308,56.732c-0.059,0-0.119-0.004-0.179-0.012c-0.721-0.098-1.226-0.762-1.128-1.483
		c0.277-2.034,0.417-4.115,0.417-6.184v-0.093c0-0.728,0.59-1.318,1.318-1.318s1.318,0.59,1.318,1.318v0.093
		c0,2.188-0.148,4.389-0.442,6.54C96.522,56.253,95.956,56.732,95.308,56.732z M2.689,44.054c-0.059,0-0.118-0.004-0.178-0.012
		c-0.721-0.098-1.227-0.761-1.129-1.482c0.292-2.163,0.737-4.324,1.321-6.423c0.195-0.701,0.923-1.11,1.623-0.916
		c0.701,0.195,1.111,0.922,0.916,1.623c-0.552,1.983-0.972,4.025-1.248,6.069C3.904,43.574,3.338,44.054,2.689,44.054z
		 M95.292,43.916c-0.648,0-1.213-0.478-1.304-1.138c-0.282-2.044-0.708-4.085-1.266-6.065c-0.197-0.7,0.211-1.428,0.911-1.625
		c0.7-0.196,1.428,0.211,1.625,0.911c0.591,2.096,1.041,4.256,1.34,6.419c0.1,0.721-0.404,1.386-1.125,1.485
		C95.413,43.912,95.352,43.916,95.292,43.916z M6.102,31.793c-0.175,0-0.353-0.035-0.523-0.109c-0.668-0.29-0.974-1.065-0.685-1.733
		c0.867-2,1.882-3.96,3.016-5.826c0.378-0.622,1.189-0.819,1.81-0.441s0.819,1.189,0.441,1.81c-1.072,1.763-2.031,3.615-2.851,5.505
		C7.096,31.496,6.611,31.793,6.102,31.793z M91.844,31.669c-0.508,0-0.992-0.295-1.208-0.79c-0.823-1.884-1.787-3.732-2.863-5.491
		c-0.38-0.621-0.184-1.432,0.436-1.812c0.621-0.379,1.432-0.184,1.812,0.436c1.139,1.862,2.158,3.817,3.03,5.811
		c0.291,0.667-0.013,1.443-0.68,1.735C92.199,31.633,92.02,31.669,91.844,31.669z M12.713,20.914c-0.292,0-0.586-0.097-0.83-0.295
		c-0.565-0.459-0.651-1.289-0.191-1.853c1.374-1.691,2.879-3.305,4.471-4.796c0.531-0.498,1.365-0.47,1.862,0.061
		s0.47,1.365-0.061,1.862c-1.505,1.41-2.928,2.935-4.227,4.534C13.475,20.748,13.095,20.914,12.713,20.914z M85.209,20.818
		c-0.382,0-0.76-0.165-1.021-0.484c-1.304-1.596-2.73-3.118-4.238-4.523c-0.532-0.496-0.562-1.33-0.066-1.862
		c0.496-0.532,1.329-0.562,1.862-0.066c1.595,1.486,3.103,3.095,4.483,4.783c0.46,0.564,0.377,1.394-0.187,1.854
		C85.797,20.721,85.502,20.818,85.209,20.818z M22.003,12.217c-0.413,0-0.819-0.193-1.076-0.556
		c-0.421-0.594-0.281-1.416,0.313-1.837c1.779-1.261,3.661-2.411,5.593-3.417c0.644-0.336,1.441-0.086,1.777,0.56
		s0.085,1.441-0.56,1.777c-1.826,0.951-3.604,2.038-5.286,3.23C22.532,12.138,22.266,12.217,22.003,12.217z M75.894,12.144
		c-0.262,0-0.527-0.078-0.758-0.241c-1.688-1.19-3.471-2.272-5.299-3.218c-0.646-0.334-0.899-1.129-0.565-1.776
		c0.334-0.647,1.129-0.899,1.776-0.565c1.935,1.001,3.821,2.146,5.607,3.405c0.595,0.419,0.737,1.241,0.318,1.836
		C76.716,11.95,76.308,12.144,75.894,12.144z M33.286,6.342c-0.541,0-1.048-0.336-1.241-0.875c-0.245-0.685,0.113-1.439,0.798-1.684
		c2.054-0.733,4.178-1.33,6.314-1.775c0.712-0.15,1.41,0.309,1.558,1.022c0.148,0.712-0.309,1.41-1.022,1.558
		c-2.017,0.42-4.024,0.984-5.965,1.677C33.582,6.317,33.433,6.342,33.286,6.342z M64.588,6.298c-0.146,0-0.294-0.024-0.44-0.076
		c-1.943-0.688-3.953-1.246-5.974-1.661c-0.713-0.146-1.172-0.843-1.026-1.555c0.146-0.713,0.841-1.173,1.555-1.026
		c2.14,0.439,4.267,1.03,6.324,1.758c0.686,0.243,1.045,0.996,0.803,1.682C65.639,5.96,65.13,6.298,64.588,6.298z M45.74,3.746
		c-0.687,0-1.265-0.532-1.313-1.227c-0.05-0.726,0.498-1.355,1.224-1.405c2.161-0.149,4.385-0.152,6.554-0.01
		c0.726,0.048,1.276,0.675,1.228,1.401c-0.048,0.726-0.672,1.275-1.401,1.228c-2.052-0.135-4.156-0.132-6.2,0.009
		C45.801,3.745,45.771,3.746,45.74,3.746z"/>
</g>
</svg>
