<?xml version="1.0" encoding="utf-8"?>
<!-- Generator: Adobe Illustrator 17.0.0, SVG Export Plug-In . SVG Version: 6.00 Build 0)  -->
<!DOCTYPE svg PUBLIC "-//W3C//DTD SVG 1.1//EN" "http://www.w3.org/Graphics/SVG/1.1/DTD/svg11.dtd">
<svg version="1.1" id="Camada_1" xmlns="http://www.w3.org/2000/svg" xmlns:xlink="http://www.w3.org/1999/xlink" x="0px" y="0px"
	 width="25px" height="25px" viewBox="0 0 25 25" enable-background="new 0 0 25 25" xml:space="preserve">
<path fill="#FFFFFF" d="M20.288,17.102c-1.089,0-2.073,0.448-2.78,1.168l-8.999-4.908c0.063-0.277,0.097-0.565,0.097-0.861
	c0-0.296-0.034-0.584-0.097-0.861l8.999-4.908c0.707,0.721,1.691,1.168,2.78,1.168c2.151,0,3.894-1.743,3.894-3.894
	c0-2.151-1.743-3.894-3.894-3.894c-2.151,0-3.894,1.743-3.894,3.894c0,0.296,0.034,0.584,0.097,0.861L7.492,9.774
	c-0.707-0.721-1.691-1.168-2.78-1.168c-2.151,0-3.894,1.743-3.894,3.894c0,2.151,1.743,3.894,3.894,3.894
	c1.089,0,2.073-0.448,2.78-1.168l8.999,4.909c-0.063,0.277-0.097,0.565-0.097,0.861c0,2.151,1.743,3.894,3.894,3.894
	c2.151,0,3.894-1.743,3.894-3.894C24.182,18.845,22.438,17.102,20.288,17.102z"/>
</svg>
