<?xml version="1.0" encoding="utf-8"?>
<!-- Generator: Adobe Illustrator 17.0.0, SVG Export Plug-In . SVG Version: 6.00 Build 0)  -->
<!DOCTYPE svg PUBLIC "-//W3C//DTD SVG 1.1//EN" "http://www.w3.org/Graphics/SVG/1.1/DTD/svg11.dtd">
<svg version="1.1" id="Layer_1" xmlns="http://www.w3.org/2000/svg" xmlns:xlink="http://www.w3.org/1999/xlink" x="0px" y="0px"
	 width="196px" height="196px" viewBox="0 0 196 196" enable-background="new 0 0 196 196" xml:space="preserve">
<rect fill="#FFFFFF" width="196" height="196"/>
<g>
	<g>
		<path fill="#47A9D5" d="M137.414,150.149H58.586v-16.372c0-11.852,9.64-21.495,21.495-21.495h7.474v-10.109
			c0-0.766,0.62-1.383,1.382-1.383c0.763,0,1.382,0.619,1.382,1.383v12.877H80.077c-10.326,0-18.726,8.401-18.726,18.726v13.604
			h73.295v-13.604c0-10.326-8.401-18.726-18.726-18.726h-10.242v-12.877c0-0.766,0.62-1.383,1.382-1.383
			c0.766,0,1.383,0.619,1.383,1.383v10.109h7.474c11.852,0,21.492,9.643,21.492,21.495v16.372
			C137.408,150.149,137.414,150.149,137.414,150.149z"/>
	</g>
	<g>
		<path fill="#47A9D5" d="M98,143.214l-0.671-0.372c-0.617-0.343-15.139-8.529-15.139-19.108v-9.021c0-0.766,0.62-1.383,1.382-1.383
			c0.763,0,1.382,0.619,1.382,1.383v9.021c0,7.805,10.284,14.605,13.044,16.289c2.757-1.687,13.044-8.499,13.044-16.289v-9.021
			c0-0.766,0.62-1.383,1.382-1.383c0.766,0,1.383,0.62,1.383,1.383v9.021c0,10.576-14.522,18.763-15.139,19.108L98,143.214z"/>
	</g>
	<g>
		<path fill="#47A9D5" d="M98,105.609c-11.318,0-20.604-8.875-21.26-20.032c-2.614-0.474-4.601-2.769-4.601-5.516v-4.378
			c0-2.691,1.907-4.947,4.44-5.487l-0.08-6.711c-0.009-0.763,0.602-1.392,1.368-1.401h0.018c0.757,0,1.374,0.608,1.382,1.368
			l0.099,7.99c0.006,0.37-0.14,0.727-0.399,0.989s-0.614,0.411-0.984,0.411h-0.232c-1.564,0-2.84,1.273-2.84,2.84v4.378
			c0,1.564,1.273,2.84,2.84,2.84h0.343c0.757,0,1.374,0.608,1.382,1.365v0.05c0,10.216,8.311,18.527,18.527,18.527
			c10.216,0,18.527-8.311,18.527-18.527v-0.05c0.012-0.757,0.629-1.365,1.382-1.365h0.343c1.564,0,2.84-1.273,2.84-2.84v-4.378
			c0-1.565-1.273-2.84-2.84-2.84h-0.235c-0.37,0-0.725-0.149-0.983-0.411c-0.259-0.263-0.405-0.62-0.399-0.989l0.098-7.99
			c0.009-0.757,0.626-1.368,1.382-1.368h0.018c0.766,0.009,1.377,0.638,1.368,1.401l-0.083,6.711c2.533,0.536,4.44,2.792,4.44,5.487
			v4.378c0,2.747-1.988,5.042-4.601,5.516C118.598,96.738,109.316,105.609,98,105.609z"/>
	</g>
	<g>
		<path fill="#47A9D5" d="M118.148,64.288c-0.766,0-1.382-0.619-1.382-1.383c0-7.879-6.41-14.286-14.286-14.286h-8.955
			c-7.879,0-14.286,6.41-14.286,14.286c0,0.763-0.62,1.383-1.382,1.383s-1.382-0.619-1.382-1.383c0-9.405,7.65-17.055,17.055-17.055
			h8.955c9.405,0,17.055,7.65,17.055,17.055C119.531,63.668,118.911,64.288,118.148,64.288z"/>
	</g>
	<g>
		<path fill="#47A9D5" d="M74.228,78.035c-0.763,0-1.382-0.619-1.382-1.383c0-0.763,0.62-1.383,1.382-1.383
			c3.761,0,6.547-1.01,8.279-3.001c2.652-3.048,2.065-7.521,2.065-7.521c-0.066-0.486,0.086-0.93,0.408-1.237
			s0.769-0.444,1.207-0.363c12.084,2.226,16.295-4.81,16.337-4.881c0.227-0.393,0.632-0.65,1.085-0.688
			c0.447-0.038,0.894,0.149,1.183,0.498c0.069,0.083,7.059,8.439,13.148,8.156c0.772-0.036,1.413,0.554,1.448,1.317
			c0.036,0.763-0.552,1.413-1.317,1.448c-0.143,0.006-0.289,0.009-0.432,0.009c-5.734,0-11.449-5.349-13.833-7.882
			c-2.036,2.268-7.018,6.21-16.408,5.013c-0.036,2.006-0.495,5.286-2.78,7.927C82.334,76.7,78.841,78.035,74.228,78.035z"/>
	</g>
</g>
</svg>
