<?xml version="1.0" encoding="utf-8"?>
<!-- Generator: Adobe Illustrator 17.0.0, SVG Export Plug-In . SVG Version: 6.00 Build 0)  -->
<!DOCTYPE svg PUBLIC "-//W3C//DTD SVG 1.1//EN" "http://www.w3.org/Graphics/SVG/1.1/DTD/svg11.dtd">
<svg version="1.1" id="Layer_1" xmlns="http://www.w3.org/2000/svg" xmlns:xlink="http://www.w3.org/1999/xlink" x="0px" y="0px"
	 width="196px" height="196px" viewBox="0 0 196 196" enable-background="new 0 0 196 196" xml:space="preserve">
<rect fill="#FFFFFF" width="196" height="196"/>
<g>
	<g>
		<path fill="#47A9D5" d="M136.759,150.296H59.241v-16.132c0-11.67,9.491-21.161,21.161-21.161h7.286v-9.871
			c0-0.78,0.634-1.413,1.413-1.413c0.78,0,1.413,0.633,1.413,1.413v12.698H80.401c-10.109,0-18.334,8.224-18.334,18.334v13.304
			h71.862v-13.304c0-10.109-8.224-18.334-18.334-18.334h-10.113v-12.698c0-0.78,0.633-1.413,1.413-1.413s1.413,0.633,1.413,1.413
			v9.871h7.286c11.667,0,21.161,9.494,21.161,21.161v16.132C136.756,150.296,136.759,150.296,136.759,150.296z"/>
	</g>
	<g>
		<path fill="#47A9D5" d="M98,148.136l-17.416-32.651c-0.368-0.69-0.108-1.545,0.583-1.912c0.69-0.367,1.545-0.108,1.912,0.582
			L98,142.129l14.918-27.974c0.367-0.69,1.222-0.947,1.912-0.582c0.69,0.367,0.951,1.225,0.582,1.912L98,148.136z"/>
	</g>
	<g>
		<path fill="#47A9D5" d="M80.963,72.347c-0.771,0-1.401-0.619-1.413-1.389c-0.012-0.78,0.61-1.422,1.389-1.437
			c16.281-0.266,23.321-12.417,23.614-12.934l1.87-3.314l0.747,3.73c0.024,0.113,2.381,11.422,9.225,12.491
			c0.771,0.12,1.3,0.843,1.177,1.613c-0.12,0.771-0.843,1.3-1.613,1.177c-6.237-0.974-9.386-7.701-10.731-11.726
			c-3.228,4.091-10.938,11.571-24.244,11.786L80.963,72.347z"/>
	</g>
	<g>
		<path fill="#47A9D5" d="M67.459,99.879c-0.669,0-1.264-0.475-1.389-1.156c-0.144-0.768,0.365-1.506,1.133-1.646
			c4.327-0.801,4.865-9.946,5.388-18.788c0.346-5.89,0.706-11.983,2.113-16.852c4.551-15.731,19.947-15.731,25.007-15.731
			c0.78,0,1.413,0.633,1.413,1.413c0,0.78-0.633,1.413-1.413,1.413c-12.506,0-19.589,4.351-22.29,13.69
			c-1.321,4.563-1.67,10.495-2.008,16.233c-0.613,10.387-1.189,20.199-7.695,21.403C67.629,99.87,67.542,99.879,67.459,99.879z"/>
	</g>
	<g>
		<path fill="#47A9D5" d="M84.507,99.879H67.459c-0.78,0-1.413-0.633-1.413-1.413s0.634-1.413,1.413-1.413h17.048
			c0.78,0,1.413,0.633,1.413,1.413C85.92,99.246,85.287,99.879,84.507,99.879z"/>
	</g>
	<g>
		<path fill="#47A9D5" d="M132.27,99.879h-19.35c-0.78,0-1.413-0.633-1.413-1.413s0.633-1.413,1.413-1.413h14.93
			c-2.666-3.87-3.09-11.084-3.532-18.6c-0.337-5.738-0.687-11.667-2.005-16.233c-2.701-9.339-9.784-13.69-22.29-13.69
			c-0.78,0-1.413-0.633-1.413-1.413c0-0.78,0.633-1.413,1.413-1.413c5.06,0,20.455,0,25.007,15.731
			c1.408,4.868,1.766,10.961,2.113,16.852c0.52,8.842,1.058,17.987,5.388,18.791c0.717,0.134,1.217,0.792,1.151,1.518
			C133.609,99.324,133,99.879,132.27,99.879z"/>
	</g>
	<g>
		<path fill="#47A9D5" d="M98.481,106.636c-10.773,0-19.535-8.765-19.535-19.535V71.128c0-0.78,0.634-1.413,1.413-1.413
			c0.78,0,1.413,0.633,1.413,1.413v15.973c0,9.213,7.495,16.708,16.708,16.708c9.213,0,16.708-7.495,16.708-16.708V72.972
			c0-0.562-0.027-0.78-0.09-1.306l-0.027-0.236c-0.092-0.774,0.46-1.479,1.237-1.572c0.774-0.092,1.479,0.46,1.572,1.237l0.027,0.23
			c0.069,0.568,0.111,0.911,0.111,1.646V87.1C118.019,97.871,109.254,106.636,98.481,106.636z"/>
	</g>
</g>
</svg>
