<?xml version="1.0" encoding="utf-8"?>
<!-- Generator: Adobe Illustrator 17.0.0, SVG Export Plug-In . SVG Version: 6.00 Build 0)  -->
<!DOCTYPE svg PUBLIC "-//W3C//DTD SVG 1.1//EN" "http://www.w3.org/Graphics/SVG/1.1/DTD/svg11.dtd">
<svg version="1.1" id="Layer_1" xmlns="http://www.w3.org/2000/svg" xmlns:xlink="http://www.w3.org/1999/xlink" x="0px" y="0px"
	 width="50px" height="258px" viewBox="0 0 50 258" enable-background="new 0 0 50 258" xml:space="preserve">
<g>
	<g>
		<circle fill="#0055A5" cx="21.876" cy="23.875" r="6.25"/>
		<path fill="#0055A5" d="M25,2C11.192,2,0,13.193,0,27c0,13.807,11.192,25,25,25c13.807,0,25-11.193,25-25C50,13.193,38.807,2,25,2
			z M37.014,39.014c-0.648,0.648-1.709,0.648-2.357,0l-7.437-7.438c-1.517,1.054-3.357,1.674-5.344,1.674
			c-5.179,0-9.376-4.197-9.376-9.375c0-5.178,4.197-9.375,9.376-9.375c5.177,0,9.374,4.197,9.374,9.375
			c0,1.987-0.62,3.827-1.674,5.344l7.438,7.438C37.662,37.305,37.662,38.366,37.014,39.014z"/>
	</g>
	<g>
		<path fill="#0055A5" d="M25,53C11.193,53,0,64.193,0,78c0,13.807,11.193,25,25,25c13.807,0,25-11.193,25-25
			C50,64.193,38.807,53,25,53z M31.09,66.542v3.65l-3.369-3.65H31.09z M34.615,88.417c0,1.145-0.866,2.083-1.923,2.083h-4.808
			v-7.292c0-1.146-0.865-2.083-1.923-2.083h-1.923c-1.058,0-1.924,0.938-1.924,2.083V90.5h-4.807c-1.058,0-1.923-0.938-1.923-2.083
			v-8.334L25,69.666l9.615,10.417V88.417z M37.218,79.778c-0.188,0.203-0.434,0.305-0.68,0.305c-0.246,0-0.492-0.101-0.68-0.305
			L24.999,68.014L14.141,79.778c-0.188,0.204-0.434,0.305-0.68,0.305c-0.246,0-0.492-0.101-0.68-0.305
			c-0.375-0.407-0.375-1.066,0-1.473l11.536-12.497c0.001-0.001,0.003-0.002,0.003-0.003c0.375-0.406,0.984-0.406,1.359,0
			l11.539,12.501C37.594,78.712,37.594,79.371,37.218,79.778z"/>
	</g>
	<g>
		<path fill="#0055A5" d="M38.997,108.287c0.34,1.416,0.23,2.871-0.908,4.008c-0.883,0.881-0.63,1.636-0.026,3.125
			c0.641,1.58,1.439,3.546-0.216,5.83c-1.607,2.217-3.042,4.776-3.915,6.433c0.841-0.23,1.693-0.235,2.584,0.08
			c0.674,0.237,1.398,0.335,2.098,0.496c0.607,0.138,0.824-0.133,0.744-0.712c-0.029-0.206-0.069-0.411-0.105-0.617
			c-0.125-0.707-0.307-1.412-0.254-2.138c0.054-0.749,0.593-1,1.207-0.565c0.596,0.423,1.115,0.939,1.386,1.624
			c0.513,1.289,0.96,2.598,1.534,3.872c0.696,1.545-0.273,2.593-1.887,2.263c-1.014-0.206-2.031-0.196-3.042,0.025
			c-0.169,0.037-0.409,0.036-0.442,0.266c-0.027,0.183,0.167,0.26,0.288,0.362c0.337,0.286,0.689,0.552,1.011,0.855
			c2.503,2.359,2.141,6.217-0.757,8.076c-1.025,0.659-2.148,1.121-3.319,1.42c-5.337,1.365-10.25,0.09-14.927-2.501
			c-0.745-0.413-3.667-2.537-3.996-2.828c-1.93-1.715-3.954-3.302-6.202-4.592c-0.479-0.274-0.905-0.653-1.326-1.017
			c-1.245-1.077-2.272-2.323-2.896-3.868c-1.235-3.054-0.598-5.935,1.774-7.809c1.539-1.215,3.315-1.873,5.278-1.92
			c2.428-0.06,4.361,0.788,5.408,3.143c0.16,0.358,0.384,0.689,0.591,1.025c0.312,0.511,0.708,0.896,1.338,1.022
			c0.454,0.091,0.848,0.307,0.662,0.915c-0.056,0.184,0.019,0.358,0.153,0.511c0.764,0.867,0.826,2.005,1.148,3.039
			c0.108,0.345-0.131,0.679-0.354,0.95c-0.369,0.449-0.765,0.873-1.14,1.317c-0.151,0.179-0.371,0.329-0.377,0.643
			c0.493-0.111,0.834-0.398,1.194-0.642c1.074-0.726,2.103-1.488,3.364-1.934c1.378-0.486,1.593-2.198,0.512-3.191
			c-0.593-0.545-0.762-1.404-0.377-2.088c0.242-0.432,0.538-0.809,1.091-0.365c0.146,0.118,0.292,0.077,0.456,0.02
			c1.265-0.447,2.133,0.194,2.133,1.538c0,1.184-0.25,2.343-0.224,3.531c0.625-1.111,1.252-2.222,1.871-3.335
			c0.34-0.61,0.821-0.937,1.541-0.811c0.545,0.097,1.439,0.975,1.627,1.592c0.859-1.534,1.968-3.377,3.191-5.064
			c1.11-1.533,0.605-2.778,0.02-4.22c-0.584-1.44-1.312-3.231,0.393-4.936c1.039-1.041,0.536-2.756-0.231-4.218
			c-2.051-1.086-4.269-1.899-6.609-2.381c-1.446-0.298-2.937-0.471-4.462-0.507C25.403,104.002,25.202,104,25,104
			c-0.123,0-0.246,0.001-0.369,0.003c-1.958,0.028-3.861,0.281-5.685,0.735c-0.425,0.105-0.845,0.222-1.26,0.349
			c-0.821,0.25-1.624,0.541-2.407,0.872C6.301,109.753,0,118.641,0,129c0,11.284,7.476,20.821,17.744,23.93
			c0.512,0.156,1.032,0.295,1.558,0.417c0.211,0.05,0.424,0.097,0.637,0.141c1.28,0.262,2.596,0.428,3.94,0.487
			C24.251,153.992,24.624,154,25,154c0.378,0,0.755-0.008,1.129-0.025c0.9-0.04,1.787-0.127,2.659-0.26
			c0.982-0.149,1.945-0.355,2.885-0.616c0.118-0.032,0.236-0.066,0.353-0.1C42.413,149.963,50,140.368,50,129
			C50,120.38,45.635,112.781,38.997,108.287z"/>
		<path fill="#0055A5" d="M31.155,128.181c-0.055,0.156-0.129,0.319-0.006,0.46c0.129,0.147,0.284,0.061,0.417,0.002
			c0.112-0.232,0.504-1.038,1.099-2.148c-0.088,0.051-0.176,0.102-0.261,0.153C31.803,127.017,31.388,127.521,31.155,128.181z"/>
	</g>
	<path fill="#0055A5" d="M25,155c-13.807,0-25,11.193-25,25s11.193,25,25,25s25-11.193,25-25S38.807,155,25,155z M9.465,170.811
		c3.225-0.951,6.45-1.904,9.677-2.853c0.163-0.111,0.375-0.156,0.597-0.087c0.157,0.028,0.286,0.103,0.381,0.206
		c1.411,0.89,2.823,1.78,4.234,2.667c0.551,0.348,0.497,1.009-0.189,1.21c-2.885,0.852-5.767,1.701-8.65,2.553
		c-0.404,0.118-0.809,0.237-1.211,0.356c-0.511,0.151-1.019-0.314-1.381-0.543c-1.216-0.766-2.432-1.534-3.647-2.299
		C8.725,171.673,8.779,171.014,9.465,170.811z M9.391,178.906c1.411-1.062,2.823-2.126,4.234-3.188
		c0.095-0.12,0.223-0.213,0.381-0.244c0.223-0.082,0.433-0.028,0.597,0.103c3.226,1.138,6.45,2.273,9.677,3.409
		c0.686,0.242,0.74,1.03,0.189,1.444c-1.215,0.915-2.431,1.83-3.647,2.745c-0.362,0.272-0.87,0.828-1.381,0.648
		c-0.403-0.142-0.808-0.285-1.211-0.425c-2.883-1.016-5.767-2.032-8.65-3.047C8.894,180.109,8.84,179.32,9.391,178.906z
		 M24.86,191.362c0,0.485-0.51,0.935-1,0.762c-3.291-1.159-6.582-2.319-9.873-3.476c-0.335-0.119-0.581-0.394-0.581-0.763v-5.768
		c1.377,0.484,2.755,0.968,4.133,1.453c0.591,0.21,1.19,0.477,1.797,0.633c0.432,0.114,0.842-0.023,1.19-0.29
		c0.962-0.732,1.919-1.469,2.885-2.196c0.294-0.221,0.587-0.442,0.88-0.662c0.182-0.139,0.413-0.27,0.57-0.442V191.362z
		 M25.57,170.708c1.215-0.767,2.43-1.534,3.647-2.3c0.375-0.237,0.87-0.692,1.395-0.538c0.399,0.118,0.799,0.235,1.197,0.352
		c2.883,0.851,5.767,1.701,8.65,2.553c0.685,0.201,0.739,0.862,0.189,1.207c-1.411,0.89-2.823,1.78-4.234,2.671
		c-0.095,0.103-0.224,0.177-0.381,0.205c-0.224,0.068-0.434,0.021-0.597-0.087c-3.226-0.952-6.451-1.904-9.677-2.854
		C25.073,171.716,25.018,171.056,25.57,170.708z M36.708,187.767c0,0.368-0.244,0.643-0.58,0.761
		c-3.291,1.159-6.583,2.318-9.874,3.477c-0.49,0.173-1-0.276-1-0.762v-10.75c0.157,0.175,0.387,0.305,0.57,0.442
		c0.294,0.223,0.586,0.442,0.88,0.663c0.967,0.725,1.924,1.464,2.886,2.197c0.348,0.265,0.757,0.402,1.19,0.289
		c0.606-0.156,1.205-0.423,1.797-0.632c1.377-0.485,2.754-0.971,4.131-1.454V187.767z M40.535,180.232
		c-2.883,1.016-5.767,2.03-8.65,3.045c-0.404,0.142-0.808,0.285-1.211,0.427c-0.511,0.18-1.019-0.373-1.381-0.647
		c-1.215-0.916-2.432-1.83-3.647-2.748c-0.551-0.414-0.497-1.201,0.189-1.444c3.225-1.134,6.451-2.271,9.677-3.406
		c0.165-0.13,0.375-0.185,0.597-0.105c0.157,0.033,0.287,0.124,0.381,0.246c1.411,1.063,2.823,2.125,4.234,3.187
		C41.275,179.203,41.221,179.99,40.535,180.232z"/>
	<g>
		<path fill="#0055A5" d="M24.971,226.337c-2.571,0.01-4.651,2.087-4.659,4.655c-0.009,2.569,2.09,4.675,4.663,4.68
			c2.568,0.005,4.673-2.099,4.672-4.671C29.645,228.426,27.541,226.327,24.971,226.337z"/>
		<path fill="#0055A5" d="M25,206c-13.807,0-25,11.193-25,25s11.193,25,25,25c13.807,0,25-11.193,25-25S38.807,206,25,206z
			 M38.728,231.833c-0.018,0.128-0.043,0.254-0.053,0.383c-0.053,0.687-0.561,1.251-1.213,1.334
			c-0.696,0.089-1.391,0.211-2.09,0.249c-1.216,0.065-1.933,1.505-1.096,2.519c0.441,0.535,0.844,1.1,1.266,1.651
			c0.467,0.61,0.488,1.254-0.027,1.821c-0.576,0.633-1.19,1.234-1.823,1.81c-0.478,0.435-1.16,0.414-1.674,0.02
			c-0.592-0.453-1.182-0.909-1.773-1.364c-0.468-0.361-0.985-0.418-1.52-0.198c-0.541,0.223-0.842,0.657-0.923,1.229
			c-0.101,0.712-0.182,1.427-0.267,2.141c-0.085,0.707-0.646,1.23-1.362,1.268c-0.154,0.008-0.308,0.034-0.462,0.051
			c-0.486,0-0.972,0-1.458,0c-0.171-0.018-0.343-0.041-0.514-0.054c-0.648-0.047-1.212-0.551-1.301-1.187
			c-0.097-0.695-0.191-1.392-0.261-2.091c-0.062-0.622-0.331-1.097-0.91-1.349c-0.585-0.254-1.136-0.147-1.635,0.241
			c-0.548,0.426-1.096,0.852-1.644,1.278c-0.549,0.426-1.176,0.439-1.723,0.016c-0.711-0.549-1.34-1.182-1.891-1.892
			c-0.404-0.521-0.398-1.154,0.001-1.682c0.461-0.609,0.936-1.207,1.384-1.825c0.661-0.912,0.154-2.164-0.955-2.348
			c-0.744-0.123-1.495-0.204-2.243-0.3c-0.697-0.089-1.238-0.611-1.264-1.305c-0.031-0.839-0.03-1.681,0.002-2.521
			c0.025-0.665,0.542-1.184,1.202-1.275c0.696-0.096,1.393-0.183,2.09-0.267c0.616-0.074,1.085-0.362,1.332-0.942
			c0.24-0.562,0.13-1.08-0.243-1.559c-0.454-0.581-0.9-1.168-1.341-1.759c-0.38-0.509-0.371-1.112,0.018-1.612
			c0.551-0.709,1.179-1.343,1.886-1.896c0.559-0.437,1.179-0.434,1.744,0.001c0.57,0.439,1.131,0.891,1.708,1.322
			c0.981,0.733,2.313,0.177,2.468-1.025c0.091-0.705,0.179-1.411,0.264-2.116c0.087-0.722,0.613-1.231,1.34-1.295
			c0.146-0.013,0.29-0.036,0.435-0.055c0.521,0,1.042,0,1.562,0c0.145,0.019,0.289,0.043,0.434,0.055
			c0.691,0.06,1.243,0.557,1.331,1.218c0.093,0.696,0.182,1.392,0.261,2.09c0.07,0.619,0.359,1.085,0.936,1.333
			c0.572,0.246,1.103,0.119,1.585-0.249c0.559-0.426,1.113-0.856,1.671-1.283c0.564-0.431,1.21-0.459,1.736,0.015
			c0.642,0.578,1.257,1.193,1.835,1.835c0.472,0.525,0.443,1.174,0.015,1.738c-0.466,0.615-0.949,1.218-1.394,1.848
			c-0.624,0.883-0.058,2.173,1.013,2.326c0.72,0.103,1.444,0.186,2.168,0.266c0.743,0.082,1.27,0.62,1.324,1.367
			c0.009,0.12,0.034,0.238,0.052,0.357C38.728,230.722,38.728,231.278,38.728,231.833z"/>
	</g>
</g>
</svg>
