<?xml version="1.0" encoding="utf-8"?>
<!-- Generator: Adobe Illustrator 17.0.0, SVG Export Plug-In . SVG Version: 6.00 Build 0)  -->
<!DOCTYPE svg PUBLIC "-//W3C//DTD SVG 1.1//EN" "http://www.w3.org/Graphics/SVG/1.1/DTD/svg11.dtd">
<svg version="1.1" id="Layer_1" xmlns="http://www.w3.org/2000/svg" xmlns:xlink="http://www.w3.org/1999/xlink" x="0px" y="0px"
	 width="60px" height="60px" viewBox="0 0 60 60" enable-background="new 0 0 60 60" xml:space="preserve">
<g>
	<path fill="#FFFFFF" d="M30,4.302c-14.194,0-25.701,11.52-25.701,25.73c0,14.21,11.507,25.73,25.701,25.73
		c14.195,0,25.701-11.52,25.701-25.73C55.701,15.822,44.195,4.302,30,4.302z M27.034,39.928l-9.885-9.896l3.954-3.957l5.931,5.937
		l11.863-11.876l3.954,3.958L27.034,39.928z"/>
	<path fill="#FFFFFF" d="M28.058,59.5l-0.055-0.002c-1.339-0.09-2.681-0.272-3.988-0.542c-0.437-0.09-0.719-0.519-0.629-0.957
		c0.09-0.438,0.517-0.718,0.956-0.63c1.236,0.255,2.504,0.427,3.769,0.512c0.446,0.03,0.783,0.416,0.753,0.862
		C28.836,59.172,28.48,59.5,28.058,59.5z M31.971,59.498c-0.422,0-0.777-0.327-0.806-0.755c-0.03-0.446,0.306-0.833,0.752-0.863
		c1.266-0.086,2.534-0.26,3.769-0.516c0.44-0.089,0.866,0.191,0.956,0.629c0.091,0.438-0.191,0.867-0.628,0.957
		c-1.307,0.271-2.649,0.455-3.988,0.546L31.971,59.498z M20.404,57.919c-0.09,0-0.181-0.015-0.27-0.047
		c-1.262-0.448-2.505-0.989-3.695-1.606c-0.397-0.206-0.551-0.695-0.346-1.092c0.206-0.397,0.694-0.552,1.09-0.346
		c1.124,0.584,2.299,1.094,3.491,1.518c0.421,0.149,0.641,0.612,0.492,1.034C21.049,57.712,20.737,57.919,20.404,57.919z
		 M39.62,57.91c-0.333,0-0.644-0.207-0.762-0.539c-0.15-0.421,0.07-0.884,0.491-1.034c1.191-0.424,2.364-0.936,3.488-1.52
		c0.397-0.206,0.885-0.052,1.091,0.345c0.206,0.397,0.052,0.886-0.345,1.092c-1.189,0.619-2.431,1.16-3.692,1.609
		C39.802,57.895,39.71,57.91,39.62,57.91z M13.465,54.319c-0.161,0-0.324-0.048-0.466-0.148c-1.092-0.772-2.143-1.628-3.123-2.543
		c-0.327-0.305-0.344-0.818-0.039-1.144c0.305-0.327,0.816-0.345,1.143-0.04c0.926,0.865,1.92,1.674,2.952,2.404
		c0.365,0.258,0.452,0.763,0.194,1.129C13.969,54.199,13.719,54.319,13.465,54.319z M46.552,54.307
		c-0.254,0-0.503-0.119-0.661-0.342c-0.258-0.365-0.171-0.871,0.193-1.129c1.032-0.731,2.025-1.54,2.949-2.406
		c0.326-0.305,0.838-0.288,1.143,0.039c0.305,0.327,0.288,0.839-0.039,1.145c-0.978,0.915-2.028,1.771-3.12,2.545
		C46.877,54.258,46.714,54.307,46.552,54.307z M7.754,48.982c-0.235,0-0.467-0.102-0.627-0.298
		c-0.846-1.039-1.628-2.145-2.325-3.288c-0.233-0.382-0.112-0.88,0.269-1.113c0.381-0.233,0.879-0.112,1.112,0.269
		c0.659,1.08,1.398,2.126,2.198,3.108c0.282,0.347,0.23,0.857-0.116,1.139C8.115,48.923,7.934,48.982,7.754,48.982z M52.258,48.967
		c-0.18,0-0.36-0.059-0.51-0.182c-0.346-0.282-0.399-0.793-0.116-1.139c0.8-0.984,1.539-2.03,2.197-3.111
		c0.233-0.382,0.73-0.503,1.112-0.27c0.382,0.233,0.502,0.731,0.27,1.113c-0.696,1.143-1.478,2.251-2.324,3.291
		C52.726,48.865,52.493,48.967,52.258,48.967z M3.687,42.31c-0.312,0-0.609-0.182-0.742-0.486c-0.535-1.229-0.99-2.507-1.352-3.797
		c-0.121-0.431,0.13-0.878,0.56-0.998c0.429-0.12,0.876,0.13,0.997,0.561c0.342,1.219,0.771,2.426,1.277,3.587
		c0.179,0.41-0.009,0.887-0.418,1.066C3.905,42.288,3.795,42.31,3.687,42.31z M56.323,42.286c-0.108,0-0.217-0.022-0.322-0.067
		c-0.41-0.178-0.597-0.655-0.419-1.066c0.505-1.162,0.934-2.37,1.274-3.591c0.12-0.431,0.566-0.683,0.997-0.562
		c0.43,0.12,0.682,0.567,0.561,0.998c-0.361,1.292-0.814,2.57-1.349,3.801C56.933,42.104,56.635,42.286,56.323,42.286z
		 M1.575,34.781c-0.398,0-0.745-0.294-0.801-0.7c-0.181-1.323-0.274-2.675-0.275-4.019c0-0.447,0.361-0.81,0.808-0.811h0.001
		c0.446,0,0.808,0.362,0.809,0.809c0.001,1.271,0.089,2.55,0.26,3.801c0.061,0.443-0.249,0.852-0.692,0.912
		C1.649,34.778,1.612,34.781,1.575,34.781z M58.428,34.752c-0.036,0-0.073-0.003-0.11-0.008c-0.443-0.06-0.753-0.468-0.692-0.912
		c0.17-1.25,0.256-2.529,0.256-3.801l0-0.057c0-0.447,0.362-0.81,0.809-0.81c0.447,0,0.809,0.362,0.809,0.81l0,0.05
		c0,1.352-0.091,2.704-0.271,4.026C59.174,34.458,58.827,34.752,58.428,34.752z M1.57,26.96c-0.036,0-0.073-0.003-0.109-0.007
		c-0.443-0.06-0.753-0.468-0.693-0.911c0.179-1.329,0.452-2.658,0.811-3.947c0.12-0.431,0.566-0.682,0.996-0.563
		c0.43,0.12,0.682,0.567,0.562,0.997c-0.339,1.219-0.597,2.474-0.766,3.73C2.315,26.665,1.968,26.96,1.57,26.96z M58.419,26.876
		c-0.398,0-0.744-0.294-0.8-0.699c-0.173-1.256-0.435-2.51-0.777-3.728c-0.121-0.431,0.129-0.878,0.559-0.999
		c0.43-0.121,0.877,0.129,0.998,0.56c0.363,1.288,0.639,2.616,0.823,3.945c0.061,0.443-0.248,0.852-0.691,0.913
		C58.493,26.873,58.456,26.876,58.419,26.876z M3.665,19.425c-0.107,0-0.216-0.022-0.321-0.067c-0.41-0.178-0.598-0.655-0.42-1.065
		c0.532-1.229,1.155-2.434,1.852-3.58c0.232-0.382,0.729-0.504,1.111-0.271c0.382,0.232,0.503,0.731,0.271,1.113
		c-0.658,1.084-1.247,2.222-1.75,3.383C4.275,19.242,3.977,19.425,3.665,19.425z M56.302,19.348c-0.312,0-0.609-0.181-0.742-0.486
		c-0.506-1.158-1.097-2.294-1.758-3.375c-0.233-0.382-0.113-0.88,0.268-1.113c0.381-0.233,0.879-0.113,1.112,0.268
		c0.699,1.144,1.325,2.346,1.86,3.571c0.179,0.41-0.008,0.887-0.417,1.066C56.52,19.326,56.41,19.348,56.302,19.348z M7.723,12.739
		c-0.179,0-0.36-0.059-0.51-0.181c-0.347-0.282-0.399-0.792-0.118-1.139C7.94,10.379,8.863,9.388,9.84,8.471
		c0.326-0.306,0.838-0.289,1.143,0.037c0.305,0.326,0.289,0.839-0.037,1.145c-0.924,0.866-1.797,1.804-2.595,2.787
		C8.191,12.637,7.958,12.739,7.723,12.739z M52.228,12.68c-0.234,0-0.467-0.102-0.627-0.297c-0.8-0.98-1.676-1.915-2.602-2.779
		c-0.327-0.305-0.345-0.817-0.04-1.144c0.304-0.327,0.816-0.345,1.143-0.04c0.98,0.914,1.906,1.903,2.752,2.94
		c0.283,0.346,0.231,0.856-0.115,1.139C52.59,12.62,52.408,12.68,52.228,12.68z M13.426,7.394c-0.253,0-0.503-0.119-0.661-0.341
		c-0.258-0.365-0.172-0.87,0.192-1.129c1.093-0.776,2.248-1.482,3.433-2.1c0.396-0.207,0.885-0.053,1.091,0.344
		c0.206,0.397,0.052,0.886-0.344,1.092c-1.12,0.584-2.212,1.252-3.245,1.985C13.751,7.345,13.588,7.394,13.426,7.394z M46.511,7.349
		c-0.161,0-0.324-0.048-0.465-0.148c-1.036-0.731-2.131-1.397-3.253-1.978c-0.397-0.205-0.552-0.694-0.347-1.091
		c0.205-0.397,0.693-0.553,1.09-0.347c1.188,0.615,2.346,1.319,3.442,2.093c0.365,0.258,0.452,0.763,0.195,1.128
		C47.015,7.23,46.765,7.349,46.511,7.349z M20.353,3.783c-0.332,0-0.644-0.206-0.762-0.538c-0.15-0.421,0.069-0.884,0.49-1.035
		c1.261-0.451,2.565-0.818,3.876-1.091c0.437-0.092,0.866,0.19,0.957,0.628c0.091,0.438-0.19,0.867-0.627,0.958
		c-1.238,0.258-2.47,0.605-3.662,1.03C20.535,3.768,20.443,3.783,20.353,3.783z M39.569,3.756c-0.09,0-0.181-0.015-0.27-0.046
		c-1.193-0.423-2.427-0.766-3.668-1.021c-0.438-0.09-0.72-0.518-0.63-0.956c0.09-0.438,0.517-0.721,0.955-0.631
		c1.313,0.27,2.62,0.633,3.883,1.08c0.421,0.149,0.642,0.612,0.493,1.034C40.214,3.548,39.902,3.756,39.569,3.756z M27.999,2.188
		c-0.422,0-0.777-0.327-0.806-0.754c-0.031-0.446,0.306-0.833,0.751-0.864c1.329-0.091,2.693-0.093,4.024-0.006
		c0.446,0.029,0.783,0.415,0.754,0.861s-0.413,0.784-0.86,0.755c-1.259-0.083-2.549-0.081-3.806,0.006L27.999,2.188z"/>
</g>
</svg>
