<?xml version="1.0" encoding="utf-8"?>
<!-- Generator: Adobe Illustrator 17.0.0, SVG Export Plug-In . SVG Version: 6.00 Build 0)  -->
<!DOCTYPE svg PUBLIC "-//W3C//DTD SVG 1.1//EN" "http://www.w3.org/Graphics/SVG/1.1/DTD/svg11.dtd">
<svg version="1.1" id="Camada_1" xmlns="http://www.w3.org/2000/svg" xmlns:xlink="http://www.w3.org/1999/xlink" x="0px" y="0px"
	 width="27px" height="27px" viewBox="0 0 27 27" enable-background="new 0 0 27 27" xml:space="preserve">
<g>
	<g>
		<g>
			<path fill="#00ADEE" d="M14.034,2.494c0.073,0.013,0.16,0.024,0.257,0.031c1.508,0.102,2.897,0.483,4.129,1.134
				c3.338,1.763,5.281,4.42,5.94,8.122c0.046,0.257,0.073,0.517,0.102,0.777c0.012,0.107,0.024,0.214,0.037,0.321v1.17
				c-0.004,0.025-0.009,0.05-0.013,0.075c-0.042,0.259-0.077,0.519-0.112,0.78c-0.064,0.478-0.125,0.929-0.226,1.323
				c-1.244,4.875-5.626,8.279-10.656,8.279c-1.703,0-3.347-0.395-4.888-1.174c-3.341-1.689-5.293-4.347-5.967-8.127
				c-0.046-0.256-0.073-0.515-0.102-0.773C2.525,14.324,2.513,14.217,2.5,14.11v-1.162c0.014-0.086,0.026-0.172,0.032-0.259
				c0.111-1.58,0.528-3.035,1.241-4.324c1.78-3.219,4.401-5.095,8.012-5.732c0.258-0.046,0.518-0.073,0.779-0.102
				c0.107-0.012,0.214-0.024,0.321-0.037H14.034 M14.237,0.494c-0.491,0-0.982,0-1.473,0c-0.443,0.055-0.888,0.092-1.327,0.169
				c-4.21,0.744-7.349,3-9.414,6.734c-0.884,1.598-1.358,3.329-1.486,5.152c-0.005,0.07-0.024,0.139-0.036,0.208
				c0,0.491,0,0.982,0,1.473c0.055,0.442,0.091,0.887,0.169,1.325c0.774,4.341,3.106,7.576,7.034,9.561
				c1.875,0.948,3.851,1.389,5.79,1.389c5.695,0,11.069-3.807,12.594-9.785c0.19-0.744,0.252-1.52,0.375-2.281
				c0.011-0.07,0.025-0.14,0.038-0.21c0-0.491,0-0.982,0-1.473c-0.056-0.442-0.092-0.888-0.17-1.327
				c-0.768-4.317-3.106-7.497-6.975-9.54c-1.537-0.812-3.193-1.244-4.929-1.361C14.363,0.525,14.3,0.506,14.237,0.494L14.237,0.494z
				"/>
		</g>
	</g>
</g>
</svg>
