<?xml version="1.0" encoding="utf-8"?>
<!-- Generator: Adobe Illustrator 17.0.0, SVG Export Plug-In . SVG Version: 6.00 Build 0)  -->
<!DOCTYPE svg PUBLIC "-//W3C//DTD SVG 1.1//EN" "http://www.w3.org/Graphics/SVG/1.1/DTD/svg11.dtd">
<svg version="1.1" id="Camada_1" xmlns="http://www.w3.org/2000/svg" xmlns:xlink="http://www.w3.org/1999/xlink" x="0px" y="0px"
	 width="27px" height="27px" viewBox="0 0 27 27" enable-background="new 0 0 27 27" xml:space="preserve">
<g>
	<g>
		<path fill="#00ADEE" d="M26.5,12.757c0,0.491,0,0.982,0,1.473c-0.013,0.07-0.027,0.14-0.038,0.21
			c-0.122,0.761-0.185,1.537-0.375,2.281c-2.045,8.014-11.006,12.126-18.385,8.396c-3.927-1.985-6.26-5.22-7.034-9.561
			c-0.078-0.438-0.114-0.883-0.169-1.325c0-0.491,0-0.982,0-1.473c0.012-0.069,0.032-0.138,0.036-0.208
			c0.127-1.824,0.602-3.554,1.486-5.152c2.065-3.734,5.204-5.99,9.414-6.734c0.439-0.077,0.884-0.114,1.327-0.169
			c0.491,0,0.982,0,1.473,0c0.063,0.012,0.126,0.031,0.19,0.035c1.736,0.117,3.392,0.549,4.929,1.361
			c3.869,2.043,6.207,5.223,6.975,9.54C26.408,11.869,26.444,12.315,26.5,12.757z M11.49,14.273
			c-0.581-0.582-1.115-1.119-1.653-1.652c-0.128-0.127-0.261-0.252-0.407-0.356c-1.127-0.805-2.683-0.38-3.107,0.867
			c-0.289,0.85-0.08,1.614,0.542,2.252c0.715,0.735,1.452,1.449,2.171,2.179c0.293,0.297,0.555,0.625,0.851,0.919
			c0.182,0.18,0.385,0.356,0.61,0.472c0.805,0.415,1.778,0.222,2.481-0.479c2.3-2.295,4.599-4.592,6.889-6.897
			c0.204-0.205,0.382-0.46,0.501-0.723c0.522-1.152-0.059-2.449-1.233-2.753c-0.824-0.214-1.542,0.022-2.139,0.618
			c-1.784,1.78-3.565,3.563-5.346,5.346C11.595,14.12,11.554,14.19,11.49,14.273z"/>
		<path fill="#FFFFFF" d="M11.49,14.273c0.063-0.084,0.105-0.153,0.16-0.209c1.781-1.783,3.562-3.566,5.346-5.346
			c0.597-0.596,1.315-0.832,2.139-0.618c1.174,0.305,1.755,1.601,1.233,2.753c-0.119,0.264-0.297,0.518-0.501,0.723
			c-2.29,2.305-4.589,4.602-6.889,6.897c-0.703,0.701-1.676,0.893-2.481,0.479c-0.225-0.116-0.428-0.292-0.61-0.472
			c-0.297-0.293-0.558-0.621-0.851-0.919c-0.72-0.73-1.456-1.445-2.171-2.179c-0.621-0.638-0.831-1.402-0.542-2.252
			c0.424-1.246,1.98-1.672,3.107-0.867c0.146,0.104,0.279,0.229,0.407,0.356C10.375,13.154,10.909,13.692,11.49,14.273z"/>
	</g>
</g>
</svg>
