<?xml version="1.0" encoding="utf-8"?>
<!-- Generator: Adobe Illustrator 17.0.0, SVG Export Plug-In . SVG Version: 6.00 Build 0)  -->
<!DOCTYPE svg PUBLIC "-//W3C//DTD SVG 1.1//EN" "http://www.w3.org/Graphics/SVG/1.1/DTD/svg11.dtd">
<svg version="1.1" id="Camada_1" xmlns="http://www.w3.org/2000/svg" xmlns:xlink="http://www.w3.org/1999/xlink" x="0px" y="0px"
	 width="24px" height="24px" viewBox="0 0 24 24" enable-background="new 0 0 24 24" xml:space="preserve">
<g>
	<path fill="#13C439" d="M18.9,0.5H5.1c-2.54,0-4.6,2.06-4.6,4.6v13.8c0,2.541,2.06,4.6,4.6,4.6h13.8c2.54,0,4.6-2.059,4.6-4.6V5.1
		C23.5,2.559,21.441,0.5,18.9,0.5 M21.2,18.9c0,1.268-1.032,2.3-2.3,2.3H5.1c-1.268,0-2.3-1.032-2.3-2.3V5.1
		c0-1.268,1.032-2.3,2.3-2.3h13.8c1.268,0,2.3,1.032,2.3,2.3V18.9z"/>
	<path fill="#13C439" d="M18.872,7.312c-0.517-0.517-1.355-0.517-1.872,0l-6.567,6.567l-3.432-3.431
		c-0.517-0.517-1.355-0.517-1.872,0c-0.517,0.517-0.517,1.355,0,1.872l4.369,4.369c0.517,0.517,1.355,0.517,1.872,0
		c0.012-0.012,7.502-7.504,7.502-7.504C19.389,8.667,19.389,7.829,18.872,7.312"/>
</g>
</svg>
