<?xml version="1.0" encoding="utf-8"?>
<!-- Generator: Adobe Illustrator 17.0.0, SVG Export Plug-In . SVG Version: 6.00 Build 0)  -->
<!DOCTYPE svg PUBLIC "-//W3C//DTD SVG 1.1//EN" "http://www.w3.org/Graphics/SVG/1.1/DTD/svg11.dtd">
<svg version="1.1" id="Layer_1" xmlns="http://www.w3.org/2000/svg" xmlns:xlink="http://www.w3.org/1999/xlink" x="0px" y="0px"
	 width="36px" height="36px" viewBox="0 0 36 36" enable-background="new 0 0 36 36" xml:space="preserve">
<g>
	<path fill="#848689" d="M28.5,0.5h-21c-3.866,0-7,3.134-7,7v21c0,3.866,3.134,7,7,7h21c3.866,0,7-3.134,7-7v-21
		C35.5,3.634,32.366,0.5,28.5,0.5z M32,28.5c0,1.93-1.57,3.5-3.5,3.5h-21C5.57,32,4,30.43,4,28.5v-21C4,5.57,5.57,4,7.5,4h21
		C30.43,4,32,5.57,32,7.5V28.5z"/>
</g>
</svg>
