<?xml version="1.0" encoding="utf-8"?>
<!-- Generator: Adobe Illustrator 17.0.0, SVG Export Plug-In . SVG Version: 6.00 Build 0)  -->
<!DOCTYPE svg PUBLIC "-//W3C//DTD SVG 1.1//EN" "http://www.w3.org/Graphics/SVG/1.1/DTD/svg11.dtd">
<svg version="1.1" id="Layer_1" xmlns="http://www.w3.org/2000/svg" xmlns:xlink="http://www.w3.org/1999/xlink" x="0px" y="0px"
	 width="36px" height="36px" viewBox="0 0 36 36" enable-background="new 0 0 36 36" xml:space="preserve">
<g>
	<path fill="#00ADEE" d="M35.5,28.5c0,3.866-3.134,7-7,7h-21c-3.866,0-7-3.134-7-7v-21c0-3.866,3.134-7,7-7h21c3.866,0,7,3.134,7,7
		V28.5z"/>
	<path fill="#FDFDFD" d="M28.457,10.866c-0.787-0.787-2.063-0.787-2.849,0l-9.993,9.993l-5.222-5.222
		c-0.787-0.787-2.063-0.787-2.849,0c-0.787,0.786-0.787,2.062,0,2.849l6.647,6.647c0.787,0.787,2.063,0.787,2.849,0l11.417-11.419
		C29.243,12.929,29.243,11.652,28.457,10.866z"/>
</g>
</svg>
