<?xml version="1.0" encoding="utf-8"?>
<!-- Generator: Adobe Illustrator 17.0.0, SVG Export Plug-In . SVG Version: 6.00 Build 0)  -->
<!DOCTYPE svg PUBLIC "-//W3C//DTD SVG 1.1//EN" "http://www.w3.org/Graphics/SVG/1.1/DTD/svg11.dtd">
<svg version="1.1" id="Layer_1" xmlns="http://www.w3.org/2000/svg" xmlns:xlink="http://www.w3.org/1999/xlink" x="0px" y="0px"
	 width="22px" height="188.92px" viewBox="0 0 22 188.92" enable-background="new 0 0 22 188.92" xml:space="preserve">
<g>
	<g>
		<g>
			<g>
				<g>
					<g>
						<path fill="#94CDE5" d="M17.137,87.586H4.863c-0.784,0-1.421-0.638-1.421-1.422v-10.66c0-0.783,0.637-1.421,1.421-1.421
							h12.275c0.784,0,1.421,0.638,1.421,1.421v10.66C18.558,86.948,17.922,87.586,17.137,87.586z M4.863,74.753
							c-0.414,0-0.751,0.337-0.751,0.751v10.66c0,0.414,0.337,0.751,0.751,0.751h12.275c0.414,0,0.751-0.337,0.751-0.751v-10.66
							c0-0.414-0.337-0.751-0.751-0.751H4.863z"/>
						<path fill="#94CDE5" d="M17.137,87.702H4.863c-0.848,0-1.538-0.69-1.538-1.538v-10.66c0-0.848,0.69-1.536,1.538-1.536h12.275
							c0.848,0,1.536,0.689,1.536,1.536v10.66C18.674,87.012,17.985,87.702,17.137,87.702z M4.863,74.199
							c-0.719,0-1.306,0.586-1.306,1.306v10.66c0,0.719,0.586,1.306,1.306,1.306h12.275c0.719,0,1.304-0.586,1.304-1.306v-10.66
							c0-0.719-0.585-1.306-1.304-1.306C17.138,74.199,4.863,74.199,4.863,74.199z M17.137,87.032H4.863
							c-0.478,0-0.867-0.389-0.867-0.868v-10.66c0-0.477,0.388-0.867,0.867-0.867h12.275c0.478,0,0.867,0.39,0.867,0.867v10.66
							C18.004,86.642,17.616,87.032,17.137,87.032z M4.863,74.87c-0.35,0-0.634,0.284-0.634,0.634v10.66
							c0,0.351,0.284,0.636,0.634,0.636h12.275c0.35,0,0.634-0.284,0.634-0.636v-10.66c0-0.35-0.284-0.634-0.634-0.634
							C17.138,74.87,4.863,74.87,4.863,74.87z"/>
					</g>
					<g>
						<path fill="#94CDE5" d="M17.137,87.817H4.863c-0.911,0-1.654-0.741-1.654-1.653v-10.66c0-0.911,0.743-1.653,1.654-1.653
							h12.275c0.912,0,1.653,0.742,1.653,1.653v10.66C18.791,87.076,18.05,87.817,17.137,87.817z M4.863,74.315
							c-0.656,0-1.19,0.534-1.19,1.189v10.66c0,0.656,0.534,1.189,1.19,1.189h12.275c0.656,0,1.189-0.533,1.189-1.189v-10.66
							c0-0.655-0.533-1.189-1.189-1.189C17.138,74.315,4.863,74.315,4.863,74.315z M17.137,87.147H4.863
							c-0.542,0-0.983-0.442-0.983-0.983v-10.66c0-0.542,0.442-0.982,0.983-0.982h12.275c0.542,0,0.982,0.44,0.982,0.982v10.66
							C18.119,86.706,17.679,87.147,17.137,87.147z M4.863,74.987c-0.287,0-0.519,0.232-0.519,0.518v10.66
							c0,0.287,0.232,0.519,0.519,0.519h12.275c0.285,0,0.519-0.232,0.519-0.519v-10.66c0-0.285-0.233-0.518-0.519-0.518
							C17.138,74.987,4.863,74.987,4.863,74.987z"/>
						<path fill="#94CDE5" d="M17.137,87.934H4.863c-0.976,0-1.77-0.794-1.77-1.77v-10.66c0-0.974,0.794-1.769,1.77-1.769h12.275
							c0.976,0,1.77,0.794,1.77,1.769v10.66C18.907,87.14,18.113,87.934,17.137,87.934z M4.863,73.968
							c-0.848,0-1.538,0.689-1.538,1.536v10.66c0,0.848,0.69,1.538,1.538,1.538h12.275c0.848,0,1.538-0.69,1.538-1.538v-10.66
							c0-0.848-0.69-1.536-1.538-1.536C17.138,73.968,4.863,73.968,4.863,73.968z M17.137,87.47H4.863
							c-0.719,0-1.306-0.586-1.306-1.306v-10.66c0-0.719,0.586-1.306,1.306-1.306h12.275c0.721,0,1.306,0.586,1.306,1.306v10.66
							C18.443,86.883,17.858,87.47,17.137,87.47z M4.863,74.638c-0.478,0-0.867,0.39-0.867,0.867v10.66
							c0,0.478,0.388,0.868,0.867,0.868h12.275c0.478,0,0.867-0.389,0.867-0.868v-10.66c0-0.477-0.388-0.867-0.867-0.867
							C17.138,74.638,4.863,74.638,4.863,74.638z M17.137,86.8H4.863c-0.35,0-0.634-0.284-0.634-0.636v-10.66
							c0-0.35,0.284-0.634,0.634-0.634h12.275c0.35,0,0.634,0.284,0.634,0.634v10.66C17.772,86.516,17.488,86.8,17.137,86.8z
							 M4.863,75.102c-0.222,0-0.402,0.18-0.402,0.402v10.66c0,0.222,0.18,0.403,0.402,0.403h12.275
							c0.222,0,0.403-0.181,0.403-0.403v-10.66c0-0.222-0.181-0.402-0.403-0.402H4.863z"/>
					</g>
				</g>
			</g>
		</g>
		<g>
			<g>
				<g>
					<g>
						<path fill="#94CDE5" d="M15.955,73.057c-0.185,0-0.335-0.151-0.335-0.336v-4.272c0-0.273-0.223-0.496-0.497-0.496H6.877
							c-0.274,0-0.497,0.223-0.497,0.496v4.272c0,0.185-0.15,0.336-0.335,0.336S5.71,72.906,5.71,72.721v-4.272
							c0-0.643,0.524-1.166,1.167-1.166h8.245c0.645,0,1.167,0.523,1.167,1.166v4.272C16.29,72.906,16.14,73.057,15.955,73.057z"/>
						<path fill="#94CDE5" d="M15.955,73.172c-0.249,0-0.452-0.202-0.452-0.452v-4.272c0-0.209-0.17-0.381-0.381-0.381H6.877
							c-0.211,0-0.381,0.171-0.381,0.381v4.272c0,0.25-0.203,0.452-0.452,0.452S5.592,72.97,5.592,72.72v-4.272
							c0-0.707,0.576-1.283,1.284-1.283h8.245c0.708,0,1.284,0.576,1.284,1.283v4.272C16.407,72.971,16.205,73.172,15.955,73.172z
							 M6.877,67.837h8.245c0.339,0,0.613,0.274,0.613,0.612v4.272c0,0.121,0.099,0.219,0.219,0.219s0.219-0.099,0.219-0.219v-4.272
							c0-0.58-0.472-1.051-1.052-1.051H6.877c-0.58,0-1.052,0.471-1.052,1.051v4.272c0,0.121,0.099,0.219,0.219,0.219
							s0.219-0.099,0.219-0.219v-4.272C6.264,68.111,6.539,67.837,6.877,67.837z"/>
					</g>
					<g>
						<path fill="#94CDE5" d="M15.955,73.289c-0.313,0-0.567-0.255-0.567-0.568v-4.272c0-0.146-0.119-0.264-0.265-0.264H6.877
							c-0.146,0-0.265,0.118-0.265,0.264v4.272c0,0.313-0.255,0.568-0.567,0.568c-0.313,0-0.567-0.255-0.567-0.568v-4.272
							c0-0.77,0.628-1.399,1.399-1.399h8.245c0.771,0,1.399,0.629,1.399,1.399v4.272C16.522,73.034,16.267,73.289,15.955,73.289z
							 M6.877,67.721h8.245c0.402,0,0.728,0.327,0.728,0.728v4.272c0,0.114,0.207,0.114,0.207,0v-4.272
							c0-0.515-0.419-0.935-0.935-0.935H6.877c-0.516,0-0.936,0.42-0.936,0.935v4.272c0,0.114,0.207,0.114,0.207,0v-4.272
							C6.148,68.048,6.475,67.721,6.877,67.721z"/>
						<path fill="#94CDE5" d="M15.955,73.404c-0.377,0-0.684-0.306-0.684-0.684v-4.272c0-0.081-0.066-0.148-0.148-0.148H6.877
							c-0.081,0-0.148,0.067-0.148,0.148v4.272c0,0.378-0.307,0.684-0.684,0.684s-0.684-0.306-0.684-0.684v-4.272
							c0-0.835,0.68-1.515,1.516-1.515h8.245c0.836,0,1.516,0.68,1.516,1.515v4.272C16.639,73.099,16.332,73.404,15.955,73.404z
							 M6.877,68.068h8.245c0.211,0,0.381,0.171,0.381,0.381v4.272c0,0.25,0.203,0.452,0.452,0.452c0.25,0,0.452-0.202,0.452-0.452
							v-4.272c0-0.707-0.576-1.283-1.284-1.283H6.877c-0.708,0-1.284,0.576-1.284,1.283v4.272c0,0.25,0.203,0.452,0.452,0.452
							s0.452-0.202,0.452-0.452v-4.272C6.497,68.239,6.667,68.068,6.877,68.068z M15.955,72.924c-0.126,0-0.219-0.088-0.219-0.203
							v-4.272c0-0.337-0.274-0.612-0.613-0.612H6.877c-0.339,0-0.613,0.274-0.613,0.612v4.272c0,0.115-0.094,0.203-0.219,0.203
							s-0.219-0.088-0.219-0.203v-4.272c0-0.58,0.472-1.051,1.052-1.051h8.245c0.58,0,1.052,0.471,1.052,1.051v4.272
							C16.175,72.836,16.081,72.924,15.955,72.924z"/>
					</g>
				</g>
			</g>
		</g>
		<g>
			<g>
				<g>
					<path fill="#94CDE5" d="M11.001,86.184c-0.476,0-0.861-0.386-0.861-0.86v-1.062c-0.391-0.278-0.628-0.724-0.628-1.209
						c0-0.821,0.669-1.488,1.489-1.488c0.82,0,1.487,0.667,1.487,1.488c0,0.485-0.235,0.931-0.627,1.208v1.063
						C11.861,85.799,11.475,86.184,11.001,86.184z M11.001,82.236c-0.452,0-0.818,0.367-0.818,0.817
						c0,0.304,0.171,0.581,0.447,0.723c0.112,0.057,0.181,0.173,0.181,0.298v1.25c0,0.209,0.379,0.209,0.379,0v-1.25
						c0-0.126,0.071-0.241,0.181-0.298c0.275-0.142,0.447-0.419,0.447-0.723C11.818,82.603,11.451,82.236,11.001,82.236z"/>
					<path fill="#94CDE5" d="M11.001,86.3c-0.539,0-0.977-0.438-0.977-0.976v-1.002c-0.395-0.304-0.628-0.774-0.628-1.269
						c0-0.884,0.719-1.604,1.605-1.604c0.884,0,1.604,0.719,1.604,1.604c0,0.496-0.233,0.964-0.627,1.267v1.004
						C11.978,85.862,11.539,86.3,11.001,86.3z M11.001,81.682c-0.757,0-1.373,0.615-1.373,1.371c0,0.44,0.217,0.856,0.579,1.115
						l0.049,0.034v1.122c0,0.41,0.334,0.743,0.745,0.743c0.41,0,0.745-0.334,0.745-0.743v-1.123l0.048-0.034
						c0.363-0.256,0.579-0.674,0.579-1.114C12.372,82.297,11.757,81.682,11.001,81.682z M11.001,85.597
						c-0.178,0-0.306-0.114-0.306-0.273v-1.25c0-0.081-0.047-0.157-0.119-0.194c-0.315-0.162-0.509-0.478-0.509-0.827
						c0-0.514,0.419-0.934,0.934-0.934c0.514,0,0.933,0.42,0.933,0.934c0,0.348-0.194,0.664-0.507,0.827
						c-0.074,0.037-0.119,0.112-0.119,0.194v1.25C11.306,85.483,11.178,85.597,11.001,85.597z M11.001,82.352
						c-0.387,0-0.702,0.315-0.702,0.702c0,0.26,0.146,0.499,0.383,0.62c0.15,0.077,0.245,0.231,0.245,0.401v1.25
						c0,0.041,0.074,0.041,0.074,0.041s0.074,0,0.074-0.041v-1.25c0-0.17,0.094-0.324,0.245-0.401
						c0.236-0.123,0.382-0.36,0.382-0.62C11.701,82.666,11.388,82.352,11.001,82.352z"/>
				</g>
			</g>
		</g>
	</g>
	<g>
		<path fill="#94CDE5" d="M21.465,51.703c0.002-0.022,0.013-0.04,0.013-0.063c0-0.031-0.014-0.058-0.017-0.088
			c-0.003-0.031,0.005-0.062-0.003-0.092c-0.017-0.081-1.911-8.01-10.537-8.01c-8.657,0-10.366,7.946-10.381,8.024
			c-0.006,0.029,0.002,0.058-0.001,0.086c-0.003,0.028-0.016,0.052-0.016,0.079c0,0.025,0.012,0.046,0.014,0.07
			c0.005,0.058,0.017,0.111,0.033,0.165c0.015,0.048,0.032,0.094,0.055,0.138c0.013,0.022,0.015,0.048,0.029,0.07
			c0.016,0.025,0.043,0.04,0.062,0.063c0.031,0.038,0.063,0.071,0.101,0.104c0.043,0.037,0.088,0.066,0.136,0.092
			c0.043,0.023,0.084,0.041,0.13,0.056c0.025,0.008,0.047,0.025,0.073,0.03l0.174,0.02h0h14.8c0.446,0,0.809-0.363,0.809-0.809
			s-0.363-0.809-0.809-0.809H2.442c0.734-1.865,2.928-5.764,8.479-5.764c5.652,0,7.881,3.885,8.631,5.764h-4.467
			c-0.447,0-0.81,0.363-0.81,0.809s0.363,0.809,0.81,0.809h5.553c0.008,0,0.017,0.003,0.017,0.003c0.073,0,0.136-0.008,0.197-0.024
			c0.024-0.006,0.041-0.022,0.065-0.029c0.051-0.017,0.097-0.038,0.143-0.064c0.046-0.025,0.088-0.052,0.128-0.085
			c0.04-0.035,0.074-0.073,0.107-0.114c0.018-0.024,0.045-0.04,0.062-0.067c0.012-0.018,0.013-0.04,0.022-0.06
			c0.024-0.045,0.04-0.092,0.055-0.143C21.449,51.811,21.462,51.759,21.465,51.703z"/>
		<path fill="#94CDE5" d="M10.999,42.312c2.995,0,5.431-2.436,5.431-5.43c0-2.995-2.436-5.431-5.431-5.431
			c-2.994,0-5.43,2.436-5.43,5.431C5.569,39.876,8.005,42.312,10.999,42.312z M10.999,40.693c-2.102,0-3.811-1.709-3.811-3.811
			s1.709-3.813,3.811-3.813s3.813,1.71,3.813,3.813S13.101,40.693,10.999,40.693z"/>
	</g>
	<g>
		<path fill="#94CDE5" d="M21.5,15.536c-0.016,0.057-0.034,0.113-0.049,0.17c-0.197,0.744-0.849,1.26-1.616,1.261
			C13.943,16.969,8.05,16.97,2.158,16.966c-0.918-0.001-1.655-0.744-1.655-1.662c-0.003-4.136-0.002-8.272,0-12.408
			c0-0.768,0.491-1.408,1.228-1.62C1.786,1.26,1.84,1.237,1.894,1.217c6.072,0,12.144,0,18.215,0c0.067,0.024,0.132,0.05,0.2,0.072
			c0.489,0.153,0.841,0.463,1.048,0.93c0.061,0.137,0.097,0.286,0.144,0.43C21.5,6.946,21.5,11.241,21.5,15.536z M2.014,2.727
			c0.032,0.034,0.06,0.068,0.093,0.097c2.718,2.387,5.435,4.775,8.155,7.16c0.575,0.504,1.37,0.484,1.93-0.034
			c2.546-2.35,5.092-4.701,7.64-7.05c0.057-0.052,0.127-0.089,0.203-0.141C19.818,2.619,2.196,2.615,2.014,2.727z M2.195,15.521
			c5.895,0,11.746,0,17.63,0c-2.059-1.9-4.092-3.777-6.131-5.659c-0.303,0.28-0.59,0.545-0.877,0.809
			c-0.388,0.358-0.844,0.565-1.37,0.613c-0.703,0.064-1.32-0.133-1.848-0.608c-0.309-0.278-0.624-0.548-0.943-0.829
			C6.503,11.738,4.364,13.617,2.195,15.521z M1.951,3.959c0,3.515,0,6.997,0,10.506c2.004-1.76,3.984-3.498,5.982-5.253
			C5.935,7.458,3.955,5.719,1.951,3.959z M20.058,3.988c-1.902,1.756-3.777,3.487-5.66,5.225c1.892,1.746,3.763,3.473,5.66,5.223
			C20.058,10.942,20.058,7.488,20.058,3.988z"/>
	</g>
</g>
<g>
	<path fill="#94CDE5" d="M18.342,102.055h-1.404v0.715c0,0.882-0.717,1.599-1.599,1.599c-0.882,0-1.599-0.718-1.599-1.599v-0.715
		H8.259v0.715c0,0.882-0.717,1.599-1.599,1.599s-1.599-0.718-1.599-1.599v-0.715H3.658c-0.999,0-1.809,0.81-1.809,1.809v13.888
		c0,0.999,0.81,1.809,1.809,1.809h14.685c0.999,0,1.809-0.81,1.809-1.809v-13.888C20.151,102.865,19.341,102.055,18.342,102.055
		 M18.665,118.023H3.335v-12.294h15.331L18.665,118.023L18.665,118.023z"/>
	<rect x="9.391" y="114.512" fill="#94CDE5" width="3.219" height="2.19"/>
	<rect x="4.733" y="114.512" fill="#94CDE5" width="3.219" height="2.19"/>
	<rect x="14.048" y="111.255" fill="#94CDE5" width="3.219" height="2.19"/>
	<rect x="9.391" y="111.255" fill="#94CDE5" width="3.219" height="2.19"/>
	<rect x="4.733" y="111.255" fill="#94CDE5" width="3.219" height="2.19"/>
	<rect x="14.048" y="107.997" fill="#94CDE5" width="3.219" height="2.19"/>
	<rect x="9.391" y="107.997" fill="#94CDE5" width="3.219" height="2.19"/>
	<rect x="4.733" y="107.997" fill="#94CDE5" width="3.219" height="2.19"/>
	<path fill="#94CDE5" d="M6.66,103.893c0.62,0,1.123-0.503,1.123-1.123v-1.835c0-0.62-0.503-1.123-1.123-1.123
		s-1.123,0.503-1.123,1.123v1.835C5.537,103.39,6.04,103.893,6.66,103.893"/>
	<path fill="#94CDE5" d="M15.34,103.893c0.62,0,1.123-0.503,1.123-1.123v-1.835c0-0.62-0.503-1.123-1.123-1.123
		s-1.123,0.503-1.123,1.123v1.835C14.217,103.39,14.72,103.893,15.34,103.893"/>
</g>
<path fill="none" stroke="#94CDE5" stroke-width="1.5" stroke-miterlimit="10" d="M20.836,150.797
	c0.042,0.32-0.056,0.597-0.292,0.834l-2.772,2.751c-0.125,0.139-0.289,0.257-0.49,0.354c-0.201,0.097-0.399,0.16-0.594,0.188
	c-0.014,0-0.056,0.004-0.125,0.011c-0.069,0.006-0.16,0.01-0.271,0.01c-0.264,0-0.691-0.045-1.282-0.135
	c-0.591-0.09-1.313-0.313-2.168-0.668c-0.855-0.354-1.824-0.885-2.908-1.594c-1.084-0.709-2.237-1.682-3.46-2.918
	c-0.973-0.959-1.778-1.876-2.418-2.751c-0.639-0.875-1.153-1.685-1.542-2.428c-0.389-0.743-0.681-1.417-0.875-2.022
	c-0.195-0.604-0.326-1.125-0.396-1.564c-0.07-0.437-0.098-0.781-0.084-1.031c0.014-0.25,0.021-0.389,0.021-0.417
	c0.028-0.195,0.09-0.392,0.188-0.594c0.097-0.202,0.215-0.365,0.354-0.49l2.772-2.772c0.195-0.195,0.417-0.292,0.667-0.292
	c0.181,0,0.34,0.052,0.479,0.157c0.139,0.103,0.257,0.232,0.354,0.385l2.23,4.231c0.125,0.222,0.16,0.465,0.104,0.729
	c-0.056,0.264-0.174,0.486-0.354,0.667l-1.021,1.021c-0.028,0.028-0.052,0.073-0.073,0.136c-0.021,0.063-0.031,0.114-0.031,0.157
	c0.056,0.291,0.181,0.625,0.375,1c0.167,0.333,0.424,0.739,0.771,1.219c0.347,0.479,0.841,1.032,1.48,1.657
	c0.625,0.64,1.181,1.136,1.667,1.491c0.486,0.354,0.893,0.615,1.22,0.782c0.327,0.167,0.576,0.267,0.75,0.302l0.26,0.052
	c0.028,0,0.073-0.011,0.136-0.032c0.062-0.021,0.107-0.045,0.135-0.073l1.188-1.21c0.25-0.222,0.542-0.333,0.876-0.333
	c0.236,0,0.424,0.042,0.563,0.125h0.02l4.023,2.376C20.607,150.29,20.78,150.518,20.836,150.797z"/>
<g>
	<path fill="#94CDE5" d="M4.898,179.375c-0.813,0-1.442,0.305-1.888,0.916s-0.669,1.462-0.669,2.554
		c0,2.272,0.852,3.407,2.557,3.407c0.715,0,1.582-0.179,2.599-0.537v1.812c-0.836,0.348-1.77,0.523-2.801,0.523
		c-1.482,0-2.615-0.449-3.401-1.348s-1.178-2.189-1.178-3.871c0-1.059,0.193-1.987,0.578-2.784s0.94-1.408,1.662-1.833
		s1.569-0.638,2.54-0.638c0.989,0,1.984,0.239,2.982,0.718l-0.697,1.756c-0.381-0.181-0.764-0.339-1.15-0.474
		C5.648,179.442,5.27,179.375,4.898,179.375z"/>
	<path fill="#94CDE5" d="M14.228,187.911H8.36v-10.188h5.867v1.77H10.52v2.237h3.449v1.77H10.52v2.627h3.707V187.911z"/>
	<path fill="#94CDE5" d="M22.087,180.901c0,1.096-0.343,1.935-1.028,2.516c-0.685,0.581-1.66,0.871-2.923,0.871h-0.927v3.624h-2.16
		v-10.188h3.254c1.236,0,2.175,0.266,2.819,0.798C21.765,179.053,22.087,179.846,22.087,180.901z M17.209,182.518h0.711
		c0.664,0,1.161-0.131,1.491-0.394c0.33-0.262,0.495-0.645,0.495-1.146c0-0.506-0.138-0.88-0.415-1.122s-0.71-0.362-1.3-0.362
		h-0.983V182.518z"/>
</g>
</svg>
