<?xml version="1.0" encoding="utf-8"?>
<!-- Generator: Adobe Illustrator 17.0.0, SVG Export Plug-In . SVG Version: 6.00 Build 0)  -->
<!DOCTYPE svg PUBLIC "-//W3C//DTD SVG 1.1//EN" "http://www.w3.org/Graphics/SVG/1.1/DTD/svg11.dtd">
<svg version="1.1" id="Layer_1" xmlns="http://www.w3.org/2000/svg" xmlns:xlink="http://www.w3.org/1999/xlink" x="0px" y="0px"
	 width="36px" height="197.535px" viewBox="0 0 36 197.535" enable-background="new 0 0 36 197.535" xml:space="preserve">
<g>
	<g>
		<path fill="#47A9D5" d="M31.226,36.073H4.774v-5.494c0-3.977,3.235-7.213,7.213-7.213h2.508v-3.392
			c0-0.257,0.208-0.464,0.464-0.464c0.256,0,0.464,0.208,0.464,0.464v4.321h-3.437c-3.465,0-6.284,2.819-6.284,6.284v4.565h24.595
			v-4.565c0-3.465-2.819-6.284-6.284-6.284h-3.437v-4.321c0-0.257,0.208-0.464,0.464-0.464c0.257,0,0.464,0.208,0.464,0.464v3.392
			h2.508c3.977,0,7.212,3.236,7.212,7.213V36.073z"/>
	</g>
	<g>
		<path fill="#47A9D5" d="M18,33.746l-0.225-0.125c-0.207-0.115-5.08-2.862-5.08-6.412v-3.027c0-0.257,0.208-0.464,0.464-0.464
			c0.256,0,0.464,0.208,0.464,0.464v3.027c0,2.619,3.451,4.901,4.377,5.466c0.925-0.566,4.377-2.852,4.377-5.466v-3.027
			c0-0.257,0.208-0.464,0.464-0.464c0.257,0,0.464,0.208,0.464,0.464v3.027c0,3.549-4.873,6.296-5.08,6.412L18,33.746z"/>
	</g>
	<g>
		<path fill="#47A9D5" d="M18,21.127c-3.798,0-6.914-2.978-7.134-6.722c-0.877-0.159-1.544-0.929-1.544-1.851v-1.469
			c0-0.903,0.64-1.66,1.49-1.841l-0.027-2.252c-0.003-0.256,0.202-0.467,0.459-0.47h0.006c0.254,0,0.461,0.204,0.464,0.459
			l0.033,2.681c0.002,0.124-0.047,0.244-0.134,0.332c-0.087,0.088-0.206,0.138-0.33,0.138h-0.078c-0.525,0-0.953,0.427-0.953,0.953
			v1.469c0,0.525,0.427,0.953,0.953,0.953h0.115c0.254,0,0.461,0.204,0.464,0.458l0,0.017c0,3.428,2.789,6.217,6.217,6.217
			c3.428,0,6.217-2.789,6.217-6.217l0-0.017c0.004-0.254,0.211-0.458,0.464-0.458h0.115c0.525,0,0.953-0.427,0.953-0.953v-1.469
			c0-0.525-0.427-0.953-0.953-0.953h-0.079c-0.124,0-0.243-0.05-0.33-0.138c-0.087-0.088-0.136-0.208-0.134-0.332l0.033-2.681
			c0.003-0.254,0.21-0.459,0.464-0.459h0.006c0.257,0.003,0.462,0.214,0.459,0.47l-0.028,2.252c0.85,0.18,1.49,0.937,1.49,1.841
			v1.469c0,0.922-0.667,1.692-1.544,1.851C24.912,18.15,21.797,21.127,18,21.127z"/>
	</g>
	<g>
		<path fill="#47A9D5" d="M24.761,7.261c-0.257,0-0.464-0.208-0.464-0.464c0-2.644-2.151-4.794-4.794-4.794h-3.005
			c-2.644,0-4.794,2.151-4.794,4.794c0,0.256-0.208,0.464-0.464,0.464c-0.256,0-0.464-0.208-0.464-0.464
			c0-3.156,2.567-5.723,5.723-5.723h3.005c3.156,0,5.723,2.567,5.723,5.723C25.225,7.053,25.017,7.261,24.761,7.261z"/>
	</g>
	<g>
		<path fill="#47A9D5" d="M10.023,11.874c-0.256,0-0.464-0.208-0.464-0.464c0-0.256,0.208-0.464,0.464-0.464
			c1.262,0,2.197-0.339,2.778-1.007c0.89-1.023,0.693-2.524,0.693-2.524C13.472,7.252,13.523,7.103,13.631,7
			c0.108-0.103,0.258-0.149,0.405-0.122c4.055,0.747,5.468-1.614,5.482-1.638c0.076-0.132,0.212-0.218,0.364-0.231
			c0.15-0.013,0.3,0.05,0.397,0.167c0.023,0.028,2.369,2.832,4.412,2.737c0.259-0.012,0.474,0.186,0.486,0.442
			c0.012,0.256-0.185,0.474-0.442,0.486c-0.048,0.002-0.097,0.003-0.145,0.003c-1.924,0-3.842-1.795-4.642-2.645
			c-0.683,0.761-2.355,2.084-5.506,1.682c-0.012,0.673-0.166,1.774-0.933,2.66C12.743,11.426,11.571,11.874,10.023,11.874z"/>
	</g>
</g>
<g>
	<g>
		<path fill="#47A9D5" d="M30.97,76.927H5.03v-5.398c0-3.905,3.176-7.081,7.081-7.081h2.438v-3.303c0-0.261,0.212-0.473,0.473-0.473
			s0.473,0.212,0.473,0.473v4.249h-3.384c-3.383,0-6.135,2.752-6.135,6.135v4.452h24.047v-4.452c0-3.383-2.752-6.135-6.135-6.135
			h-3.384v-4.249c0-0.261,0.212-0.473,0.473-0.473c0.261,0,0.473,0.212,0.473,0.473v3.303h2.438c3.904,0,7.081,3.177,7.081,7.081
			V76.927z"/>
	</g>
	<g>
		<path fill="#47A9D5" d="M18,76.204l-5.828-10.926c-0.123-0.231-0.036-0.517,0.195-0.64c0.231-0.123,0.517-0.036,0.64,0.195
			L18,74.194l4.992-9.361c0.123-0.231,0.409-0.317,0.64-0.195c0.231,0.123,0.318,0.41,0.195,0.64L18,76.204z"/>
	</g>
	<g>
		<path fill="#47A9D5" d="M12.299,50.843c-0.258,0-0.469-0.207-0.473-0.465c-0.004-0.261,0.204-0.476,0.465-0.481
			c5.448-0.089,7.804-4.155,7.902-4.328l0.626-1.109l0.25,1.248c0.008,0.038,0.797,3.822,3.087,4.18
			c0.258,0.04,0.435,0.282,0.394,0.54c-0.04,0.258-0.282,0.435-0.54,0.394c-2.087-0.326-3.141-2.577-3.591-3.924
			c-1.08,1.369-3.66,3.872-8.113,3.944L12.299,50.843z"/>
	</g>
	<g>
		<path fill="#47A9D5" d="M7.78,60.056c-0.224,0-0.423-0.159-0.465-0.387c-0.048-0.257,0.122-0.504,0.379-0.551
			c1.448-0.268,1.628-3.328,1.803-6.287c0.116-1.971,0.236-4.01,0.707-5.639c1.523-5.264,6.675-5.264,8.368-5.264
			c0.261,0,0.473,0.212,0.473,0.473c0,0.261-0.212,0.473-0.473,0.473c-4.185,0-6.555,1.456-7.459,4.581
			c-0.442,1.527-0.559,3.512-0.672,5.432c-0.205,3.476-0.398,6.759-2.575,7.162C7.837,60.053,7.808,60.056,7.78,60.056z"/>
	</g>
	<g>
		<path fill="#47A9D5" d="M13.485,60.056H7.78c-0.261,0-0.473-0.212-0.473-0.473c0-0.261,0.212-0.473,0.473-0.473h5.705
			c0.261,0,0.473,0.212,0.473,0.473C13.958,59.844,13.746,60.056,13.485,60.056z"/>
	</g>
	<g>
		<path fill="#47A9D5" d="M29.468,60.056h-6.475c-0.261,0-0.473-0.212-0.473-0.473c0-0.261,0.212-0.473,0.473-0.473h4.996
			c-0.892-1.295-1.034-3.709-1.182-6.224c-0.113-1.92-0.23-3.904-0.671-5.432c-0.904-3.125-3.274-4.581-7.459-4.581
			c-0.261,0-0.473-0.212-0.473-0.473c0-0.261,0.212-0.473,0.473-0.473c1.693,0,6.845,0,8.368,5.264
			c0.471,1.629,0.591,3.668,0.707,5.639c0.174,2.959,0.354,6.019,1.803,6.288c0.24,0.045,0.407,0.265,0.385,0.508
			C29.916,59.87,29.712,60.056,29.468,60.056z"/>
	</g>
	<g>
		<path fill="#47A9D5" d="M18.161,62.317c-3.605,0-6.537-2.933-6.537-6.537v-5.345c0-0.261,0.212-0.473,0.473-0.473
			c0.261,0,0.473,0.212,0.473,0.473v5.345c0,3.083,2.508,5.591,5.591,5.591s5.591-2.508,5.591-5.591v-4.728
			c0-0.188-0.009-0.261-0.03-0.437l-0.009-0.079c-0.031-0.259,0.154-0.495,0.414-0.526c0.259-0.031,0.495,0.154,0.526,0.414
			l0.009,0.077c0.023,0.19,0.037,0.305,0.037,0.551v4.728C24.699,59.384,21.766,62.317,18.161,62.317z"/>
	</g>
</g>
<g>
	<path fill="#C4C5C7" d="M16.122,146.7v2.82h-2.934c-1.037,0-1.878,0.84-1.878,1.877s0.841,1.877,1.878,1.877h2.934v3.52
		c0,1.037,0.84,1.877,1.877,1.877c1.037,0,1.878-0.84,1.878-1.877v-3.52h2.934c1.037,0,1.877-0.84,1.877-1.877
		s-0.84-1.877-1.877-1.877h-2.934v-2.82c1.793-0.371,3.396-1.263,4.644-2.51c1.669-1.669,2.701-3.975,2.701-6.521
		c0-2.546-1.032-4.852-2.701-6.521c-1.669-1.669-3.975-2.702-6.522-2.702c-2.546,0-4.852,1.033-6.521,2.702
		c-1.669,1.669-2.701,3.975-2.701,6.521c0,2.546,1.032,4.852,2.701,6.521C12.726,145.437,14.329,146.329,16.122,146.7
		 M14.134,133.803c0.989-0.989,2.356-1.601,3.866-1.601c1.51,0,2.877,0.612,3.866,1.601c0.989,0.989,1.601,2.356,1.601,3.866
		s-0.612,2.877-1.601,3.866c-0.989,0.989-2.357,1.601-3.866,1.601c-1.51,0-2.877-0.612-3.866-1.601
		c-0.989-0.989-1.601-2.356-1.601-3.866S13.145,134.792,14.134,133.803"/>
</g>
<g>
	<path fill="#C4C5C7" d="M31,93.371c-0.009-0.01,0.062-0.739-0.588-1.374c-0.353-0.34-0.823-0.521-1.31-0.525H21.32
		c-1.049,0-1.899,0.85-1.899,1.899c0,1.048,0.85,1.899,1.899,1.899h3.196l-5.151,5.15c-1.453-0.935-3.182-1.479-5.038-1.479
		c-2.575,0-4.908,1.044-6.595,2.732C6.044,103.362,5,105.693,5,108.269c0,2.575,1.044,4.908,2.732,6.595
		c1.687,1.688,4.02,2.732,6.595,2.732c2.576,0,4.908-1.044,6.595-2.732c1.688-1.688,2.732-4.02,2.732-6.595
		c0-1.921-0.581-3.706-1.577-5.19l5.124-5.123v3.197c0,1.049,0.85,1.899,1.899,1.899c1.048,0,1.898-0.85,1.898-1.899V93.371z
		 M18.238,112.179c-1,1-2.383,1.619-3.911,1.619c-1.527,0-2.909-0.619-3.91-1.619c-1-1-1.619-2.383-1.619-3.91
		c0-1.527,0.619-2.91,1.619-3.91c1.001-1,2.383-1.619,3.91-1.619c1.528,0,2.91,0.619,3.911,1.619c1.001,1,1.619,2.383,1.619,3.91
		C19.857,109.796,19.238,111.179,18.238,112.179"/>
</g>
<circle fill="#C4C5C7" cx="18" cy="180.284" r="3.75"/>
</svg>
