<?xml version="1.0" encoding="utf-8"?>
<!-- Generator: Adobe Illustrator 17.0.0, SVG Export Plug-In . SVG Version: 6.00 Build 0)  -->
<!DOCTYPE svg PUBLIC "-//W3C//DTD SVG 1.1//EN" "http://www.w3.org/Graphics/SVG/1.1/DTD/svg11.dtd">
<svg version="1.1" id="Camada_1" xmlns="http://www.w3.org/2000/svg" xmlns:xlink="http://www.w3.org/1999/xlink" x="0px" y="0px"
	 width="160px" height="160px" viewBox="0 37.5 160 160" enable-background="new 0 37.5 160 160" xml:space="preserve">
<g>
	<circle fill="#29ABE2" cx="80" cy="117.5" r="79"/>
	<g>
		<path fill="#FFFFFF" d="M52.929,88.747c0.343-0.169,0.723-0.273,1.13-0.273c0.474,0,0.857-0.383,0.857-0.857
			s-0.383-0.857-0.857-0.857c-2.363,0-4.285,1.922-4.285,4.285c0,0.474,0.383,0.857,0.857,0.857s0.857-0.383,0.857-0.857
			c0-0.407,0.104-0.787,0.273-1.13L52.929,88.747z"/>
		<path fill="#FFFFFF" d="M53.157,143.792c0.343-0.169,0.723-0.273,1.13-0.273c0.474,0,0.857-0.383,0.857-0.857
			s-0.383-0.857-0.857-0.857c-2.363,0-4.285,1.922-4.285,4.285c0,0.474,0.383,0.857,0.857,0.857s0.857-0.383,0.857-0.857
			c0-0.407,0.104-0.787,0.273-1.13L53.157,143.792z"/>
		<path fill="#FFFFFF" d="M126.276,121.1c0.403-0.863,0.619-1.767,0.619-2.713c0-6.564-10.194-11.168-23.586-13.598
			c4.591-12.811,5.702-23.941,0.019-27.222c-0.951-0.548-2.044-0.827-3.249-0.827c-5.264,0-12.684,5.455-20.319,14.422
			C72.124,82.195,64.705,76.74,59.44,76.74c-1.205,0-2.298,0.279-3.249,0.827c-1.804,1.041-2.913,2.884-3.453,5.309
			c-3.942,0.635-6.965,4.051-6.965,8.169c0,4.568,3.717,8.284,8.284,8.284c0.128,0,0.253-0.014,0.379-0.019
			c0.511,1.779,1.103,3.61,1.773,5.48c-13.392,2.429-23.586,7.035-23.586,13.598c0,6.564,10.194,11.168,23.586,13.598
			c-0.713,1.991-1.337,3.937-1.869,5.823c-0.018,0-0.037-0.003-0.055-0.003c-4.568,0-8.284,3.717-8.284,8.284
			c0,4.066,2.948,7.451,6.818,8.147c0.567,2.257,1.653,3.979,3.371,4.971c0.951,0.548,2.044,0.827,3.249,0.827
			c5.264,0,12.684-5.454,20.32-14.421c7.635,8.967,15.054,14.421,20.319,14.421h0.001c1.204,0,2.297-0.278,3.247-0.827
			c5.683-3.282,4.572-14.412-0.018-27.222c3.197-0.58,6.208-1.285,8.945-2.11c1.494,2.18,4,3.614,6.837,3.614
			c4.568,0,8.284-3.717,8.284-8.284C127.375,123.711,126.972,122.311,126.276,121.1 M100.079,79.597c0.707,0,1.302,0.146,1.82,0.444
			c3.526,2.036,3.167,11.425-1.457,24.269c-3.785-0.582-7.772-1-11.819-1.248c-2.306-3.499-4.662-6.736-7.013-9.659
			C89.253,84.353,96.119,79.597,100.079,79.597 M66.253,126.186c0.896,1.553,1.809,3.064,2.73,4.54
			c-3.133-0.238-6.102-0.571-8.88-0.99c1.027-2.617,2.224-5.359,3.586-8.192C64.517,123.108,65.371,124.659,66.253,126.186
			 M60.103,107.038c2.777-0.419,5.747-0.753,8.88-0.99c-0.922,1.476-1.835,2.988-2.73,4.54c-0.882,1.527-1.736,3.078-2.564,4.642
			C62.327,112.396,61.131,109.655,60.103,107.038 M68.726,124.758c-1.247-2.16-2.402-4.286-3.473-6.37
			c1.07-2.085,2.225-4.211,3.473-6.37c1.252-2.169,2.514-4.23,3.778-6.192c2.341-0.117,4.762-0.178,7.256-0.178
			c2.494,0,4.915,0.062,7.255,0.178c1.264,1.962,2.526,4.023,3.779,6.192c1.247,2.159,2.402,4.286,3.472,6.37
			c-1.07,2.084-2.225,4.211-3.472,6.37c-1.253,2.169-2.515,4.23-3.779,6.192c-2.34,0.116-4.761,0.178-7.255,0.178
			c-2.494,0-4.915-0.062-7.256-0.178C71.241,128.988,69.979,126.927,68.726,124.758 M93.268,126.186
			c0.881-1.527,1.735-3.078,2.563-4.642c1.362,2.834,2.559,5.576,3.586,8.192c-2.777,0.419-5.747,0.752-8.88,0.99
			C91.459,129.25,92.371,127.739,93.268,126.186 M93.268,110.589c-0.897-1.553-1.809-3.064-2.731-4.54
			c3.133,0.237,6.102,0.571,8.88,0.99c-1.027,2.617-2.224,5.358-3.586,8.192C95.003,113.667,94.149,112.115,93.268,110.589
			 M85.075,102.888c-1.772-0.065-3.547-0.098-5.315-0.098c-1.767,0-3.543,0.033-5.315,0.098c1.787-2.625,3.566-5.031,5.315-7.227
			C81.509,97.856,83.288,100.263,85.075,102.888 M48.631,91.045c0-2.993,2.434-5.428,5.428-5.428c2.993,0,5.428,2.435,5.428,5.428
			s-2.435,5.428-5.428,5.428S48.631,94.038,48.631,91.045 M62.343,91.045c0-4.004-2.857-7.353-6.638-8.119
			c0.389-1.385,1.027-2.372,1.915-2.885c0.518-0.299,1.114-0.444,1.82-0.444c3.96,0,10.826,4.757,18.469,13.806
			c-2.35,2.923-4.706,6.16-7.013,9.659c-4.047,0.248-8.034,0.666-11.819,1.248c-0.707-1.963-1.308-3.839-1.817-5.625
			C60.244,97.429,62.343,94.478,62.343,91.045 M35.482,118.387c0-4.072,8.311-8.456,21.748-10.873
			c1.389,3.573,3.023,7.239,4.835,10.873c-1.812,3.634-3.445,7.299-4.835,10.873C43.793,126.843,35.482,122.459,35.482,118.387
			 M48.859,146.09c0-2.993,2.435-5.428,5.428-5.428s5.428,2.434,5.428,5.428c0,2.993-2.435,5.428-5.428,5.428
			S48.859,149.082,48.859,146.09 M59.44,157.178c-0.707,0-1.302-0.145-1.82-0.444c-0.807-0.466-1.407-1.319-1.803-2.508
			c3.839-0.72,6.754-4.092,6.754-8.136c0-3.545-2.242-6.568-5.379-7.748c0.522-1.861,1.146-3.821,1.886-5.876
			c3.785,0.582,7.771,0.999,11.819,1.248c2.306,3.499,4.662,6.736,7.013,9.658C70.266,152.421,63.401,157.178,59.44,157.178
			 M74.445,133.887c1.772,0.065,3.548,0.098,5.315,0.098c1.767,0,3.542-0.033,5.315-0.098c-1.787,2.624-3.566,5.031-5.315,7.227
			C78.011,138.918,76.231,136.511,74.445,133.887 M101.899,156.734c-0.518,0.299-1.113,0.444-1.819,0.444h-0.001
			c-3.961-0.001-10.826-4.757-18.47-13.806c2.351-2.922,4.707-6.159,7.013-9.658c4.047-0.249,8.035-0.666,11.819-1.248
			C105.067,145.309,105.426,154.697,101.899,156.734 M102.291,129.26c-1.39-3.573-3.024-7.239-4.835-10.873
			c1.812-3.634,3.445-7.299,4.835-10.873c13.436,2.417,21.747,6.801,21.747,10.873c0,0.06-0.009,0.12-0.013,0.179
			c-1.38-1.029-3.085-1.646-4.935-1.646c-4.568,0-8.284,3.717-8.284,8.284c0,0.689,0.094,1.355,0.253,1.996
			C108.463,127.98,105.528,128.678,102.291,129.26 M119.091,130.633c-2.993,0-5.428-2.435-5.428-5.428s2.435-5.428,5.428-5.428
			c2.993,0,5.428,2.435,5.428,5.428S122.083,130.633,119.091,130.633"/>
		<path fill="#FFFFFF" d="M119.091,120.92c-2.363,0-4.285,1.922-4.285,4.285c0,0.474,0.383,0.857,0.857,0.857
			s0.857-0.383,0.857-0.857c0-0.407,0.104-0.787,0.273-1.13l1.168-1.168c0.342-0.169,0.723-0.273,1.13-0.273
			c0.474,0,0.857-0.383,0.857-0.857C119.948,121.303,119.564,120.92,119.091,120.92"/>
	</g>
</g>
</svg>
