<?xml version="1.0" encoding="utf-8"?>
<!-- Generator: Adobe Illustrator 17.0.0, SVG Export Plug-In . SVG Version: 6.00 Build 0)  -->
<!DOCTYPE svg PUBLIC "-//W3C//DTD SVG 1.1//EN" "http://www.w3.org/Graphics/SVG/1.1/DTD/svg11.dtd">
<svg version="1.1" id="Camada_1" xmlns="http://www.w3.org/2000/svg" xmlns:xlink="http://www.w3.org/1999/xlink" x="0px" y="0px"
	 width="160px" height="160px" viewBox="0 37.5 160 160" enable-background="new 0 37.5 160 160" xml:space="preserve">
<g>
	<circle fill="#29ABE2" cx="80" cy="117.5" r="79"/>
	<g>
		<path fill="#FFFFFF" d="M66.401,112.846c-5.213,0-10.362,0-15.561,0c0-5.191,0-10.333,0-15.525c5.196,0,10.344,0,15.561,0
			C66.401,102.476,66.401,107.618,66.401,112.846z M64.135,99.712c-3.671,0-7.274,0-10.949,0c0,3.499,0.006,6.935-0.006,10.371
			c-0.002,0.625,0.406,0.554,0.798,0.554c2.777,0.001,5.554,0,8.332,0c0.596,0,1.191,0,1.826,0
			C64.135,106.946,64.135,103.363,64.135,99.712z"/>
		<path fill="#FFFFFF" d="M53.187,135.48c3.723,0,7.306,0,11.071,0c-0.606-2.187,0.422-3.651,2.14-4.86c0,2.418,0,4.802,0,7.231
			c-5.19,0-10.341,0-15.55,0c0-5.178,0-10.322,0-15.524c4.542,0,9.057,0,13.804,0c-1.207,1.021-1.825,2.406-3.72,2.245
			c-2.308-0.196-4.646-0.062-6.97-0.025c-0.261,0.004-0.74,0.295-0.742,0.458C53.177,128.472,53.187,131.938,53.187,135.48z"/>
		<path fill="#FFFFFF" d="M75.619,100.247c0-0.743,0-1.428,0-2.171c11.082,0,22.134,0,33.255,0c0,0.695,0,1.399,0,2.171
			C97.827,100.247,86.776,100.247,75.619,100.247z"/>
		<path fill="#FFFFFF" d="M75.621,106.228c0-0.75,0-1.436,0-2.176c11.084,0,22.137,0,33.256,0c0,0.702,0,1.407,0,2.176
			C97.824,106.228,86.772,106.228,75.621,106.228z"/>
		<path fill="#FFFFFF" d="M108.891,112.106c-11.095,0-22.149,0-33.252,0c0-0.739,0-1.445,0-2.202c11.093,0,22.146,0,33.252,0
			C108.891,110.653,108.891,111.358,108.891,112.106z"/>
		<path fill="#FFFFFF" d="M108.911,122.958c0,0.751,0,1.437,0,2.178c-11.087,0-22.141,0-33.259,0c0-0.7,0-1.406,0-2.178
			C86.699,122.958,97.753,122.958,108.911,122.958z"/>
		<path fill="#FFFFFF" d="M108.91,128.936c0,0.752,0,1.438,0,2.179c-11.087,0-22.142,0-33.259,0c0-0.701,0-1.408,0-2.179
			C86.7,128.936,97.754,128.936,108.91,128.936z"/>
		<path fill="#FFFFFF" d="M75.622,137.091c0-0.738,0-1.424,0-2.175c11.074,0,22.127,0,33.251,0c0,0.709,0,1.412,0,2.175
			C97.828,137.091,86.773,137.091,75.622,137.091z"/>
		<path fill="#FFFFFF" d="M60.305,128.938c2.842-2.846,5.546-5.554,8.208-8.22c0.902,0.911,1.764,1.783,2.536,2.563
			c-3.542,3.542-7.173,7.173-10.849,10.849c-1.752-1.852-3.629-3.837-5.503-5.819c0.705-0.734,1.575-1.639,2.503-2.606
			C58.245,126.793,59.242,127.831,60.305,128.938z"/>
		<path fill="#FFFFFF" d="M124.816,93.163c0-4.058-2.334-7.035-6.304-8.05c-0.081-0.021-0.149-0.091-0.224-0.138
			c-12.763,0-63.814,0-76.576,0c-0.074,0.047-0.143,0.118-0.224,0.138c-3.97,1.014-6.304,3.992-6.304,8.05
			c0,16.357,0.067,32.715-0.049,49.072c-0.028,3.942,3.717,7.995,8.022,7.981c12.281-0.04,61.406-0.04,73.687,0
			c4.305,0.014,8.05-4.039,8.022-7.981C124.748,125.878,124.816,109.52,124.816,93.163z M119.152,143.424
			c-0.217,0.41-0.565,0.825-0.964,1.041c-0.336,0.182-0.824,0.103-1.245,0.103c-12.315,0.002-24.629,0.001-36.944,0.001
			s-24.629,0.001-36.944-0.001c-0.421,0-0.909,0.078-1.245-0.103c-0.399-0.216-0.747-0.631-0.964-1.041
			c-0.152-0.287-0.057-0.709-0.057-1.071c-0.001-16.515-0.001-33.029-0.001-49.544c0-0.272,0.004-0.543,0.011-0.815
			c0.024-0.879,0.504-1.319,1.355-1.381c0.331-0.024,0.664-0.016,0.996-0.016c12.283-0.001,24.565-0.001,36.848-0.001
			s24.565,0,36.848,0.001c0.332,0,0.665-0.008,0.996,0.016c0.851,0.062,1.331,0.502,1.355,1.381
			c0.007,0.272,0.011,0.543,0.011,0.815c0.001,16.515,0.001,33.029-0.001,49.544C119.209,142.714,119.304,143.137,119.152,143.424z"
			/>
	</g>
</g>
</svg>
