<?xml version="1.0" encoding="utf-8"?>
<!-- Generator: Adobe Illustrator 17.0.0, SVG Export Plug-In . SVG Version: 6.00 Build 0)  -->
<!DOCTYPE svg PUBLIC "-//W3C//DTD SVG 1.1//EN" "http://www.w3.org/Graphics/SVG/1.1/DTD/svg11.dtd">
<svg version="1.1" id="Camada_1" xmlns="http://www.w3.org/2000/svg" xmlns:xlink="http://www.w3.org/1999/xlink" x="0px" y="0px"
	 width="160px" height="160px" viewBox="0 37.5 160 160" enable-background="new 0 37.5 160 160" xml:space="preserve">
<g>
	<circle fill="#29ABE2" cx="80" cy="117.5" r="79"/>
	<g>
		<g>
			<path fill="#FFFFFF" d="M89.491,96.782c-5.291,0-9.596-4.305-9.596-9.596s4.305-9.595,9.596-9.595s9.595,4.304,9.595,9.595
				C99.086,92.477,94.782,96.782,89.491,96.782 M89.491,80.591c-3.637,0-6.596,2.958-6.596,6.595s2.959,6.596,6.596,6.596
				s6.595-2.959,6.595-6.596S93.128,80.591,89.491,80.591"/>
			<path fill="#FFFFFF" d="M68.667,92.191c-5.572,0-10.105-4.533-10.105-10.105s4.533-10.105,10.105-10.105
				s10.105,4.533,10.105,10.105S74.239,92.191,68.667,92.191 M68.667,74.981c-3.918,0-7.105,3.188-7.105,7.105
				c0,3.918,3.187,7.105,7.105,7.105c3.917,0,7.105-3.187,7.105-7.105C75.772,78.169,72.584,74.981,68.667,74.981"/>
			<path fill="#FFFFFF" d="M79.014,160.856c-0.829,0-1.5-0.671-1.5-1.5v-12.281c0-0.829,0.671-1.5,1.5-1.5s1.5,0.671,1.5,1.5v12.281
				C80.514,160.185,79.843,160.856,79.014,160.856"/>
			<path fill="#FFFFFF" d="M95.294,163.019H84.39c-0.663,0-1.248-0.435-1.437-1.071c-0.19-0.635,0.059-1.32,0.614-1.683
				c0.202-0.133,0.54-0.427,0.54-0.908l0.002-26.379c0-0.664,0.436-1.248,1.072-1.437c0.635-0.19,1.32,0.06,1.683,0.616
				c2.079,3.179,3.176,8.04,3.465,10.166c0.037,0.27,0.27,0.475,0.541,0.475c0.373-0.046,0.584-0.322,0.543-0.622
				c-0.074-0.547-1.888-13.435-8.803-14.357c-0.149,0.011-0.332-0.001-0.503-0.034h-6.176c-0.133,0.026-0.265,0.04-0.384,0.03
				c-7.014,0.926-8.828,13.814-8.902,14.362c-0.04,0.298,0.17,0.574,0.468,0.614c0.304,0.001,0.578-0.198,0.616-0.469
				c0.29-2.126,1.387-6.987,3.465-10.165c0.363-0.555,1.049-0.806,1.684-0.616c0.635,0.189,1.071,0.773,1.071,1.437v26.379
				c0,0.481,0.339,0.775,0.541,0.907c0.555,0.364,0.805,1.049,0.615,1.684c-0.19,0.635-0.774,1.071-1.437,1.071H62.764
				c-2.742,0-4.973-2.231-4.973-4.974v-30.048c-0.561,0.245-1.181,0.381-1.831,0.381c-2.53,0-4.588-2.058-4.588-4.587v-22.772
				c0-6.791,4.209-11.534,10.235-11.534l3.249-0.012c0.243-0.034,0.487-0.063,0.739-0.063h5.826c0.252,0,0.496,0.029,0.74,0.063
				l0.09,0.012h3.477c3.377,0,6.614,1.532,8.803,4.134l4.464,0.043l7.596-0.074c0.027-0.002,0.055,0,0.082,0.001
				c1.331,0.02,2.594,0.604,3.488,1.613c0.06,0.061,0.115,0.126,0.164,0.195c0.297,0.369,0.519,0.736,0.68,1.123l11.257,26.941
				c1.013,2.426-0.136,5.224-2.562,6.238c-0.586,0.245-1.204,0.369-1.837,0.369c-1.929,0-3.657-1.151-4.401-2.931l-1.544-3.698
				l3.755,13.065c0.13,0.453,0.039,0.94-0.244,1.317c-0.283,0.376-0.727,0.597-1.198,0.597h-5.4v19.832
				c0,1.676-0.865,3.193-2.257,4.052C96.31,162.731,95.836,163.019,95.294,163.019 M87.051,160.019h7.423
				c0.079-0.052,0.164-0.097,0.254-0.134c0.67-0.273,1.103-0.914,1.103-1.635v-21.332c0-0.828,0.672-1.5,1.5-1.5h4.908
				l-9.458-32.907c-0.138-0.48-0.028-0.997,0.292-1.379l0.269-0.321c0.337-0.401,0.857-0.601,1.376-0.519
				c0.517,0.079,0.956,0.422,1.158,0.905l10.355,24.784c0.365,0.876,1.43,1.32,2.313,0.95c0.899-0.376,1.325-1.414,0.949-2.313
				L98.237,97.675c-0.057-0.136-0.147-0.275-0.283-0.438c-0.005-0.007-0.011-0.013-0.016-0.02c-0.351-0.409-0.888-0.621-1.37-0.629
				l-7.573,0.074l-5.212-0.05c-0.472-0.005-0.915-0.232-1.194-0.612c-1.64-2.234-4.141-3.515-6.861-3.515h-3.575
				c-0.059,0-0.118-0.004-0.176-0.01l-0.227-0.03c-0.109-0.015-0.217-0.035-0.329-0.035h-5.826c-0.112,0-0.22,0.02-0.328,0.035
				l-0.227,0.03c-0.059,0.006-0.118,0.01-0.177,0.01h-3.256c-4.998,0-7.235,4.286-7.235,8.534v22.772
				c0,0.875,0.712,1.587,1.588,1.587c0.875,0,1.587-0.712,1.587-1.587v-22.772h0.244v-3.067h3v60.093
				c0,1.088,0.885,1.974,1.973,1.974h8.241c-0.037-0.218-0.056-0.439-0.056-0.662v-18.06c-0.108,0.531-0.191,1.016-0.248,1.431
				c-0.261,1.912-2.078,3.313-4.001,3.035c-1.925-0.261-3.288-2.049-3.029-3.986c0.323-2.394,2.193-13.557,9.232-16.371
				c-2.001-1.724-3.27-4.276-3.27-7.118c0-5.181,4.214-9.395,9.395-9.395s9.395,4.214,9.395,9.395c0,2.841-1.269,5.393-3.269,7.117
				c7.038,2.81,8.91,13.977,9.232,16.371c0.261,1.938-1.104,3.727-3.04,3.99c-1.917,0.27-3.728-1.13-3.989-3.037
				c-0.057-0.415-0.14-0.899-0.248-1.431l-0.002,18.059C87.107,159.581,87.088,159.802,87.051,160.019 M79.028,111.893
				c-3.526,0-6.395,2.869-6.395,6.395s2.869,6.395,6.395,6.395s6.395-2.869,6.395-6.395S82.554,111.893,79.028,111.893"/>
		</g>
	</g>
</g>
</svg>
