<?xml version="1.0" encoding="utf-8"?>
<!-- Generator: Adobe Illustrator 17.0.0, SVG Export Plug-In . SVG Version: 6.00 Build 0)  -->
<!DOCTYPE svg PUBLIC "-//W3C//DTD SVG 1.1//EN" "http://www.w3.org/Graphics/SVG/1.1/DTD/svg11.dtd">
<svg version="1.1" id="Layer_1" xmlns="http://www.w3.org/2000/svg" xmlns:xlink="http://www.w3.org/1999/xlink" x="0px" y="0px"
	 width="50px" height="310px" viewBox="-179.314 50.27 50 310" enable-background="new -179.314 50.27 50 310" xml:space="preserve"
	>
<g>
	<path fill="#00ADEE" d="M-133.165,66.838c0.167,2-0.013,3.901-0.737,5.324c-0.934,1.836-2.685,2.69-4.932,2.405
		c-2.32-0.294-3.741-0.216-4.475,0.246c-0.588,0.371-0.857,1.066-1.319,2.366c-0.358,1.007-0.804,2.261-1.626,3.659
		c-1.58,2.689-4.005,3.641-6.152,3.806c1.302,0.294,2.919,0.241,4.514-0.479c3.197-1.443,4.944,3.798,5.955,4.632
		c1.011,0.833,0.888-0.188,2.647,0.175c1.759,0.362-1.415,3.99-3.328,2.868c-1.913-1.121-2.605-3.238-4.28-2.984
		c-1.675,0.254-0.733,1.728-2.969,4.673c-2.237,2.945-11.496,4.183-14.672-3.694c-2.791-6.921,2.603-10.931,0.896-13.495
		c-0.628-0.943-3.423-3.025-3.092-6.183c0.372-3.548,2.99-8.989,9.876-8.153c6.885,0.836,7.735,6.015,6.87,9.305
		c-0.266,1.012-0.78,1.392-0.909,2.108c1.186,4.672-2.671,3.716-4.31,4.588c-1.724,0.917-0.442,1.817,1.283,2.11
		c1.724,0.292-0.4-0.901,1.261-1.807c1.353-0.738,2.356,2.307,1.966,3.791c0.953-0.395,1.888-1.107,2.611-2.338
		c0.719-1.224,1.11-2.325,1.456-3.295c0.956-2.689,1.776-5.024,6.01-5.056l0,0c0,0,2.284-0.068,3.004-1.63
		c0.533-1.155-0.185-6.617-2.248-10.358c-4.052-2.962-9.045-4.711-14.448-4.711c-13.531,0-24.5,10.969-24.5,24.5
		s10.969,24.5,24.5,24.5s24.5-10.969,24.5-24.5C-129.814,74.697-131.036,70.47-133.165,66.838z"/>
	<g>
		<path fill="#00ADEE" d="M-164.12,146.152c-0.109-2.769,0.694-4.986,2.478-7.645c0.496-0.739,1.011-1.479,1.503-2.217
			c-1.431-0.798-7.127-3.857-8.643-4.961c-1.747-1.275-3.424-2.368-3.824-3.679c-0.401-1.312,2.768-4.881,4.445-7.251
			c1.461-2.065,3.828-6.469,4.989-8.62c0.278-0.515,0.46-1.077,0.536-1.657c0.11-0.824,0.288-2.106,0.481-3.293
			c-0.57,0.192-1.134,0.397-1.684,0.63c-8.799,3.719-14.974,12.429-14.974,22.581c0,11.058,7.326,20.405,17.389,23.452
			c0.329,0.1,0.662,0.19,0.997,0.277C-161.26,151.407-164.027,148.502-164.12,146.152z"/>
		<path fill="#00ADEE" d="M-166.864,126.893c-0.062,0.092-0.007,0.219,0.103,0.236c0.46,0.077,1.58,0.378,3.189,1.577
			c1.881,1.402,4.408,3.336,5.373,4.261c0.355-0.781,0.611-1.548,0.708-2.294c0.328-2.478-0.291-4.955-0.873-6.667
			c-0.463-1.357-1.131-2.576-1.388-3.024c-0.051-0.09-0.175-0.104-0.246-0.028c-0.359,0.39-1.395,1.459-2.847,2.506
			C-164.553,124.69-166.134,125.825-166.864,126.893z"/>
		<path fill="#00ADEE" d="M-149.349,106.042c-1.417-0.292-2.878-0.462-4.373-0.497c-0.197-0.005-0.394-0.006-0.592-0.006
			c-0.014,0-0.028,0-0.043,0c0.484,1.253,1.177,2.428,2.077,3.35c0.984,1.007,3.191,2.802,4.633,3.39
			c2.103,0.855,5.042,2.417,4.917,5.105c-0.085,1.844-1.501,3-3.235,3.685c-0.116,0.045-0.133,0.203-0.029,0.272
			c1.44,0.947,9.032,6.326,9.032,12.695c0,3.255-1.268,7.225-4.705,9.662c-2.883,2.044-4.303,2.384-4.74,3.235
			c-0.316,0.613-0.635,4.037-0.838,6.567c10.082-3.034,17.43-12.388,17.43-23.461C-129.814,118.209-138.199,108.337-149.349,106.042
			z"/>
	</g>
	<path fill="#00ADEE" d="M-154.314,155.681c-13.531,0-24.5,10.93-24.5,24.412s10.969,24.412,24.5,24.412s24.5-10.93,24.5-24.412
		C-129.814,166.611-140.783,155.681-154.314,155.681z M-145.494,168.258c0.222-0.634,0.819-1.003,1.333-0.824
		s0.752,0.837,0.53,1.471c-0.222,0.634-0.819,1.003-1.333,0.824C-145.478,169.551-145.716,168.892-145.494,168.258z
		 M-148.079,167.462c0.073-0.667,0.571-1.161,1.113-1.103c0.542,0.058,0.922,0.647,0.85,1.315c-0.073,0.667-0.571,1.161-1.113,1.102
		C-147.772,168.718-148.152,168.129-148.079,167.462z M-150.059,166.127c0.613-0.089,1.201,0.45,1.311,1.206
		c0.111,0.756-0.296,1.44-0.909,1.53c-0.613,0.089-1.201-0.45-1.311-1.206C-151.079,166.902-150.672,166.216-150.059,166.127z
		 M-159.88,172.968c0.111-0.756,0.698-1.296,1.311-1.206c0.613,0.089,1.02,0.775,0.909,1.53c-0.111,0.756-0.698,1.296-1.311,1.206
		C-159.584,174.409-159.991,173.723-159.88,172.968z M-161.661,171.994c0.542-0.058,1.04,0.435,1.113,1.103
		c0.073,0.667-0.308,1.256-0.85,1.315c-0.542,0.058-1.04-0.435-1.113-1.102C-162.583,172.641-162.203,172.052-161.661,171.994z
		 M-164.467,173.068c0.514-0.179,1.112,0.19,1.333,0.824c0.222,0.634-0.016,1.293-0.53,1.471c-0.514,0.179-1.112-0.19-1.333-0.824
		C-165.219,173.906-164.982,173.246-164.467,173.068z M-166.768,176.235c-0.228-0.53-0.063-1.107,0.366-1.291
		c0.429-0.184,0.963,0.097,1.19,0.626c0.228,0.53,0.063,1.107-0.366,1.291S-166.54,176.764-166.768,176.235z M-157.281,187.556
		c1.16,1.843,1.849,5.744-1.523,6.466c-3.372,0.723-6.163-6.972-6.888-11.27s1.087-6.791,4.568-7.514
		c6.562-0.506,4.796,6.235,4.024,8.164C-157.461,184.305-158.441,185.713-157.281,187.556z M-153.91,175.295
		c-0.46,1.084-1.546,1.662-2.426,1.292c-0.88-0.37-1.221-1.55-0.761-2.634s1.546-1.662,2.426-1.292
		C-153.792,173.032-153.451,174.211-153.91,175.295z M-154.717,169.66c-0.46-1.084-0.119-2.263,0.761-2.634
		c0.88-0.371,1.966,0.208,2.426,1.292s0.119,2.263-0.761,2.634C-153.171,171.322-154.258,170.745-154.717,169.66z M-142.937,177.117
		c-0.725,4.298-3.516,11.993-6.888,11.27c-3.372-0.723-2.683-4.624-1.523-6.466c1.16-1.843,0.18-3.251-0.182-4.154
		c-0.772-1.928-2.538-8.669,4.024-8.164C-144.024,170.326-142.212,172.818-142.937,177.117z M-141.86,170.6
		c-0.228,0.53-0.76,0.81-1.19,0.626c-0.429-0.183-0.594-0.761-0.366-1.291s0.76-0.81,1.19-0.626
		C-141.796,169.493-141.632,170.071-141.86,170.6z"/>
	<g>
		<circle fill="#00ADEE" cx="-154.553" cy="235.097" r="4.704"/>
		<path fill="#00ADEE" d="M-154.314,206.123c-13.531,0-24.5,10.93-24.5,24.412s10.969,24.412,24.5,24.412s24.5-10.93,24.5-24.412
			C-129.814,217.052-140.783,206.123-154.314,206.123z M-145.802,232.56c0.561,1.231,0.874,2.599,0.874,4.039
			c0,5.388-4.375,9.757-9.769,9.757c-5.394,0-9.769-4.37-9.769-9.757c0-1.514,0.345-2.947,0.962-4.226
			c-1.254-0.484-2.138-1.656-2.138-3.025c0-1.801,1.529-3.261,3.416-3.261c0.099,0,0.197,0.004,0.293,0.012
			c-0.423-0.981-0.658-2.059-0.658-3.192c0-4.523,3.737-8.192,8.345-8.192c4.608,0,8.345,3.669,8.345,8.192
			c0,1.129-0.233,2.206-0.654,3.184c0.055-0.002,0.11-0.004,0.165-0.004c1.886,0,3.416,1.46,3.416,3.261
			C-142.974,230.956-144.195,232.293-145.802,232.56z"/>
		<path fill="#00ADEE" d="M-154.395,216.263c-0.651,2.313-2.973,3.594-5.489,2.908c-0.589,0.917-0.927,1.988-0.927,3.134
			c0,3.382,2.949,6.125,6.586,6.125c3.637,0,6.586-2.743,6.586-6.125c0-1.163-0.349-2.251-0.955-3.177
			C-151.653,219.877-153.722,218.655-154.395,216.263z M-157.773,221.348c0-0.618,0.5-1.118,1.117-1.118s1.117,0.5,1.117,1.118
			c0,0.617-0.5,1.116-1.117,1.116S-157.773,221.965-157.773,221.348z M-152.507,224.942c-0.373,0.245-0.741,0.416-1.105,0.51
			c0.04,0.087,0.061,0.184,0.061,0.285c0,0.387-0.314,0.7-0.701,0.7c-0.386,0-0.7-0.313-0.7-0.7c0-0.097,0.02-0.188,0.055-0.272
			c-0.372-0.092-0.736-0.269-1.09-0.53c-0.097-0.07-0.117-0.207-0.047-0.302c0.071-0.097,0.207-0.118,0.302-0.047
			c0.293,0.215,0.59,0.364,0.891,0.445c-0.071-0.11-0.112-0.24-0.112-0.379c0-0.387,0.313-0.7,0.7-0.7
			c0.387,0,0.701,0.313,0.701,0.7c0,0.132-0.036,0.256-0.1,0.361c0.297-0.086,0.599-0.23,0.906-0.433
			c0.099-0.066,0.233-0.037,0.299,0.062C-152.379,224.743-152.407,224.877-152.507,224.942z M-151.884,222.464
			c-0.617,0-1.117-0.499-1.117-1.116c0-0.618,0.5-1.118,1.117-1.118c0.618,0,1.118,0.5,1.118,1.118
			C-150.766,221.965-151.267,222.464-151.884,222.464z"/>
	</g>
	<g>
		<circle fill="#00ADEE" cx="-159.786" cy="279.804" r="1.163"/>
		<circle fill="#00ADEE" cx="-148.765" cy="279.804" r="1.163"/>
		<path fill="#00ADEE" d="M-157.578,272.599c0.298,0,0.591-0.068,0.87-0.202c0.659-0.317,1.293-0.628,1.796-1.061
			c0.264,0.098,0.546,0.159,0.845,0.159c0.313,0,0.61-0.064,0.886-0.172c0.505,0.44,1.146,0.754,1.812,1.074
			c0.279,0.134,0.571,0.202,0.87,0.202c1.569,0,2.741-1.847,2.741-3.498c0-1.657-1.167-3.509-2.729-3.509
			c-0.313,0-0.618,0.076-0.906,0.226l-0.197,0.102c-0.539,0.277-1.058,0.55-1.493,0.905c-0.301-0.133-0.632-0.21-0.981-0.21
			c-0.336,0-0.656,0.068-0.947,0.192c-0.43-0.346-0.941-0.614-1.471-0.886l-0.197-0.102c-0.289-0.15-0.594-0.226-0.907-0.226
			c-1.562,0-2.73,1.853-2.73,3.509C-160.32,270.752-159.148,272.598-157.578,272.599z M-151.799,268.172
			c0.279-0.202,0.65-0.395,1.056-0.604l0.202-0.104c0.015-0.008,0.037-0.017,0.053-0.017c0.244,0,0.874,0.786,0.874,1.654
			c0,0.848-0.609,1.642-0.886,1.642c-0.006,0-0.027,0-0.066-0.019c-0.559-0.269-0.979-0.478-1.268-0.693
			c0.132-0.3,0.207-0.629,0.207-0.976C-151.628,268.743-151.692,268.447-151.799,268.172z M-154.068,267.832
			c0.675,0,1.223,0.548,1.223,1.223c0,0.675-0.548,1.223-1.223,1.223c-0.675,0-1.223-0.548-1.223-1.223
			C-155.291,268.38-154.743,267.832-154.068,267.832z M-157.59,267.448c0.016,0,0.037,0.009,0.053,0.017l0.202,0.104
			c0.383,0.197,0.735,0.38,1.008,0.571c-0.115,0.283-0.182,0.591-0.182,0.915c0,0.36,0.083,0.698,0.223,1.006
			c-0.288,0.205-0.693,0.407-1.226,0.664c-0.039,0.019-0.059,0.019-0.066,0.019c-0.277,0-0.886-0.794-0.886-1.642
			C-158.465,268.234-157.835,267.448-157.59,267.448z"/>
		<path fill="#00ADEE" d="M-154.314,256.564c-13.531,0-24.5,10.93-24.5,24.412c0,13.482,10.969,24.412,24.5,24.412
			s24.5-10.93,24.5-24.412C-129.814,267.494-140.783,256.564-154.314,256.564z M-140.992,284.984
			c-1.607,6.041-7.148,10.386-13.322,10.386s-11.715-4.344-13.322-10.386c-1.852-0.013-3.354-1.523-3.354-3.377
			c0-1.85,1.495-3.357,3.341-3.377c0.93-3.607,3.32-6.526,6.487-8.262c-0.055-0.29-0.086-0.581-0.086-0.868
			c0-2.098,1.502-4.437,3.657-4.437c0.463,0,0.911,0.111,1.334,0.33l0.196,0.102c0.45,0.232,0.845,0.44,1.21,0.684
			c0.522-0.125,1.081-0.122,1.605,0.012c0.409-0.274,0.837-0.494,1.227-0.695l0.197-0.102c0.422-0.218,0.87-0.329,1.332-0.329
			c2.155,0,3.657,2.338,3.657,4.437c0,0.378-0.05,0.765-0.144,1.144c2.923,1.762,5.115,4.566,5.997,7.986
			c1.845,0.019,3.341,1.527,3.341,3.377C-137.638,283.461-139.141,284.971-140.992,284.984z"/>
		<path fill="#00ADEE" d="M-157.469,290.845c0.977,0.406,2.042,0.633,3.151,0.633c1.098,0,2.152-0.223,3.121-0.621
			c-0.99-0.855-2.023-1.28-3.113-1.263C-155.713,289.614-156.868,290.364-157.469,290.845z"/>
		<path fill="#00ADEE" d="M-146.823,284.747h-14.988c-0.143,0-0.279,0.066-0.367,0.179c-0.088,0.113-0.118,0.261-0.082,0.4
			c0.525,2.041,1.793,3.736,3.47,4.826c0.479-0.457,2.184-1.917,4.46-1.951c1.572-0.014,3.075,0.645,4.444,1.975
			c1.697-1.089,2.982-2.792,3.511-4.851c0.036-0.139,0.006-0.287-0.082-0.4C-146.545,284.814-146.68,284.747-146.823,284.747z"/>
	</g>
	<g>
		<path fill="#00ADEE" d="M-146.217,333.597l0.001-2.129c-2.005-0.258-3.457-1.327-4.845-2.489
			c-0.522,1.677-1.737,3.545-4.553,3.728c-0.081,0.005-0.158-0.037-0.197-0.109c-0.038-0.072-0.032-0.159,0.018-0.224
			c0.645-0.845,1.02-1.683,1.17-2.441c-1.672,1.537-4.191,2.156-7.315,1.533l-0.001,2.095c-0.173-0.079-0.331,0.024-0.476,0.024
			c-1.499-0.001-1.42,3.888,0.641,3.888c0.044,0,0.089-0.002,0.134-0.006c0.411,1.326,1.565,2.989,3.608,4.489
			c0.324,0.237,0.722,0.367,1.131,0.367l5.559,0.001c0.448,0,0.881-0.135,1.239-0.388c2.268-1.592,3.043-2.176,3.584-4.46h0.007
			c1.996,0,1.903-3.934,0.577-3.934C-146.023,333.541-146.117,333.559-146.217,333.597z M-157.767,335.501
			c-0.537,0-0.971-0.435-0.971-0.971c0-0.193,0.057-0.373,0.154-0.524c0.173-0.269,0.473-0.447,0.816-0.447
			c0.451,0,0.83,0.309,0.938,0.727c0.02,0.078,0.032,0.159,0.032,0.244C-156.796,335.067-157.231,335.501-157.767,335.501z
			 M-154.075,337.98c-0.533,0-0.966-0.366-0.971-0.818c0.267,0.18,0.603,0.289,0.971,0.289c0.368,0,0.704-0.108,0.971-0.288
			C-153.108,337.615-153.541,337.98-154.075,337.98z M-150.392,335.502c-0.536,0-0.971-0.435-0.97-0.971
			c0-0.097,0.014-0.19,0.04-0.278c0.12-0.4,0.49-0.692,0.93-0.692c0.321,0,0.605,0.156,0.78,0.396c0.119,0.161,0.19,0.36,0.19,0.575
			C-149.421,335.068-149.856,335.503-150.392,335.502z"/>
		<path fill="#00ADEE" d="M-154.314,307.005c-13.531,0-24.5,10.93-24.5,24.412c0,13.482,10.969,24.412,24.5,24.412
			s24.5-10.93,24.5-24.412C-129.814,317.935-140.783,307.005-154.314,307.005z M-141.807,329.332
			c-0.175,0.09-0.388,0.061-0.532-0.074c-0.181-0.17-0.384-0.35-0.606-0.528c-0.13,1.076-0.427,2.178-0.918,3.284
			c0.775,0.731,1.247,1.894,1.247,3.279c0,1.804-0.771,3.267-1.984,4.009c-0.796,2.302-1.757,2.936-4.014,4.522
			c-0.796,0.558-1.74,0.854-2.73,0.854l-5.559-0.001c-0.96,0-1.905-0.307-2.663-0.863c-1.984-1.456-3.016-2.588-3.811-4.335
			c-0.714-0.331-1.319-0.891-1.751-1.64c-0.845-1.463-0.898-3.43-0.146-4.833c-0.342-0.288-0.882-0.798-1.368-1.503
			c-0.062,0.235-0.115,0.481-0.154,0.741c-0.014,0.09-0.084,0.161-0.173,0.178c-0.089,0.017-0.18-0.025-0.226-0.104
			c-2.064-3.591-0.744-6.4,0.92-7.733c0.471-0.439,0.987-0.698,1.449-0.849c-0.352-0.258-0.829-0.459-1.476-0.508
			c-0.076-0.006-0.141-0.057-0.165-0.13c-0.024-0.073-0.001-0.153,0.058-0.203c0.414-0.352,1.192-0.827,2.136-0.522l-0.533-0.987
			c-0.026-0.048-0.03-0.105-0.01-0.157c0.019-0.051,0.061-0.092,0.112-0.11c0.288-0.104,0.883-0.18,1.672,0.434
			c0.325-0.882,0.903-1.921,1.93-2.816h-0.001c0,0,4.379-4.473,12.491-2.568c0.192,0.045,0.334,0.206,0.356,0.402
			c0.021,0.196-0.084,0.384-0.261,0.469c-0.294,0.141-0.618,0.312-0.943,0.514c0.712,0.312,1.39,0.702,2.022,1.159
			c1.707,1.136,5.033,4.079,5.876,10.141C-141.533,329.05-141.632,329.242-141.807,329.332z"/>
	</g>
</g>
</svg>
