<?xml version="1.0" encoding="utf-8"?>
<!-- Generator: Adobe Illustrator 17.0.0, SVG Export Plug-In . SVG Version: 6.00 Build 0)  -->
<!DOCTYPE svg PUBLIC "-//W3C//DTD SVG 1.1//EN" "http://www.w3.org/Graphics/SVG/1.1/DTD/svg11.dtd">
<svg version="1.1" id="Layer_1" xmlns="http://www.w3.org/2000/svg" xmlns:xlink="http://www.w3.org/1999/xlink" x="0px" y="0px"
	 width="40px" height="245.811px" viewBox="-158.885 40.273 40 245.811" enable-background="new -158.885 40.273 40 245.811"
	 xml:space="preserve">
<g>
	<path fill="#00ADEE" d="M-122.051,52.998c0.133,1.592-0.01,3.105-0.587,4.238c-0.743,1.461-2.137,2.141-3.926,1.914
		c-1.846-0.234-2.978-0.172-3.562,0.196c-0.468,0.295-0.682,0.849-1.05,1.883c-0.285,0.802-0.64,1.8-1.294,2.912
		c-1.258,2.14-3.188,2.898-4.896,3.029c1.036,0.234,2.323,0.192,3.593-0.381c2.544-1.148,3.935,3.023,4.74,3.687
		c0.805,0.663,0.707-0.15,2.107,0.139c1.4,0.288-1.126,3.176-2.649,2.283c-1.523-0.892-2.073-2.577-3.406-2.375
		c-1.333,0.202-0.583,1.375-2.363,3.719c-1.78,2.344-9.15,3.329-11.678-2.94c-2.221-5.508,2.072-8.7,0.713-10.741
		c-0.5-0.751-2.724-2.408-2.461-4.921c0.296-2.824,2.38-7.155,7.86-6.489c5.48,0.665,6.156,4.788,5.468,7.406
		c-0.212,0.806-0.621,1.108-0.724,1.678c0.944,3.718-2.126,2.958-3.43,3.652c-1.372,0.73-0.352,1.446,1.021,1.679
		c1.372,0.232-0.318-0.717,1.004-1.438c1.077-0.587,1.875,1.836,1.565,3.017c0.758-0.314,1.503-0.881,2.078-1.861
		c0.572-0.974,0.884-1.85,1.159-2.622c0.761-2.14,1.413-3.999,4.783-4.024l0,0c0,0,1.818-0.054,2.391-1.297
		c0.424-0.919-0.147-5.267-1.789-8.244c-3.225-2.357-7.199-3.75-11.499-3.75c-10.77,0-19.5,8.73-19.5,19.5s8.73,19.5,19.5,19.5
		s19.5-8.73,19.5-19.5C-119.385,59.253-120.357,55.888-122.051,52.998z"/>
	<g>
		<path fill="#00ADEE" d="M-146.69,116.125c-0.087-2.204,0.552-3.969,1.972-6.085c0.395-0.588,0.805-1.177,1.196-1.764
			c-1.139-0.635-5.673-3.07-6.879-3.949c-1.391-1.015-2.725-1.885-3.044-2.928c-0.319-1.044,2.204-3.885,3.538-5.771
			c1.163-1.644,3.047-5.149,3.971-6.861c0.221-0.41,0.366-0.857,0.427-1.319c0.088-0.656,0.229-1.676,0.383-2.621
			c-0.454,0.153-0.903,0.316-1.34,0.501c-7.003,2.96-11.918,9.893-11.918,17.973c0,8.801,5.831,16.241,13.84,18.666
			c0.262,0.08,0.527,0.151,0.794,0.22C-144.413,120.308-146.615,117.996-146.69,116.125z"/>
		<path fill="#00ADEE" d="M-148.873,100.797c-0.049,0.073-0.005,0.174,0.082,0.188c0.366,0.061,1.257,0.301,2.538,1.255
			c1.497,1.116,3.508,2.655,4.277,3.391c0.282-0.622,0.486-1.232,0.564-1.826c0.261-1.972-0.232-3.944-0.695-5.306
			c-0.368-1.08-0.9-2.05-1.105-2.407c-0.041-0.072-0.139-0.083-0.196-0.022c-0.286,0.31-1.11,1.161-2.266,1.995
			C-147.034,99.044-148.292,99.946-148.873,100.797z"/>
		<path fill="#00ADEE" d="M-134.933,84.201c-1.128-0.232-2.291-0.368-3.48-0.396c-0.157-0.004-0.314-0.005-0.471-0.005
			c-0.011,0-0.022,0-0.034,0c0.385,0.997,0.937,1.933,1.653,2.666c0.783,0.802,2.54,2.23,3.688,2.698
			c1.674,0.68,4.013,1.924,3.913,4.063c-0.068,1.468-1.195,2.388-2.575,2.933c-0.092,0.036-0.106,0.162-0.023,0.216
			c1.146,0.754,7.189,5.035,7.189,10.104c0,2.591-1.009,5.751-3.745,7.69c-2.295,1.627-3.425,1.898-3.773,2.575
			c-0.252,0.488-0.505,3.213-0.667,5.227c8.025-2.415,13.873-9.86,13.873-18.673C-119.385,93.885-126.058,86.028-134.933,84.201z"/>
	</g>
	<path fill="#00ADEE" d="M-138.885,123.71c-10.77,0-19.5,8.699-19.5,19.43s8.73,19.43,19.5,19.43s19.5-8.699,19.5-19.43
		S-128.115,123.71-138.885,123.71z M-131.865,133.72c0.177-0.505,0.652-0.798,1.061-0.656s0.599,0.666,0.422,1.171
		c-0.177,0.505-0.652,0.798-1.061,0.656C-131.852,134.749-132.041,134.224-131.865,133.72z M-133.922,133.086
		c0.058-0.531,0.454-0.924,0.886-0.878s0.734,0.515,0.676,1.047c-0.058,0.531-0.454,0.924-0.886,0.878
		C-133.677,134.086-133.98,133.617-133.922,133.086z M-135.498,132.024c0.488-0.071,0.956,0.358,1.044,0.96
		c0.088,0.602-0.236,1.146-0.724,1.218c-0.488,0.071-0.956-0.358-1.044-0.96C-136.31,132.64-135.986,132.095-135.498,132.024z
		 M-143.315,137.469c0.088-0.602,0.556-1.031,1.044-0.96c0.488,0.071,0.812,0.617,0.724,1.218c-0.088,0.602-0.556,1.031-1.044,0.96
		C-143.079,138.615-143.403,138.07-143.315,137.469z M-144.732,136.693c0.431-0.046,0.828,0.346,0.886,0.878
		c0.058,0.531-0.245,1-0.676,1.047c-0.431,0.046-0.828-0.346-0.886-0.877C-145.466,137.209-145.164,136.74-144.732,136.693z
		 M-146.966,137.548c0.41-0.142,0.885,0.151,1.061,0.656c0.177,0.505-0.013,1.029-0.422,1.171c-0.41,0.142-0.885-0.151-1.061-0.656
		C-147.564,138.215-147.376,137.69-146.966,137.548z M-148.797,140.069c-0.181-0.422-0.05-0.881,0.291-1.027
		c0.342-0.146,0.766,0.077,0.947,0.498c0.181,0.422,0.05,0.881-0.291,1.027C-148.192,140.713-148.616,140.49-148.797,140.069z
		 M-141.246,149.079c0.923,1.467,1.472,4.572-1.212,5.146c-2.684,0.575-4.905-5.549-5.482-8.97c-0.577-3.421,0.865-5.405,3.636-5.98
		c5.223-0.403,3.817,4.963,3.203,6.498C-141.389,146.492-142.169,147.613-141.246,149.079z M-138.563,139.321
		c-0.366,0.863-1.231,1.323-1.931,1.028c-0.7-0.295-0.972-1.234-0.606-2.097c0.366-0.863,1.231-1.323,1.931-1.028
		C-138.469,137.519-138.197,138.458-138.563,139.321z M-139.206,134.836c-0.366-0.863-0.095-1.801,0.606-2.097
		c0.7-0.295,1.565,0.165,1.931,1.028c0.366,0.863,0.095,1.801-0.606,2.097C-137.975,136.159-138.84,135.699-139.206,134.836z
		 M-129.829,140.771c-0.577,3.421-2.799,9.545-5.482,8.97s-2.135-3.68-1.212-5.146c0.923-1.467,0.143-2.587-0.145-3.306
		c-0.614-1.535-2.02-6.9,3.203-6.497C-130.695,135.366-129.252,137.35-129.829,140.771z M-128.972,135.584
		c-0.181,0.422-0.605,0.645-0.947,0.498c-0.342-0.146-0.473-0.606-0.291-1.027c0.181-0.422,0.605-0.645,0.947-0.498
		C-128.921,134.703-128.791,135.163-128.972,135.584z"/>
	<g>
		<circle fill="#00ADEE" cx="-139.075" cy="186.918" r="3.744"/>
		<path fill="#00ADEE" d="M-138.885,163.857c-10.77,0-19.5,8.699-19.5,19.43s8.73,19.43,19.5,19.43s19.5-8.699,19.5-19.43
			C-119.385,172.556-128.115,163.857-138.885,163.857z M-132.109,184.899c0.447,0.98,0.696,2.069,0.696,3.215
			c0,4.288-3.482,7.766-7.775,7.766c-4.293,0-7.775-3.478-7.775-7.766c0-1.205,0.275-2.346,0.766-3.363
			c-0.998-0.385-1.702-1.318-1.702-2.408c0-1.433,1.217-2.596,2.719-2.596c0.079,0,0.157,0.003,0.233,0.01
			c-0.337-0.781-0.524-1.639-0.524-2.541c0-3.6,2.974-6.52,6.642-6.52s6.642,2.92,6.642,6.52c0,0.899-0.186,1.756-0.521,2.534
			c0.044-0.002,0.087-0.003,0.131-0.003c1.501,0,2.719,1.162,2.719,2.596C-129.859,183.623-130.831,184.686-132.109,184.899z"/>
		<path fill="#00ADEE" d="M-138.949,171.928c-0.518,1.841-2.366,2.861-4.369,2.315c-0.469,0.73-0.738,1.582-0.738,2.494
			c0,2.692,2.347,4.875,5.242,4.875c2.895,0,5.242-2.183,5.242-4.875c0-0.926-0.278-1.792-0.76-2.529
			C-136.766,174.805-138.413,173.832-138.949,171.928z M-141.638,175.975c0-0.492,0.398-0.89,0.889-0.89
			c0.491,0,0.889,0.398,0.889,0.89c0,0.491-0.398,0.888-0.889,0.888C-141.24,176.863-141.638,176.466-141.638,175.975z
			 M-137.446,178.836c-0.297,0.195-0.59,0.331-0.879,0.406c0.032,0.069,0.049,0.146,0.049,0.227c0,0.308-0.25,0.557-0.558,0.557
			c-0.307,0-0.557-0.249-0.557-0.557c0-0.077,0.016-0.15,0.044-0.216c-0.296-0.073-0.586-0.214-0.867-0.422
			c-0.077-0.056-0.093-0.165-0.037-0.24c0.056-0.077,0.165-0.094,0.24-0.037c0.233,0.171,0.47,0.29,0.709,0.354
			c-0.057-0.087-0.089-0.191-0.089-0.302c0-0.308,0.249-0.557,0.557-0.557c0.308,0,0.558,0.249,0.558,0.557
			c0,0.105-0.029,0.204-0.08,0.287c0.236-0.068,0.477-0.183,0.722-0.345c0.079-0.052,0.186-0.03,0.238,0.049
			C-137.345,178.677-137.367,178.784-137.446,178.836z M-136.951,176.863c-0.491,0-0.889-0.397-0.889-0.888
			c0-0.492,0.398-0.89,0.889-0.89c0.492,0,0.89,0.398,0.89,0.89C-136.061,176.466-136.459,176.863-136.951,176.863z"/>
	</g>
	<g>
		<circle fill="#00ADEE" cx="-143.24" cy="222.502" r="0.926"/>
		<circle fill="#00ADEE" cx="-134.468" cy="222.502" r="0.926"/>
		<path fill="#00ADEE" d="M-141.483,216.767c0.237,0,0.47-0.054,0.692-0.161c0.525-0.252,1.029-0.5,1.43-0.844
			c0.21,0.078,0.435,0.127,0.672,0.127c0.249,0,0.486-0.051,0.705-0.137c0.402,0.35,0.912,0.6,1.442,0.855
			c0.222,0.107,0.455,0.161,0.692,0.161c1.249,0,2.182-1.47,2.182-2.784c0-1.319-0.929-2.793-2.172-2.793
			c-0.249,0-0.492,0.061-0.721,0.18l-0.157,0.081c-0.429,0.221-0.842,0.438-1.188,0.72c-0.24-0.106-0.503-0.167-0.781-0.167
			c-0.267,0-0.522,0.054-0.754,0.153c-0.342-0.275-0.749-0.489-1.171-0.705l-0.157-0.081c-0.23-0.119-0.473-0.18-0.722-0.18
			c-1.243,0-2.173,1.475-2.173,2.793C-143.665,215.297-142.732,216.766-141.483,216.767z M-136.883,213.244
			c0.222-0.161,0.517-0.314,0.84-0.481l0.161-0.083c0.012-0.006,0.029-0.014,0.042-0.014c0.194,0,0.696,0.626,0.696,1.316
			c0,0.675-0.485,1.307-0.705,1.307c-0.005,0-0.022,0-0.053-0.015c-0.445-0.214-0.779-0.38-1.009-0.552
			c0.105-0.239,0.165-0.501,0.165-0.777C-136.746,213.698-136.798,213.462-136.883,213.244z M-138.689,212.973
			c0.537,0,0.973,0.436,0.973,0.973c0,0.537-0.436,0.973-0.973,0.973s-0.973-0.436-0.973-0.973S-139.226,212.973-138.689,212.973z
			 M-141.492,212.667c0.013,0,0.03,0.007,0.042,0.014l0.161,0.083c0.305,0.157,0.585,0.303,0.802,0.454
			c-0.092,0.225-0.145,0.47-0.145,0.728c0,0.286,0.066,0.556,0.178,0.801c-0.229,0.163-0.552,0.324-0.976,0.528
			c-0.031,0.015-0.047,0.015-0.053,0.015c-0.22,0-0.705-0.632-0.705-1.307C-142.188,213.292-141.687,212.667-141.492,212.667z"/>
		<path fill="#00ADEE" d="M-138.885,204.004c-10.77,0-19.5,8.699-19.5,19.43s8.73,19.43,19.5,19.43s19.5-8.699,19.5-19.43
			S-128.115,204.004-138.885,204.004z M-128.281,226.624c-1.279,4.808-5.689,8.266-10.603,8.266s-9.324-3.458-10.603-8.266
			c-1.474-0.01-2.669-1.212-2.669-2.688c0-1.472,1.19-2.672,2.659-2.688c0.74-2.871,2.642-5.194,5.163-6.576
			c-0.044-0.231-0.068-0.462-0.068-0.691c0-1.67,1.195-3.531,2.911-3.531c0.368,0,0.725,0.088,1.062,0.263l0.156,0.081
			c0.358,0.185,0.672,0.35,0.963,0.544c0.416-0.1,0.86-0.098,1.278,0.009c0.326-0.218,0.666-0.393,0.977-0.553l0.157-0.081
			c0.336-0.174,0.692-0.262,1.06-0.262c1.715,0,2.911,1.861,2.911,3.531c0,0.301-0.04,0.609-0.115,0.91
			c2.327,1.402,4.071,3.634,4.773,6.356c1.469,0.015,2.659,1.215,2.659,2.688C-125.612,225.412-126.808,226.614-128.281,226.624z"/>
		<path fill="#00ADEE" d="M-141.395,231.289c0.778,0.323,1.625,0.504,2.508,0.504c0.874,0,1.713-0.177,2.484-0.494
			c-0.788-0.68-1.61-1.019-2.478-1.005C-139.998,230.31-140.918,230.906-141.395,231.289z"/>
		<path fill="#00ADEE" d="M-132.923,226.436h-11.929c-0.114,0-0.222,0.053-0.292,0.143s-0.094,0.208-0.065,0.318
			c0.418,1.625,1.427,2.973,2.762,3.841c0.381-0.364,1.738-1.526,3.55-1.553c1.251-0.011,2.448,0.513,3.537,1.572
			c1.351-0.867,2.373-2.222,2.795-3.861c0.029-0.111,0.005-0.228-0.065-0.318C-132.701,226.489-132.809,226.436-132.923,226.436z"/>
	</g>
	<g>
		<path fill="#00ADEE" d="M-132.44,265.316l0.001-1.695c-1.596-0.205-2.752-1.056-3.856-1.981c-0.416,1.335-1.383,2.821-3.624,2.967
			c-0.065,0.004-0.126-0.03-0.157-0.087c-0.03-0.057-0.025-0.127,0.014-0.178c0.513-0.672,0.812-1.34,0.931-1.943
			c-1.331,1.223-3.336,1.716-5.822,1.22l-0.001,1.667c-0.138-0.063-0.264,0.02-0.379,0.019c-1.193-0.001-1.13,3.095,0.51,3.095
			c0.035,0,0.071-0.002,0.107-0.005c0.327,1.055,1.246,2.379,2.872,3.573c0.258,0.189,0.575,0.292,0.9,0.292l4.424,0.001
			c0.357,0,0.701-0.108,0.986-0.309c1.805-1.268,2.422-1.732,2.853-3.55h0.006c1.589,0,1.515-3.131,0.459-3.131
			C-132.286,265.272-132.361,265.286-132.44,265.316z M-141.633,266.832c-0.427,0-0.773-0.346-0.773-0.773
			c0-0.154,0.045-0.297,0.123-0.417c0.138-0.214,0.377-0.356,0.65-0.356c0.359,0,0.661,0.246,0.747,0.579
			c0.016,0.062,0.025,0.127,0.025,0.194C-140.86,266.486-141.206,266.832-141.633,266.832z M-138.695,268.805
			c-0.424,0-0.769-0.291-0.773-0.651c0.212,0.143,0.48,0.23,0.773,0.23c0.293,0,0.56-0.086,0.773-0.229
			C-137.925,268.514-138.27,268.805-138.695,268.805z M-135.763,266.832c-0.427,0-0.773-0.346-0.772-0.773
			c0-0.077,0.011-0.151,0.032-0.221c0.095-0.318,0.39-0.551,0.74-0.551c0.255,0,0.481,0.124,0.621,0.315
			c0.095,0.128,0.151,0.286,0.151,0.458C-134.99,266.487-135.336,266.833-135.763,266.832z"/>
		<path fill="#00ADEE" d="M-138.885,244.151c-10.77,0-19.5,8.699-19.5,19.43c0,10.731,8.73,19.43,19.5,19.43s19.5-8.699,19.5-19.43
			C-119.385,252.85-128.115,244.151-138.885,244.151z M-128.93,261.921c-0.139,0.072-0.309,0.048-0.423-0.059
			c-0.144-0.135-0.306-0.279-0.482-0.42c-0.103,0.856-0.34,1.733-0.731,2.614c0.617,0.582,0.993,1.508,0.992,2.61
			c0,1.436-0.614,2.6-1.579,3.191c-0.634,1.832-1.398,2.337-3.195,3.599c-0.633,0.444-1.384,0.68-2.173,0.68l-4.424-0.001
			c-0.764,0-1.516-0.244-2.12-0.687c-1.579-1.159-2.4-2.06-3.033-3.45c-0.568-0.264-1.05-0.709-1.394-1.305
			c-0.672-1.164-0.715-2.73-0.116-3.847c-0.272-0.229-0.702-0.635-1.089-1.196c-0.049,0.187-0.091,0.383-0.123,0.59
			c-0.011,0.072-0.067,0.128-0.138,0.142c-0.071,0.013-0.143-0.02-0.18-0.083c-1.643-2.858-0.592-5.094,0.732-6.155
			c0.375-0.349,0.786-0.555,1.153-0.676c-0.28-0.205-0.66-0.365-1.175-0.404c-0.061-0.005-0.112-0.045-0.131-0.103
			c-0.019-0.058-0.001-0.122,0.046-0.161c0.33-0.28,0.949-0.658,1.7-0.415l-0.424-0.786c-0.021-0.038-0.024-0.084-0.008-0.125
			c0.015-0.041,0.048-0.073,0.089-0.088c0.229-0.083,0.703-0.143,1.331,0.345c0.259-0.702,0.719-1.529,1.536-2.241h-0.001
			c0,0,3.485-3.56,9.942-2.044c0.153,0.036,0.266,0.164,0.283,0.32c0.017,0.156-0.067,0.306-0.208,0.373
			c-0.234,0.112-0.492,0.248-0.751,0.41c0.567,0.248,1.106,0.559,1.609,0.922c1.359,0.904,4.006,3.246,4.677,8.071
			C-128.712,261.697-128.79,261.85-128.93,261.921z"/>
	</g>
</g>
</svg>
